<svg id="Capa_1" enable-background="new 0 0 512.715 512.715" height="512" viewBox="0 0 512.715 512.715" width="512" xmlns="http://www.w3.org/2000/svg"><g><g><g><path d="m432.793 312.922-8.203 96.956h-79.192l-8.204-96.972" fill="#d9dedc"/></g></g><g><g><path d="m433.365 471.472-8.775-61.594h-79.192l-8.779 61.62" fill="#d9dedc"/></g></g><g><g><path d="m401.504 312.917v.005h1.289l-8.203 96.956h30l8.203-96.956z" fill="#ccd1cf"/></g></g><g><g><path d="m399.72 471.473v.008l33.645-.009-8.775-61.594h-30l8.775 61.594z" fill="#ccd1cf"/></g></g><g><g><path d="m234.044 98.261h-90.762v-69.618c0-11.677 9.466-21.143 21.143-21.143h48.476c11.677 0 21.143 9.466 21.143 21.143z" fill="#d9dedc"/></g></g><g><g><path d="m212.901 7.5h-30c11.677 0 21.143 9.466 21.143 21.143v69.619h30v-69.619c0-11.677-9.466-21.143-21.143-21.143z" fill="#ccd1cf"/></g></g><g><g><path d="m286.951 218.753h-199.727v-68.317c0-44.197 35.829-80.026 80.026-80.026h39.676c44.197 0 80.026 35.829 80.026 80.026v68.317z" fill="#d9dedc"/></g></g><g><g><path d="m206.926 70.411h-30c44.197 0 80.026 35.829 80.026 80.025v68.317h30v-68.317c-.001-44.196-35.829-80.025-80.026-80.025z" fill="#ccd1cf"/></g></g><g><g><path d="m87.224 218.965h199.727l-11.427 246.513c0 18.991-15.395 34.385-34.385 34.385h-108.102c-18.991 0-34.385-15.395-34.385-34.385z" fill="#d9dedc"/></g></g><g><g><path d="m256.951 218.965-11.427 246.513c0 18.99-15.395 34.385-34.385 34.385h30c18.991 0 34.385-15.395 34.385-34.385l11.427-246.513z" fill="#ccd1cf"/></g></g><g><g><path d="m302.498 235.36h-223.799c-9.193 0-16.646-7.453-16.646-16.646 0-9.193 7.453-16.646 16.646-16.646h223.799c9.193 0 16.646 7.453 16.646 16.646 0 9.194-7.453 16.646-16.646 16.646z" fill="#3a363d"/></g></g><g><g><path d="m433.761 313.004h-97.718c-9.334 0-16.9-7.566-16.9-16.9 0-9.334 7.566-16.9 16.9-16.9h97.718c9.334 0 16.9 7.566 16.9 16.9 0 9.333-7.566 16.9-16.9 16.9z" fill="#3a363d"/></g></g><g><g><path d="m433.761 505.216h-97.718c-9.334 0-16.9-7.566-16.9-16.9 0-9.334 7.566-16.9 16.9-16.9h97.718c9.334 0 16.9 7.566 16.9 16.9 0 9.333-7.566 16.9-16.9 16.9z" fill="#3a363d"/></g></g><g><path d="m326.644 218.714c0-13.314-10.832-24.146-24.146-24.146h-8.047v-44.132c0-35.972-21.815-66.939-52.908-80.382v-41.411c.001-15.794-12.848-28.643-28.642-28.643h-48.476c-15.794 0-28.643 12.849-28.643 28.643v40.123c-32.76 12.666-56.058 44.497-56.058 81.671v44.132h-1.025c-13.314 0-24.146 10.832-24.146 24.146s10.832 24.146 24.146 24.146h2.124l10.328 222.8c.098 23.012 18.85 41.703 41.885 41.703h108.102c23.035 0 41.787-18.691 41.885-41.703l10.328-222.8h9.146c13.315-.001 24.147-10.833 24.147-24.147zm-175.862-190.071c0-7.522 6.12-13.643 13.643-13.643h48.476c7.523 0 13.643 6.12 13.643 13.643v36.486c-6.309-1.45-12.875-2.218-19.618-2.218h-39.676c-5.628 0-11.132.541-16.468 1.561zm-81.229 190.071c0-5.043 4.103-9.146 9.146-9.146h68.471c4.142 0 7.5-3.358 7.5-7.5s-3.358-7.5-7.5-7.5h-52.446v-44.132c0-39.991 32.535-72.525 72.525-72.525h39.676c39.991 0 72.525 32.535 72.525 72.525v44.132h-102.279c-4.142 0-7.5 3.358-7.5 7.5s3.358 7.5 7.5 7.5h125.328c5.043 0 9.146 4.103 9.146 9.146s-4.103 9.146-9.146 9.146h-15.676c-.094-.008-.186-.023-.282-.027-.338-.016-.67-.001-.998.027h-206.844c-5.043 0-9.146-4.103-9.146-9.146zm198.479 246.417c-.005.116-.008.231-.008.347 0 14.825-12.061 26.885-26.886 26.885h-108.101c-14.825 0-26.885-12.061-26.885-26.885 0-.116-.003-.231-.008-.347l-10.304-222.271h182.495z"/><path d="m439.979 464.721-7.844-55.058 7.606-89.903c10.572-2.674 18.42-12.265 18.42-23.656 0-13.454-10.946-24.4-24.4-24.4h-97.718c-13.454 0-24.4 10.946-24.4 24.4 0 11.458 7.941 21.091 18.607 23.699l7.603 89.86-7.837 55.007c-10.549 2.69-18.373 12.271-18.373 23.645 0 13.454 10.946 24.399 24.4 24.399h97.718c13.454 0 24.4-10.945 24.4-24.399 0-11.305-7.73-20.837-18.182-23.594zm-87.156-53.785c.003-.021.003-.041.006-.062.02-.15.031-.303.042-.455.008-.109.019-.218.022-.326.003-.11-.001-.223-.003-.334-.002-.15-.004-.3-.015-.449-.002-.021 0-.043-.002-.064l-7.508-88.742h79.262l-6.927 81.875h-39.463c-4.142 0-7.5 3.358-7.5 7.5s3.358 7.5 7.5 7.5h39.848l6.63 46.538h-79.438zm-26.179-114.832c0-5.183 4.217-9.4 9.4-9.4h97.718c5.183 0 9.4 4.217 9.4 9.4 0 5.167-4.191 9.371-9.351 9.397-.128-.018-.254-.041-.385-.052-.586-.051-1.16-.025-1.717.055h-93.332c-.588-.093-1.195-.125-1.815-.07-.176.015-.346.044-.518.07-5.184-.001-9.4-4.217-9.4-9.4zm107.117 201.611h-97.718c-5.183 0-9.4-4.217-9.4-9.4 0-5.069 4.036-9.203 9.062-9.383.31.038.618.066.923.066.359 0 .711-.033 1.059-.083h94.794c.288.034.579.058.874.058.211 0 .426-.027.64-.046 5.074.126 9.165 4.284 9.165 9.388.001 5.184-4.215 9.4-9.399 9.4z"/></g></g></svg>