<svg id="Capa_1" enable-background="new 0 0 510.347 510.347" height="512" viewBox="0 0 510.347 510.347" width="512" xmlns="http://www.w3.org/2000/svg"><g><g><g><path d="m220.296 275.841h-66.12v-187.93c0-18.258 33.06-53.053 33.06-53.053s33.06 34.794 33.06 53.053z" fill="#8bc727"/></g></g><g><g><path d="m273.976 248.482h-66.12v-187.929c0-18.258 33.06-53.053 33.06-53.053s33.06 34.794 33.06 53.053z" fill="#78a91f"/></g></g><g><g><circle cx="324.007" cy="107.569" fill="#f4d902" r="68.696"/></g></g><g><g><path d="m324.007 38.873c-5.155 0-10.17.586-15 1.662 30.722 6.846 53.695 34.248 53.695 67.033s-22.973 60.188-53.695 67.033c4.83 1.076 9.845 1.662 15 1.662 37.939 0 68.695-30.756 68.695-68.696.001-37.938-30.755-68.694-68.695-68.694z" fill="#e3ca00"/></g></g><g><g><circle cx="324.007" cy="107.569" fill="#fef056" r="43.091"/></g></g><g><g><path d="m324.007 64.478c-5.276 0-10.328.952-15 2.687 16.402 6.092 28.091 21.881 28.091 40.403 0 18.523-11.689 34.312-28.091 40.404 4.672 1.735 9.724 2.687 15 2.687 23.798 0 43.091-19.292 43.091-43.091 0-23.798-19.293-43.09-43.091-43.09z" fill="#f4d902"/></g></g><g><g><path d="m266.367 502.847h-82.157c-18.796 0-34.033-15.237-34.033-34.033v-74.47h150.223v74.47c0 18.796-15.237 34.033-34.033 34.033z" fill="#f7f9f5"/></g></g><g><g><path d="m270.4 394.344v74.47c0 18.796-15.237 34.033-34.033 34.033h30c18.796 0 34.033-15.237 34.033-34.033v-74.47z" fill="#eceae6"/></g></g><g><g><path d="m225.288 460.901c50.78 0 92.619-39.86 95.078-90.58l12.548-253.574c.42-9.069-6.819-16.651-15.897-16.651h-183.458c-9.078 0-16.318 7.582-15.897 16.651l12.548 253.574c2.459 50.72 44.298 90.58 95.078 90.58z" fill="#f7f9f5"/></g></g><g><g><path d="m317.017 100.096h-30c9.078 0 16.318 7.583 15.897 16.651l-12.548 253.574c-2.212 45.625-36.292 82.456-80.078 89.396 4.89.775 9.899 1.184 15 1.184 50.78 0 92.619-39.86 95.078-90.58l12.548-253.574c.421-9.069-6.818-16.651-15.897-16.651z" fill="#eceae6"/></g></g><g><g><path d="m119.592 154.683 10.618 215.638c2.459 50.721 44.298 90.581 95.078 90.581 50.78 0 92.619-39.86 95.078-90.581l10.618-215.638z" fill="#fd6930"/></g></g><g><g><path d="m300.984 154.683-10.618 215.638c-2.212 45.625-36.292 82.456-80.078 89.397 4.89.775 9.899 1.184 15 1.184 50.78 0 92.619-39.86 95.078-90.58l10.618-215.638h-30z" fill="#fd5426"/></g></g><g><g><path d="m128.693 339.512 1.517 30.809c2.459 50.721 44.298 90.58 95.078 90.58 50.78 0 92.619-39.86 95.078-90.58l1.517-30.809z" fill="#fe7d43"/></g></g><g><g><path d="m291.883 339.512-1.517 30.809c-2.212 45.625-36.292 82.456-80.078 89.396 4.89.775 9.899 1.184 15 1.184 50.78 0 92.619-39.86 95.078-90.58l1.517-30.809z" fill="#fd6930"/></g></g><g><g><circle cx="220.296" cy="191.854" fill="#ef4424" r="9.325"/></g></g><g><g><circle cx="176.312" cy="307.677" fill="#ef4424" r="9.325"/></g></g><g><g><circle cx="266.411" cy="369.424" fill="#ef4424" r="12.852"/></g></g><g><g><circle cx="280.916" cy="220.499" fill="#ef4424" r="11.904"/></g></g><g><g><path d="m279.022 309.261-21.646 4.537c-6.25 1.31-12.378-2.695-13.688-8.944l-4.537-21.646c-1.31-6.25 2.695-12.378 8.944-13.688l21.646-4.537c6.25-1.31 12.378 2.695 13.688 8.944l4.537 21.646c1.31 6.25-2.694 12.378-8.944 13.688z" fill="#fead8a"/></g></g><g><path d="m279.022 309.261-21.646 4.537c-6.25 1.31-12.378-2.695-13.688-8.944l-4.537-21.646c-1.31-6.25 2.695-12.378 8.944-13.688l21.646-4.537c6.25-1.31 12.378 2.695 13.688 8.944l4.537 21.646c1.31 6.25-2.694 12.378-8.944 13.688z" fill="#fd5426"/></g><g><g><path d="m206 247.818-14.014 17.11c-4.046 4.94-11.331 5.665-16.271 1.619l-17.11-14.014c-4.94-4.046-5.665-11.331-1.619-16.271l14.014-17.11c4.046-4.94 11.331-5.665 16.271-1.619l17.11 14.014c4.94 4.046 5.665 11.331 1.619 16.271z" fill="#fead8a"/></g></g><g><path d="m206 247.818-14.014 17.11c-4.046 4.94-11.331 5.665-16.271 1.619l-17.11-14.014c-4.94-4.046-5.665-11.331-1.619-16.271l14.014-17.11c4.046-4.94 11.331-5.665 16.271-1.619l17.11 14.014c4.94 4.046 5.665 11.331 1.619 16.271z" fill="#fd5426"/></g><g><g><path d="m187.985 407.97-4.537-21.646c-1.31-6.25 2.695-12.378 8.944-13.688l21.646-4.537c6.25-1.31 12.378 2.695 13.688 8.944l4.537 21.646c1.31 6.25-2.695 12.378-8.944 13.688l-21.646 4.537c-6.25 1.31-12.378-2.694-13.688-8.944z" fill="#fd5426"/></g></g><g><path d="m290.77 272.388c-2.156-10.288-12.281-16.904-22.567-14.746l-21.646 4.537c-4.983 1.044-9.262 3.967-12.047 8.229s-3.744 9.354-2.699 14.337l4.537 21.646c1.044 4.984 3.967 9.262 8.229 12.047 3.138 2.051 6.726 3.111 10.389 3.111 1.313 0 2.634-.136 3.949-.412l21.646-4.537c10.287-2.156 16.902-12.279 14.747-22.567zm-13.287 29.533-21.646 4.537c-1.063.222-2.147.018-3.056-.575-.908-.593-1.531-1.505-1.753-2.567l-4.537-21.646c-.459-2.192.95-4.35 3.143-4.809l21.646-4.537c.28-.059.562-.087.842-.087.78 0 1.545.226 2.213.663.908.594 1.531 1.505 1.754 2.567l4.537 21.646c.459 2.191-.951 4.349-3.143 4.808z"/><path d="m184.929 276.571c5.067-.504 9.634-2.951 12.86-6.891l14.014-17.11c6.66-8.131 5.462-20.165-2.669-26.825l-17.11-14.014c-8.131-6.66-20.166-5.462-26.825 2.669l-14.014 17.11c-3.226 3.939-4.725 8.898-4.221 13.965s2.951 9.634 6.891 12.86l17.11 14.014c3.439 2.817 7.656 4.317 12.043 4.317.636 0 1.278-.031 1.921-.095zm-4.462-15.826-17.11-14.014c-.839-.687-1.361-1.66-1.468-2.74s.212-2.137.899-2.976l14.014-17.11c.802-.979 1.97-1.487 3.146-1.487.906 0 1.816.3 2.57.917l17.11 14.014c1.733 1.419 1.988 3.984.569 5.717l-14.014 17.11c-.687.839-1.66 1.361-2.74 1.468-1.075.107-2.136-.212-2.976-.899z"/><path d="m235.067 375.505c-2.157-10.287-12.275-16.904-22.567-14.746l-21.646 4.537c-4.983 1.044-9.262 3.967-12.047 8.229-2.785 4.263-3.744 9.354-2.699 14.338l4.537 21.646c1.044 4.983 3.967 9.262 8.229 12.047 3.138 2.051 6.726 3.111 10.389 3.111 1.313 0 2.634-.136 3.949-.412l21.646-4.537c10.287-2.156 16.902-12.28 14.746-22.567zm-13.286 29.532-21.646 4.537c-2.191.462-4.35-.95-4.809-3.142l-4.537-21.646c-.223-1.062-.018-2.147.575-3.055.594-.909 1.505-1.531 2.567-1.754l21.646-4.537c.28-.059.559-.087.834-.087 1.881 0 3.574 1.317 3.975 3.229l4.537 21.646c.46 2.192-.95 4.35-3.142 4.809z"/><path d="m381.975 58.115c-2.689-3.15-7.424-3.523-10.574-.833s-3.523 7.424-.833 10.574c9.438 11.052 14.635 25.156 14.635 39.713 0 14.642-5.251 28.808-14.787 39.89-8.505 9.885-19.922 16.77-32.487 19.7l.569-11.499c.004 0 .007.001.011.001.837 0 1.69-.142 2.523-.439 20.077-7.173 33.565-26.323 33.565-47.652 0-27.896-22.695-50.591-50.591-50.591-22.305 0-41.819 14.522-48.33 35.618h-11.009c2.529-10.083 7.511-19.082 14.238-26.401.359-.314.688-.661.981-1.038 11.227-11.656 26.967-18.784 44.12-18.784 8.265 0 16.278 1.617 23.818 4.806 3.814 1.615 8.215-.171 9.829-3.986 1.613-3.815-.171-8.216-3.986-9.829-9.398-3.975-19.378-5.991-29.661-5.991-17.072 0-33.022 5.67-45.877 15.359-7.843-18.557-27.133-39.512-31.776-44.398-1.416-1.491-3.381-2.335-5.437-2.335s-4.021.844-5.437 2.334c-.35.368-8.658 9.139-17.085 20.335-5.982 7.947-10.441 14.983-13.433 21.202-6.499-8.066-11.957-13.831-12.287-14.178-1.416-1.49-3.381-2.334-5.437-2.334s-4.021.844-5.437 2.334c-.35.368-8.658 9.139-17.085 20.335-12.137 16.126-18.038 28.518-18.038 37.884v4.685h-13.118c-6.46 0-12.474 2.573-16.935 7.246-4.461 4.672-6.753 10.8-6.453 17.276l12.548 253.567c1.02 21.03 8.29 40.308 19.958 56.085v42.045c0 22.901 18.632 41.533 41.533 41.533h82.157c22.901 0 41.533-18.632 41.533-41.533v-42.043c11.667-15.776 18.938-35.052 19.957-56.079l9.307-188.077c17.29-3.015 33.106-11.987 44.622-25.373 11.876-13.802 18.416-31.443 18.416-49.673.001-18.127-6.472-35.69-18.227-49.456zm-57.968 13.863c19.625 0 35.591 15.966 35.591 35.591 0 13.8-8.036 26.285-20.31 32.131l1.119-22.605c.299-6.453-1.993-12.58-6.454-17.253s-10.475-7.246-16.935-7.246h-25.311c5.73-12.399 18.223-20.618 32.3-20.618zm-83.089-53.326c10.944 12.542 23.191 29.497 25.251 39.289-8.305 9.66-14.246 21.484-16.871 34.655h-33.942v-30.596c.188-.878.217-1.786.083-2.683 1.091-9.493 14.001-27.503 25.479-40.665zm-79.242 69.259c0-9.083 13.547-28.117 25.534-41.868 3.625 4.172 8.553 10.118 13.146 16.529v30.024h-38.68zm104.691 407.436h-82.157c-14.63 0-26.533-11.903-26.533-26.533v-25.763c18.087 15.815 41.759 25.35 67.612 25.35s49.525-9.535 67.612-25.35v25.762c-.001 14.632-11.904 26.534-26.534 26.534zm-41.079-41.945c-27.857 0-52.751-12.963-68.834-33.311-.182-.278-.383-.543-.6-.794-10.606-13.736-17.251-30.733-18.153-49.347l-10.281-207.768h14.575c4.142 0 7.5-3.358 7.5-7.5s-3.358-7.5-7.5-7.5h-15.318l-1.523-30.783c-.108-2.319.716-4.521 2.319-6.2 1.604-1.679 3.765-2.604 6.086-2.604h183.459c2.321 0 4.482.925 6.086 2.604 1.603 1.679 2.427 3.881 2.32 6.177l-1.524 30.806h-151.905c-4.142 0-7.5 3.358-7.5 7.5s3.358 7.5 7.5 7.5h151.162l-10.282 207.775c-2.269 46.792-40.741 83.445-87.587 83.445z"/></g></g></svg>