<svg xmlns="http://www.w3.org/2000/svg" viewBox="0 0 41 41" width="41" height="41"><style>tspan { white-space:pre }.shp0 { fill: #8bc727 } .shp1 { fill: #78a91f } .shp2 { fill: #f4d902 } .shp3 { fill: #e3ca00 } .shp4 { fill: #fef056 } .shp5 { fill: #f7f9f5 } .shp6 { fill: #eceae6 } .shp7 { fill: #fd6930 } .shp8 { fill: #fd5426 } .shp9 { fill: #fe7d43 } .shp10 { fill: #ef4424 } .shp11 { fill: #fead8a } .shp12 { fill: #000000 } </style><g id="Layer"><g id="Layer"><g id="Layer"><path id="Layer" class="shp0" d="M17.68 22.13L12.37 22.13L12.37 7.05C12.37 5.59 15.02 2.8 15.02 2.8C15.02 2.8 17.68 5.59 17.68 7.05L17.68 22.13Z" /></g></g><g id="Layer"><g id="Layer"><path id="Layer" class="shp1" d="M21.98 19.94L16.68 19.94L16.68 4.86C16.68 3.39 19.33 0.6 19.33 0.6C19.33 0.6 21.98 3.39 21.98 4.86L21.98 19.94Z" /></g></g><g id="Layer"><g id="Layer"><path id="Layer" class="shp2" d="M26 14.14C22.95 14.14 20.48 11.68 20.48 8.63C20.48 5.58 22.95 3.12 26 3.12C29.04 3.12 31.51 5.58 31.51 8.63C31.51 11.68 29.04 14.14 26 14.14Z" /></g></g><g id="Layer"><g id="Layer"><path id="Layer" class="shp3" d="M26 3.12C25.58 3.12 25.18 3.17 24.79 3.25C27.26 3.8 29.1 6 29.1 8.63C29.1 11.26 27.26 13.46 24.79 14.01C25.18 14.1 25.58 14.14 26 14.14C29.04 14.14 31.51 11.67 31.51 8.63C31.51 5.59 29.04 3.12 26 3.12L26 3.12Z" /></g></g><g id="Layer"><g id="Layer"><path id="Layer" class="shp4" d="M26 12.09C24.08 12.09 22.54 10.54 22.54 8.63C22.54 6.72 24.08 5.17 26 5.17C27.91 5.17 29.45 6.72 29.45 8.63C29.45 10.54 27.91 12.09 26 12.09Z" /></g></g><g id="Layer"><g id="Layer"><path id="Layer" class="shp2" d="M26 5.17C25.57 5.17 25.17 5.25 24.79 5.39C26.11 5.88 27.05 7.14 27.05 8.63C27.05 10.12 26.11 11.38 24.79 11.87C25.17 12.01 25.57 12.09 26 12.09C27.91 12.09 29.45 10.54 29.45 8.63C29.45 6.72 27.91 5.17 26 5.17L26 5.17Z" /></g></g><g id="Layer"><g id="Layer"><path id="Layer" class="shp5" d="M21.37 40.35L14.78 40.35C13.27 40.35 12.05 39.12 12.05 37.62L12.05 31.64L24.1 31.64L24.1 37.62C24.1 39.12 22.88 40.35 21.37 40.35Z" /></g></g><g id="Layer"><g id="Layer"><path id="Layer" class="shp6" d="M21.7 31.64L21.7 37.62C21.7 39.12 20.47 40.35 18.96 40.35L21.37 40.35C22.88 40.35 24.1 39.12 24.1 37.62L24.1 31.64L21.7 31.64Z" /></g></g><g id="Layer"><g id="Layer"><path id="Layer" class="shp5" d="M18.08 36.98C22.15 36.98 25.51 33.78 25.7 29.71L26.71 9.37C26.74 8.64 26.16 8.03 25.44 8.03L10.72 8.03C9.99 8.03 9.41 8.64 9.44 9.37L10.45 29.71C10.64 33.78 14 36.98 18.08 36.98L18.08 36.98Z" /></g></g><g id="Layer"><g id="Layer"><path id="Layer" class="shp6" d="M25.44 8.03L23.03 8.03C23.76 8.03 24.34 8.64 24.3 9.37L23.3 29.71C23.12 33.37 20.39 36.33 16.87 36.89C17.26 36.95 17.67 36.98 18.08 36.98C22.15 36.98 25.51 33.78 25.7 29.71L26.71 9.37C26.75 8.64 26.16 8.03 25.44 8.03L25.44 8.03Z" /></g></g><g id="Layer"><g id="Layer"><path id="Layer" class="shp7" d="M9.6 12.41L10.45 29.71C10.64 33.78 14 36.98 18.08 36.98C22.15 36.98 25.51 33.78 25.7 29.71L26.56 12.41L9.6 12.41Z" /></g></g><g id="Layer"><g id="Layer"><path id="Layer" class="shp8" d="M24.15 12.41L23.3 29.71C23.12 33.37 20.39 36.33 16.87 36.89C17.26 36.95 17.67 36.98 18.08 36.98C22.15 36.98 25.51 33.78 25.7 29.71L26.56 12.41L24.15 12.41L24.15 12.41Z" /></g></g><g id="Layer"><g id="Layer"><path id="Layer" class="shp9" d="M10.33 27.24L10.45 29.71C10.64 33.78 14 36.98 18.08 36.98C22.15 36.98 25.51 33.78 25.7 29.71L25.83 27.24L10.33 27.24Z" /></g></g><g id="Layer"><g id="Layer"><path id="Layer" class="shp7" d="M23.42 27.24L23.3 29.71C23.12 33.37 20.39 36.33 16.87 36.89C17.26 36.95 17.67 36.98 18.08 36.98C22.15 36.98 25.51 33.78 25.7 29.71L25.83 27.24L23.42 27.24Z" /></g></g><g id="Layer"><g id="Layer"><path id="Layer" class="shp10" d="M17.68 16.14C17.26 16.14 16.93 15.81 16.93 15.39C16.93 14.98 17.26 14.65 17.68 14.65C18.09 14.65 18.42 14.98 18.42 15.39C18.42 15.81 18.09 16.14 17.68 16.14Z" /></g></g><g id="Layer"><g id="Layer"><path id="Layer" class="shp10" d="M14.15 25.43C13.73 25.43 13.4 25.1 13.4 24.69C13.4 24.27 13.73 23.94 14.15 23.94C14.56 23.94 14.89 24.27 14.89 24.69C14.89 25.1 14.56 25.43 14.15 25.43Z" /></g></g><g id="Layer"><g id="Layer"><path id="Layer" class="shp10" d="M21.38 30.67C20.81 30.67 20.34 30.21 20.34 29.64C20.34 29.07 20.81 28.61 21.38 28.61C21.95 28.61 22.41 29.07 22.41 29.64C22.41 30.21 21.95 30.67 21.38 30.67Z" /></g></g><g id="Layer"><g id="Layer"><path id="Layer" class="shp10" d="M22.54 18.65C22.01 18.65 21.58 18.22 21.58 17.69C21.58 17.16 22.01 16.74 22.54 16.74C23.07 16.74 23.49 17.16 23.49 17.69C23.49 18.22 23.07 18.65 22.54 18.65Z" /></g></g><g id="Layer"><g id="Layer"><path id="Layer" class="shp11" d="M22.39 24.81L20.65 25.18C20.15 25.28 19.66 24.96 19.55 24.46L19.19 22.72C19.08 22.22 19.4 21.73 19.91 21.62L21.64 21.26C22.14 21.16 22.64 21.48 22.74 21.98L23.1 23.72C23.21 24.22 22.89 24.71 22.39 24.81L22.39 24.81Z" /></g></g><g id="Layer"><path id="Layer" class="shp8" d="M22.39 24.81L20.65 25.18C20.15 25.28 19.66 24.96 19.55 24.46L19.19 22.72C19.08 22.22 19.4 21.73 19.91 21.62L21.64 21.26C22.14 21.16 22.64 21.48 22.74 21.98L23.1 23.72C23.21 24.22 22.89 24.71 22.39 24.81L22.39 24.81Z" /></g><g id="Layer"><g id="Layer"><path id="Layer" class="shp11" d="M16.53 19.88L15.4 21.26C15.08 21.65 14.49 21.71 14.1 21.39L12.73 20.26C12.33 19.94 12.27 19.35 12.6 18.96L13.72 17.58C14.04 17.19 14.63 17.13 15.03 17.45L16.4 18.58C16.79 18.9 16.85 19.49 16.53 19.88L16.53 19.88Z" /></g></g><g id="Layer"><path id="Layer" class="shp8" d="M16.53 19.88L15.4 21.26C15.08 21.65 14.49 21.71 14.1 21.39L12.73 20.26C12.33 19.94 12.27 19.35 12.6 18.96L13.72 17.58C14.04 17.19 14.63 17.13 15.03 17.45L16.4 18.58C16.79 18.9 16.85 19.49 16.53 19.88L16.53 19.88Z" /></g><g id="Layer"><g id="Layer"><path id="Layer" class="shp8" d="M15.08 32.73L14.72 31C14.61 30.5 14.94 30 15.44 29.9L17.17 29.53C17.67 29.43 18.17 29.75 18.27 30.25L18.64 31.99C18.74 32.49 18.42 32.98 17.92 33.09L16.18 33.45C15.68 33.56 15.19 33.23 15.08 32.73Z" /></g></g><g id="Layer"><path id="Layer" fill-rule="evenodd" class="shp12" d="M23.69 23.59C23.87 24.42 23.34 25.23 22.51 25.4L20.77 25.77C20.67 25.79 20.56 25.8 20.46 25.8C20.16 25.8 19.88 25.71 19.62 25.55C19.28 25.33 19.05 24.98 18.96 24.58L18.6 22.85C18.52 22.45 18.59 22.04 18.82 21.7C19.04 21.35 19.38 21.12 19.78 21.04L21.52 20.67C22.34 20.5 23.16 21.03 23.33 21.86L23.69 23.59ZM22.52 23.84L22.15 22.1C22.13 22.02 22.08 21.94 22.01 21.9C21.96 21.86 21.9 21.84 21.83 21.84C21.81 21.84 21.79 21.85 21.77 21.85L20.03 22.21C19.85 22.25 19.74 22.42 19.78 22.6L20.14 24.34C20.16 24.42 20.21 24.49 20.28 24.54C20.35 24.59 20.44 24.61 20.53 24.59L22.26 24.22C22.44 24.19 22.55 24.01 22.52 23.84Z" /><path id="Layer" fill-rule="evenodd" class="shp12" d="M14.84 22.19C14.79 22.2 14.73 22.2 14.68 22.2C14.33 22.2 13.99 22.08 13.72 21.85L12.34 20.73C12.03 20.47 11.83 20.1 11.79 19.7C11.75 19.29 11.87 18.89 12.13 18.58L13.25 17.2C13.79 16.55 14.75 16.45 15.41 16.99L16.78 18.11C17.43 18.65 17.53 19.61 16.99 20.26L15.87 21.64C15.61 21.95 15.24 22.15 14.84 22.19ZM14.72 20.99C14.81 20.98 14.88 20.94 14.94 20.88L16.06 19.5C16.18 19.36 16.16 19.16 16.02 19.04L14.64 17.92C14.58 17.87 14.51 17.85 14.44 17.85C14.34 17.85 14.25 17.89 14.19 17.96L13.06 19.34C13.01 19.41 12.98 19.49 12.99 19.58C13 19.66 13.04 19.74 13.11 19.8L14.48 20.92C14.55 20.98 14.63 21 14.72 20.99Z" /><path id="Layer" fill-rule="evenodd" class="shp12" d="M19.22 31.87C19.4 32.69 18.87 33.5 18.04 33.68L16.3 34.04C16.2 34.06 16.09 34.07 15.99 34.07C15.69 34.07 15.41 33.99 15.15 33.82C14.81 33.6 14.58 33.26 14.49 32.86L14.13 31.12C14.05 30.72 14.12 30.31 14.35 29.97C14.57 29.63 14.91 29.39 15.31 29.31L17.05 28.95C17.88 28.77 18.69 29.3 18.86 30.13L19.22 31.87ZM18.05 32.11L17.68 30.38C17.65 30.22 17.51 30.12 17.36 30.12C17.34 30.12 17.32 30.12 17.3 30.12L15.56 30.49C15.47 30.51 15.4 30.56 15.35 30.63C15.31 30.7 15.29 30.79 15.31 30.87L15.67 32.61C15.71 32.79 15.88 32.9 16.06 32.86L17.79 32.5C17.97 32.46 18.08 32.29 18.05 32.11Z" /><path id="Layer" fill-rule="evenodd" class="shp12" d="M30.65 4.66C31.59 5.77 32.11 7.18 32.11 8.63C32.11 10.09 31.59 11.51 30.63 12.62C29.71 13.69 28.44 14.41 27.05 14.65L26.31 29.74C26.22 31.43 25.64 32.98 24.7 34.24L24.7 37.62C24.7 39.45 23.21 40.95 21.37 40.95L14.78 40.95C12.94 40.95 11.45 39.45 11.45 37.62L11.45 34.24C10.51 32.98 9.93 31.43 9.85 29.74L8.84 9.4C8.82 8.88 9 8.39 9.36 8.01C9.72 7.64 10.2 7.43 10.72 7.43L11.77 7.43L11.77 7.05C11.77 6.3 12.24 5.31 13.22 4.01C13.89 3.12 14.56 2.41 14.59 2.38C14.7 2.26 14.86 2.2 15.02 2.2C15.19 2.2 15.35 2.26 15.46 2.38C15.49 2.41 15.92 2.87 16.45 3.52C16.69 3.02 17.04 2.46 17.52 1.82C18.2 0.92 18.87 0.22 18.89 0.19C19.01 0.07 19.16 0 19.33 0C19.49 0 19.65 0.07 19.77 0.19C20.14 0.58 21.69 2.26 22.32 3.75C23.35 2.97 24.63 2.52 26 2.52C26.82 2.52 27.62 2.68 28.38 3C28.68 3.13 28.83 3.48 28.7 3.79C28.57 4.09 28.21 4.24 27.91 4.11C27.3 3.85 26.66 3.72 26 3.72C24.62 3.72 23.36 4.29 22.46 5.23C22.43 5.26 22.41 5.29 22.38 5.31C21.84 5.9 21.44 6.62 21.24 7.43L22.12 7.43C22.64 5.74 24.21 4.57 26 4.57C28.23 4.57 30.06 6.39 30.06 8.63C30.06 10.34 28.97 11.88 27.36 12.45C27.3 12.48 27.23 12.49 27.16 12.49C27.16 12.49 27.16 12.49 27.16 12.49L27.11 13.41C28.12 13.18 29.04 12.62 29.72 11.83C30.49 10.94 30.91 9.81 30.91 8.63C30.91 7.46 30.49 6.33 29.73 5.44C29.52 5.19 29.55 4.81 29.8 4.6C30.05 4.38 30.43 4.41 30.65 4.66ZM26 5.78C24.87 5.78 23.86 6.43 23.41 7.43L25.44 7.43C25.95 7.43 26.44 7.64 26.79 8.01C27.15 8.39 27.34 8.88 27.31 9.4L27.22 11.21C28.21 10.74 28.85 9.74 28.85 8.63C28.85 7.06 27.57 5.78 26 5.78ZM19.33 1.5C18.41 2.55 17.37 4 17.29 4.76C17.3 4.83 17.29 4.9 17.28 4.97L17.28 7.43L20 7.43C20.21 6.37 20.69 5.42 21.36 4.65C21.19 3.86 20.21 2.5 19.33 1.5ZM12.97 7.43L16.08 7.43L16.08 5.02C15.71 4.51 15.31 4.03 15.02 3.69C14.06 4.8 12.97 6.32 12.97 7.05L12.97 7.43ZM23.5 37.62L23.5 35.55C22.05 36.82 20.15 37.58 18.08 37.58C16 37.58 14.1 36.82 12.65 35.55L12.65 37.62C12.65 38.79 13.61 39.74 14.78 39.74L21.37 39.74C22.55 39.74 23.5 38.79 23.5 37.62ZM18.08 36.38C21.83 36.38 24.92 33.44 25.1 29.68L25.93 13.01L13.8 13.01C13.47 13.01 13.2 12.74 13.2 12.41C13.2 12.08 13.47 11.81 13.8 11.81L25.99 11.81L26.11 9.34C26.12 9.15 26.05 8.98 25.92 8.84C25.8 8.71 25.62 8.63 25.44 8.63L10.72 8.63C10.53 8.63 10.36 8.71 10.23 8.84C10.1 8.98 10.03 9.15 10.04 9.34L10.16 11.81L11.39 11.81C11.73 11.81 11.99 12.08 11.99 12.41C11.99 12.74 11.73 13.01 11.39 13.01L10.22 13.01L11.05 29.68C11.12 31.18 11.65 32.54 12.5 33.64C12.52 33.66 12.54 33.68 12.55 33.71C13.84 35.34 15.84 36.38 18.08 36.38Z" /></g></g></svg>