<svg id="Capa_1" enable-background="new 0 0 509.79 509.79" height="512" viewBox="0 0 509.79 509.79" width="512" xmlns="http://www.w3.org/2000/svg"><g><g><g><path d="m428.777 63.858c-4.553-9.447-5.245-19.754-2.702-29.139 1.983-7.321-5.632-13.594-12.378-10.127-.148.076-.296.153-.444.231-19.276 10.189-27.552 33.903-18.793 53.87 9.592 21.863 35.302 31.241 56.624 20.964.099-.048.197-.095.295-.144 6.413-3.152 5.897-12.359-.717-15.063-9.258-3.784-17.2-10.872-21.885-20.592z" fill="#fb8801"/></g></g><g><g><path d="m389.123 44.06c8.61-5.254 18.409-6.893 27.633-5.35 7.195 1.204 12.476-6.679 8.519-12.808-.087-.135-.175-.269-.263-.403-11.58-17.483-35.062-23.155-53.342-12.878-20.016 11.254-26.553 36.751-14.695 56.184.055.09.11.18.165.269 3.625 5.839 12.388 4.472 14.349-2.115 2.744-9.219 8.776-17.493 17.634-22.899z" fill="#fea613"/></g></g><g><g><path d="m292.988 499.662-44.306-32.256c-7.629-5.554-12.142-14.422-12.142-23.858v-261.305h-27.121v261.305c0 9.437-4.513 18.304-12.142 23.858l-44.306 32.256c-1.405 1.023-.269 2.628 1.861 2.628h136.296c2.129 0 3.266-1.605 1.86-2.628z" fill="#f7f9f5"/></g></g><g><g><path d="m292.988 499.662-44.306-32.256c-7.629-5.554-12.142-14.422-12.142-23.858v-261.305h-27.121v261.305c0 3.12-.503 6.175-1.439 9.071 1.895 5.864 5.596 11.069 10.702 14.787l44.306 32.256c1.405 1.023.269 2.628-1.861 2.628h30c2.13 0 3.267-1.605 1.861-2.628z" fill="#eceae6"/></g></g><g><g><path d="m251.628 213.659 138.96-158.224c3.364-3.831.644-9.84-4.454-9.84h-326.308c-5.099 0-7.819 6.01-4.454 9.84l138.959 158.224c15.186 17.291 42.112 17.291 57.297 0l138.96-158.224c3.364-3.831.644-9.84-4.454-9.84h-326.308c-5.099 0-7.819 6.01-4.454 9.84l138.959 158.224c15.186 17.291 42.112 17.291 57.297 0z" fill="#f7f9f5"/></g></g><g><g><path d="m386.133 45.594h-30c5.099 0 7.819 6.01 4.454 9.84l-138.959 158.225c-3.905 4.447-8.59 7.741-13.649 9.901 14.612 6.238 32.368 2.944 43.649-9.901l138.96-158.224c3.364-3.831.644-9.841-4.455-9.841z" fill="#eceae6"/></g></g><g><g><path d="m87.798 92.357 106.533 121.302c15.186 17.291 42.112 17.291 57.297 0l106.533-121.302z" fill="#fe7d43"/></g></g><g><g><path d="m328.161 92.357-106.533 121.302c-3.905 4.447-8.59 7.741-13.649 9.901 14.612 6.238 32.368 2.944 43.649-9.901l106.533-121.302z" fill="#fd6930"/></g></g><g><g><path d="m327.807 126.919 30.354-34.562h-270.363l30.355 34.562z" fill="#fd6930"/></g></g><g><g><path d="m328.161 92.357-30.354 34.562h30l30.354-34.562z" fill="#fd5426"/></g></g><g><g><circle cx="222.98" cy="181.243" fill="#ef4424" r="18.854"/></g></g><g><circle cx="222.98" cy="181.243" fill="#d73d24" r="18.854"/></g><g><g><circle cx="263.982" cy="133.111" fill="#ef4424" r="18.854"/></g></g><g><circle cx="263.982" cy="133.111" fill="#d73d24" r="18.854"/></g><g><path d="m218.487 207.211c1.519.263 3.039.393 4.549.393 5.388 0 10.636-1.653 15.129-4.821 5.754-4.056 9.583-10.11 10.783-17.047 1.2-6.936-.373-13.925-4.429-19.679-8.375-11.877-24.85-14.727-36.725-6.354-5.754 4.056-9.583 10.11-10.783 17.047-1.2 6.936.373 13.925 4.429 19.678 4.056 5.754 10.11 9.583 17.047 10.783zm-2.05-35.248c1.984-1.399 4.266-2.07 6.527-2.07 3.57 0 7.087 1.675 9.296 4.808 3.607 5.117 2.379 12.215-2.737 15.823-2.479 1.748-5.492 2.426-8.479 1.908-2.988-.517-5.597-2.167-7.344-4.646-3.608-5.118-2.38-12.216 2.737-15.823z"/><path d="m264.019 159.456c5.247 0 10.544-1.56 15.148-4.806 5.754-4.056 9.583-10.11 10.783-17.047s-.373-13.925-4.429-19.678-10.11-9.583-17.046-10.783c-6.938-1.2-13.925.373-19.678 4.429-11.877 8.373-14.728 24.848-6.355 36.725 5.127 7.272 13.29 11.16 21.577 11.16zm-6.579-35.626c1.936-1.365 4.196-2.077 6.518-2.077.65 0 1.306.056 1.96.169 2.988.517 5.597 2.167 7.344 4.646 1.748 2.479 2.425 5.49 1.908 8.478-.517 2.989-2.167 5.597-4.646 7.344-5.117 3.608-12.215 2.38-15.823-2.738-3.606-5.116-2.378-12.214 2.739-15.822z"/><path d="m453.5 77.508c-7.885-3.223-14.265-9.227-17.966-16.907-3.592-7.452-4.38-15.947-2.219-23.921.193-.711.271-1.424.256-2.125 1.177-4.255.52-8.828-1.995-12.723l-.31-.474c-13.763-20.775-41.554-27.484-63.272-15.274-12.226 6.874-20.637 18.538-23.414 32.01h-284.754c-5.343 0-10.03 3.024-12.233 7.891-.818 1.806-1.219 3.702-1.22 5.577-.001 3.178 1.146 6.297 3.364 8.821l138.959 158.224c3.769 4.292 8.266 7.785 13.224 10.365v214.575c0 7.014-3.386 13.667-9.057 17.795l-44.306 32.256c-3.171 2.308-4.461 6.133-3.286 9.743 1.255 3.857 5.098 6.448 9.561 6.448h136.295c4.463 0 8.306-2.591 9.561-6.448 1.175-3.61-.115-7.435-3.286-9.743l-44.306-32.256c-5.671-4.128-9.056-10.781-9.056-17.795v-101.28c0-4.142-3.358-7.5-7.5-7.5s-7.5 3.358-7.5 7.5v101.281c0 11.794 5.692 22.98 15.228 29.922l29.286 21.321h-101.148l29.286-21.321c9.535-6.942 15.228-18.128 15.228-29.922v-209.841c1.998.268 4.02.42 6.06.42 2.041 0 4.063-.153 6.061-.421v78.56c0 4.142 3.358 7.5 7.5 7.5s7.5-3.358 7.5-7.5v-83.294c4.957-2.579 9.454-6.073 13.223-10.364l127.544-145.227c.671 2.833 1.598 5.62 2.784 8.324 5.449 12.421 15.443 21.847 28.14 26.541 5.605 2.072 11.406 3.103 17.187 3.103 7.32 0 14.609-1.653 21.426-4.938l.343-.167c5.593-2.749 8.935-8.323 8.72-14.549-.219-6.341-4.015-11.778-9.908-14.187zm-78.154-58.348c14.901-8.377 33.971-3.774 43.418 10.49l.21.321c.109.17.293.454-.012.917-.348.529-.782.457-.968.425-7.851-1.313-15.852-.63-23.291 1.904-.208.065-.413.139-.614.222-3.074 1.094-6.051 2.497-8.873 4.219-.23.14-.454.291-.682.436h-24.493c2.45-7.95 7.844-14.74 15.305-18.934zm-20.58 65.697h-202.415c-4.142 0-7.5 3.358-7.5 7.5s3.358 7.5 7.5 7.5h189.242l-95.599 108.853c-5.814 6.621-14.202 10.417-23.014 10.417-8.811 0-17.199-3.797-23.013-10.417l-95.6-108.853h17.983c4.142 0 7.5-3.358 7.5-7.5s-3.358-7.5-7.5-7.5h-31.156l-27.896-31.763h319.363zm93.299 7.928-.237.116c-8.496 4.094-18.046 4.548-26.895 1.277-8.843-3.27-15.806-9.839-19.604-18.498-4.057-9.247-3.738-19.893.737-29.01 4.366-1.106 8.945-1.317 13.453-.562.54.09 1.077.144 1.613.18.091 7.161 1.732 14.275 4.889 20.826 5.315 11.027 14.479 19.649 25.803 24.279.156.064.572.234.592.818.014.395-.161.48-.351.574z"/></g></g></svg>