<svg id="Capa_1" enable-background="new 0 0 508.447 508.447" height="512" viewBox="0 0 508.447 508.447" width="512" xmlns="http://www.w3.org/2000/svg"><g><g><g><circle cx="158.865" cy="79.161" fill="#0ab69f" r="71.662"/></g></g><g><g><path d="m158.865 7.5c-5.146 0-10.161.554-15 1.585 32.374 6.897 56.661 35.646 56.661 70.077 0 34.432-24.287 63.18-56.661 70.077 4.839 1.031 9.854 1.585 15 1.585 39.577 0 71.661-32.084 71.661-71.662.001-39.578-32.083-71.662-71.661-71.662z" fill="#01998d"/></g></g><g><g><circle cx="158.865" cy="79.161" fill="#5de1c4" r="41.113"/></g></g><g><g><path d="m158.865 38.048c-5.295 0-10.351 1.012-15 2.835 15.285 5.995 26.113 20.867 26.113 38.278s-10.828 32.283-26.113 38.278c4.649 1.823 9.705 2.835 15 2.835 22.706 0 41.113-18.407 41.113-41.114s-18.406-41.112-41.113-41.112z" fill="#0ab69f"/></g></g><g><g><path d="m249.603 500.946c-68.174 0-122.057-57.794-117.288-125.801l19.743-281.545c.808-11.525 10.393-20.461 21.947-20.461h151.197c11.553 0 21.138 8.937 21.947 20.461l19.743 281.545c4.768 68.007-49.115 125.801-117.289 125.801z" fill="#f7f9f5"/></g></g><g><g><path d="m366.891 375.145-19.744-281.545c-.808-11.525-10.393-20.461-21.947-20.461h-30c11.553 0 21.138 8.937 21.947 20.461l19.743 281.546c4.413 62.933-41.403 117.113-102.288 124.849 4.909.624 9.913.952 15 .952 68.175-.001 122.058-57.795 117.289-125.802z" fill="#eceae6"/></g></g><g><g><path d="m352.467 169.461h-205.729l-14.424 205.684c-4.769 68.007 49.114 125.801 117.288 125.801 68.174 0 122.057-57.794 117.288-125.801z" fill="#c4573a"/></g></g><g><g><path d="m366.891 375.145-14.424-205.684h-30l14.424 205.684c4.413 62.933-41.403 117.113-102.288 124.849 4.909.624 9.913.952 15 .952 68.174 0 122.057-57.794 117.288-125.801z" fill="#a74b30"/></g></g><g><g><path d="m251.16 204.111c19.408 10.743 27.897 36.143 17.078 55.689s-36.851 25.838-56.259 15.095c-15.781-8.735-34.581-49.71-41.914-65.196-1.339-2.827.488-6.127 3.594-6.493 17.015-2.007 61.72-7.83 77.501.905z" fill="#00c285"/></g></g><g><g><path d="m251.16 204.111c-9.219-5.103-28.305-5.235-45.979-4.065 6.505.663 12.113 1.925 15.979 4.065 19.408 10.743 27.897 36.143 17.078 55.689-4.678 8.451-12.201 14.418-20.801 17.608 18.571 6.969 40.968.156 50.801-17.608 10.819-19.546 2.33-44.946-17.078-55.689z" fill="#07b27b"/></g></g><g><g><path d="m253.312 405.046-35.719-.676c-6.384-.121-11.462-5.395-11.341-11.779l.676-35.719c.121-6.384 5.394-11.462 11.779-11.341l35.719.676c6.384.121 11.462 5.394 11.341 11.779l-.676 35.719c-.121 6.384-5.395 11.462-11.779 11.341z" fill="#fead8a"/></g></g><g><g><path d="m338.658 353.773-26.845 11.081c-5.903 2.436-12.663-.374-15.099-6.276l-11.081-26.845c-2.436-5.903.374-12.662 6.276-15.099l26.845-11.081c5.903-2.436 12.662.374 15.099 6.276l11.081 26.845c2.436 5.903-.374 12.663-6.276 15.099z" fill="#fead8a"/></g></g><g><g><path d="m344.934 338.675-11.081-26.845c-2.436-5.903-9.196-8.712-15.099-6.276l-14.951 6.171c.015.036.035.069.05.105l11.081 26.845c2.436 5.903-.374 12.663-6.276 15.099l-11.894 4.909c2.474 5.829 9.183 8.593 15.049 6.171l26.845-11.081c5.902-2.436 8.712-9.196 6.276-15.098z" fill="#fd9468"/></g></g><g><g><path d="m184.303 332.573c-27.894 26.721-29.645 70.948-3.564 99.781s70.261 31.513 99.637 6.431z" fill="#0ab69f"/></g></g><g><g><path d="m204.795 355.228c-15.394 15.387-16.164 40.313-1.401 56.634s39.641 18.047 56.49 4.269z" fill="#5de1c4"/></g></g><g><g><path d="m306.265 266.129-25.735 24.779c-4.6 4.429-11.919 4.29-16.348-.31l-24.779-25.735c-4.429-4.6-4.29-11.919.31-16.348l25.735-24.779c4.6-4.429 11.919-4.29 16.348.31l24.779 25.735c4.428 4.599 4.29 11.919-.31 16.348z" fill="#fead8a"/></g></g><g><g><path d="m306.574 249.781-24.779-25.735c-4.429-4.6-11.748-4.739-16.348-.31l-7.239 6.97 18.366 19.075c4.429 4.6 4.29 11.919-.31 16.348l-18.496 17.809 6.413 6.66c4.429 4.6 11.748 4.739 16.348.31l25.735-24.779c4.601-4.429 4.739-11.749.31-16.348z" fill="#fd9468"/></g></g><g><g><circle cx="178.974" cy="295.598" fill="#a74b30" r="9.353"/></g></g><g><g><circle cx="300.894" cy="402.226" fill="#a74b30" r="9.353"/></g></g><g><g><circle cx="305.93" cy="208.794" fill="#a74b30" r="9.353"/></g></g><g><path d="m314.674 371.787 26.845-11.081c4.707-1.943 8.376-5.602 10.33-10.304s1.96-9.883.018-14.589l-11.08-26.846c-4.011-9.716-15.179-14.356-24.894-10.347l-26.845 11.081c-9.715 4.01-14.356 15.177-10.348 24.894l11.081 26.845c3.031 7.345 10.152 11.789 17.646 11.789 2.418 0 4.876-.464 7.247-1.442zm-11.027-16.071-11.081-26.844c-.854-2.071.135-4.451 2.205-5.306l26.845-11.081c.506-.208 1.029-.307 1.545-.307 1.597 0 3.114.947 3.761 2.512l11.08 26.846c.414 1.003.413 2.107-.004 3.109-.416 1.002-1.198 1.782-2.201 2.196l-26.845 11.081c-2.072.855-4.451-.136-5.305-2.206z"/><path d="m420.993 21.497-92.619 3.075c-.496.016-.99.082-1.474.197-10.078 2.379-17.91 10.475-19.954 20.635l-4.047 20.234h-9.736c-4.143 0-7.5 3.358-7.5 7.5s3.357 7.5 7.5 7.5h6.735l-16.267 81.323h-44.547c-4.142 0-7.5 3.358-7.5 7.5s3.358 7.5 7.5 7.5h41.547l-7.212 36.056c-.574 0-1.145.02-1.709.07-4.392-6.458-10.208-11.824-16.918-15.538-15.121-8.37-47.206-5.944-79.626-2.074l-2.385.284c-3.852.454-7.271 2.749-9.148 6.14s-2.006 7.507-.347 11.011l1.029 2.179c13.934 29.525 28.911 58 44.031 66.37 7.36 4.074 15.664 6.151 24.049 6.151 5.244 0 10.52-.813 15.616-2.457.129-.042.251-.095.377-.143l8.802 9.141-8.889 44.44-29.452-.558c-5.095-.097-9.914 1.795-13.582 5.327-.197.19-.371.396-.559.593l-14.844-16.41c-1.359-1.503-3.269-2.392-5.294-2.464-2.015-.08-3.993.677-5.457 2.079-14.925 14.298-23.565 33.561-24.329 54.238-.765 20.723 6.477 40.608 20.392 55.991s32.975 24.576 53.671 25.888c1.704.108 3.403.161 5.096.161 18.829 0 36.881-6.631 51.303-18.945 1.541-1.315 2.484-3.199 2.614-5.221.131-2.022-.563-4.011-1.922-5.514l-20.49-22.652c-.001-.001-.002-.002-.002-.003l-1.498-1.656c5.244-3.432 8.52-9.281 8.64-15.597l.676-35.719c.096-5.091-1.796-9.914-5.327-13.582-1.422-1.477-3.048-2.681-4.808-3.616l7.875-39.372c.502.039 1.005.074 1.508.074 4.76 0 9.526-1.767 13.218-5.321l25.735-24.779c7.571-7.29 7.8-19.381.51-26.953l-24.486-25.432 8.438-42.186h49.546l13.934 198.708c2.159 30.794-8.245 60.187-29.295 82.765-21.051 22.578-49.644 35.012-80.512 35.012-30.869 0-59.462-12.434-80.513-35.012-21.05-22.578-31.454-51.971-29.294-82.765l13.934-198.708h55.355c4.142 0 7.5-3.358 7.5-7.5s-3.358-7.5-7.5-7.5h-54.303l.736-10.501c.021-.107.047-.212.063-.32.079-.527.099-1.048.069-1.56l3.889-55.455c.531-7.563 6.885-13.486 14.465-13.486h89.159c4.143 0 7.5-3.358 7.5-7.5s-3.357-7.5-7.5-7.5h-26.291c-6.477-37.684-39.349-65.64-78.004-65.64-43.65 0-79.162 35.512-79.162 79.161 0 19.078 6.883 37.507 19.38 51.893 10.821 12.456 25.212 21.188 41.073 25.041l-15.323 218.525c-2.454 34.99 9.368 68.388 33.286 94.042 23.919 25.655 56.408 39.784 91.484 39.784 35.075 0 67.564-14.128 91.482-39.783 23.919-25.655 35.741-59.053 33.287-94.043l-19.743-281.545c-1.079-15.385-14.006-27.437-29.429-27.437h-7.004l3.457-17.284c.847-4.208 3.977-7.605 8.06-8.818l91.778-3.048c4.14-.137 7.385-3.605 7.247-7.745-.136-4.139-3.601-7.387-7.745-7.246zm-205.382 246.837c-12.543-6.943-29.783-42.829-37.028-58.16 16.844-2 56.402-6.443 68.945.499 4.184 2.317 7.883 5.573 10.821 9.486l-16.879 16.252-34.056-18.851c-3.625-2.004-8.188-.694-10.194 2.93s-.694 8.188 2.93 10.194l30.83 17.065c-1.444 2.653-2.247 5.627-2.306 8.734-.096 5.091 1.796 9.915 5.327 13.582l2.251 2.338c-7.154.776-14.396-.612-20.641-4.069zm32.791 146.282c-13.122 6.306-29.25 3.486-39.445-7.786-10.195-11.271-11.389-27.599-3.802-40.025zm-18.605 33.687c-16.771-1.063-32.218-8.513-43.495-20.98-11.276-12.467-17.146-28.581-16.526-45.375.522-14.157 5.598-27.494 14.452-38.278l10.571 11.687c-13.611 18.318-12.731 44.108 3.033 61.536 9.583 10.594 22.788 16.024 36.072 16.024 8.568 0 17.165-2.27 24.846-6.86l10.578 11.694c-11.616 7.731-25.39 11.448-39.531 10.552zm8.105-67.655-23.001-25.429c.201-.384.449-.745.77-1.055.782-.753 1.806-1.158 2.895-1.135l35.718.676c1.085.021 2.098.462 2.85 1.244.753.781 1.155 1.809 1.135 2.894l-.676 35.719c-.027 1.45-.836 2.786-2.111 3.488-.614.338-1.156.755-1.634 1.224zm63.161-119.922-25.735 24.779c-1.615 1.553-4.189 1.504-5.744-.109l-24.778-25.736c-.752-.782-1.155-1.809-1.135-2.894.021-1.084.462-2.097 1.244-2.849l2.363-2.275c.411-.314.783-.684 1.128-1.087l22.244-21.418c.763-.734 1.76-1.136 2.814-1.136.026 0 .053 0 .079.001 1.085.021 2.097.462 2.85 1.244l24.778 25.735c1.554 1.615 1.505 4.192-.108 5.745zm-156.487-167.651-1.121 15.987c-11.017-5.636-18.203-17.01-18.203-29.901 0-18.534 15.079-33.613 33.614-33.613 13.554 0 25.521 8.027 30.794 20.09h-15.655c-15.423 0-28.35 12.052-29.429 27.437zm-34.169 28.142c-10.126-11.657-15.704-26.593-15.704-42.056.001-35.378 28.784-64.161 64.162-64.161 30.453 0 56.474 21.401 62.731 50.638h-16.029c-5.983-20.752-24.926-35.09-46.702-35.09-26.806 0-48.614 21.808-48.614 48.613 0 20.802 12.945 38.872 32.093 45.731l-1.12 15.967c-11.869-3.392-22.607-10.192-30.817-19.642zm214.793-40.579c7.581 0 13.936 5.924 14.466 13.486l4.757 67.837h-45.494l16.267-81.323z"/></g></g></svg>