<svg id="Capa_1" enable-background="new 0 0 510.048 510.048" height="512" viewBox="0 0 510.048 510.048" width="512" xmlns="http://www.w3.org/2000/svg"><g><g><g><circle cx="164.68" cy="117.211" fill="#fef056" r="74.27"/></g></g><g><g><path d="m164.68 42.941c-5.139 0-10.155.523-15 1.516 33.828 6.938 59.27 36.874 59.27 72.754s-25.443 65.816-59.27 72.754c4.845.994 9.861 1.516 15 1.516 41.018 0 74.27-33.252 74.27-74.27s-33.252-74.27-74.27-74.27z" fill="#fee903"/></g></g><g><g><circle cx="164.68" cy="117.211" fill="#fef6ad" r="40.424"/></g></g><g><g><path d="m164.68 76.787c-5.302 0-10.36 1.031-15 2.887 14.896 5.958 25.424 20.513 25.424 37.536s-10.528 31.578-25.424 37.537c4.64 1.856 9.698 2.887 15 2.887 22.325 0 40.424-18.098 40.424-40.424-.001-22.324-18.099-40.423-40.424-40.423z" fill="#fee903"/></g></g><g><g><path d="m401.997 140.188c-14.689 16.646-41.342 19.457-58.106 4.664-16.765-14.793-17.292-41.589-2.604-58.235 11.943-13.535 56.043-23.059 72.758-26.881 3.052-.698 5.882 1.8 5.569 4.914-1.711 17.061-5.673 62.003-17.617 75.538z" fill="#0ed290"/></g></g><g><g><path d="m346.477 105.325c1.664-9.684 3.256-19.381 4.756-29.093.019-.122.05-.232.072-.351-16.688-15.219-57.285-29.67-73.738-35.739-3.36-1.239-6.937 1.179-7.04 4.759-.364 12.73-1.369 38.926 1.132 60.423h74.818z" fill="#00c285"/></g></g><g><g><path d="m355.776 80.781c-12.198-16.933-59.997-33.921-78.209-40.638-3.36-1.239-6.937 1.179-7.04 4.759-.034 1.178-.073 2.477-.115 3.871 21.353 8.486 47.654 20.551 55.758 32.54 14.223 21.04 9.694 51.364-11.496 65.688-3.186 2.154-6.569 3.814-10.062 5.024 13.177 4.332 28.014 3.12 40.062-5.024.505-.342.992-.7 1.478-1.06 2.321-20.903 9.275-64.345 9.624-65.16z" fill="#07b27b"/></g></g><g><g><path d="m414.046 59.736c-5.746 1.314-14.729 3.301-24.528 5.894-1.763 17.729-5.794 61.27-17.52 74.558-4.647 5.266-10.492 9.143-16.842 11.52 15.841 6.211 35.138 1.744 46.842-11.52 11.943-13.535 15.906-58.477 17.618-75.538.311-3.114-2.519-5.612-5.57-4.914z" fill="#07b27b"/></g></g><g><g><path d="m339.393 499.962-44.306-31.74c-7.629-5.465-12.142-14.191-12.142-23.476v-257.124h-27.121v257.123c0 9.286-4.513 18.011-12.142 23.476l-44.306 31.74c-1.405 1.007-.269 2.586 1.861 2.586h136.296c2.129.001 3.265-1.578 1.86-2.585z" fill="#f7f9f5"/></g></g><g><g><path d="m339.393 499.962-44.306-31.74c-7.629-5.465-12.142-14.191-12.142-23.476v-257.124h-27.121v257.123c0 3.07-.503 6.076-1.439 8.926 1.895 5.77 5.596 10.892 10.702 14.55l44.306 31.74c1.405 1.007.269 2.586-1.86 2.586h30c2.129.001 3.266-1.578 1.86-2.585z" fill="#eceae6"/></g></g><g><g><path d="m363.307 105.325h-187.845c-8.73 0-15.939 6.821-16.42 15.538l-6.946 125.749c-4.769 68.007 49.114 125.801 117.288 125.801 68.174 0 122.057-57.794 117.288-125.801l-6.946-125.749c-.48-8.716-7.689-15.538-16.419-15.538z" fill="#f7f9f5"/></g></g><g><g><path d="m386.673 246.612-6.946-125.749c-.481-8.717-7.69-15.538-16.42-15.538h-30c8.73 0 15.939 6.821 16.42 15.538l6.946 125.749c4.413 62.933-41.403 117.113-102.288 124.849 4.909.624 9.913.952 15 .952 68.174 0 122.057-57.794 117.288-125.801z" fill="#eceae6"/></g></g><g><g><path d="m382.417 169.558h-226.065l-4.256 77.055c-4.769 68.007 49.114 125.801 117.288 125.801 68.174 0 122.057-57.794 117.288-125.801z" fill="#d6694b"/></g></g><g><g><path d="m386.673 246.612-4.256-77.055h-30l4.256 77.055c4.413 62.933-41.403 117.113-102.288 124.849 4.909.624 9.913.952 15 .952 68.174 0 122.057-57.794 117.288-125.801z" fill="#c4573a"/></g></g><g><g><path d="m384.402 205.495h-230.034l-2.271 41.118c-4.769 68.007 49.114 125.801 117.288 125.801 68.174 0 122.057-57.794 117.288-125.801z" fill="#fee8c7"/></g></g><g><g><path d="m386.673 246.612-2.271-41.118h-30l2.271 41.118c4.413 62.933-41.403 117.113-102.288 124.849 4.909.624 9.913.952 15 .952 68.174 0 122.057-57.794 117.288-125.801z" fill="#fedba6"/></g></g><g><path d="m282.334 317.33-20.585 17.303c-4.888 4.109-12.181 3.477-16.29-1.411l-17.303-20.585c-4.109-4.888-3.477-12.181 1.411-16.29l20.585-17.303c4.888-4.109 12.181-3.477 16.29 1.411l17.303 20.585c4.108 4.888 3.477 12.182-1.411 16.29z" fill="#f7f9f5"/></g><g><path d="m240.976 296.078-26.785-2.386c-6.36-.567-11.057-6.182-10.491-12.542l2.386-26.785c.567-6.36 6.182-11.057 12.542-10.491l26.785 2.386c6.36.567 11.057 6.182 10.491 12.542l-2.386 26.785c-.567 6.361-6.182 11.058-12.542 10.491z" fill="#f7f9f5"/></g><g><path d="m328.774 293.386-24.701-10.63c-5.865-2.524-8.574-9.325-6.05-15.191l10.63-24.701c2.524-5.865 9.325-8.574 15.191-6.05l24.701 10.63c5.865 2.524 8.574 9.325 6.05 15.191l-10.63 24.701c-2.524 5.866-9.325 8.574-15.191 6.05z" fill="#f7f9f5"/></g><g><g><circle cx="317.197" cy="323.168" fill="#fedba6" r="9.112"/></g></g><g><g><circle cx="177.075" cy="250.501" fill="#fedba6" r="9.112"/></g></g><g><g><circle cx="278.497" cy="229.758" fill="#fedba6" r="9.112"/></g></g><g><path d="m272.183 275.629c-2.62-3.116-6.035-5.168-9.701-6.137l.893-10.025c.932-10.469-6.826-19.745-17.296-20.677l-26.784-2.386c-10.47-.936-19.746 6.826-20.68 17.295l-2.386 26.786c-.451 5.071 1.099 10.015 4.366 13.921 3.267 3.905 7.859 6.305 12.931 6.756l4.779.426c-1.047 5.449.27 11.307 4.11 15.876l17.304 20.584c3.275 3.898 7.874 6.286 12.946 6.726.562.049 1.121.073 1.678.073 4.476 0 8.767-1.558 12.233-4.472l20.585-17.303c3.897-3.276 6.285-7.874 6.725-12.947s-1.123-10.013-4.399-13.91zm-61.013 6.187 2.386-26.784c.188-2.11 1.965-3.703 4.043-3.703.12 0 .242.005.364.016l26.785 2.386c1.08.097 2.059.608 2.755 1.44s1.026 1.886.93 2.966l-1.228 13.791c-.644.42-1.276.868-1.879 1.375l-16.815 14.135-13.655-1.216c-2.231-.198-3.885-2.175-3.686-4.406zm66.338 29.774-20.584 17.303c-.832.699-1.894 1.03-2.965.938-1.081-.094-2.061-.603-2.759-1.434l-17.304-20.584c-1.187-1.412-1.228-3.394-.254-4.858l6.668.594h-.001c.577.052 1.152.077 1.726.077 4.458 0 8.735-1.547 12.196-4.442 3.905-3.267 6.305-7.859 6.757-12.93l.051-.569 16.964 20.182c.698.831 1.031 1.883.938 2.964s-.602 2.061-1.433 2.759z"/><path d="m423.054 55.14c-2.905-2.564-6.896-3.58-10.68-2.715l-2.351.535c-11.242 2.555-30.273 6.882-46.602 12.856l10.856-56.91c.776-4.069-1.893-7.996-5.962-8.772-4.06-.774-7.996 1.892-8.772 5.962l-11.081 58.09c-18.999-12.966-49.684-24.24-65.713-30.128l-2.587-.951c-3.842-1.416-8.152-.894-11.538 1.396-3.387 2.29-5.478 6.098-5.594 10.185l-.081 2.749c-.366 12.239-.948 31.927.462 50.389h-19.287c-8.837-36.32-41.776-62.384-79.444-62.384-45.088 0-81.77 36.682-81.77 81.77 0 38.733 26.897 71.829 64.409 79.914l-2.708 49.022c-2.438 34.968 9.384 68.342 33.29 93.983 19.046 20.429 43.529 33.539 70.423 38.037v18.087c0 4.142 3.357 7.5 7.5 7.5s7.5-3.358 7.5-7.5v-16.486c2.011.094 4.031.147 6.061.147s4.049-.052 6.061-.147v64.979c0 11.667 5.71 22.722 15.273 29.573l28.937 20.729h-100.542l28.936-20.729c9.564-6.851 15.274-17.907 15.274-29.573v-18.492c0-4.142-3.357-7.5-7.5-7.5s-7.5 3.358-7.5 7.5v18.492c0 6.841-3.368 13.338-9.01 17.379l-44.307 31.741c-3.192 2.288-4.505 6.103-3.344 9.719 1.242 3.866 5.09 6.464 9.573 6.464h136.295c4.483 0 8.331-2.598 9.573-6.464 1.161-3.616-.151-7.431-3.344-9.719l-44.308-31.74c-5.641-4.041-9.009-10.538-9.009-17.379v-66.579c26.894-4.498 51.377-17.608 70.423-38.037 23.906-25.641 35.728-59.015 33.29-93.983l-4.861-88.007c7.058-2.897 13.317-7.315 18.324-12.989 11.442-12.967 15.999-44.841 19.219-77.354l.238-2.397c.389-3.863-1.115-7.698-4.022-10.263zm-145.123-6.872c16.118 5.921 52.187 19.23 67.4 32.33l-3.286 17.227h-21.56l-16.833-24.9c-2.32-3.431-6.983-4.333-10.414-2.013-3.432 2.32-4.333 6.982-2.014 10.414l11.154 16.499h-23.923c-1.449-17.785-.889-37.341-.524-49.557zm98.546 149.727h-38.269l3.994-20.937h33.119zm-4.238-76.718 2.252 40.781h-29.429l9.392-49.232h8.854c4.746-.001 8.669 3.712 8.931 8.451zm-42.447 40.781h-116.016c-4.143 0-7.5 3.358-7.5 7.5s3.357 7.5 7.5 7.5h113.154l-3.994 20.937h-160.643l1.156-20.937h20.327c4.143 0 7.5-3.358 7.5-7.5s-3.357-7.5-7.5-7.5h-19.499l.197-3.571c.012-.055.028-.108.039-.164.137-.726.16-1.446.089-2.146l1.928-34.9c.262-4.739 4.186-8.452 8.933-8.452h163.721zm-179.691-15.313c-10.998-5.429-18.345-16.758-18.345-29.534 0-18.154 14.77-32.924 32.923-32.924 10.722 0 20.513 5.138 26.616 13.538h-15.833c-12.706 0-23.209 9.938-23.909 22.625zm-52.191-29.534c0-36.817 29.953-66.77 66.77-66.77 29.522 0 55.488 19.597 63.91 47.384h-20.079c-7.682-17.375-24.751-28.538-43.831-28.538-26.425 0-47.923 21.499-47.923 47.924 0 20.742 13.312 38.865 32.47 45.372l-1.067 19.328c-29.399-7.44-50.25-33.88-50.25-64.7zm251.987 212.69c-21.051 22.578-49.644 35.013-80.513 35.013s-59.462-12.435-80.513-35.013c-21.05-22.578-31.453-51.971-29.294-82.764.003-.037.005-.074.007-.111l1.88-34.031h158.611l-2.959 15.511c-1.658.192-3.303.585-4.896 1.219-4.73 1.884-8.443 5.497-10.457 10.174l-10.628 24.701c-2.014 4.677-2.084 9.857-.2 14.588 1.884 4.73 5.497 8.443 10.174 10.457l4.015 1.728-2.322 12.173c-.776 4.069 1.894 7.997 5.962 8.772.475.09.947.134 1.414.134 3.528 0 6.673-2.502 7.358-6.096l1.7-8.911 6.574 2.829c2.42 1.042 4.974 1.563 7.531 1.563 2.386 0 4.773-.454 7.057-1.363 4.73-1.884 8.443-5.497 10.457-10.174l10.629-24.701c2.014-4.677 2.085-9.857.201-14.588s-5.498-8.444-10.175-10.457l-19.796-8.519 3.632-19.041h41.959l1.88 34.031c.002.037.004.074.007.111 2.159 30.794-8.245 60.187-29.295 82.765zm-33.398-49.963c-.01-.004-.019-.008-.028-.012l-9.433-4.059c-.996-.429-1.767-1.22-2.168-2.229-.401-1.008-.387-2.112.043-3.108l10.629-24.701c.661-1.536 2.162-2.456 3.737-2.456.534 0 1.078.106 1.6.331l24.701 10.63c.997.429 1.767 1.22 2.168 2.228s.387 2.112-.042 3.109l-10.63 24.701c-.887 2.057-3.279 3.012-5.337 2.125zm79.874-144.712c-2.299 2.605-4.992 4.823-7.975 6.62l-1.182-21.396c-.202-3.656-1.221-7.081-2.869-10.109l13.95-15.809c2.74-3.106 2.444-7.845-.661-10.586-3.107-2.74-7.846-2.445-10.587.661l-13.637 15.453c-3.076-1.435-6.501-2.236-10.105-2.236h-5.992l2.767-14.504c15.756-7.066 38.382-12.346 51.668-15.371-1.565 15.711-5.908 56.547-15.377 67.277z"/></g></g></svg>