<svg id="Capa_1" enable-background="new 0 0 495.468 495.468" height="512" viewBox="0 0 495.468 495.468" width="512" xmlns="http://www.w3.org/2000/svg"><g><g><g><path d="m160.648 8.766h34.625v234.984h-34.625z" fill="#a74b30" transform="matrix(.988 -.154 .154 .988 -17.355 28.981)"/></g></g><g><g><path d="m244.265 175.441 22.174-163.479c-42.68-2.377-80.698 28.418-86.542 71.505s22.596 82.896 64.368 91.974z" fill="#fef056"/></g></g><g><g><path d="m249.362 137.861 11.979-88.318c-21.972.256-41.023 16.571-44.064 38.994s10.975 43.224 32.085 49.324z" fill="#fef6ad"/></g></g><g><g><path d="m279.826 487.968h-105.239c-7.094 0-12.932-5.58-13.253-12.666l-15.967-352.839c-.342-7.554 5.691-13.866 13.253-13.866h137.173c7.562 0 13.594 6.312 13.253 13.866l-15.967 352.839c-.322 7.086-6.16 12.666-13.253 12.666z" fill="#fec165"/></g></g><g><g><path d="m295.793 108.597h-30c7.562 0 13.595 6.312 13.253 13.866l-15.967 352.839c-.321 7.086-6.159 12.667-13.253 12.667h30c7.094 0 12.932-5.58 13.253-12.667l15.967-352.839c.341-7.555-5.691-13.866-13.253-13.866z" fill="#fdb441"/></g></g><g><g><path d="m151.195 251.24 10.14 224.062c.321 7.086 6.159 12.666 13.253 12.666h105.239c7.094 0 12.932-5.58 13.253-12.666l10.14-224.062z" fill="#fe7d43"/></g></g><g><g><path d="m273.218 251.24-10.139 224.062c-.321 7.086-6.159 12.667-13.253 12.667h30c7.094 0 12.932-5.58 13.253-12.667l10.139-224.062z" fill="#fd6930"/></g></g><g><g><path d="m156.944 378.283 4.39 97.019c.321 7.086 6.159 12.666 13.253 12.666h105.239c7.094 0 12.932-5.58 13.253-12.666l4.39-97.019z" fill="#fd6930"/></g></g><g><g><path d="m267.469 378.283-4.39 97.019c-.321 7.086-6.159 12.667-13.253 12.667h30c7.094 0 12.932-5.58 13.253-12.667l4.39-97.019z" fill="#fd5426"/></g></g><g><path d="m259.873 299.471 11.289 17.825c3.417 5.395 1.813 12.538-3.582 15.954l-17.825 11.289c-5.395 3.417-12.538 1.813-15.954-3.582l-11.289-17.825c-3.417-5.395-1.813-12.538 3.582-15.954l17.825-11.289c5.394-3.416 12.537-1.813 15.954 3.582z" fill="#fe7d43"/></g><g><path d="m247.219 413.654-4.672 20.576c-1.414 6.227-7.608 10.129-13.835 8.715l-20.576-4.672c-6.227-1.414-10.129-7.608-8.715-13.835l4.672-20.576c1.414-6.227 7.608-10.129 13.835-8.715l20.576 4.672c6.227 1.414 10.129 7.608 8.715 13.835z" fill="#fe7d43"/></g><g><path d="m231.021 210.813-10.863 18.088c-3.288 5.474-10.39 7.247-15.865 3.959l-18.088-10.863c-5.474-3.288-7.247-10.39-3.959-15.865l10.863-18.088c3.288-5.474 10.39-7.247 15.865-3.959l18.088 10.863c5.474 3.288 7.246 10.391 3.959 15.865z" fill="#fee8c7"/></g><g><g><circle cx="190.543" cy="295.151" fill="#fd6930" r="8.583"/></g></g><g><g><circle cx="264.585" cy="450.291" fill="#fe7d43" r="8.583"/></g></g><g><g><circle cx="273.168" cy="208.2" fill="#fdb441" r="8.583"/></g></g><g><g><circle cx="214.205" cy="149.287" fill="#fdb441" r="8.583"/></g></g><g><g><circle cx="311.604" cy="74.328" fill="#ef4424" r="22.117"/></g></g><g><g><path d="m248.333 84.923c2.512-5.644 9.123-8.183 14.767-5.671 1.8.801 2.251.73 4.755.33 3.787-.604 9.509-1.516 17.373 1.984s11.017 8.362 13.103 11.58c1.379 2.128 1.627 2.51 3.428 3.312 1.799.801 2.25.729 4.752.33 3.786-.604 9.509-1.517 17.373 1.983s11.016 8.363 13.101 11.58c1.378 2.126 1.627 2.509 3.426 3.31 5.644 2.512 8.183 9.123 5.671 14.767s-9.123 8.183-14.767 5.671c-7.864-3.5-11.016-8.363-13.101-11.58-1.378-2.126-1.627-2.509-3.426-3.31s-2.25-.729-4.752-.33c-3.786.604-9.509 1.517-17.373-1.983s-11.017-8.362-13.103-11.58c-1.379-2.128-1.627-2.51-3.428-3.312-1.8-.801-2.251-.73-4.755-.33-3.787.604-9.509 1.516-17.373-1.984-5.644-2.511-8.183-9.123-5.671-14.767z" fill="#fea613"/></g></g><g><path d="m239.906 289.553-17.825 11.289c-4.302 2.724-7.285 6.96-8.4 11.929-1.116 4.968-.229 10.073 2.495 14.375l11.289 17.826c3.625 5.723 9.814 8.857 16.135 8.857 3.485 0 7.012-.954 10.168-2.953l17.825-11.289c8.88-5.624 11.528-17.423 5.905-26.303l-11.289-17.825c-5.624-8.881-17.422-11.53-26.303-5.906zm23.662 37.361-17.825 11.289c-1.891 1.198-4.406.634-5.605-1.258l-11.289-17.826c-.581-.917-.77-2.004-.532-3.063s.874-1.961 1.791-2.542l17.825-11.29c.673-.426 1.424-.629 2.167-.629 1.347 0 2.666.668 3.438 1.888l11.289 17.825c1.198 1.893.633 4.407-1.259 5.606z"/><path d="m240.165 392.505-20.576-4.672c-4.967-1.128-10.072-.253-14.381 2.46-4.309 2.714-7.302 6.943-8.428 11.908l-4.672 20.575c-1.128 4.965-.254 10.072 2.459 14.38 2.714 4.309 6.943 7.302 11.908 8.43l20.575 4.672c1.415.321 2.83.475 4.224.475 8.7 0 16.58-6.008 18.586-14.843l4.672-20.576c1.128-4.965.254-10.072-2.459-14.38s-6.943-7.302-11.908-8.429zm-.26 19.488-4.672 20.576c-.496 2.184-2.681 3.556-4.86 3.062l-20.575-4.672c-1.059-.24-1.96-.878-2.538-1.796s-.765-2.006-.524-3.065l4.673-20.576c.239-1.058.877-1.958 1.795-2.537.657-.414 1.4-.627 2.158-.627.302 0 .605.034.906.103l20.575 4.672c1.059.24 1.96.878 2.538 1.796s.765 2.006.524 3.064z"/><path d="m230.923 188.519-18.088-10.863c-9.012-5.411-20.743-2.482-26.156 6.527l-10.862 18.087c-2.621 4.365-3.387 9.49-2.153 14.43 1.232 4.94 4.315 9.104 8.681 11.726l18.088 10.863c3.003 1.804 6.366 2.728 9.78 2.728 1.549 0 3.108-.19 4.649-.575 4.94-1.233 9.104-4.316 11.726-8.681l10.863-18.087c2.621-4.365 3.387-9.49 2.153-14.43-1.234-4.939-4.316-9.103-8.681-11.725zm-6.332 18.433-10.863 18.089c-.559.93-1.445 1.586-2.498 1.849s-2.146.099-3.075-.459l-18.088-10.863c-.931-.559-1.587-1.446-1.85-2.499s-.1-2.145.459-3.075l10.862-18.087c.761-1.267 2.108-1.97 3.489-1.97.712 0 1.432.187 2.085.579l18.088 10.862c.93.559 1.587 1.446 1.85 2.5.263 1.052.1 2.144-.459 3.074z"/><path d="m357.458 17.977c-3.227-2.602-7.945-2.096-10.547 1.127l-22.877 28.35c-.13-.06-.256-.125-.386-.183-14.92-6.64-32.46.096-39.101 15.015-1.468 3.299-2.302 6.768-2.514 10.268-6.86-1.719-12.178-.884-15.359-.377-.255.041-.526.084-.763.12-.027-.012-.056-.02-.083-.031l8.042-59.295c.281-2.073-.316-4.17-1.648-5.783s-3.277-2.597-5.366-2.713c-10.104-.563-20.135.563-29.823 3.344-3.981 1.143-6.282 5.297-5.14 9.278 1.143 3.982 5.299 6.281 9.278 5.139 5.454-1.566 11.038-2.501 16.686-2.799l-3.134 23.108c-22.941 3.198-41.698 21.545-44.876 44.984-.619 4.563-.628 9.098-.071 13.568h-22.854c-.472-5.51-.343-11.082.408-16.622 2.854-21.032 14.541-39.977 32.065-51.978 3.418-2.34 4.291-7.008 1.951-10.426-2.341-3.418-7.01-4.291-10.426-1.951-8.228 5.634-15.376 12.549-21.242 20.386l-5.338-34.162c-.64-4.092-4.469-6.896-8.567-6.252l-34.21 5.344c-1.966.307-3.729 1.382-4.901 2.989s-1.658 3.614-1.352 5.579l13.956 89.329c-2.077 1.052-3.994 2.441-5.658 4.181-3.955 4.139-5.991 9.568-5.732 15.287l4.391 97.022c.182 4.022 3.5 7.161 7.486 7.161.114 0 .229-.002.345-.008 4.138-.187 7.341-3.693 7.153-7.831l-4.391-97.023c-.071-1.588.494-3.096 1.592-4.245.81-.848 1.829-1.412 2.945-1.651.099.004.196.013.296.013.385 0 .774-.03 1.166-.091.088-.014.171-.037.258-.054h59.94c.011 0 .022.003.034.003.011 0 .023-.003.034-.003h59.328c2.578 2.641 6.13 5.413 11.16 7.651 4.397 1.957 8.341 2.802 11.728 3.082l-15.754 348.132c-.14 3.088-2.671 5.506-5.761 5.506h-105.239c-3.09 0-5.621-2.418-5.761-5.505l-10.14-224.062c-.187-4.138-3.697-7.342-7.831-7.153-4.138.187-7.341 3.693-7.153 7.831l10.14 224.062c.504 11.118 9.616 19.827 20.745 19.827h105.238c11.129 0 20.241-8.709 20.745-19.828l15.541-343.407c2.636 2.946 6.441 6.175 12.154 8.718 2.431 1.082 5.008 1.625 7.591 1.625 2.263 0 4.529-.417 6.705-1.252 4.66-1.789 8.343-5.286 10.372-9.844 2.03-4.56 2.163-9.637.374-14.297-1.758-4.577-5.163-8.213-9.607-10.265-.132-.2-.281-.43-.423-.648-1.752-2.703-4.692-7.213-10.56-11.158 2.458-2.5 4.477-5.442 5.945-8.74h-.001c3.217-7.227 3.427-15.275.591-22.66-.93-2.423-2.157-4.675-3.634-6.727l22.967-28.46c2.601-3.222 2.097-7.943-1.127-10.545zm-59.208 50.408c2.421-5.438 7.775-8.673 13.376-8.673 1.982 0 3.997.406 5.922 1.262 3.567 1.587 6.302 4.469 7.701 8.114s1.296 7.616-.291 11.184c-.001 0-.001 0-.001 0-1.587 3.567-4.468 6.302-8.112 7.701-.945.363-1.912.62-2.888.781-1.544-.07-2.95-.024-4.224.074-1.388-.181-2.758-.561-4.072-1.146-1.311-.583-2.506-1.344-3.567-2.25-.784-1.017-1.697-2.099-2.79-3.207-.53-.83-.983-1.717-1.344-2.657-1.4-3.645-1.297-7.616.29-11.183zm-73.541 21.16c2.076-15.304 13.442-27.569 27.886-31.316l-1.944 14.329c-4.085 1.902-7.32 5.159-9.171 9.316-2.924 6.572-1.725 13.942 2.462 19.223h-19.007c-.668-3.788-.755-7.654-.226-11.552zm-54.032-73.475 6.993 44.76c.047.299.115.589.195.874-2.599 6.628-4.428 13.59-5.4 20.756-.841 6.205-1.037 12.449-.596 18.637h-7.771l-12.811-81.998zm166.684 104.443c1.214.54 1.737 1.514 1.941 2.046.205.532.467 1.606-.073 2.82-.54 1.213-1.514 1.737-2.046 1.942s-1.606.467-2.819-.073c-5.83-2.595-7.97-5.895-9.857-8.807-1.759-2.714-3.022-4.46-6.67-6.083-2.121-.944-3.733-1.262-5.34-1.262-1.155 0-2.308.164-3.645.378-3.428.546-7.312 1.166-13.141-1.429-5.832-2.595-7.972-5.896-9.858-8.807-1.76-2.715-3.023-4.461-6.671-6.084-3.649-1.624-5.792-1.395-8.986-.885-3.428.547-7.311 1.166-13.143-1.43-1.856-.826-2.695-3.009-1.868-4.865.539-1.213 1.513-1.737 2.045-1.942.533-.204 1.607-.466 2.819.073 3.65 1.625 5.793 1.395 8.986.885 3.428-.547 7.311-1.166 13.143 1.43 2.442 1.087 4.232 2.298 5.632 3.552.937 1.268 1.97 2.457 3.096 3.555.402.576.771 1.145 1.131 1.7 1.759 2.714 3.022 4.46 6.671 6.084 3.646 1.624 5.791 1.394 8.984.885.659-.105 1.335-.212 2.039-.3.62.04 1.24.066 1.862.066.949 0 1.898-.05 2.846-.142 1.865.202 3.958.72 6.395 1.804 5.829 2.594 7.969 5.894 9.857 8.807 1.759 2.713 3.023 4.46 6.67 6.082z"/></g></g></svg>