<svg id="Capa_1" enable-background="new 0 0 507.932 507.932" height="512" viewBox="0 0 507.932 507.932" width="512" xmlns="http://www.w3.org/2000/svg"><g><g><g><circle cx="146.069" cy="121.382" fill="#00f2a6" r="104.67"/></g></g><g><g><circle cx="146.069" cy="121.382" fill="#9cf8d2" r="61.131"/></g></g><g><g><path d="m324.246 116.273c-6.549 30.502-37.276 52.28-67.995 45.684s-49.797-39.069-43.248-69.57c5.325-24.801 52.813-66.807 70.667-82.987 3.259-2.954 8.445-1.84 10.205 2.191 9.637 22.083 35.696 79.881 30.371 104.682z" fill="#07b27b"/></g></g><g><g><path d="m372.316 143.805c-17.499 25.827-54.147 34.509-80.158 16.886s-31.536-54.879-14.037-80.706c14.228-21 73.994-42.157 96.61-50.471 4.129-1.518 8.52 1.457 8.641 5.855.663 24.086 3.172 87.436-11.056 108.436z" fill="#07b27b"/></g></g><g><g><path d="m311.88 434.864c-6.693 0-13.243-3.315-17.104-9.379-6.007-9.436-3.228-21.954 6.208-27.962l137.345-87.438c13.522-8.609 21.595-23.318 21.595-39.348 0-25.72-20.925-46.645-46.645-46.645h-98.65c-11.185 0-20.253-9.068-20.253-20.253s9.068-20.253 20.253-20.253h98.65c48.056 0 87.152 39.096 87.152 87.152 0 29.95-15.083 57.434-40.349 73.518l-137.345 87.438c-3.37 2.146-7.136 3.17-10.857 3.17z" fill="#fea613"/></g></g><g><g><path d="m34.742 141.788v206.338c0 83.939 68.046 151.985 151.985 151.985h38.054c83.939 0 151.985-68.046 151.985-151.985v-206.338z" fill="#fbc56d"/></g></g><g><g><path d="m387.932 156.732h-363.85c-9.158 0-16.582-7.424-16.582-16.582v-4.152c0-9.158 7.424-16.582 16.582-16.582h363.849c9.158 0 16.582 7.424 16.582 16.582v4.152c.001 9.158-7.423 16.582-16.581 16.582z" fill="#fea613"/></g></g><path d="m413.28 176.085h-29.015v-11.853h3.667c13.279 0 24.082-10.803 24.082-24.083v-4.151c0-12.86-10.132-23.398-22.832-24.05 3.164-25.471 2.276-56.336 1.784-73.392l-.097-3.394c-.123-4.472-2.406-8.64-6.108-11.147-3.701-2.508-8.417-3.083-12.618-1.54l-3.181 1.167c-18.015 6.596-36.553 13.775-52.759 21.42-4.982-13.013-10.1-24.884-13.686-33.198l-1.342-3.116c-1.767-4.11-5.428-7.14-9.793-8.103-4.37-.962-8.963.245-12.295 3.231l-2.526 2.26c-15.676 14.011-31.673 28.905-44.564 43.15-19.491-23.241-47.426-37.619-77.851-39.786-4.137-.303-7.719 2.817-8.014 6.948s2.816 7.72 6.948 8.014c27.192 1.937 52.093 15.142 69.032 36.43-7.819 9.87-13.553 19.189-15.923 27.392-11.725-21.239-34.346-35.531-60.119-35.531-17.209 0-33.67 6.398-46.35 18.016-11.843 10.85-19.449 25.367-21.629 41.148h-28.734c1.861-19.371 9.381-37.459 21.892-52.537 13.236-15.952 30.781-27.073 50.739-32.161 4.014-1.023 6.438-5.106 5.415-9.12s-5.105-6.439-9.12-5.415c-23.049 5.875-43.306 18.71-58.578 37.118-14.756 17.785-23.487 39.2-25.395 62.115h-10.228c-13.279-.001-24.082 10.802-24.082 24.081v4.151c0 13.279 10.803 24.083 24.082 24.083h3.16v183.894c0 87.94 71.544 159.485 159.485 159.485h38.054c66.342 0 123.345-40.722 147.347-98.48.21-.107.422-.208.624-.337l91.36-58.213c27.439-17.468 43.82-47.316 43.82-79.844 0-52.191-42.461-94.652-94.652-94.652zm-29.015 55.507h29.015c21.585 0 39.146 17.561 39.146 39.145 0 13.452-6.775 25.796-18.123 33.021l-50.037 31.855v-104.021zm-10.146-193.866 1.798-.659.055 1.921c.492 17.067 1.392 48.325-1.911 72.928h-39.797l22.217-32.791c2.323-3.429 1.427-8.093-2.002-10.416s-8.093-1.427-10.416 2.002l-27.393 40.429c-.171.252-.319.512-.455.776h-40.681c.282-9.962 3.322-19.645 8.795-27.723 12.246-18.074 68.582-38.701 89.79-46.467zm-153.834 55.942c4.703-21.318 49.432-61.298 66.271-76.349l1.428-1.278.759 1.763c3.664 8.494 8.953 20.76 13.994 34.04-14.06 7.611-25.193 15.622-30.825 23.934-7.151 10.555-11.091 23.188-11.38 36.137h-40.876c-.869-6.115-.673-12.346.629-18.247zm-74.216-25.916c26.237 0 48.298 18.945 52.784 44.164h-105.576c4.48-25.468 26.434-44.164 52.792-44.164zm78.711 424.859h-38.054c-79.669 0-144.485-64.816-144.485-144.485v-183.894h24.611c4.142 0 7.5-3.358 7.5-7.5s-3.358-7.5-7.5-7.5h-42.77c-5.008 0-9.082-4.074-9.082-9.083v-4.151c0-5.008 4.074-9.083 9.082-9.083h363.85c5.008 0 9.082 4.074 9.082 9.083v4.151c0 5.008-4.074 9.083-9.082 9.083h-291.079c-4.142 0-7.5 3.358-7.5 7.5s3.358 7.5 7.5 7.5h272.413v183.894c-.001 79.669-64.816 144.485-144.486 144.485zm231.273-154.681-76.511 48.751c2.665-10.692 4.247-21.807 4.624-33.222l58.192-37.047c15.696-9.993 25.067-27.067 25.067-45.674 0-29.855-24.29-54.145-54.146-54.145h-29.015v-25.507h29.015c43.92 0 79.652 35.731 79.652 79.652.001 27.372-13.785 52.49-36.878 67.192z"/></g></svg>