<svg id="Capa_1" enable-background="new 0 0 509.579 509.579" height="512" viewBox="0 0 509.579 509.579" width="512" xmlns="http://www.w3.org/2000/svg"><g><g><g><circle cx="330.779" cy="45.477" fill="#ef4424" r="37.977"/></g></g><g><g><path d="m330.779 7.5c-5.328 0-10.398 1.102-15 3.083 13.513 5.817 22.977 19.249 22.977 34.895s-9.464 29.078-22.977 34.895c4.602 1.981 9.672 3.083 15 3.083 20.974 0 37.977-17.003 37.977-37.977.001-20.976-17.002-37.979-37.977-37.979z" fill="#d73d24"/></g></g><g><g><circle cx="254.79" cy="45.477" fill="#ef4424" r="37.977"/></g></g><g><g><path d="m254.79 7.5c-5.328 0-10.398 1.102-15 3.083 13.513 5.817 22.977 19.249 22.977 34.895s-9.464 29.078-22.977 34.895c4.602 1.981 9.672 3.083 15 3.083 20.974 0 37.977-17.003 37.977-37.977 0-20.976-17.003-37.979-37.977-37.979z" fill="#d73d24"/></g></g><g><g><circle cx="178.8" cy="45.477" fill="#ef4424" r="37.977"/></g></g><g><g><path d="m178.8 7.5c-5.328 0-10.398 1.102-15 3.083 13.513 5.817 22.977 19.249 22.977 34.895s-9.464 29.078-22.977 34.895c4.602 1.981 9.672 3.083 15 3.083 20.974 0 37.977-17.003 37.977-37.977.001-20.976-17.002-37.979-37.977-37.979z" fill="#d73d24"/></g></g><g><g><path d="m342.889 498.825-55.755-39.942c-9.6-6.877-15.279-17.858-15.279-29.543v-323.564h-34.129v323.564c0 11.685-5.679 22.665-15.279 29.543l-55.755 39.942c-1.768 1.267-.339 3.254 2.341 3.254h171.515c2.679 0 4.109-1.987 2.341-3.254z" fill="#f7f9f5"/></g></g><g><g><path d="m342.889 498.825-55.755-39.942c-9.6-6.877-15.279-17.858-15.279-29.543v-323.564h-30v323.564c0 11.685 5.679 22.665 15.279 29.543l55.755 39.942c1.768 1.267.339 3.254-2.341 3.254h30c2.679 0 4.109-1.987 2.341-3.254z" fill="#eceae6"/></g></g><g><g><path d="m289.943 235.169h-70.306c-82.371 0-149.146-66.775-149.146-149.146v-16.113c0-11.15 9.039-20.19 20.189-20.19h328.22c11.15 0 20.19 9.039 20.19 20.19v16.113c-.001 82.371-66.776 149.146-149.147 149.146z" fill="#f7f9f5"/></g></g><g><g><path d="m418.9 49.72h-30c11.15 0 20.19 9.039 20.19 20.189v16.113c0 82.371-66.775 149.146-149.146 149.146h30c82.371 0 149.146-66.775 149.146-149.146v-16.112c-.001-11.15-9.04-20.19-20.19-20.19z" fill="#eceae6"/></g></g><g><g><path d="m234.057 111.207v9.475c0 8.925-7.236 16.161-16.161 16.161s-16.161-7.236-16.161-16.161v-9.475h-56.78v9.475c0 8.925-7.236 16.161-16.161 16.161-8.925 0-16.161-7.236-16.161-16.161v-9.475h-40.015c11.97 70.377 73.232 123.962 147.018 123.962h70.306c73.787 0 135.049-53.585 147.018-123.962z" fill="#fd6930"/></g></g><g><g><path d="m406.961 111.207c-11.97 70.377-73.232 123.962-147.018 123.962h30c73.787 0 135.049-53.585 147.018-123.962z" fill="#fd5426"/></g></g><g><g><path d="m89.776 159.412c25.616 45.23 74.17 75.757 129.861 75.757h70.306c55.691 0 104.245-30.528 129.861-75.757z" fill="#fd5426"/></g></g><g><g><path d="m389.804 159.412c-25.616 45.23-74.17 75.757-129.861 75.757h30c55.691 0 104.245-30.528 129.861-75.757z" fill="#ef4424"/></g></g><g><g><circle cx="198.404" cy="191.421" fill="#ef4424" r="8.341"/></g></g><g><g><circle cx="235.995" cy="191.421" fill="#ef4424" r="8.341"/></g></g><g><g><circle cx="273.585" cy="191.421" fill="#ef4424" r="8.341"/></g></g><g><g><circle cx="311.175" cy="191.421" fill="#ef4424" r="8.341"/></g></g><path d="m446.589 86.023v-16.113c0-15.268-12.421-27.689-27.689-27.689h-42.772c-1.678-23.561-21.369-42.221-45.349-42.221-15.868 0-29.856 8.174-37.995 20.527-8.139-12.353-22.127-20.527-37.994-20.527-15.868 0-29.855 8.174-37.994 20.527-8.14-12.353-22.128-20.527-37.996-20.527-23.98 0-43.671 18.66-45.348 42.22h-42.772c-15.269 0-27.69 12.421-27.69 27.689v16.113c0 27.661 7.216 53.664 19.851 76.243.224.543.512 1.05.851 1.52 27.044 47.095 77.852 78.883 135.945 78.883h10.588v80.049c0 4.142 3.358 7.5 7.5 7.5s7.5-3.358 7.5-7.5v-80.049h19.129v186.672c0 14.058 6.883 27.381 18.411 35.64l41.317 29.599h-138.585l41.317-29.599c11.529-8.259 18.412-21.582 18.412-35.64v-76.622c0-4.142-3.358-7.5-7.5-7.5s-7.5 3.358-7.5 7.5v76.622c0 9.232-4.541 17.998-12.147 23.446l-55.754 39.941c-3.321 2.378-4.691 6.328-3.492 10.062 1.304 4.061 5.403 6.79 10.201 6.79h171.515c4.797 0 8.896-2.729 10.201-6.79 1.199-3.734-.171-7.684-3.492-10.062l-55.755-39.941c-7.605-5.449-12.146-14.214-12.146-23.446v-186.671h10.588c58.092 0 108.899-31.788 135.943-78.881.339-.471.629-.98.853-1.524 12.632-22.578 19.848-48.581 19.848-76.241zm-115.81-71.023c15.705 0 28.67 11.941 30.301 27.22h-60.603c1.632-15.279 14.597-27.22 30.302-27.22zm-75.989 0c15.705 0 28.67 11.941 30.301 27.22h-60.602c1.631-15.279 14.596-27.22 30.301-27.22zm-75.99 0c15.705 0 28.67 11.941 30.301 27.22h-60.603c1.632-15.279 14.597-27.22 30.302-27.22zm-100.81 54.91c0-6.997 5.693-12.689 12.69-12.689h328.219c6.997 0 12.689 5.692 12.689 12.689v16.113c0 5.988-.377 11.889-1.102 17.684h-121.735c-4.142 0-7.5 3.358-7.5 7.5s3.358 7.5 7.5 7.5h119.025c-2.772 11.693-7 22.826-12.477 33.205h-321.019c-5.477-10.378-9.705-21.512-12.477-33.205h23.33v1.975c0 13.047 10.614 23.661 23.661 23.661s23.661-10.614 23.661-23.661v-1.975h41.78v1.975c0 13.047 10.614 23.661 23.661 23.661s23.661-10.614 23.661-23.661v-1.975h37.193c4.142 0 7.5-3.358 7.5-7.5s-3.358-7.5-7.5-7.5h-44.693c-4.142 0-7.5 3.358-7.5 7.5v9.475c0 4.776-3.885 8.661-8.661 8.661s-8.661-3.885-8.661-8.661v-9.475c0-4.142-3.358-7.5-7.5-7.5h-56.78c-4.142 0-7.5 3.358-7.5 7.5v9.475c0 4.776-3.885 8.661-8.661 8.661s-8.661-3.885-8.661-8.661v-9.475c0-4.142-3.358-7.5-7.5-7.5h-33.541c-.725-5.795-1.102-11.696-1.102-17.684zm211.953 157.759h-70.306c-48.054 0-90.588-24.059-116.21-60.758h302.726c-25.623 36.699-68.156 60.758-116.21 60.758z"/></g></svg>