<svg id="Capa_1" enable-background="new 0 0 508.436 508.436" height="512" viewBox="0 0 508.436 508.436" width="512" xmlns="http://www.w3.org/2000/svg"><g><g><g><path d="m362.771 500.936h-217.105c-14.886 0-27.069-11.845-27.489-26.725l-12.809-354.663c-.451-12.497 9.557-22.874 22.063-22.874h253.575c12.505 0 22.514 10.377 22.063 22.874l-12.809 354.663c-.42 14.88-12.603 26.725-27.489 26.725z" fill="#f7f9f5"/></g></g><g><g><path d="m381.005 96.675h-30c12.505 0 22.514 10.377 22.063 22.874l-12.809 354.662c-.419 14.88-12.603 26.725-27.489 26.725h30c14.886 0 27.069-11.845 27.489-26.725l12.809-354.662c.451-12.497-9.557-22.874-22.063-22.874z" fill="#eceae6"/></g></g><g><g><path d="m206.928 410.677h94.581c50.806 0 92.497-40.213 94.331-90.986l7.228-200.143c.451-12.497-9.557-22.874-22.063-22.874h-253.574c-12.505 0-22.514 10.377-22.063 22.874l7.228 200.143c1.834 50.773 43.526 90.986 94.332 90.986z" fill="#f7f9f5"/></g></g><g><g><path d="m381.005 96.675h-30c12.505 0 22.514 10.377 22.063 22.874l-7.228 200.143c-1.834 50.773-43.525 90.986-94.331 90.986h30c50.806 0 92.497-40.213 94.331-90.986l7.228-200.143c.451-12.497-9.557-22.874-22.063-22.874z" fill="#eceae6"/></g></g><g><g><path d="m110.008 248.027 2.588 71.665c1.834 50.773 43.525 90.986 94.331 90.986h94.581c50.806 0 92.497-40.213 94.331-90.986l2.588-71.665z" fill="#a74b30"/></g></g><g><g><path d="m281.548 376.872-81.148 9.089c-6.346.711-12.066-3.857-12.777-10.203l-9.089-81.148c-.711-6.346 3.857-12.066 10.203-12.777l81.148-9.089c6.346-.711 12.066 3.857 12.777 10.203l9.089 81.148c.711 6.346-3.857 12.066-10.203 12.777z" fill="#d6694b"/></g></g><g><g><path d="m187.775 392.376c-8.241.58-15.391-5.631-15.971-13.871l-24.979-354.995c-.58-8.241 5.631-15.391 13.871-15.971 8.241-.58 15.391 5.631 15.971 13.871l24.979 354.994c.581 8.241-5.63 15.392-13.871 15.972z" fill="#ef4424"/></g></g><g><g><path d="m192.623 248.167h-29.99l9.171 130.337c.58 8.241 7.73 14.451 15.971 13.871s14.451-7.73 13.871-15.971z" fill="#fd6930"/></g></g><g><g><path d="m368.428 248.027-2.588 71.665c-1.834 50.773-43.525 90.986-94.331 90.986h30c50.806 0 92.497-40.213 94.331-90.986l2.588-71.665z" fill="#8c3d27"/></g></g><g><g><circle cx="143.723" cy="290.391" fill="#8c3d27" r="8.415"/></g></g><g><g><circle cx="329.253" cy="356.776" fill="#8c3d27" r="8.415"/></g></g><g><g><circle cx="355.826" cy="310.153" fill="#8c3d27" r="8.415"/></g></g><g><g><path d="m361.238 254.012-48.684 52.445c-4.344 4.68-11.66 4.952-16.34.608l-52.445-48.684c-4.68-4.344-4.952-11.66-.608-16.34l48.684-52.445c4.344-4.68 11.66-4.952 16.34-.608l52.445 48.684c4.68 4.345 4.952 11.66.608 16.34z" fill="#d4f2f6"/></g></g><g><g><path d="m240.19 248.311c-.5 3.611.704 7.401 3.579 10.069l52.445 48.684c4.68 4.344 11.996 4.072 16.34-.608l48.684-52.445c1.535-1.653 2.481-3.637 2.873-5.701h-123.921z" fill="#d6694b"/></g></g><path d="m402.294 98.218c-5.625-5.832-13.186-9.043-21.288-9.043h-104.894c-4.143 0-7.5 3.358-7.5 7.5s3.357 7.5 7.5 7.5h104.894c3.993 0 7.72 1.583 10.491 4.457 2.772 2.875 4.221 6.655 4.076 10.646l-4.379 121.249h-20.228c-.972-3.164-2.742-6.038-5.233-8.351l-52.445-48.684c-3.731-3.464-8.596-5.274-13.677-5.079-5.088.189-9.798 2.348-13.263 6.08l-48.684 52.445c-1.032 1.112-1.886 2.322-2.603 3.588h-35.457l-4.221-59.986c-.291-4.132-3.875-7.252-8.008-6.955-4.132.291-7.246 3.876-6.955 8.008l4.147 58.934h-14.954l-9.594-136.352h14.954l3.093 43.949c.291 4.132 3.864 7.248 8.008 6.955 4.132-.291 7.246-3.876 6.955-8.008l-3.018-42.896h56.102c4.142 0 7.5-3.358 7.5-7.5s-3.358-7.5-7.5-7.5h-57.157l-4.805-68.291c-.421-5.984-3.147-11.446-7.676-15.379s-10.321-5.871-16.303-5.447c-12.353.87-21.695 11.626-20.826 23.979l4.583 65.139h-16.496c-8.103 0-15.663 3.212-21.288 9.043-5.625 5.832-8.562 13.503-8.27 21.601l7.228 200.139v.004c0 .006.001.012.001.018l5.578 154.442c.538 19.073 15.905 34.014 34.986 34.014h217.102c19.081 0 34.449-14.941 34.984-33.955l12.809-354.663c.292-8.097-2.644-15.769-8.269-21.601zm-13.949 221.194c0 .003-.001.006-.001.01-.816 22.604-10.231 43.702-26.513 59.405-16.28 15.704-37.704 24.352-60.323 24.352h-94.581c-22.62 0-44.042-8.648-60.323-24.352-16.279-15.702-25.695-36.797-26.512-59.4l-2.308-63.899h37.848l8.69 123.505c.832 11.819 10.715 20.882 22.387 20.882.527 0 1.059-.019 1.593-.056 5.486-.386 10.517-2.728 14.35-6.602l79.729-8.93c10.445-1.169 17.992-10.619 16.823-21.065l-5.449-48.651c3.059 1.981 6.608 3.044 10.307 3.044.242 0 .483-.004.727-.014 5.088-.189 9.798-2.349 13.262-6.08l48.685-52.445c1.023-1.103 1.883-2.313 2.608-3.588h21.31zm-130.933-38.134 19.55 18.148 7.337 65.502c.249 2.226-1.359 4.24-3.586 4.489l-71.551 8.014c-.001-.517.003-1.033-.034-1.554l-6.198-88.089 52.124-5.838c.842-.093 1.632-.33 2.358-.672zm39.929-86.579c.8-.861 1.888-1.297 2.979-1.297.989 0 1.981.358 2.762 1.083l52.445 48.684c.795.738 1.255 1.742 1.296 2.826.04 1.084-.345 2.119-1.083 2.915l-48.685 52.445c-.738.795-1.741 1.255-2.825 1.295-1.095.045-2.12-.344-2.915-1.082l-52.444-48.685c-.795-.738-1.255-1.742-1.296-2.826-.001-.02.004-.039.004-.059.132-.486.216-.991.247-1.51.183-.492.463-.948.831-1.345zm-63.898 60.828c.95 3.096 2.684 5.993 5.224 8.351l4.629 4.297-41.419 4.639-1.216-17.287zm-47.82 0 8.542 121.405c.14 1.987-.502 3.91-1.809 5.414s-3.12 2.41-5.108 2.549c-4.104.28-7.675-2.813-7.963-6.916l-8.616-122.452zm-31.317-232.543c-.289-4.102 2.814-7.674 6.917-7.963 4.118-.285 7.675 2.814 7.963 6.917l4.731 67.238h-14.954zm-37.367 85.648c2.772-2.874 6.499-4.457 10.492-4.457h17.552l9.594 136.352h-37.334l-4.379-121.249c-.145-3.991 1.303-7.771 4.075-10.646zm245.831 384.804h-217.104c-10.903 0-19.685-8.538-19.994-19.496l-3.658-101.292c4.056 6.092 8.797 11.784 14.177 16.974 19.091 18.414 44.212 28.555 70.737 28.555h94.581c26.524 0 51.646-10.141 70.737-28.555 5.38-5.19 10.121-10.882 14.177-16.974l-3.661 101.352c-.306 10.899-9.089 19.436-19.992 19.436z"/></g></svg>