<svg id="Capa_1" enable-background="new 0 0 511.183 511.183" height="512" viewBox="0 0 511.183 511.183" width="512" xmlns="http://www.w3.org/2000/svg"><g><g><g><circle cx="295.124" cy="154.236" fill="#fef056" r="84.981"/></g></g><g><g><path d="m295.124 69.256c-5.121 0-10.128.479-15 1.347 39.775 7.088 69.981 41.822 69.981 83.634s-30.206 76.546-69.981 83.634c4.872.868 9.879 1.347 15 1.347 46.933 0 84.981-38.047 84.981-84.981s-38.047-84.981-84.981-84.981z" fill="#f4d902"/></g></g><g><g><circle cx="295.124" cy="154.236" fill="#fef6ad" r="46.253"/></g></g><g><g><path d="m231.354 69.881-107.263-43.566c-2.645-1.074-5.667.113-6.874 2.699l-48.683 104.308 14.295-1.168c49.965-4.083 97.652-22.664 137.209-53.462z" fill="#e03d9c"/></g></g><g><g><path d="m124.091 26.315c-2.645-1.074-5.667.113-6.875 2.699l-2.626 5.627 73.475 29.843c5.906 2.399 7.001 10.292 1.971 14.208-34.995 27.246-76.356 44.922-120.027 51.465l-1.477 3.164 14.295-1.168c49.965-4.083 97.652-22.664 137.208-53.461l11.317-8.811z" fill="#c53287"/></g></g><g><g><path d="m396.095 195.686c-19.623 18.951-52.546 19.785-71.633.022s-17.109-52.637 2.514-71.589c15.955-15.409 70.907-22.757 91.756-25.802 3.806-.556 7.029 2.781 6.341 6.565-3.768 20.731-13.023 75.394-28.978 90.804z" fill="#00c285"/></g></g><g><g><path d="m418.732 98.318c-5.833.852-14.336 2.041-23.907 3.648.325.894.435 1.887.248 2.917-3.768 20.73-13.022 75.393-28.978 90.803-6.095 5.887-13.475 10.023-21.324 12.339 17.434 5.281 37.621.896 51.324-12.339 15.955-15.41 25.21-70.073 28.978-90.803.688-3.785-2.535-7.121-6.341-6.565z" fill="#07b27b"/></g></g><g><g><path d="m309.871 503.683c17.08 0 33.905-4.405 48.672-12.987 61.134-35.528 102.241-101.722 102.241-177.523 0-25.196-4.542-49.33-12.852-71.63-21.68-58.177-77.504-96.544-139.59-96.544h-105.511c-61.266 0-116.761 37.277-138.785 94.448-8.899 23.099-13.739 48.214-13.645 74.472.267 75.108 42.062 141.27 103.214 176.807 14.751 8.572 31.562 12.957 48.623 12.957z" fill="#f7f9f5"/></g></g><g><g><path d="m309.871 503.683c17.08 0 33.905-4.405 48.672-12.987 61.134-35.528 102.241-101.722 102.241-177.523 0-25.196-4.542-49.33-12.852-71.63-21.68-58.177-77.504-96.544-139.59-96.544h-105.511c-61.266 0-116.761 37.277-138.785 94.448-8.899 23.099-13.739 48.214-13.645 74.472.267 75.108 42.062 141.27 103.214 176.807 14.751 8.572 31.562 12.957 48.623 12.957z" fill="#fedba6"/></g></g><g><g><path d="m447.932 241.543c-21.68-58.177-77.504-96.544-139.59-96.544h-30c62.085 0 117.909 38.367 139.59 96.544 8.31 22.299 12.852 46.433 12.852 71.63 0 75.801-41.106 141.995-102.24 177.523-14.767 8.582-31.592 12.987-48.672 12.987h30c17.08 0 33.905-4.405 48.672-12.987 61.134-35.528 102.241-101.722 102.241-177.523-.001-25.197-4.543-49.331-12.853-71.63z" fill="#fec165"/></g></g><g><g><path d="m309.871 503.683c17.08 0 33.905-4.405 48.673-12.987 61.134-35.528 102.24-101.722 102.24-177.523 0-22.98-3.789-45.072-10.758-65.699l-55.738 10.994c-15.806 3.118-32.123 2.477-47.635-1.87l-5.375-1.506c-17.793-4.986-36.601-5.085-54.445-.284l-4.777 1.285c-17.339 4.664-35.597 4.705-52.957.119l-7.433-1.964c-16.82-4.443-34.493-4.545-51.363-.296l-13.371 3.368c-15.38 3.874-31.447 4.137-46.945.768l-48.829-10.614c-6.971 20.632-10.76 42.729-10.758 65.715.005 75.492 41.634 141.855 102.872 177.48 14.78 8.598 31.621 13.014 48.72 13.014z" fill="#c4573a"/></g></g><g><g><path d="m450.026 247.474-28.218 5.566c5.825 19.019 8.977 39.205 8.977 60.133 0 75.801-41.106 141.995-102.24 177.523-14.768 8.582-31.592 12.987-48.673 12.987h30c17.08 0 33.905-4.405 48.673-12.987 61.134-35.528 102.24-101.722 102.24-177.523-.001-22.981-3.79-45.072-10.759-65.699z" fill="#a74b30"/></g></g><g><path d="m454.96 238.924c-8.619-23.126-22.435-43.559-40.425-60.067 8.806-22.146 14.364-52.941 17.389-69.708l.528-2.926c.754-4.147-.544-8.432-3.471-11.462-2.926-3.029-7.159-4.474-11.332-3.865l-2.929.425c-15.233 2.204-30.935 4.749-45.22 7.96-14.93-20.187-37.257-33.317-61.86-36.667l.266-2.757c1.198-12.446 10.103-23.042 22.157-26.366l68.023-18.758c3.993-1.101 6.337-5.23 5.236-9.224-1.102-3.992-5.228-6.339-9.225-5.236l-68.023 18.758c-18.008 4.966-31.31 20.795-33.101 39.389l-.327 3.394c-43.583 1.169-80.68 33.017-88.49 75.686h-1.327c-9.947 0-19.86.969-29.586 2.839l-8.423-20.633c21.253-8.965 41.359-20.721 59.823-35.096l11.317-8.811c2.114-1.646 3.189-4.295 2.821-6.949s-2.124-4.91-4.606-5.918l-107.261-43.565c-6.349-2.578-13.594.265-16.493 6.476l-13.494 28.912c-1.752 3.753-.13 8.216 3.624 9.968 3.754 1.75 8.217.129 9.968-3.625l12.635-27.069 93.345 37.913-1.068.832c-38.508 29.981-84.572 47.93-133.212 51.905l-1.428.117 18.462-39.557c1.752-3.753.13-8.216-3.624-9.968-3.753-1.75-8.217-.129-9.968 3.625l-23.924 51.254c-1.131 2.421-.887 5.261.64 7.455 1.408 2.025 3.714 3.217 6.155 3.217.203 0 .407-.008.611-.025l14.296-1.168c23.18-1.895 45.804-6.792 67.4-14.487l7.661 18.766c-18.157 5.329-35.341 13.884-50.47 25.31-3.306 2.496-3.962 7.2-1.466 10.505 2.496 3.306 7.201 3.961 10.505 1.465 24.496-18.5 54.953-28.688 85.761-28.688h105.511c28.975 0 56.875 8.689 80.687 25.127 23.156 15.987 40.716 38.148 50.949 64.185l-47.141 9.299c-14.579 2.876-29.85 2.276-44.16-1.734l-5.375-1.506c-19.08-5.348-39.281-5.454-58.417-.305l-4.777 1.285c-16.048 4.317-33.024 4.356-49.094.11l-7.433-1.963c-18.002-4.755-37.058-4.864-55.11-.317l-13.371 3.368c-14.181 3.572-29.229 3.818-43.521.712l-40.464-8.796c5.819-15.039 14.138-28.831 24.733-40.994 2.721-3.123 2.395-7.861-.729-10.582-3.125-2.721-7.861-2.395-10.582.729-11.789 13.534-21.038 28.887-27.491 45.633-9.481 24.612-14.24 50.584-14.146 77.195.266 74.862 41.245 145.085 106.945 183.265 15.73 9.141 33.847 13.973 52.392 13.973h107.634c18.544 0 36.678-4.842 52.441-14.003 31.647-18.392 58.185-44.79 76.741-76.341 19.123-32.512 29.23-69.743 29.23-107.667.002-25.544-4.481-50.525-13.322-74.249zm-101.398-135.567c-9.377 2.749-17.601 5.922-23.974 9.636-7.397-6.202-16.211-10.235-25.664-11.783l2.278-23.653c18.346 2.643 35.149 11.778 47.36 25.8zm-45.22 34.142h-7.913l2.053-21.317c5.574 1.066 10.817 3.342 15.415 6.696-3.707 4.37-6.804 9.322-9.13 14.629-.143-.001-.283-.008-.425-.008zm-48.184 0c5.229-10.954 15.338-18.832 27.246-21.239l-2.046 21.239zm31.04-60.637-2.311 23.99c-20.749 2.404-38.322 16.66-44.847 36.647h-24.57c7.446-33.777 36.939-58.87 71.728-60.637zm87.241 77.142 16.401-15.84c2.979-2.877 3.063-7.625.185-10.605-2.877-2.979-7.626-3.063-10.604-.184l-20.854 20.142c-12.336-4.638-25.222-7.707-38.426-9.112 1.956-3.264 4.306-6.242 7.047-8.891 13.514-13.051 65.218-20.531 84.683-23.347l.359-.052-.066.371c-2.721 15.081-7.56 41.891-14.833 62.231-1.569-1.171-3.161-2.317-4.779-3.434-6.138-4.237-12.528-7.987-19.113-11.279zm47.686 259.23c-17.254 29.334-41.926 53.877-71.35 70.977-13.477 7.832-29.005 11.972-44.904 11.972h-107.634c-15.9 0-31.411-4.129-44.854-11.942-61.116-35.516-99.235-100.79-99.482-170.35-.071-19.709 2.731-39.034 8.323-57.641l42.169 9.167c7.677 1.669 15.542 2.502 23.409 2.502 9.082 0 18.166-1.11 26.961-3.325l13.371-3.368c15.599-3.929 32.063-3.834 47.615.274l7.433 1.963c18.599 4.913 38.245 4.868 56.821-.128l4.777-1.285c16.533-4.448 33.986-4.356 50.474.263l5.374 1.506c16.563 4.642 34.238 5.335 51.11 2.007l49.187-9.702c5.548 18.421 8.359 37.555 8.359 57.048 0 35.253-9.392 69.853-27.159 100.062z"/></g></g></svg>