<svg id="Capa_1" enable-background="new 0 0 508.197 508.197" height="512" viewBox="0 0 508.197 508.197" width="512" xmlns="http://www.w3.org/2000/svg"><g><g><g><path d="m344.009 500.697h-179.821c-10.288 0-18.758-8.087-19.234-18.363l-21.074-454.688c-.508-10.972 8.25-20.146 19.235-20.146h221.968c10.984 0 19.743 9.174 19.234 20.146l-21.073 454.687c-.477 10.277-8.947 18.364-19.235 18.364z" fill="#f7f9f5"/></g></g><g><g><path d="m365.082 7.5h-30c10.984 0 19.743 9.174 19.234 20.146l-21.073 454.687c-.476 10.277-8.947 18.363-19.234 18.363h30c10.288 0 18.758-8.087 19.234-18.363l21.073-454.687c.509-10.972-8.249-20.146-19.234-20.146z" fill="#eceae6"/></g></g><g><g><path d="m364.848 447.709 16.344-352.637h-254.187l16.344 352.637z" fill="#5de1c4"/></g></g><g><g><path d="m364.848 447.709 16.344-352.637h-30l-16.344 352.637z" fill="#0ed2b3"/></g></g><g><g><path d="m217.446 310.695-34.095 5.685c-6.299 1.05-12.256-3.204-13.306-9.503l-5.685-34.095c-1.05-6.299 3.204-12.256 9.503-13.306l34.095-5.685c6.299-1.05 12.256 3.204 13.306 9.503l5.685 34.095c1.05 6.299-3.204 12.256-9.503 13.306z" fill="#f7f9f5"/></g></g><g><g><path d="m339.531 345.336-24.442 24.442c-4.515 4.515-11.836 4.515-16.351 0l-24.442-24.442c-4.515-4.515-4.515-11.836 0-16.351l24.442-24.442c4.515-4.515 11.836-4.515 16.351 0l24.442 24.442c4.516 4.515 4.516 11.836 0 16.351z" fill="#f7f9f5"/></g></g><g><g><circle cx="348.353" cy="132.707" fill="#9cf8d2" r="10.875"/></g></g><g><g><circle cx="176.675" cy="359.289" fill="#9cf8d2" r="10.875"/></g></g><g><g><circle cx="271.945" cy="285.086" fill="#9cf8d2" r="10.875"/></g></g><g><g><path d="m271.597 151.473c17.979 17.979 19.289 48.646 1.182 66.753s-48.774 16.797-66.753-1.182c-14.618-14.618-22.357-65.708-25.532-85.087-.58-3.538 2.477-6.595 6.015-6.015 19.381 3.174 70.47 10.912 85.088 25.531z" fill="#07b27b"/></g></g><g><g><path d="m244.592 333.536c22.307-12.201 52.106-4.839 64.394 17.628 12.288 22.466 2.411 51.529-19.896 63.729-18.138 9.92-69.343 2.987-88.833.587-3.558-.438-5.633-4.231-4.082-7.463 8.494-17.706 30.279-64.561 48.417-74.481z" fill="#07b27b"/></g></g><g><g><path d="m323.123 121.833c-39.466 3.068-69.727 36.854-68.069 76.727s34.619 71.031 74.203 70.811z" fill="#fee903"/></g></g><g><g><path d="m324.356 151.492c-23.093 2.36-40.641 22.332-39.664 45.835s20.122 41.949 43.332 42.384z" fill="#fef6ad"/></g></g><g><path d="m231.057 310.369c2.959-4.144 4.128-9.191 3.291-14.214l-5.685-34.096c-.837-5.022-3.581-9.418-7.724-12.377-4.144-2.959-9.194-4.128-14.213-3.29l-34.096 5.685c-10.368 1.729-17.396 11.57-15.667 21.938l5.685 34.095c1.553 9.311 9.648 15.929 18.792 15.929 1.037 0 2.089-.085 3.145-.261l34.096-5.685c5.021-.837 9.417-3.58 12.376-7.724zm-14.844-7.072-34.096 5.685c-2.208.369-4.307-1.129-4.675-3.339l-5.685-34.096c-.369-2.209 1.129-4.306 3.338-4.675l34.096-5.685c.226-.038.452-.056.677-.056.839 0 1.656.26 2.352.757.883.631 1.468 1.567 1.646 2.637l5.685 34.096c.179 1.07-.07 2.146-.701 3.029-.63.884-1.567 1.469-2.637 1.647z"/><path d="m344.835 323.681-24.442-24.442c-3.6-3.6-8.387-5.583-13.479-5.583-5.091 0-9.878 1.983-13.479 5.583l-19.41 19.41c-.537.537-.974 1.136-1.314 1.774-10.999-.932-22.161 1.306-31.718 6.532-8.778 4.801-18.434 16.281-29.521 35.095-8.651 14.681-16.297 30.672-20.865 40.226l-1.194 2.496c-1.77 3.69-1.655 8.035.308 11.623 1.962 3.588 5.559 6.028 9.62 6.528l2.739.34c18.481 2.3 37.813 4.278 54.493 4.278 15.07 0 27.975-1.616 36.117-6.069 18.714-10.236 29.414-30.211 29.085-50.097 1.632-.182 3.217-.894 4.469-2.145l18.592-18.592c7.431-7.431 7.431-19.524-.001-26.957zm-59.344 84.632c-15.115 8.268-62.78 2.402-81.196.111 8.002-16.736 28.78-60.04 43.896-68.308 9.069-4.96 20.16-6.242 30.432-3.517 7.844 2.081 14.559 6.237 19.489 11.963l-10.49 5.737c-.391-.195-.801-.364-1.235-.491l-15.004-4.394c-3.975-1.164-8.142 1.115-9.306 5.09s1.115 8.141 5.09 9.306l1.997.585-5.95 3.255c-.391-.195-.801-.364-1.235-.491l-15.003-4.394c-3.974-1.165-8.142 1.114-9.306 5.09s1.115 8.142 5.09 9.306l1.997.585-13.452 7.357c-3.634 1.988-4.969 6.545-2.981 10.179 1.363 2.492 3.934 3.903 6.587 3.903 1.216 0 2.45-.297 3.592-.921l13.452-7.357-.585 1.997c-1.164 3.975 1.115 8.141 5.09 9.306.704.206 1.413.304 2.111.304 3.245 0 6.236-2.123 7.194-5.394l4.394-15.004c.127-.434.206-.87.253-1.305l5.95-3.254-.585 1.997c-1.164 3.975 1.115 8.141 5.09 9.306.704.206 1.413.304 2.111.304 3.245 0 6.236-2.123 7.194-5.394l4.394-15.004c.127-.434.206-.87.253-1.304l10.485-5.734c5.156 17.267-2.875 37.321-19.813 46.585zm48.737-68.281-15.255 15.255c-.91-2.635-2.037-5.219-3.407-7.723-5.739-10.493-14.872-18.511-26.129-23.115l14.604-14.604c.768-.767 1.788-1.19 2.872-1.19 1.085 0 2.105.422 2.873 1.19l24.442 24.442c1.584 1.585 1.584 4.162 0 5.745z"/><path d="m173.538 135.894c5.686 34.993 13.362 72.63 27.186 86.453 10.656 10.656 25.203 16.366 39.838 16.366 5.938 0 11.889-.955 17.601-2.887 3.889 6.802 8.783 13.072 14.601 18.608 15.219 14.481 35.115 22.438 56.076 22.438.152 0 .307 0 .459-.001 2.036-.011 3.98-.85 5.385-2.323s2.151-3.454 2.067-5.489l-3.067-73.769-1.834-44.109c0-.001 0-.002 0-.002l-1.233-29.657c-.084-2.034-.993-3.947-2.516-5.298-1.522-1.351-3.532-2.024-5.559-1.868-20.559 1.598-39.467 10.805-53.44 25.942-19.952-11.774-59.181-18.149-78.654-21.313l-2.725-.444c-4.037-.661-8.176.67-11.067 3.562-2.892 2.892-4.223 7.029-3.562 11.067zm142.433-5.534.619 14.885c-23.566 5.747-40.426 27.512-39.391 52.394s19.643 45.172 43.605 48.943l.619 14.885c-32.252-3.544-57.493-29.978-58.875-63.219-1.383-33.241 21.577-61.679 53.423-67.888zm4.192 100.817c-15.553-3.796-27.286-17.538-27.977-34.161s9.86-31.292 25.044-36.366zm-60.261-78.867c-5.929 9.435-9.843 19.93-11.501 30.93l-4.308-4.308c.077-.43.124-.871.124-1.323v-15.634c0-4.142-3.358-7.5-7.5-7.5s-7.5 3.358-7.5 7.5v2.081l-10.841-10.841c-2.929-2.929-7.678-2.929-10.606 0-2.929 2.929-2.929 7.677 0 10.606l10.842 10.842h-2.081c-4.142 0-7.5 3.358-7.5 7.5s3.358 7.5 7.5 7.5h15.634c.453 0 .893-.047 1.324-.124l4.796 4.796h-2.081c-4.142 0-7.5 3.358-7.5 7.5s3.358 7.5 7.5 7.5h12.486c.744 4.348 1.818 8.608 3.24 12.737-13.98 4.082-30.159.107-40.598-10.331-12.183-12.183-19.951-59.575-22.928-77.892 16.851 2.738 53.768 8.791 71.498 18.461z"/><path d="m384.433 8.279c-5.097-5.339-11.969-8.279-19.351-8.279h-221.967c-7.381 0-14.254 2.94-19.351 8.279-5.098 5.339-7.717 12.34-7.375 19.714l21.073 454.687c.663 14.308 12.402 25.516 26.726 25.516h179.822c14.324 0 26.063-11.208 26.726-25.516l21.073-454.687c.341-7.373-2.278-14.375-7.376-19.714zm-26.728 431.567h-96.635c-4.142 0-7.5 3.358-7.5 7.5s3.358 7.5 7.5 7.5h95.94l-1.258 27.14c-.292 6.286-5.449 11.211-11.742 11.211h-179.823c-6.293 0-11.451-4.924-11.742-11.211l-1.258-27.14h79.883c4.142 0 7.5-3.358 7.5-7.5s-3.358-7.5-7.5-7.5h-80.578l-15.632-337.274h11.815c4.142 0 7.5-3.358 7.5-7.5s-3.358-7.5-7.5-7.5h-12.51l-2.793-60.273c-.15-3.24 1.001-6.316 3.241-8.661s5.258-3.638 8.502-3.638h221.968c3.243 0 6.262 1.292 8.502 3.638s3.391 5.422 3.241 8.661l-2.793 60.273h-197.358c-4.142 0-7.5 3.358-7.5 7.5s3.358 7.5 7.5 7.5h196.661z"/></g></g></svg>