<svg id="Capa_1" enable-background="new 0 0 509.224 509.224" height="512" viewBox="0 0 509.224 509.224" width="512" xmlns="http://www.w3.org/2000/svg"><g><g><g><path d="m280.571 146.825c0 62.574-15.643 113.3-34.94 113.3s-34.94-50.726-34.94-113.3 34.94-113.3 34.94-113.3 34.94 50.726 34.94 113.3z" fill="#00c285"/></g></g><g><g><path d="m245.631 33.525s-7.162 10.398-15 27.584c9.475 20.775 19.94 51.471 19.94 85.716 0 45.163-8.15 84.15-19.94 102.351 4.545 7.017 9.631 10.949 15 10.949 19.297 0 34.94-50.726 34.94-113.3s-34.94-113.3-34.94-113.3z" fill="#07b27b"/></g></g><g><g><circle cx="311.893" cy="141.543" fill="#f4d902" r="78.434"/></g></g><g><g><path d="m311.893 63.109c-5.132 0-10.143.508-15 1.449 36.14 7.002 63.434 38.799 63.434 76.985s-27.294 69.983-63.434 76.985c4.857.941 9.868 1.449 15 1.449 43.318 0 78.434-35.116 78.434-78.434.001-43.318-35.116-78.434-78.434-78.434z" fill="#e3ca00"/></g></g><g><g><circle cx="311.893" cy="141.543" fill="#fee903" r="43.919"/></g></g><g><g><path d="m311.893 97.624c-5.269 0-10.319.93-15 2.631 16.869 6.13 28.919 22.301 28.919 41.288s-12.05 35.158-28.919 41.288c4.681 1.701 9.731 2.631 15 2.631 24.256 0 43.919-19.663 43.919-43.919s-19.663-43.919-43.919-43.919z" fill="#e3ca00"/></g></g><g><g><path d="m206.298 155.534c0 67.384-16.846 122.009-37.626 122.009s-37.626-54.625-37.626-122.009 37.626-122.009 37.626-122.009 37.626 54.625 37.626 122.009z" fill="#00c285"/></g></g><g><g><path d="m168.673 33.525s-7.023 10.201-15 27.215c10.488 22.37 22.625 56.521 22.625 94.794 0 50.093-9.311 93.127-22.625 111.918 4.596 6.486 9.668 10.091 15 10.091 20.78 0 37.625-54.625 37.625-122.009s-37.625-122.009-37.625-122.009z" fill="#07b27b"/></g></g><g><g><path d="m243.622 183.072c0 66.844-16.711 121.031-37.324 121.031s-37.324-54.188-37.324-121.031 37.324-121.032 37.324-121.032 37.324 54.188 37.324 121.032z" fill="#00f2a6"/></g></g><g><g><path d="m206.298 62.04s-7.037 10.22-15 27.252c10.376 22.194 22.324 55.959 22.324 93.779 0 49.541-9.18 92.122-22.324 110.851 4.591 6.542 9.664 10.18 15 10.18 20.614 0 37.324-54.187 37.324-121.031 0-66.843-37.324-121.031-37.324-121.031z" fill="#0ed290"/></g></g><g><g><path d="m146.196 161.795c-16.543 0-31.611 9.487-38.789 24.392-15.808 32.82-24.923 71.428-24.923 112.747 0 119.306 75.981 203.023 169.708 203.023s169.708-83.717 169.708-203.023c0-41.319-9.115-79.927-24.923-112.747-7.179-14.904-22.246-24.392-38.789-24.392z" fill="#fdb441"/></g></g><g><g><path d="m396.977 186.186c-7.179-14.904-22.246-24.392-38.789-24.392h-30c16.543 0 31.611 9.487 38.789 24.392 15.808 32.82 24.923 71.428 24.923 112.747 0 112.87-68.009 193.873-154.708 202.285 4.944.48 9.944.738 15 .738 93.727 0 169.708-83.717 169.708-203.023 0-41.318-9.115-79.926-24.923-112.747z" fill="#fea613"/></g></g><g><g><path d="m410.408 221.257c-3.728-12.349-8.3-24.167-13.664-35.303-7.179-14.904-22.246-24.392-38.789-24.392h-211.992c-16.543 0-31.611 9.487-38.789 24.392-5.364 11.137-9.936 22.954-13.664 35.303z" fill="#fea613"/></g></g><g><g><path d="m396.744 185.953c-7.179-14.904-22.246-24.392-38.789-24.392h-30c16.543 0 31.611 9.487 38.789 24.392 5.364 11.137 9.936 22.954 13.664 35.303h30c-3.728-12.349-8.3-24.166-13.664-35.303z" fill="#fe9901"/></g></g><path d="m361.636 33.766 67.375-19.046c3.986-1.127 6.304-5.271 5.177-9.257-1.127-3.987-5.274-6.304-9.257-5.177l-67.375 19.046c-14.73 4.164-25.901 16.043-29.155 31.001l-1.441 6.626c-4.896-.87-9.924-1.349-15.066-1.349-14.686 0-28.683 3.729-40.96 10.387-9.193-22.182-18.68-36.077-19.126-36.725-1.399-2.032-3.709-3.246-6.177-3.246s-4.777 1.213-6.177 3.246c-.52.756-10.763 15.774-20.257 39.491-3.744-6.607-6.378-10.476-6.723-10.976-1.399-2.032-3.709-3.246-6.177-3.246s-4.777 1.213-6.177 3.246c-.306.445-2.445 3.592-5.56 8.954-9.615-22.689-19.255-36.805-19.712-37.469-1.399-2.032-3.709-3.246-6.177-3.246-2.467 0-4.776 1.213-6.177 3.245-.414.602-10.262 15.001-20.005 38.156-1.606 3.818.187 8.215 4.004 9.822 3.82 1.605 8.216-.186 9.822-4.004 4.427-10.521 8.91-19.166 12.358-25.286 4.287 7.611 10.182 19.148 15.615 33.434.322.847.793 1.59 1.354 2.237-8.264 17.199-17.781 41.832-21.996 70.433h-17.687c-2.499 0-4.973.192-7.407.559.095-18.006 2.99-36.785 8.621-55.836 1.174-3.972-1.094-8.144-5.066-9.318-3.975-1.175-8.144 1.094-9.318 5.066-6.135 20.753-9.245 41.277-9.245 61.001 0 1.237.304 2.4.834 3.428-10.282 4.885-18.876 13.172-23.964 23.736-16.791 34.859-25.666 74.973-25.666 116.002 0 58.691 18.294 112.364 51.511 151.131 32.816 38.299 77.456 59.392 125.697 59.392s92.881-21.092 125.697-59.392c10.568-12.334 19.619-26.183 27.058-41.216.253-.415.465-.852.633-1.304 8.852-18.2 15.35-38.112 19.3-59.186.649-1.293.92-2.76.752-4.225 2.483-14.599 3.768-29.722 3.768-45.201 0-41.03-8.875-81.143-25.666-116.002-2.55-5.294-5.984-10.014-10.066-14.025 2.903-8.72 4.392-17.819 4.392-27.131 0-36.999-23.504-68.61-56.363-80.69l1.595-7.333c2.075-9.531 9.194-17.1 18.58-19.753zm-37.866 37.857-4.15 19.084c-2.521-.382-5.101-.582-7.726-.582-28.353 0-51.419 23.066-51.419 51.418 0 4.254.526 8.445 1.547 12.519h-13.075c-1.508-10.24-3.696-19.972-6.264-29.037.248-.481.451-.992.594-1.537 8.167-31.134 36.384-52.879 68.617-52.879 4.048 0 8.012.359 11.876 1.014zm22.496 81.992c-.052.148-.09.298-.132.447h-24.941l9.503-43.696c10.549 6.386 17.616 17.971 17.616 31.177 0 4.144-.689 8.205-2.046 12.072zm-40.424.447h-28.17c-.018-.054-.03-.109-.05-.164-1.425-3.949-2.147-8.106-2.147-12.355 0-20.081 16.338-36.418 36.419-36.418 1.534 0 3.043.106 4.527.292zm-60.209-106.025c3.543 6.363 8.15 15.425 12.557 26.433-9.482 7.585-17.376 17.164-22.98 28.232-2.213-5.723-4.488-11.004-6.703-15.784 5.579-16.685 12.329-30.262 17.126-38.881zm-39.328 28.467c8.119 14.453 21.981 43.003 27.469 77.558h-54.948c5.478-34.471 19.358-63.079 27.479-77.558zm186.201 322.922-29.679 17.569c-10.045 5.946-22.522 5.946-32.567 0l-7.09-4.197c-14.758-8.736-33.094-8.735-47.852.002l-7.082 4.193c-10.045 5.948-22.524 5.947-32.569 0l-7.081-4.192c-14.759-8.738-33.095-8.738-47.855 0l-7.079 4.191c-10.044 5.947-22.524 5.947-32.57 0l-27.185-16.095c-.699-.414-1.439-.697-2.191-.865-6.355-13.196-11.399-27.367-15.036-42.282l29.567 13.656c6.21 2.869 12.945 4.296 19.676 4.296 7.539 0 15.072-1.791 21.855-5.354l17.728-9.311c9.309-4.888 20.423-4.887 29.728 0l16.608 8.724c13.676 7.181 30.003 7.182 43.677-.001l16.608-8.723c9.307-4.889 20.42-4.889 29.727 0l17.313 9.092c13.154 6.909 28.986 7.158 42.353.667l25.59-12.427c-3.57 14.46-8.464 28.216-14.594 41.057zm21.661-100.725c0 14.093-1.119 27.862-3.292 41.158l-35.919 17.443c-9.095 4.417-19.872 4.249-28.825-.454l-17.313-9.092c-13.677-7.182-30.003-7.181-43.676.001l-16.608 8.723c-9.306 4.887-20.418 4.89-29.728 0l-16.608-8.723c-13.673-7.182-30.002-7.183-43.677 0l-17.728 9.311c-8.74 4.589-19.306 4.859-28.268.72l-39.539-18.263c-2.136-13.193-3.235-26.85-3.235-40.825 0-1.548.036-3.093.063-4.638l26.604 13.499c13.306 6.751 29.193 6.752 42.501 0l19.472-9.879c9.057-4.595 19.869-4.596 28.926 0l19.475 9.88c13.308 6.751 29.194 6.75 42.5 0l19.474-9.88c9.054-4.594 19.867-4.596 28.925-.001l19.482 9.883c6.653 3.375 13.951 5.063 21.248 5.063 7.298 0 14.596-1.688 21.249-5.063l34.349-17.425c.088 2.848.148 5.701.148 8.562zm-47.901 141.371c-29.921 34.92-70.516 54.151-114.307 54.151s-84.386-19.231-114.307-54.151c-3.854-4.498-7.491-9.216-10.906-14.136l6.692 3.962c14.761 8.739 33.097 8.738 47.855 0l7.079-4.191c10.045-5.947 22.527-5.947 32.57 0l7.081 4.192c14.76 8.738 33.097 8.738 47.854 0l7.082-4.193c10.043-5.946 22.523-5.947 32.568-.001l7.09 4.196c7.379 4.369 15.65 6.553 23.924 6.552 8.272 0 16.547-2.185 23.925-6.552l6.707-3.97c-3.414 4.923-7.053 9.642-10.907 14.141zm33.828-226.315h-180.629c-4.143 0-7.5 3.358-7.5 7.5s3.357 7.5 7.5 7.5h185.31c4.033 14.553 6.782 29.671 8.216 45.082l-40.11 20.348c-9.056 4.595-19.869 4.594-28.923 0l-19.482-9.883c-13.308-6.75-29.193-6.75-42.499.001l-19.474 9.88c-9.055 4.595-19.869 4.595-28.926 0l-19.475-9.88c-13.306-6.752-29.192-6.751-42.5 0l-19.472 9.879c-9.057 4.595-19.87 4.596-28.927 0l-32.62-16.551c1.316-16.725 4.194-33.129 8.558-48.877h90.322c4.143 0 7.5-3.358 7.5-7.5s-3.357-7.5-7.5-7.5h-85.641c2.932-8.434 6.297-16.64 10.107-24.549 5.895-12.238 18.468-20.146 32.032-20.146h211.992c13.564 0 26.138 7.908 32.032 20.146 3.812 7.909 7.178 16.116 10.109 24.55zm-17.267-72.214c0 6.105-.78 12.095-2.292 17.904-5.809-2.916-12.187-4.734-18.801-5.238 1.045-4.122 1.578-8.364 1.578-12.666 0-20.439-11.989-38.128-29.303-46.411l4.226-19.431c26.104 10.481 44.592 36.035 44.592 65.842z"/></g></svg>