<svg id="Capa_1" enable-background="new 0 0 507.297 507.297" height="512" viewBox="0 0 507.297 507.297" width="512" xmlns="http://www.w3.org/2000/svg"><g><g><g><circle cx="187.969" cy="142.872" fill="#fd5426" r="43.724"/></g></g><g><g><path d="m187.969 99.148c-5.27 0-10.322.933-15 2.642 16.759 6.121 28.724 22.204 28.724 41.082s-11.964 34.961-28.724 41.082c4.678 1.709 9.73 2.642 15 2.642 24.148 0 43.724-19.576 43.724-43.724s-19.576-43.724-43.724-43.724z" fill="#ef4424"/></g></g><g><g><circle cx="289.211" cy="153.908" fill="#f4d902" r="84.911"/></g></g><g><g><path d="m289.211 68.997c-5.122 0-10.128.479-15 1.348 39.737 7.087 69.911 41.79 69.911 83.563s-30.175 76.476-69.911 83.563c4.872.869 9.878 1.348 15 1.348 46.895 0 84.911-38.016 84.911-84.911s-38.016-84.911-84.911-84.911z" fill="#e3ca00"/></g></g><g><g><circle cx="289.211" cy="153.908" fill="#fef056" r="46.484"/></g></g><g><g><path d="m289.211 107.424c-5.251 0-10.292.883-15 2.488 18.309 6.241 31.484 23.574 31.484 43.996 0 20.421-13.175 37.754-31.484 43.996 4.708 1.605 9.749 2.488 15 2.488 25.672 0 46.484-20.812 46.484-46.484s-20.812-46.484-46.484-46.484z" fill="#fee903"/></g></g><g><g><path d="m356.186 499.797h-205.074c-6.881 0-12.618-5.266-13.206-12.121l-27.726-323.19c-.664-7.739 5.439-14.387 13.206-14.387h260.526c7.767 0 13.87 6.648 13.206 14.387l-27.726 323.19c-.589 6.855-6.326 12.121-13.206 12.121z" fill="#f7f9f5"/></g></g><g><g><path d="m383.911 150.098h-30c7.767 0 13.87 6.648 13.206 14.387l-27.726 323.19c-.588 6.856-6.325 12.121-13.206 12.121h30c6.881 0 12.618-5.266 13.206-12.121l27.726-323.19c.664-7.738-5.438-14.387-13.206-14.387z" fill="#eceae6"/></g></g><g><g><path d="m199.453 425.723h108.392c37.817 0 69.344-28.939 72.577-66.617l16.696-194.62c.664-7.739-5.439-14.387-13.206-14.387h-260.527c-7.767 0-13.869 6.648-13.206 14.387l16.696 194.62c3.233 37.678 34.761 66.617 72.578 66.617z" fill="#fef6ad"/></g></g><g><g><path d="m383.912 150.098h-30c7.767 0 13.869 6.648 13.206 14.387l-16.696 194.62c-3.232 37.678-34.76 66.617-72.577 66.617h30c37.817 0 69.344-28.938 72.577-66.617l16.696-194.62c.663-7.738-5.439-14.387-13.206-14.387z" fill="#fef056"/></g></g><g><g><path d="m115.891 231.063h275.514l5.712-66.578c.664-7.739-5.439-14.387-13.206-14.387h-260.526c-7.767 0-13.869 6.648-13.206 14.387z" fill="#f7f9f5"/></g></g><g><g><path d="m383.912 150.098h-30c7.767 0 13.869 6.648 13.206 14.387l-5.712 66.578h30l5.712-66.578c.663-7.738-5.439-14.387-13.206-14.387z" fill="#eceae6"/></g></g><g><g><path d="m278.683 322.035-43.083 36.057c-4.897 4.098-12.189 3.451-16.287-1.446l-36.057-43.083c-4.098-4.897-3.451-12.189 1.446-16.287l43.083-36.057c4.897-4.098 12.189-3.451 16.287 1.446l36.057 43.083c4.098 4.896 3.451 12.188-1.446 16.287z" fill="#fef6ad"/></g></g><g><g><path d="m280.129 305.747-36.057-43.083c-4.098-4.897-11.391-5.544-16.287-1.446l-8.776 7.345 17.158 20.501c11.809 14.11 9.944 35.123-4.166 46.932l-17.624 14.75 4.937 5.899c4.098 4.897 11.39 5.544 16.287 1.446l43.083-36.057c4.896-4.098 5.543-11.39 1.445-16.287z" fill="#fef056"/></g></g><g><g><path d="m276.722 397.851-51.969-16.107c-6.099-1.89-9.511-8.367-7.621-14.467l16.107-51.969c1.89-6.099 8.367-9.511 14.467-7.621l51.969 16.107c6.099 1.89 9.511 8.367 7.621 14.467l-16.107 51.969c-1.891 6.099-8.368 9.511-14.467 7.621z" fill="#fef6ad"/></g></g><g><g><path d="m299.675 323.795-51.969-16.107c-5.216-1.617-10.699.653-13.363 5.157l12.34 3.825c18.797 5.826 29.312 25.787 23.486 44.583l-8.981 28.978c-.274.883-.653 1.702-1.104 2.464l16.637 5.157c6.099 1.89 12.576-1.521 14.467-7.621l16.107-51.969c1.891-6.1-1.521-12.577-7.62-14.467z" fill="#fef056"/></g></g><g><g><circle cx="338.913" cy="357.618" fill="#f4d902" r="8.058"/></g></g><g><g><circle cx="153.301" cy="266.867" fill="#f4d902" r="8.058"/></g></g><g><g><circle cx="320.377" cy="285.49" fill="#f4d902" r="10.478"/></g></g><g><g><circle cx="160.661" cy="357.618" fill="#f4d902" r="10.478"/></g></g><g><path d="m274.501 405.015c1.864.578 3.771.864 5.667.864 3.054 0 6.082-.743 8.861-2.207 4.505-2.373 7.816-6.359 9.323-11.222l16.107-51.968c1.508-4.864 1.031-10.023-1.342-14.528s-6.358-7.816-11.222-9.323l-11.589-3.592c-.029-4.424-1.577-8.701-4.426-12.105l-36.057-43.083c-6.746-8.061-18.792-9.13-26.852-2.384l-43.083 36.057c-8.06 6.747-9.129 18.792-2.384 26.852l34.248 40.922-1.785 5.759c-3.111 10.04 2.525 20.739 12.565 23.85zm-85.493-96.266c-1.438-1.718-1.209-4.285.508-5.722l43.083-36.057c1.717-1.437 4.284-1.21 5.722.508l33.279 39.763-21.673-6.718c-10.039-3.111-20.739 2.526-23.85 12.565l-9.037 29.155zm37.965 65.83c-2.139-.663-3.34-2.943-2.677-5.083l16.107-51.968c.54-1.741 2.149-2.86 3.883-2.86.397 0 .801.059 1.2.182l51.969 16.108c1.036.321 1.885 1.026 2.391 1.986s.607 2.06.286 3.096l-16.108 51.969c-.321 1.036-1.026 1.885-1.986 2.391s-2.059.607-3.096.286z"/><path d="m399.201 149.318c-3.92-4.271-9.493-6.72-15.29-6.72h-2.999c-2.681-21.927-13.117-42.144-29.564-57.093-17.034-15.482-39.101-24.008-62.137-24.008-30.564 0-57.694 14.76-74.526 37.673-7.763-4.736-16.735-7.353-25.88-7.505-2.217-8.123-7.057-24.319-14.417-40.838-14.582-32.729-31.502-49.827-50.29-50.817-4.117-.213-7.666 2.959-7.884 7.095s2.959 7.666 7.095 7.884c23.984 1.263 43.302 52.953 50.505 78.663-21.295 6.134-36.94 25.731-37.062 48.945h-13.367c-5.797 0-11.37 2.449-15.29 6.72s-5.884 10.032-5.388 15.808l16.696 194.621 11.03 128.569c.928 10.821 9.818 18.981 20.678 18.981h205.074c10.86 0 19.75-8.16 20.678-18.98l11.029-128.562c0-.002.001-.005.001-.007 0-.001 0-.002 0-.003l16.696-194.617c.496-5.777-1.468-11.538-5.388-15.809zm-109.99-72.821c38.735 0 71.075 28.184 76.587 66.101h-23.803c-2.307-10.821-7.891-20.702-16.136-28.328-10.001-9.251-23.017-14.346-36.648-14.346-13.629 0-26.642 5.093-36.643 14.341-8.247 7.626-13.833 17.509-16.141 28.333h-23.809c5.467-37.638 37.729-66.101 76.593-66.101zm37.295 66.101h-74.59c4.903-16.028 19.961-27.674 37.295-27.674 17.337 0 32.393 11.646 37.295 27.674zm-138.537-35.95c6.763 0 13.2 1.815 18.854 5.282-4.774 9.387-7.983 19.718-9.312 30.668h-45.759c.149-19.848 16.335-35.95 36.217-35.95zm173.95 380.386c-.257 3-2.722 5.263-5.733 5.263h-205.074c-3.011 0-5.476-2.262-5.733-5.263l-7.036-82.021c2.109 2.469 4.361 4.834 6.782 7.056 14.861 13.641 34.156 21.154 54.329 21.154h34.891c4.142 0 7.5-3.358 7.5-7.5s-3.358-7.5-7.5-7.5h-34.891c-16.407 0-32.099-6.11-44.186-17.204-12.087-11.095-19.516-26.207-20.918-42.554l-10.286-119.901h56.498c4.142 0 7.5-3.358 7.5-7.5s-3.358-7.5-7.5-7.5h-57.785l-5.123-59.719c-.14-1.625.391-3.182 1.494-4.383 1.103-1.202 2.608-1.863 4.239-1.863h260.526c1.631 0 3.136.662 4.239 1.863s1.633 2.758 1.494 4.383l-5.123 59.719h-173.963c-4.142 0-7.5 3.358-7.5 7.5s3.358 7.5 7.5 7.5h172.674l-10.287 119.909c-1.404 16.344-8.832 31.453-20.917 42.546-12.087 11.094-27.779 17.204-44.186 17.204h-43.501c-4.142 0-7.5 3.358-7.5 7.5s3.358 7.5 7.5 7.5h43.501c20.173 0 39.467-7.513 54.329-21.154 2.42-2.222 4.672-4.587 6.781-7.056z"/></g></g></svg>