<svg id="Capa_1" enable-background="new 0 0 507.307 507.307" height="512" viewBox="0 0 507.307 507.307" width="512" xmlns="http://www.w3.org/2000/svg"><g><g><g><path d="m332.573 496.892-49.946-35.78c-8.6-6.161-13.687-15.997-13.687-26.465v-164.438h-30.573v164.438c0 10.467-5.087 20.304-13.687 26.465l-49.946 35.78c-1.584 1.135-.303 2.915 2.097 2.915h153.644c2.401 0 3.682-1.78 2.098-2.915z" fill="#f7f9f5"/></g></g><g><g><path d="m332.573 496.892-49.946-35.78c-8.6-6.161-13.687-15.997-13.687-26.465v-164.438h-30v164.438c0 10.468 5.087 20.304 13.687 26.465l49.946 35.78c1.584 1.135.303 2.915-2.097 2.915h30c2.4 0 3.681-1.78 2.097-2.915z" fill="#eceae6"/></g></g><g><g><path d="m252.914 298.655c-31.919 0-58.873-21.255-67.482-50.383-2.459-8.321-3.139-17.067-2.357-25.709l18.583-205.156c.508-5.611 5.212-9.908 10.846-9.908h80.819c5.634 0 10.338 4.297 10.846 9.908l18.583 205.156c.783 8.642.103 17.387-2.357 25.709-8.607 29.129-35.562 50.383-67.481 50.383z" fill="#f7f9f5"/></g></g><g><g><path d="m322.753 222.564-18.583-205.156c-.508-5.611-5.212-9.908-10.846-9.908h-30c5.634 0 10.338 4.297 10.846 9.908l18.583 205.156c.783 8.641.103 17.387-2.357 25.708-7.22 24.429-27.347 43.313-52.482 48.772 4.834 1.05 9.851 1.611 15 1.611 31.919 0 58.873-21.255 67.482-50.383 2.46-8.32 3.14-17.066 2.357-25.708z" fill="#eceae6"/></g></g><g><g><path d="m307.493 54.091h-109.157l-15.26 168.473c-.783 8.641-.103 17.387 2.357 25.708 8.609 29.128 35.563 50.383 67.482 50.383 31.919 0 58.873-21.255 67.482-50.383 2.459-8.321 3.139-17.067 2.357-25.708z" fill="#fef48b"/></g></g><g><g><path d="m322.753 222.564-15.26-168.473h-30l15.26 168.473c.783 8.641.103 17.387-2.357 25.708-7.22 24.429-27.347 43.313-52.482 48.772 4.834 1.05 9.851 1.611 15 1.611 31.919 0 58.873-21.255 67.482-50.383 2.46-8.32 3.14-17.066 2.357-25.708z" fill="#fef056"/></g></g><g><g><path d="m273.815 174.637c-21.303-7.032-32.873-30.003-25.84-51.306.003-.01.007-.02.01-.029.394-1.188-.744-2.304-1.917-1.867-11.786 4.383-21.433 14.168-25.058 27.406-5.424 19.805 5.066 40.839 24.154 48.409 10.085 4 20.69 3.699 29.913.06 10.483-4.136 9.702-19.127-1.021-22.593-.08-.027-.161-.053-.241-.08z" fill="#fef056"/></g></g><g><g><path d="m251.482 188.431c13.773 17.709 10.582 43.23-7.127 57.002-.008.006-.016.013-.025.019-.977.758-.684 2.322.519 2.611 12.238 2.939 25.715.191 36.111-8.79 15.538-13.424 18.546-36.736 6.913-53.657-6.146-8.94-15.121-14.599-24.807-16.716-11.01-2.406-18.713 10.477-11.74 19.331.052.067.104.134.156.2z" fill="#f4d902"/></g></g><g><g><circle cx="230.199" cy="88.596" fill="#fee903" r="6.056"/></g></g><g><g><circle cx="267.938" cy="270.209" fill="#fee903" r="6.056"/></g></g><g><g><circle cx="282.533" cy="134.369" fill="#fee903" r="8.539"/></g></g><g><g><circle cx="219.584" cy="231.835" fill="#fee903" r="8.539"/></g></g><g><path d="m285.864 244.949c18.563-16.038 22.084-43.372 8.189-63.581-6.942-10.098-17.311-17.104-29.21-19.751-.349-.63-.794-1.221-1.338-1.749-9.201-8.922-12.423-22.021-8.409-34.184 0-.001.001-.002.001-.003.002-.007.005-.014.007-.021 1.099-3.317.221-6.883-2.292-9.306-2.506-2.417-6.093-3.163-9.359-1.948-14.494 5.39-25.588 17.522-29.677 32.455-6.48 23.661 5.825 48.321 28.622 57.362 2.924 1.16 5.958 2.038 9.02 2.609.164.031.326.049.489.068.681 3.438.823 7 .375 10.579-1.098 8.779-5.548 16.604-12.55 22.05-2.763 2.144-4.021 5.599-3.285 9.016.731 3.393 3.28 6.003 6.651 6.812 3.702.889 7.459 1.325 11.197 1.324 11.459-.001 22.726-4.092 31.569-11.732zm-4.171-55.083c9.399 13.672 6.924 32.881-5.636 43.732-5.097 4.403-11.172 7.08-17.568 7.868 12.126-16.88 12.306-40.42-1.086-57.64-.003-.004-.006-.008-.01-.012l-.175-.224c-1.917-2.434-.715-4.78-.301-5.441.511-.816 1.594-2.042 3.485-2.042.33 0 .684.037 1.063.12 8.235 1.8 15.419 6.644 20.228 13.639zm-53.45-39.044c1.783-6.509 5.35-12.128 10.238-16.349-.335 11.062 3.158 22.062 9.944 30.929-1.619 1.323-3.054 2.922-4.222 4.788-3.332 5.322-3.911 11.615-1.837 17.22-11.855-7.656-17.948-22.624-14.123-36.588z"/><path d="m336.941 490.795-49.945-35.78c-6.609-4.735-10.555-12.35-10.555-20.368v-76.898c0-4.142-3.358-7.5-7.5-7.5s-7.5 3.358-7.5 7.5v76.898c0 12.844 6.288 25.016 16.819 32.562l35.035 25.098h-119.282l35.035-25.099c10.532-7.544 16.819-19.717 16.819-32.562v-128.813c2.33.207 4.679.322 7.048.322 2.87 0 5.713-.167 8.525-.47v23.064c0 4.142 3.358 7.5 7.5 7.5s7.5-3.358 7.5-7.5v-26.208c8.39-2.653 16.308-6.731 23.489-12.179 13.173-9.993 22.997-24.186 27.66-39.964 2.649-8.964 3.535-18.557 2.633-28.511l-15.267-168.545c-.001-.01-.002-.019-.003-.029l-3.314-36.581c-.862-9.539-8.736-16.732-18.314-16.732h-80.819c-9.578 0-17.452 7.193-18.315 16.731l-3.314 36.583c-.001.009-.001.017-.002.026l-15.267 168.547c-.902 9.955-.016 19.547 2.633 28.512 4.663 15.778 14.486 29.971 27.66 39.963 7.602 5.767 16.027 10.012 24.967 12.642v131.643c0 8.019-3.946 15.633-10.555 20.368l-49.944 35.78c-3.257 2.333-4.598 6.213-3.418 9.888 1.272 3.962 5.244 6.625 9.882 6.625h153.644c4.638 0 8.609-2.662 9.881-6.624 1.181-3.675-.161-7.557-3.416-9.889zm-144.316-244.648c-2.11-7.14-2.81-14.847-2.08-22.907l14.643-161.649h26.694c4.142 0 7.5-3.358 7.5-7.5s-3.358-7.5-7.5-7.5h-25.335l2.582-28.507c.159-1.758 1.61-3.084 3.376-3.084h80.819c1.766 0 3.217 1.326 3.376 3.085l2.582 28.506h-37.401c-4.142 0-7.5 3.358-7.5 7.5s3.358 7.5 7.5 7.5h38.76l14.643 161.649c.73 8.06.03 15.767-2.08 22.906-7.832 26.5-32.624 45.008-60.29 45.008-27.665.001-52.457-18.507-60.289-45.007z"/></g></g></svg>