<svg id="Capa_1" enable-background="new 0 0 506.732 506.732" height="512" viewBox="0 0 506.732 506.732" width="512" xmlns="http://www.w3.org/2000/svg"><g><g><g><path d="m291.098 119.198c-19.89-4.477-33.923-24.697-29.415-44.728 4.509-20.032 25.852-32.289 45.742-27.813 16.172 3.64 43.316 34.944 53.774 46.715 1.909 2.149 1.148 5.531-1.498 6.655-14.493 6.155-52.43 22.811-68.603 19.171z" fill="#97d729"/></g></g><g><g><path d="m361.199 93.372c-10.458-11.771-37.602-43.075-53.774-46.715-8.163-1.837-16.568-.852-23.956 2.329 11.404 5.862 25.801 20.284 36.557 31.946 7.543 8.179 4.583 21.384-5.737 25.543-9.193 3.705-20.133 7.775-30.176 10.41 2.227.984 4.562 1.767 6.986 2.313 16.172 3.64 54.11-13.016 68.604-19.172 2.645-1.124 3.406-4.505 1.496-6.654z" fill="#8bc727"/></g></g><g><g><path d="m227.382 111.804c20.672-23.055 34.328-52.753 2.086-84.995s-61.941-18.587-84.995 2.086z" fill="#fe9901"/></g></g><g><g><path d="m208.627 47.649c-16.154-16.154-39.373-20.912-59.706-14.305l74.011 74.011c6.607-20.333 1.849-43.552-14.305-59.706z" fill="#fe7d43"/></g></g><g><g><path d="m309.162 84.745c-14.897 13.919-39.509 14.135-53.527-.868s-12.134-39.544 2.762-53.462c12.112-11.317 53.265-16.13 68.882-18.147 2.851-.368 5.218 2.165 4.657 4.984-3.071 15.444-10.662 56.176-22.774 67.493z" fill="#97d729"/></g></g><g><g><path d="m327.279 12.268c-5.825.752-15.203 1.895-25.301 3.617.057.44.051.899-.042 1.367-3.071 15.444-10.662 56.176-22.774 67.493-3.442 3.216-7.406 5.691-11.635 7.425 13.587 5.779 30.382 3.09 41.635-7.425 12.113-11.317 19.703-52.049 22.774-67.493.561-2.82-1.806-5.352-4.657-4.984z" fill="#8bc727"/></g></g><g><g><path d="m297.232 496.692-43.524-31.18c-7.494-5.369-11.927-13.94-11.927-23.062v-143.297h-26.642v143.297c0 9.122-4.433 17.693-11.927 23.062l-43.524 31.18c-1.38.989-.264 2.54 1.828 2.54h133.891c2.089 0 3.206-1.551 1.825-2.54z" fill="#f7f9f5"/></g></g><g><g><path d="m297.232 496.692-43.524-31.18c-7.494-5.369-11.927-13.94-11.927-23.062v-143.298h-26.643v143.298c0 3.295-.586 6.515-1.679 9.542 1.932 5.352 5.462 10.091 10.249 13.52l43.524 31.18c1.381.989.264 2.54-1.828 2.54h30c2.092 0 3.209-1.551 1.828-2.54z" fill="#eceae6"/></g></g><g><g><path d="m254.279 357.28h-51.723c-23.156 0-41.928-18.772-41.928-41.928l10-256.067h115.579l10 256.067c-.001 23.157-18.772 41.928-41.928 41.928z" fill="#f7f9f5"/></g></g><g><g><path d="m286.206 59.286h-30l10 256.067c0 23.156-18.772 41.928-41.928 41.928h30c23.156 0 41.928-18.772 41.928-41.928z" fill="#eceae6"/></g></g><g><g><path d="m168.761 107.099-8.133 208.254c0 23.156 18.772 41.928 41.928 41.928h51.723c23.156 0 41.928-18.772 41.928-41.928l-8.133-208.254z" fill="#fd6930"/></g></g><g><g><path d="m288.074 107.099h-30l8.133 208.254c0 23.156-18.772 41.928-41.928 41.928h30c23.156 0 41.928-18.772 41.928-41.928z" fill="#fd5426"/></g></g><g><g><path d="m289.146 134.553-29.648 11.321c-9.672 3.693-16.061 12.972-16.061 23.325v30.114c0 8.087-6.215 15.046-14.294 15.427-8.625.406-15.746-6.467-15.746-15.003 0-17.496-17.529-29.566-33.874-23.325l-13.673 5.221-5.222 133.72c0 23.156 18.772 41.928 41.928 41.928h51.723c23.156 0 41.928-18.772 41.928-41.928z" fill="#fe9901"/></g></g><g><g><path d="m183.397 199.737c0 8.536 7.121 15.409 15.746 15.003 7.871-.371 13.956-6.99 14.264-14.81-.001-.065-.01-.128-.01-.193 0-17.496-17.529-29.566-33.874-23.325l-7.044 2.69c6.485 4.415 10.918 11.838 10.918 20.635z" fill="#fb8801"/></g></g><g><g><path d="m289.146 134.553-29.559 11.287 6.62 169.512c0 23.156-18.772 41.928-41.928 41.928h30c23.156 0 41.928-18.772 41.928-41.928z" fill="#fb8801"/></g></g><g><g><circle cx="228.417" cy="308.786" fill="#fe7d43" r="7.676"/></g></g><g><g><circle cx="252.025" cy="253.925" fill="#fe7d43" r="7.676"/></g></g><g><g><circle cx="201.707" cy="256.661" fill="#fe7d43" r="7.676"/></g></g><path d="m366.806 88.39-1.473-1.661c-7.274-8.209-20.682-23.328-33.629-34.152 2.669-9.885 4.995-20.741 7.159-31.693l.43-2.17c.732-3.687-.361-7.526-2.926-10.271-2.563-2.744-6.322-4.099-10.049-3.614l-2.198.282c-29.861 3.818-59.112 8.863-70.842 19.823-2.99 2.793-5.575 5.989-7.712 9.473-2.984-4.381-6.583-8.691-10.794-12.902-29.268-29.265-61.333-28.659-95.307 1.805-1.534 1.375-2.434 3.321-2.49 5.38s.737 4.051 2.194 5.507l4.446 4.446c.001.001.002.002.003.003l19.585 19.585c-.035.25-.059.504-.069.762l-10 256.067c-.004.097-.006.195-.006.292 0 27.254 22.173 49.428 49.428 49.428h5.083v77.669c0 6.678-3.288 13.02-8.795 16.965l-43.525 31.181c-3.184 2.282-4.492 6.087-3.333 9.696 1.238 3.853 5.067 6.441 9.529 6.441h133.891c4.462 0 8.291-2.589 9.529-6.441 1.159-3.609-.149-7.415-3.334-9.696l-43.524-31.179c-5.507-3.945-8.795-10.288-8.795-16.966v-16.672c0-4.142-3.357-7.5-7.5-7.5s-7.5 3.358-7.5 7.5v16.672c0 11.503 5.63 22.404 15.059 29.16l28.091 20.123h-97.942l28.09-20.124c9.43-6.755 15.06-17.656 15.06-29.159v-77.67h11.643v30.997c0 4.142 3.357 7.5 7.5 7.5s7.5-3.358 7.5-7.5v-30.997h4.998c27.255 0 49.428-22.173 49.428-49.428 0-.098-.002-.195-.006-.292l-7.336-187.851h.027c16.188 0 40.231-9.195 64.203-19.413l2.038-.868c3.46-1.47 6.018-4.535 6.843-8.199.823-3.663-.175-7.529-2.672-10.339zm-43.117-68.1c-2.932 14.73-10.366 50.302-19.648 58.976-2.682 2.506-5.854 4.522-9.316 5.95l-1.024-26.223c-.005-.131-.022-.258-.034-.387l10.955-10.235c3.026-2.828 3.188-7.574.36-10.601-2.826-3.026-7.572-3.188-10.601-.36l-14.236 13.301c-.356.333-.669.694-.946 1.075h-24.747c1.421-6.129 4.574-11.693 9.067-15.891 9.28-8.672 45.277-13.679 60.17-15.605zm-145.719 31.496-13.763-13.763c13.833-.815 27.507 4.037 37.886 13.763zm-1.997 62.813h19.838c4.142 0 7.5-3.358 7.5-7.5s-3.358-7.5-7.5-7.5h-19.253l1.281-32.813h101.153l1.281 32.813h-54.463c-4.142 0-7.5 3.358-7.5 7.5s3.358 7.5 7.5 7.5h55.049l.581 14.868-24.618 9.4c-12.493 4.77-20.887 16.959-20.887 30.332v30.114c0 4.19-3.206 7.75-7.146 7.935-2.092.093-4.062-.636-5.562-2.068-1.503-1.434-2.331-3.367-2.331-5.443 0-10.685-5.254-20.682-14.054-26.741-8.801-6.06-20.014-7.402-29.995-3.59l-3.06 1.169zm48.191-82.488c6.492 6.492 11.159 13.098 13.929 19.674h-16.325c-2.304-3.361-4.935-6.538-7.838-9.44-13.284-13.284-31.133-20.079-49.288-19.367 21.505-13.121 40.34-10.048 59.522 9.133zm30.115 317.669h-51.723c-18.937 0-34.353-15.369-34.427-34.289l5.023-128.619 9.048-3.455c5.451-2.081 11.332-1.376 16.137 1.932 4.806 3.309 7.562 8.553 7.562 14.388 0 6.126 2.543 12.066 6.977 16.295 4.232 4.037 9.708 6.225 15.524 6.225.364 0 .73-.009 1.098-.026 12.023-.566 21.441-10.633 21.441-22.918v-30.114c0-7.194 4.516-13.752 11.237-16.319l19.885-7.593 6.647 170.205c-.077 18.92-15.492 34.288-34.429 34.288zm41.5-237.556-.444-11.379c7.107-2.014 13.65-5.671 18.947-10.62 4.926-4.603 9.018-12.365 12.542-22 9.749 8.861 19.478 19.66 25.724 26.695-12.818 5.443-42.617 17.762-56.769 17.304z"/></g></svg>