<svg id="Capa_1" enable-background="new 0 0 507.496 507.496" height="512" viewBox="0 0 507.496 507.496" width="512" xmlns="http://www.w3.org/2000/svg"><g><g><g><path d="m325.65 185.195h-145.123v-66.134c0-40.075 72.562-111.562 72.562-111.562s72.562 71.487 72.562 111.562v66.134z" fill="#a6e7f0"/></g></g><g><g><path d="m253.089 7.5s-6.214 6.124-15 15.783c21.248 23.36 57.562 67.427 57.562 95.779v66.134h30v-66.134c-.001-40.075-72.562-111.562-72.562-111.562z" fill="#2ed1e2"/></g></g><g><g><path d="m291.523 163.409h-76.87v-35.03c0-14.427 17.754-36.54 29.13-49.227 4.963-5.535 13.648-5.535 18.611 0 11.375 12.687 29.129 34.8 29.129 49.227z" fill="#01c0fa"/></g></g><g><g><path d="m262.394 79.151c-4.963-5.535-13.648-5.535-18.611 0-1.773 1.978-3.702 4.186-5.694 6.557 10.785 12.839 23.435 30.493 23.435 42.67v35.03h30v-35.03c0-14.427-17.755-36.54-29.13-49.227z" fill="#08a9f1"/></g></g><g><g><path d="m313.337 499.996h-119.179c-12.165 0-22.119-9.684-22.453-21.845l-8.758-318.872c-.351-12.795 9.925-23.357 22.724-23.357h136.154c12.799 0 23.076 10.562 22.724 23.357l-8.758 318.872c-.335 12.16-10.289 21.845-22.454 21.845z" fill="#f7f9f5"/></g></g><g><g><path d="m321.825 135.922h-30c12.799 0 23.075 10.562 22.724 23.357l-8.759 318.872c-.334 12.16-10.288 21.845-22.453 21.845h30c12.165 0 22.119-9.684 22.453-21.845l8.759-318.872c.351-12.795-9.925-23.357-22.724-23.357z" fill="#eceae6"/></g></g><g><g><path d="m339.386 347.266 5.163-187.987c.351-12.795-9.925-23.357-22.724-23.357h-136.154c-12.799 0-23.076 10.562-22.724 23.357l5.163 187.987c1.274 46.381 39.24 83.318 85.638 83.318 46.398 0 84.364-36.937 85.638-83.318z" fill="#fe9901"/></g></g><g><g><path d="m321.825 135.922h-30c12.799 0 23.076 10.562 22.724 23.357l-5.163 187.987c-1.134 41.264-31.319 75.029-70.638 81.981 4.875.862 9.882 1.336 15 1.336 46.398 0 84.364-36.937 85.638-83.318l5.163-187.987c.352-12.794-9.925-23.356-22.724-23.356z" fill="#fb8801"/></g></g><g><g><path d="m164.672 222.094 3.438 125.172c1.274 46.381 39.24 83.318 85.638 83.318 46.398 0 84.364-36.937 85.638-83.318l3.438-125.172z" fill="#fee8c7"/></g></g><g><g><path d="m312.824 222.094-3.438 125.172c-1.134 41.264-31.319 75.029-70.638 81.981 4.875.862 9.882 1.336 15 1.336 46.398 0 84.364-36.937 85.638-83.318l3.438-125.172h-30z" fill="#fedba6"/></g></g><g><g><path d="m166.897 303.09 1.213 44.176c1.274 46.381 39.24 83.318 85.638 83.318 46.398 0 84.364-36.937 85.638-83.318l1.213-44.176z" fill="#a74b30"/></g></g><g><g><path d="m310.599 303.09-1.213 44.176c-1.134 41.264-31.319 75.029-70.638 81.981 4.875.862 9.882 1.336 15 1.336 46.398 0 84.364-36.937 85.638-83.318l1.213-44.176h-30z" fill="#8c3d27"/></g></g><path d="m343.495 137.573c-2.985-3.068-6.502-5.412-10.345-6.963v-11.549c0-18.353-12.753-43.744-37.903-75.468-18.217-22.977-36.141-40.693-36.895-41.436-2.92-2.876-7.607-2.876-10.527 0-.754.743-18.678 18.459-36.895 41.436-25.15 31.724-37.903 57.115-37.903 75.468v12.119c-3.329 1.534-6.385 3.679-9.025 6.393-5.382 5.532-8.388 12.717-8.556 20.375-.011.51-.01 1.023.004 1.537l8.759 318.872c.448 16.339 13.604 29.139 29.95 29.139h119.179c16.346 0 29.502-12.799 29.95-29.139l8.759-318.872c.014-.514.016-1.027.004-1.537-.168-7.658-3.174-14.843-8.556-20.375zm-90.407-119.406c22.11 22.873 65.062 73.05 65.062 100.894v9.361h-19.126v-.043c0-13.011-10.445-31.258-31.046-54.234-3.786-4.223-9.213-6.645-14.89-6.645s-11.104 2.422-14.89 6.645c-20.6 22.976-31.045 41.223-31.045 54.234v.043h-19.127v-9.361c.001-27.844 42.952-78.021 65.062-100.894zm-30.934 110.255v-.043c0-8.684 10.173-25.215 27.213-44.221 1.294-1.443 2.887-1.658 3.722-1.658s2.428.215 3.722 1.658c17.04 19.006 27.214 35.537 27.214 44.221v.043zm-47.402 19.611c2.531-2.602 5.816-4.181 9.377-4.535.509-.051 1.023-.076 1.542-.076h136.153c.519 0 1.033.026 1.542.076 3.561.354 6.846 1.933 9.377 4.535 2.893 2.973 4.423 6.894 4.309 11.04l-1.525 55.521h-110.64c-4.143 0-7.5 3.358-7.5 7.5s3.357 7.5 7.5 7.5h110.228l-1.813 65.996h-79.553c-4.143 0-7.5 3.358-7.5 7.5s3.357 7.5 7.5 7.5h79.141l-1.002 36.469c-.563 20.468-8.954 39.604-23.63 53.882s-34.035 22.142-54.511 22.142-39.834-7.863-54.51-22.142c-14.67-14.273-23.062-33.4-23.63-53.86l-1.002-36.492h50.143c4.143 0 7.5-3.358 7.5-7.5s-3.357-7.5-7.5-7.5h-50.555l-1.813-65.996h22.506c4.143 0 7.5-3.358 7.5-7.5s-3.357-7.5-7.5-7.5h-22.918l-1.525-55.521c-.114-4.145 1.417-8.066 4.309-11.039zm138.585 344.463h-119.178c-8.162 0-14.731-6.392-14.956-14.551l-2.203-80.174c3.43 4.964 7.364 9.628 11.777 13.922 17.492 17.018 40.565 26.391 64.971 26.391 24.404 0 47.478-9.373 64.97-26.391 4.414-4.294 8.347-8.958 11.777-13.922l-2.202 80.174c-.224 8.159-6.794 14.551-14.956 14.551z"/></g></svg>