<svg id="Capa_1" enable-background="new 0 0 508.197 508.197" height="512" viewBox="0 0 508.197 508.197" width="512" xmlns="http://www.w3.org/2000/svg"><g><g><g><path d="m344.01 500.697h-179.822c-10.288 0-18.758-8.087-19.234-18.363l-21.073-454.687c-.509-10.973 8.25-20.147 19.234-20.147h221.968c10.984 0 19.743 9.174 19.234 20.146l-21.073 454.687c-.477 10.277-8.947 18.364-19.234 18.364z" fill="#f7f9f5"/></g></g><g><g><path d="m365.083 7.5h-30c10.984 0 19.743 9.174 19.234 20.146l-21.073 454.687c-.476 10.277-8.947 18.364-19.234 18.364h30c10.288 0 18.758-8.087 19.234-18.364l21.073-454.687c.508-10.972-8.25-20.146-19.234-20.146z" fill="#eceae6"/></g></g><g><g><path d="m312.428 423.24c29.97 0 54.646-23.559 56.033-53.497l15.855-342.097c.508-10.972-8.25-20.146-19.234-20.146h-221.967c-10.984 0-19.743 9.174-19.234 20.146l15.855 342.097c1.388 29.938 26.064 53.497 56.033 53.497z" fill="#f7f9f5"/></g></g><g><g><path d="m365.083 7.5h-30c10.984 0 19.743 9.174 19.234 20.146l-15.855 342.097c-1.388 29.938-26.064 53.497-56.034 53.497h30c29.97 0 54.646-23.559 56.034-53.497l15.855-342.097c.508-10.972-8.25-20.146-19.234-20.146z" fill="#eceae6"/></g></g><g><g><path d="m125.809 69.258 13.926 300.486c1.388 29.938 26.064 53.497 56.034 53.497h116.659c29.97 0 54.646-23.559 56.034-53.497l13.926-300.486z" fill="#fd6930"/></g></g><g><g><path d="m352.388 69.258-13.926 300.486c-1.388 29.938-26.064 53.497-56.034 53.497h30c29.97 0 54.646-23.559 56.034-53.497l13.926-300.486z" fill="#fd5426"/></g></g><g><g><path d="m316.668 141.188-29.348 18.263c-5.422 3.374-12.552 1.714-15.925-3.708l-18.263-29.348c-3.374-5.422-1.714-12.552 3.708-15.925l29.348-18.263c5.421-3.374 12.552-1.714 15.925 3.708l18.263 29.348c3.373 5.421 1.713 12.551-3.708 15.925z" fill="#fead8a"/></g></g><g><g><path d="m320.375 125.263-18.263-29.347c-3.374-5.422-10.504-7.082-15.925-3.708l-11.809 7.349 15.997 25.707c3.374 5.422 1.714 12.552-3.708 15.925l-17.539 10.915 2.266 3.641c3.374 5.422 10.504 7.082 15.925 3.708l29.348-18.263c5.422-3.376 7.083-10.506 3.708-15.927z" fill="#fd9468"/></g></g><g><g><path d="m330.106 353.024-38.166 23.751c-5.422 3.374-12.552 1.714-15.925-3.708l-23.751-38.166c-3.374-5.422-1.714-12.552 3.708-15.925l38.166-23.751c5.422-3.374 12.552-1.714 15.925 3.708l23.751 38.166c3.374 5.421 1.714 12.551-3.708 15.925z" fill="#fead8a"/></g></g><g><g><path d="m333.814 337.099-23.751-38.167c-3.374-5.421-10.504-7.082-15.926-3.708l-11.809 7.349 21.485 34.525c3.374 5.421 1.714 12.552-3.708 15.925l-26.357 16.402 2.266 3.641c3.374 5.421 10.504 7.081 15.925 3.708l38.166-23.751c5.423-3.373 7.083-10.503 3.709-15.924z" fill="#fd9468"/></g></g><g><g><path d="m207.044 288.748c17.979-17.979 48.646-19.289 66.753-1.182s16.797 48.774-1.182 66.753c-14.618 14.618-65.708 22.357-85.087 25.532-3.538.58-6.595-2.477-6.015-6.015 3.174-19.38 10.913-70.47 25.531-85.088z" fill="#a2e62e"/></g></g><g><g><path d="m273.797 287.566c-12.537-12.537-31.094-15.759-47.292-10.591 6.364 2.099 12.306 5.604 17.292 10.591 18.107 18.107 16.797 48.774-1.182 66.753-10.256 10.256-38.456 17.122-61.07 21.405.534 2.653 3.097 4.6 5.983 4.127 19.379-3.175 70.469-10.913 85.087-25.531 17.978-17.98 19.289-48.647 1.182-66.754z" fill="#97d729"/></g></g><g><g><path d="m341.257 186.463c-11.314 17.399-35.581 23.635-53.104 12.241s-21.667-36.105-10.353-53.504c9.199-14.147 48.686-28.973 63.623-34.788 2.727-1.062 5.685.862 5.821 3.785.745 16.013 3.212 58.118-5.987 72.266z" fill="#a2e62e"/></g></g><g><g><path d="m347.244 114.197c-.136-2.923-3.094-4.847-5.821-3.785-5.53 2.153-14.425 5.542-23.901 9.673.858 18.709 1.964 53.723-6.265 66.378-4.443 6.832-10.886 11.933-18.131 14.931 16.89 7.464 37.854.873 48.131-14.931 9.199-14.148 6.732-56.254 5.987-72.266z" fill="#97d729"/></g></g><g><g><circle cx="192.025" cy="157.292" fill="#ef4424" r="34.815"/></g></g><g><g><path d="m192.025 122.477c-5.371 0-10.458 1.218-15 3.391 11.719 5.604 19.815 17.568 19.815 31.424s-8.096 25.82-19.815 31.424c4.542 2.172 9.629 3.391 15 3.391 19.228 0 34.815-15.587 34.815-34.815s-15.588-34.815-34.815-34.815z" fill="#d73d24"/></g></g><g><g><circle cx="292.221" cy="267.066" fill="#ef4424" r="34.815"/></g></g><g><g><path d="m292.22 232.251c-5.371 0-10.457 1.219-15 3.391 11.719 5.604 19.815 17.568 19.815 31.424s-8.096 25.82-19.815 31.424c4.543 2.172 9.629 3.391 15 3.391 19.228 0 34.815-15.587 34.815-34.815 0-19.227-15.587-34.815-34.815-34.815z" fill="#d73d24"/></g></g><g><g><path d="m235.331 209.572-18.814 28.997c-3.476 5.357-10.636 6.882-15.993 3.406l-28.997-18.814c-5.357-3.476-6.882-10.636-3.406-15.993l18.814-28.997c3.476-5.357 10.636-6.882 15.993-3.406l28.997 18.814c5.356 3.476 6.881 10.636 3.406 15.993z" fill="#fead8a"/></g></g><g><g><path d="m231.925 193.58-28.997-18.814c-5.357-3.476-12.517-1.951-15.993 3.406l-2.594 3.999 17.584 11.409c5.357 3.476 6.882 10.636 3.406 15.992l-16.22 24.998 11.413 7.405c5.357 3.476 12.517 1.951 15.993-3.406l18.814-28.997c3.475-5.357 1.95-12.517-3.406-15.992z" fill="#fd9468"/></g></g><g><path d="m206.779 251.345c1.332 0 2.675-.141 4.009-.425 4.98-1.061 9.249-3.997 12.021-8.268l18.814-28.998c5.721-8.817 3.201-20.645-5.616-26.366l-9.17-5.95c4.854-7.032 7.503-15.453 7.503-24.046 0-23.333-18.982-42.315-42.315-42.315-23.332 0-42.314 18.982-42.314 42.315 0 14.301 7.179 27.462 18.954 35.26l-6.834 10.533c-2.772 4.271-3.715 9.367-2.654 14.347s3.997 9.249 8.269 12.02l28.998 18.814c3.125 2.03 6.694 3.079 10.335 3.079zm-42.069-94.053c0-15.062 12.253-27.315 27.314-27.315s27.315 12.253 27.315 27.315c0 5.783-1.771 11.229-5.104 15.87l-7.226-4.689c-8.82-5.721-20.646-3.201-26.367 5.616l-3.818 5.885c-7.529-5.047-12.114-13.5-12.114-22.682zm9.137 57.016c-.226-1.061-.025-2.146.566-3.058l18.813-28.997c.776-1.198 2.083-1.85 3.414-1.85.758 0 1.523.211 2.205.653l28.997 18.814c1.879 1.219 2.416 3.74 1.196 5.619l-18.814 28.998c-.59.91-1.5 1.536-2.562 1.762-1.063.227-2.147.025-3.057-.565l-28.998-18.814c-.909-.591-1.534-1.501-1.76-2.562z"/><path d="m264.614 159.041c-2.855 17.553 4.248 36.065 19.449 45.95 7.242 4.709 15.529 6.946 23.832 6.946 15.322 0 30.696-7.62 39.648-21.386 8.889-13.668 8.761-43.857 7.299-74.445l-.106-2.256c-.176-3.779-2.173-7.266-5.343-9.327-3.169-2.061-7.166-2.472-10.691-1.1l-2.099.815c-5.542 2.149-11.047 4.338-16.39 6.57l-11.734-18.856c-5.553-8.923-17.329-11.666-26.255-6.112l-29.347 18.263c-4.323 2.69-7.341 6.903-8.495 11.862s-.309 10.071 2.382 14.394zm75.35-40.017c.706 15.163 2.105 52.431-4.994 63.35-7.904 12.153-23.059 17.327-35.883 13.272l10.542-16.212c.136-.021.273-.036.41-.065l12.483-2.646c4.053-.859 6.642-4.84 5.782-8.892-.743-3.506-3.831-5.914-7.267-5.942l10.977-16.88c2.259-3.472 1.274-8.118-2.198-10.376-3.473-2.257-8.118-1.273-10.376 2.199l-11.069 17.022c-1.342-3.302-4.889-5.275-8.495-4.509-4.053.858-6.641 4.839-5.782 8.892l2.646 12.484c.051.241.139.464.212.694l-10.439 16.053c-8.909-10.078-10.327-26.028-2.425-38.181 7.1-10.918 41.726-24.755 55.876-30.263zm-80.972.342c.246-1.057.889-1.955 1.811-2.528l29.348-18.263c1.902-1.185 4.41-.598 5.595 1.303l10.602 17.036c-16.099 7.532-29.216 15.557-34.834 24.197-.068.104-.127.211-.194.315l-11.82-18.993c-.574-.921-.754-2.01-.508-3.067z"/><path d="m269.646 377.029c2.689 4.323 6.902 7.34 11.862 8.495 1.447.337 2.908.504 4.358.504 3.518 0 6.975-.98 10.035-2.885l38.167-23.751c8.924-5.554 11.665-17.332 6.112-26.255l-20.893-33.574c9.31-7.768 15.247-19.45 15.247-32.495 0-23.333-18.982-42.315-42.314-42.315-23.333 0-42.315 18.982-42.315 42.315 0 .233.011.466.015.699-16.945-2.557-35.192 2.693-48.18 15.68-7.074 7.075-13.115 20.808-18.468 41.982-4.176 16.522-7.019 34.018-8.717 44.471l-.444 2.724c-.662 4.038.669 8.176 3.561 11.068 2.403 2.403 5.666 3.729 9.018 3.729.682 0 1.367-.055 2.051-.167l2.724-.444c26.662-4.332 54.847-9.823 72.876-18.305zm57.8-35.967c1.183 1.901.599 4.412-1.303 5.595l-38.167 23.751c-.922.573-2.016.753-3.066.507-1.057-.246-1.954-.888-2.528-1.81l-5.372-8.632c.308-.282.621-.563.908-.851 13.521-13.522 18.659-32.746 15.326-50.266 4.544-.109 8.912-.933 12.996-2.371zm-62.133-69.264c-.271-1.55-.407-3.143-.407-4.732 0-15.062 12.254-27.315 27.315-27.315s27.314 12.253 27.314 27.315-12.253 27.315-27.314 27.315c-.983 0-1.976-.053-2.951-.157-.456-.049-.904-.049-1.345-.017-2.309-4.324-5.24-8.361-8.824-11.945-4.064-4.064-8.708-7.294-13.697-9.72-.019-.246-.048-.495-.091-.744zm-75.893 100.145c2.977-18.317 10.744-65.709 22.928-77.892 7.988-7.989 18.666-12.013 29.182-12.013 7.454 0 14.826 2.022 21.1 6.088l-8.454 8.454c-.43-.077-.871-.124-1.323-.124h-15.635c-4.143 0-7.5 3.358-7.5 7.5s3.357 7.5 7.5 7.5h2.081l-4.796 4.796c-.43-.077-.871-.124-1.323-.124h-15.634c-4.143 0-7.5 3.358-7.5 7.5s3.357 7.5 7.5 7.5h2.081l-10.841 10.841c-2.929 2.929-2.929 7.678 0 10.606 1.465 1.464 3.385 2.197 5.304 2.197s3.839-.732 5.304-2.197l10.841-10.841v2.081c0 4.142 3.357 7.5 7.5 7.5s7.5-3.358 7.5-7.5v-15.634c0-.452-.047-.893-.124-1.323l4.795-4.795v2.08c0 4.142 3.357 7.5 7.5 7.5s7.5-3.358 7.5-7.5v-15.634c0-.452-.047-.893-.124-1.323l8.45-8.45c9.801 15.124 7.73 36.626-5.921 50.277-12.183 12.186-59.574 19.953-77.891 22.93z"/><path d="m384.434 8.28c-5.097-5.34-11.97-8.28-19.351-8.28h-221.969c-7.381 0-14.254 2.94-19.351 8.28-5.098 5.339-7.717 12.34-7.375 19.714l21.072 454.688c.664 14.308 12.403 25.516 26.727 25.516h179.823c14.323 0 26.063-11.208 26.727-25.516l21.072-454.688c.341-7.374-2.278-14.375-7.375-19.714zm-40.424 484.917h-179.822c-6.293 0-11.451-4.924-11.742-11.21l-3.317-71.58c11.627 12.533 28.23 20.333 46.641 20.333h49.267c4.143 0 7.5-3.358 7.5-7.5s-3.357-7.5-7.5-7.5h-49.267c-26.015 0-47.337-20.357-48.541-46.344 0-.001 0-.002 0-.003l-13.564-292.635h20.675c4.143 0 7.5-3.358 7.5-7.5s-3.357-7.5-7.5-7.5h-21.37l-1.597-34.459c-.15-3.239 1-6.315 3.24-8.661 2.239-2.346 5.258-3.638 8.501-3.638h221.969c3.243 0 6.262 1.292 8.501 3.638 2.24 2.346 3.391 5.422 3.24 8.662l-1.597 34.459h-190.887c-4.143 0-7.5 3.358-7.5 7.5s3.357 7.5 7.5 7.5h190.192l-13.562 292.635v.003c-1.204 25.987-22.526 46.344-48.541 46.344h-37.394c-4.143 0-7.5 3.358-7.5 7.5s3.357 7.5 7.5 7.5h37.394c18.41 0 35.014-7.8 46.641-20.333l-3.317 71.579c-.292 6.286-5.45 11.21-11.743 11.21z"/></g></g></svg>