<svg id="Capa_1" enable-background="new 0 0 506.735 506.735" height="512" viewBox="0 0 506.735 506.735" width="512" xmlns="http://www.w3.org/2000/svg"><g><g><g><path d="m376.786 128.561c-35.456-8.852-72.108 11.845-82.827 46.782-6.57 21.413-2.264 43.421 9.638 60.273-.139-4.724.451-9.554 1.862-14.345 6.838-23.217 31.018-37.262 54.566-31.668 25.402 6.035 40.537 31.854 33.671 56.814-.012.045-.025.09-.038.136-1.175 4.222 3.553 7.642 7.099 5.067 12.251-8.897 21.679-21.857 26.007-37.591 10.281-37.374-12.155-76.026-49.978-85.468z" fill="#fe9901"/></g></g><g><g><path d="m376.786 128.561c-10.676-2.665-21.456-2.635-31.609-.36.536.12 1.073.226 1.609.36 37.823 9.442 60.259 48.094 49.978 85.468-.809 2.941-1.797 5.785-2.947 8.523 2.006 7.576 2.107 15.764-.121 23.865-.012.045-.025.091-.038.136-1.175 4.222 3.553 7.642 7.099 5.067 12.251-8.897 21.679-21.857 26.007-37.591 10.281-37.374-12.155-76.026-49.978-85.468z" fill="#fb8801"/></g></g><g><g><path d="m335.485 499.235h-225.851c-15.486 0-28.16-12.322-28.596-27.802l-.133-3.671c-.108-3.004.142-6.01.745-8.955l2.602-12.693c1.181-5.764 1.001-11.724-.527-17.406l-2.68-9.967c-1.453-5.405-1.688-11.065-.688-16.571l2.262-12.456c.94-5.174.79-10.488-.441-15.601l-3.671-15.253c-1.192-4.955-1.371-10.099-.524-15.124l3.127-18.565c.485-2.88.635-5.806.446-8.72l-3.844-103.968c-.47-13 9.942-23.795 22.951-23.795h243.79c13.009 0 23.421 10.795 22.951 23.795l-7.683 101.12c-.4 4.779.112 9.59 1.51 14.177l3.431 11.258c2.433 7.984 2.156 16.548-.788 24.358l-2.273 6.029c-3.036 8.052-3.234 16.899-.561 25.079l.838 2.565c2.837 8.68 2.435 18.094-1.13 26.501l-.019.045c-3.742 8.824-3.992 18.74-.701 27.741l1.803 4.932c1.679 4.59 2.451 9.463 2.275 14.347l-.029.796c-.432 15.482-13.107 27.804-28.592 27.804z" fill="#f7f9f5"/></g></g><g><g><path d="m367.406 212.484c.469-13-9.942-23.795-22.951-23.795h-30c13.009 0 23.421 10.795 22.951 23.795l-7.683 101.12c-.4 4.779.112 9.59 1.51 14.177l3.431 11.258c2.433 7.984 2.156 16.549-.788 24.358l-2.273 6.029c-3.036 8.052-3.234 16.899-.561 25.079l.838 2.565c2.837 8.68 2.435 18.094-1.13 26.501l-.019.045c-3.742 8.824-3.992 18.74-.701 27.741l1.803 4.932c1.679 4.59 2.451 9.463 2.275 14.347l-.029.796c-.436 15.479-13.11 27.802-28.596 27.802h30c15.486 0 28.16-12.322 28.596-27.802l.029-.796c.176-4.885-.596-9.757-2.275-14.347l-1.803-4.932c-3.292-9.001-3.041-18.917.701-27.741l.019-.045c3.565-8.407 3.966-17.821 1.13-26.501l-.838-2.565c-2.673-8.18-2.475-17.027.561-25.079l2.273-6.029c2.945-7.81 3.222-16.375.788-24.358l-3.431-11.258c-1.398-4.587-1.911-9.398-1.51-14.177z" fill="#eceae6"/></g></g><g><g><path d="m363.876 363.398c2.945-7.81 3.222-16.375.788-24.358l-3.431-11.258c-1.398-4.587-1.911-9.398-1.51-14.177l1.259-21.479h-280.123l.698 24.327c.189 2.914.039 5.84-.446 8.72l-3.127 18.565c-.846 5.025-.668 10.17.524 15.124l3.671 15.252c1.231 5.113 1.381 10.427.441 15.601l-2.262 12.456c-1 5.507-.765 11.167.688 16.572l2.68 9.967c1.528 5.682 1.708 11.642.527 17.406l-2.602 12.693c-.604 2.945-.854 5.951-.745 8.955l.133 3.671c.436 15.479 13.11 27.802 28.596 27.802h225.851c15.486 0 28.16-12.322 28.596-27.802l.029-.796c.176-4.885-.596-9.757-2.275-14.347l-1.803-4.932c-3.292-9.001-3.041-18.917.701-27.741l.019-.045c3.565-8.407 3.966-17.821 1.13-26.501l-.838-2.565c-2.673-8.18-2.475-17.027.561-25.079z" fill="#fe9901"/></g></g><g><g><path d="m360.032 451.358c-3.292-9.001-3.041-18.917.701-27.741l.019-.045c3.565-8.407 3.966-17.821 1.13-26.501l-.838-2.565c-2.673-8.18-2.475-17.027.561-25.079l2.273-6.029c2.945-7.81 3.222-16.375.788-24.358l-3.431-11.258c-1.398-4.587-1.911-9.398-1.51-14.177l1.259-21.479h-30l-1.259 21.479c-.4 4.779.112 9.59 1.51 14.177l3.431 11.258c2.433 7.984 2.156 16.549-.788 24.358l-2.273 6.029c-3.036 8.052-3.234 16.899-.561 25.079l.838 2.565c2.837 8.68 2.435 18.094-1.13 26.501l-.019.045c-3.742 8.824-3.992 18.74-.701 27.741l1.803 4.932c1.679 4.59 2.451 9.463 2.275 14.347l-.029.796c-.436 15.479-13.11 27.802-28.596 27.802h30c15.486 0 28.16-12.322 28.596-27.802l.029-.796c.176-4.885-.596-9.757-2.275-14.347z" fill="#fb8801"/></g></g><g><g><path d="m311.422 413.049-60.367 2.929c-6.378.309-11.799-4.61-12.109-10.988l-2.929-60.367c-.309-6.378 4.61-11.799 10.988-12.109l60.367-2.929c6.378-.309 11.799 4.61 12.109 10.988l2.929 60.367c.31 6.379-4.61 11.8-10.988 12.109z" fill="#fdb441"/></g></g><g><g><path d="m319.482 340.574c-.309-6.378-5.731-11.298-12.109-10.988l-24.329 1.18c3.642 1.799 6.227 5.463 6.438 9.808l1.815 37.404c.925 19.06-13.777 35.261-32.837 36.186l-13.075.634c1.704.842 3.638 1.279 5.671 1.18l60.367-2.928c6.378-.309 11.298-5.731 10.988-12.109z" fill="#fea613"/></g></g><g><g><path d="m273.492 454.042-61.411 16.19c-6.175 1.628-12.5-2.058-14.128-8.233l-16.19-61.411c-1.628-6.175 2.058-12.5 8.233-14.128l61.411-16.19c6.175-1.628 12.5 2.058 14.128 8.233l16.19 61.411c1.628 6.175-2.058 12.5-8.233 14.128z" fill="#fec165"/></g></g><g><g><path d="m281.725 439.915-16.19-61.411c-1.628-6.175-7.953-9.86-14.128-8.233l-17.541 4.625c.739 1.071 1.318 2.277 1.669 3.608l9.871 37.441c5.118 19.412-6.47 39.298-25.883 44.416l-19.9 5.247c2.689 3.899 7.615 5.901 12.459 4.625l61.411-16.19c6.174-1.629 9.86-7.954 8.232-14.128z" fill="#fdb441"/></g></g><g><g><path d="m209.816 405.02-52.367 30.661c-5.51 3.226-12.593 1.375-15.82-4.136l-30.661-52.367c-3.226-5.51-1.375-12.593 4.136-15.82l52.367-30.661c5.51-3.226 12.593-1.375 15.82 4.136l30.661 52.367c3.226 5.511 1.375 12.594-4.136 15.82z" fill="#fedba6"/></g></g><g><g><path d="m213.952 389.201-30.661-52.367c-3.226-5.51-10.309-7.362-15.819-4.136l-12.364 7.239 18.107 30.926c9.156 15.638 3.902 35.738-11.737 44.894l-21.666 12.685 1.817 3.103c3.226 5.51 10.309 7.362 15.819 4.136l52.367-30.661c5.512-3.226 7.363-10.309 4.137-15.819z" fill="#fec165"/></g></g><path d="m426.265 156.995c-10.505-17.978-27.432-30.66-47.663-35.711-19.02-4.748-38.977-2.008-56.195 7.717-17.219 9.725-29.869 25.402-35.619 44.142-.812 2.646-1.468 5.337-1.993 8.046h-50.903c-4.142 0-7.5 3.358-7.5 7.5s3.358 7.5 7.5 7.5h110.562c4.237 0 8.19 1.679 11.131 4.729 2.911 3.017 4.445 6.976 4.329 11.161l-5.512 72.546h-163.342c-4.142 0-7.5 3.358-7.5 7.5s3.358 7.5 7.5 7.5h162.203l-1.015 13.354c-.482 5.752.127 11.469 1.81 16.99l3.431 11.259c1.94 6.364 1.716 13.298-.632 19.525l-2.272 6.029c-3.625 9.614-3.864 20.288-.672 30.054l.838 2.567c2.274 6.958 1.953 14.503-.924 21.288-4.5 10.612-4.799 22.418-.84 33.245l1.803 4.932c1.352 3.697 1.966 7.566 1.824 11.5l-.031.856c-.324 11.502-9.592 20.513-21.099 20.513h-225.85c-11.507 0-20.775-9.01-21.101-20.572l-.132-3.672c-.087-2.404.114-4.819.597-7.178l2.602-12.693c1.409-6.873 1.19-14.085-.631-20.859l-2.68-9.968c-1.158-4.304-1.349-8.897-.552-13.283l2.262-12.456c1.133-6.24.956-12.531-.528-18.696l-3.671-15.253c-.961-3.994-1.103-8.073-.42-12.124l3.126-18.565c.575-3.41.757-6.888.542-10.342l-.608-16.451h48.056l3.561 40.433-28.743 16.83c-4.394 2.573-7.523 6.703-8.811 11.628-1.288 4.926-.58 10.059 1.993 14.453l30.661 52.366c2.573 4.394 6.703 7.523 11.629 8.812.823.215 1.652.373 2.482.477l2.545 28.891c.344 3.902 3.618 6.842 7.463 6.842.22 0 .443-.01.667-.029 4.126-.364 7.176-4.003 6.813-8.129l-2.787-31.642 17.825-10.437 8.909 33.792c1.298 4.923 4.436 9.047 8.835 11.61 2.953 1.721 6.236 2.601 9.565 2.601 1.631 0 3.272-.211 4.892-.638l61.411-16.19c4.923-1.298 9.047-4.436 11.61-8.835s3.26-9.533 1.962-14.457l-4.257-16.149 27.066-1.313c5.085-.247 9.771-2.459 13.192-6.23 3.422-3.771 5.17-8.648 4.923-13.733l-2.929-60.366c-.247-5.086-2.459-9.771-6.229-13.193s-8.651-5.164-13.733-4.923l-60.368 2.928c-10.498.51-18.625 9.465-18.116 19.963l1.129 23.264-16.701 4.403-23.191-39.608c-2.573-4.394-6.703-7.523-11.628-8.811-4.926-1.288-10.06-.58-14.453 1.993l-9.304 5.447-2.823-32.049h9.506c4.142 0 7.5-3.358 7.5-7.5s-3.358-7.5-7.5-7.5h-10.827l-7.79-88.436h61.449c4.142 0 7.5-3.358 7.5-7.5s-3.358-7.5-7.5-7.5h-62.771l-15.358-174.348c-.364-4.126-4.009-7.173-8.129-6.813-4.126.364-7.176 4.003-6.813 8.129l15.241 173.03h-25.4c-8.346 0-16.134 3.309-21.928 9.316s-8.819 13.909-8.518 22.256l3.843 103.968c.003.069.006.138.011.207.151 2.334.031 4.686-.358 6.99l-3.127 18.566c-1.02 6.056-.808 12.154.628 18.125l3.671 15.252c.993 4.124 1.111 8.332.353 12.506l-2.262 12.456c-1.191 6.558-.905 13.425.825 19.859l2.68 9.968c1.218 4.53 1.364 9.355.422 13.952l-2.602 12.693c-.723 3.527-1.023 7.138-.893 10.731l.13 3.611c.554 19.677 16.408 35.091 36.093 35.091h225.851c19.685 0 35.539-15.414 36.091-35.031l.029-.797c.212-5.882-.705-11.667-2.726-17.193l-1.803-4.932c-2.648-7.242-2.449-15.139.581-22.283 4.273-10.077 4.753-21.355 1.354-31.757l-.838-2.567c-2.135-6.533-1.976-13.672.45-20.104l2.273-6.029c3.509-9.309 3.845-19.676.944-29.19l-3.432-11.259c-1.125-3.693-1.533-7.517-1.206-11.422l7.683-101.12c.007-.099.013-.199.017-.298.097-2.693-.157-5.339-.735-7.891 3.26 2.746 6.076 6.045 8.316 9.83 5.354 9.044 6.768 19.604 3.989 29.704l-.04.144c-1.413 5.077.466 10.295 4.786 13.296 2.096 1.456 4.484 2.182 6.869 2.182 2.47 0 4.938-.779 7.076-2.332 13.996-10.164 24.235-24.962 28.832-41.67 5.525-20.077 2.78-41.038-7.728-59.021zm-308.825 218.395c-.548-.937-.699-2.03-.425-3.08s.941-1.93 1.878-2.478l22.62-13.244 6.212 70.527zm156.614 69.517c-.546.938-1.425 1.606-2.474 1.883l-61.411 16.19c-1.048.275-2.144.128-3.081-.418-.938-.546-1.606-1.425-1.882-2.474l-9.975-37.837 18.375-10.758c8.844-5.179 11.949-16.425 7.177-25.392l32.536-8.578c2.167-.572 4.393.726 4.963 2.893l16.19 61.411c.277 1.049.128 2.143-.418 3.08zm-30.545-100.648c-.108-2.237 1.624-4.146 3.86-4.254l60.368-2.928c1.089-.052 2.123.32 2.926 1.049s1.274 1.728 1.327 2.812l2.929 60.367c.053 1.083-.32 2.123-1.049 2.926-.729.804-1.728 1.275-2.812 1.328l-30.249 1.467-8.023-30.434c-2.679-10.163-13.127-16.252-23.292-13.573l-5.012 1.321zm-72.249-5.089c.631-.37 1.333-.559 2.046-.559.345 0 .692.044 1.034.134 1.05.274 1.93.941 2.478 1.878l30.661 52.366c1.132 1.933.48 4.427-1.453 5.559l-43.515 25.478-6.679-75.823zm-81.727-138.252c2.941-3.049 6.895-4.729 11.132-4.729h26.721l7.79 88.436h-47.29l-2.677-72.412c-.153-4.234 1.382-8.246 4.324-11.295zm329.999 11.121c-3.037 11.04-8.872 20.739-17.043 28.432 1.388-11.564-1.043-23.189-7.099-33.419-7.444-12.573-19.388-21.361-33.632-24.745-5.87-1.394-11.882-1.766-17.875-1.118h-43.74c.296-1.223.616-2.441.986-3.646 4.619-15.053 14.795-27.653 28.656-35.481s29.909-10.039 45.185-6.224c16.277 4.063 29.895 14.265 38.345 28.725 8.452 14.465 10.66 31.326 6.217 47.476z"/></g></svg>