<svg id="Capa_1" enable-background="new 0 0 508.297 508.297" height="512" viewBox="0 0 508.297 508.297" width="512" xmlns="http://www.w3.org/2000/svg"><g><g><g><circle cx="205.877" cy="87.521" fill="#ef4424" r="36.808"/></g></g><g><g><path d="m239.499 72.543c-8.272-18.569-30.032-26.916-48.601-18.644-.009.004-.017.008-.025.012 8.008 3.57 14.778 9.992 18.626 18.632 8.269 18.561-.067 40.308-18.619 48.589 9.204 4.103 20.045 4.436 29.975.012 18.569-8.273 26.917-30.032 18.644-48.601z" fill="#d73d24"/></g></g><g><g><circle cx="310.681" cy="97.712" fill="#fe9901" r="81.378"/></g></g><g><g><path d="m310.681 16.334c-5.127 0-10.136.496-15 1.403 37.775 7.042 66.378 40.158 66.378 79.975s-28.603 72.932-66.378 79.975c4.864.907 9.873 1.403 15 1.403 44.944 0 81.378-36.434 81.378-81.378 0-44.943-36.434-81.378-81.378-81.378z" fill="#fb8801"/></g></g><g><g><circle cx="310.681" cy="97.712" fill="#fec165" r="42.709"/></g></g><g><g><path d="m310.681 55.003c-5.28 0-10.332.964-15 2.716 16.186 6.074 27.709 21.685 27.709 39.993s-11.523 33.919-27.709 39.993c4.668 1.751 9.72 2.716 15 2.716 23.588 0 42.709-19.122 42.709-42.709s-19.121-42.709-42.709-42.709z" fill="#fea613"/></g></g><g><g><path d="m283.674 500.797h-132.679c-13.543 0-24.625-10.781-24.996-24.319l-9.751-354.993c-.391-14.244 11.049-26.003 25.298-26.003h151.577c14.249 0 25.689 11.759 25.298 26.003l-9.751 354.993c-.371 13.538-11.453 24.319-24.996 24.319z" fill="#f7f9f5"/></g></g><g><g><path d="m293.123 95.482h-30c14.249 0 25.689 11.759 25.298 26.003l-9.751 354.993c-.372 13.538-11.453 24.319-24.996 24.319h30c13.543 0 24.625-10.781 24.996-24.319l9.751-354.993c.392-14.244-11.049-26.003-25.298-26.003z" fill="#eceae6"/></g></g><g><g><path d="m312.673 330.767 5.748-209.282c.391-14.244-11.049-26.003-25.298-26.003h-151.577c-14.249 0-25.689 11.759-25.298 26.003l5.748 209.282c1.418 51.634 43.684 92.756 95.338 92.756 51.655-.001 93.921-41.122 95.339-92.756z" fill="#f7f9f5"/></g></g><g><g><path d="m293.123 95.482h-30c14.249 0 25.69 11.759 25.298 26.003l-5.748 209.281c-1.278 46.534-35.735 84.523-80.338 91.575 4.889.773 9.898 1.18 15 1.18 51.654 0 93.92-41.121 95.338-92.756l5.748-209.281c.392-14.243-11.049-26.002-25.298-26.002z" fill="#eceae6"/></g></g><g><g><path d="m117.563 169.364 4.433 161.402c1.418 51.634 43.684 92.756 95.338 92.756 51.654 0 93.92-41.121 95.338-92.756l4.433-161.402z" fill="#fe9901"/></g></g><g><g><path d="m287.106 169.365-4.433 161.402c-1.278 46.534-35.735 84.523-80.338 91.575 4.889.773 9.898 1.18 15 1.18 51.654 0 93.92-41.121 95.338-92.756l4.433-161.402h-30z" fill="#fb8801"/></g></g><g><g><path d="m315.118 241.742 1.988-72.378h-199.543l1.988 72.378z" fill="#fd6930"/></g></g><g><g><path d="m287.106 169.365-1.988 72.377h30l1.988-72.377z" fill="#fd5426"/></g></g><path d="m310.681 8.834c-22.453 0-43.888 8.394-60.357 23.637-6.576 6.086-12.106 13.053-16.513 20.633-11.302-9.224-26.378-12.268-40.443-8.091-8.364-11.076-11.859-22.293-11.859-37.513 0-4.142-3.358-7.5-7.5-7.5s-7.5 3.358-7.5 7.5c0 17.288 4.143 31.261 13.232 44.247-11.478 8.394-18.319 21.921-18.172 36.236h-20.023c-8.934 0-17.285 3.526-23.515 9.93s-9.526 14.848-9.281 23.779l9.751 354.993c.486 17.728 14.759 31.614 32.493 31.614h13.503c4.142 0 7.5-3.358 7.5-7.5s-3.358-7.5-7.5-7.5h-13.503c-9.55 0-17.237-7.479-17.499-17.025l-2.532-92.195c4.154 6.395 9.045 12.37 14.633 17.807 16.296 15.854 36.98 25.699 59.232 28.388 1.648.199 3.305.359 4.97.479 1.664.12 3.336.201 5.014.241.839.02 1.68.03 2.522.03 6.737 0 13.381-.647 19.861-1.911 1.62-.316 3.229-.67 4.828-1.063.799-.196 1.595-.402 2.388-.617 16.657-4.521 31.985-13.217 44.66-25.548 5.588-5.437 10.48-11.412 14.634-17.807l-2.532 92.197c-.262 9.546-7.949 17.025-17.499 17.025h-89.177c-4.142 0-7.5 3.358-7.5 7.5s3.358 7.5 7.5 7.5h89.177c17.734 0 32.007-13.886 32.493-31.613l7.997-291.129c20.621-3.143 39.543-13.502 53.373-29.279 14.201-16.2 22.021-36.998 22.021-58.563.001-49.011-39.869-88.882-88.877-88.882zm-116.732 51.916c11.459-5.104 24.64-2.419 33.188 6.617-2.398 6.607-4.009 13.52-4.783 20.615h-45.771c-.182-11.58 6.546-22.411 17.366-27.232zm-65.166 47.623c3.382-3.476 7.915-5.39 12.764-5.39h151.577c4.849 0 9.382 1.914 12.764 5.39s5.17 8.059 5.038 12.906l-1.115 40.585h-135.802c-4.142 0-7.5 3.358-7.5 7.5s3.358 7.5 7.5 7.5h135.389l-1.576 57.377h-180.974l-1.576-57.377h18.737c4.142 0 7.5-3.358 7.5-7.5s-3.358-7.5-7.5-7.5h-19.149l-1.115-40.585c-.133-4.847 1.656-9.431 5.038-12.906zm187.855-10.461c-6.23-6.403-14.581-9.93-23.515-9.93h-16.29c4.251-14.986 17.877-25.479 33.848-25.479 19.414 0 35.209 15.795 35.209 35.209 0 13.805-8.049 26.131-20.188 31.853l.216-7.875c.246-8.93-3.05-17.375-9.28-23.778zm-99.303 318.11c-23.018 0-44.78-8.84-61.278-24.891-16.497-16.051-25.931-37.562-26.563-60.57l-2.234-81.32h180.15l-2.234 81.32c-.514 18.694-6.838 36.4-18.04 50.992-2.585 3.367-5.43 6.569-8.524 9.578-16.497 16.052-38.26 24.891-61.277 24.891zm107.249-245.741.673-24.516c21.068-6.376 35.633-25.881 35.633-48.053 0-27.686-22.523-50.209-50.209-50.209-24.212 0-44.65 16.922-49.257 40.479h-23.983c2.241-17.034 10.347-32.725 23.072-44.503 13.688-12.668 31.504-19.645 50.168-19.645 40.736 0 73.878 33.142 73.878 73.878 0 35.427-25.54 66.003-59.975 72.569z"/></g></svg>