<svg id="Capa_1" enable-background="new 0 0 508.788 508.788" height="512" viewBox="0 0 508.788 508.788" width="512" xmlns="http://www.w3.org/2000/svg"><g><g><g><circle cx="100.15" cy="75.853" fill="#0ed2b3" r="68.353"/></g></g><g><g><path d="m100.15 7.5c-5.156 0-10.171.589-15 1.671 30.531 6.84 53.353 34.087 53.353 66.682s-22.822 59.842-53.353 66.682c4.829 1.082 9.844 1.671 15 1.671 37.75 0 68.353-30.603 68.353-68.353 0-37.75-30.603-68.353-68.353-68.353z" fill="#0ab69f"/></g></g><g><g><circle cx="100.15" cy="75.853" fill="#9cf8d2" r="35.544"/></g></g><g><g><path d="m100.15 40.31c-5.361 0-10.442 1.194-15 3.32 12.132 5.657 20.544 17.955 20.544 32.224s-8.412 26.567-20.544 32.224c4.558 2.126 9.639 3.32 15 3.32 19.63 0 35.544-15.913 35.544-35.544-.001-19.631-15.914-35.544-35.544-35.544z" fill="#5de1c4"/></g></g><g><g><path d="m361.228 498.373-49.946-35.78c-8.6-6.161-13.687-15.997-13.687-26.465v-234.438h-30.573v234.438c0 10.467-5.087 20.304-13.687 26.465l-49.946 35.78c-1.584 1.135-.303 2.915 2.097 2.915h153.644c2.401 0 3.682-1.78 2.098-2.915z" fill="#f7f9f5"/></g></g><g><g><path d="m361.228 498.373-49.946-35.78c-8.6-6.161-13.687-15.997-13.687-26.465v-234.438h-30v234.438c0 10.468 5.087 20.304 13.687 26.465l49.946 35.78c1.584 1.135.303 2.915-2.097 2.915h30c2.4 0 3.681-1.78 2.097-2.915z" fill="#eceae6"/></g></g><g><g><path d="m107.676 99.315c10.544 39.37 40.643 70.739 79.264 83.038 9.06 30.755 37.488 53.211 71.177 53.211h48.383c33.689 0 62.117-22.456 71.177-53.211 38.622-12.299 68.721-43.667 79.264-83.038 1.84-6.869-3.421-13.599-10.533-13.599h-328.2c-7.111 0-12.372 6.73-10.532 13.599z" fill="#f7f9f5"/></g></g><g><g><path d="m446.408 85.716h-30c7.111 0 12.372 6.73 10.533 13.599-10.543 39.37-40.642 70.739-79.264 83.038-9.06 30.755-37.488 53.211-71.177 53.211h30c33.689 0 62.117-22.456 71.177-53.211 38.622-12.299 68.721-43.667 79.264-83.038 1.84-6.869-3.421-13.599-10.533-13.599z" fill="#eceae6"/></g></g><g><g><path d="m120.148 128.994c14.809 25.112 38.509 44.353 66.792 53.359 9.06 30.755 37.488 53.211 71.177 53.211h48.383c33.689 0 62.117-22.456 71.177-53.211 28.283-9.006 51.983-28.247 66.792-53.359z" fill="#fef6ad"/></g></g><g><g><path d="m414.469 128.994c-13.174 22.34-33.384 40.033-57.597 50.008-5.576 2.297-10.003 6.686-12.432 12.206-11.488 26.117-37.577 44.357-67.94 44.357h30c33.689 0 62.117-22.456 71.177-53.211 28.283-9.006 51.983-28.247 66.792-53.359h-30z" fill="#fef056"/></g></g><g><g><path d="m460.517 98.788h-351.976c-9.098 0-16.474-7.376-16.474-16.474 0-9.098 7.376-16.474 16.474-16.474h351.977c9.098 0 16.474 7.376 16.474 16.474-.001 9.099-7.376 16.474-16.475 16.474z" fill="#fef6ad"/></g></g><g><g><path d="m460.517 65.841h-30c9.098 0 16.474 7.376 16.474 16.474s-7.375 16.474-16.474 16.474h30c9.098 0 16.474-7.375 16.474-16.474s-7.375-16.474-16.474-16.474z" fill="#fef056"/></g></g><path d="m462.745 106.181c12.178-1.128 21.746-11.399 21.746-23.866 0-13.219-10.755-23.974-23.974-23.974h-286.564c-8.028-33.938-38.694-58.341-73.803-58.341-41.826 0-75.853 34.027-75.853 75.853s34.027 75.853 75.853 75.853c8.186 0 16.229-1.309 23.927-3.867 2.304 2.874 4.727 5.658 7.28 8.329 13.8 14.437 30.885 25.477 49.607 32.089 5.266 15.055 15.027 28.511 27.791 38.207 14.296 10.86 31.364 16.6 49.361 16.6h1.405v193.063c0 8.019-3.946 15.633-10.555 20.368l-49.944 35.779c-3.257 2.332-4.598 6.213-3.418 9.888 1.272 3.962 5.244 6.625 9.882 6.625h153.644c4.638 0 8.609-2.662 9.882-6.624 1.181-3.674-.16-7.556-3.416-9.888l-49.946-35.78c-6.608-4.734-10.555-12.349-10.555-20.368v-70.863c0-4.142-3.357-7.5-7.5-7.5s-7.5 3.358-7.5 7.5v70.863c0 12.844 6.288 25.017 16.819 32.562l35.035 25.098h-119.282l35.035-25.099c10.532-7.545 16.819-19.717 16.819-32.562v-193.062h15.573v92.201c0 4.142 3.357 7.5 7.5 7.5s7.5-3.358 7.5-7.5v-92.201h1.405c17.997 0 35.065-5.74 49.361-16.6 12.764-9.696 22.525-23.153 27.791-38.207 18.723-6.612 35.807-17.652 49.607-32.089 6.724-7.034 12.595-14.817 17.525-23.14.118-.184.229-.371.33-.565 4.855-8.29 8.768-17.112 11.632-26.282zm6.746-23.867c0 4.948-4.025 8.974-8.974 8.974h-351.976c-4.948 0-8.974-4.025-8.974-8.974s4.025-8.974 8.974-8.974h351.977c4.948.001 8.973 4.026 8.973 8.974zm-371.57 21.486c-14.424-1.141-25.815-13.234-25.815-27.947 0-15.463 12.581-28.043 28.044-28.043 8.632 0 16.636 3.985 21.885 10.531h-13.494c-13.219 0-23.974 10.754-23.974 23.974 0 9.407 5.449 17.561 13.354 21.485zm2.229 32.906c-33.555 0-60.853-27.298-60.853-60.853s27.298-60.853 60.853-60.853c26.965 0 50.671 17.931 58.296 43.341h-18.968c-6.915-15.511-22.345-25.531-39.328-25.531-23.734 0-43.044 19.309-43.044 43.043s19.31 43.043 43.044 43.043c2.098 0 4.193-.161 6.261-.463 2.072 4.816 4.441 9.502 7.092 14.029.101.194.212.381.329.564.37.624.743 1.245 1.123 1.863-4.816 1.205-9.776 1.817-14.805 1.817zm275.251 38.501c-2.373.755-4.216 2.639-4.919 5.027-8.296 28.162-34.606 47.831-63.982 47.831h-48.383c-29.376 0-55.687-19.668-63.982-47.831-.704-2.388-2.546-4.272-4.918-5.027-21.931-6.984-41.047-20.767-54.866-38.712h80.581c4.142 0 7.5-3.358 7.5-7.5s-3.358-7.5-7.5-7.5h-90.351c-2.65-4.875-4.943-9.955-6.844-15.206h329.143c-1.901 5.251-4.195 10.332-6.844 15.206h-195.105c-4.142 0-7.5 3.358-7.5 7.5s3.358 7.5 7.5 7.5h185.336c-13.819 17.944-32.935 31.728-54.866 38.712z"/></g></svg>