<svg id="Capa_1" enable-background="new 0 0 505.828 505.828" height="512" viewBox="0 0 505.828 505.828" width="512" xmlns="http://www.w3.org/2000/svg"><g><g><g><path d="m334.712 495.306-51.767-37.085c-8.914-6.386-14.186-16.581-14.186-27.43v-242.989h-31.689v242.989c0 10.849-5.273 21.044-14.186 27.43l-51.767 37.085c-1.642 1.176-.314 3.021 2.174 3.021h159.248c2.487.001 3.815-1.844 2.173-3.021z" fill="#f7f9f5"/></g></g><g><g><path d="m334.712 495.306-51.767-37.085c-8.914-6.385-14.186-16.581-14.186-27.43v-242.989h-30v242.989c0 10.849 5.273 21.044 14.186 27.43l51.767 37.085c1.642 1.177.314 3.021-2.174 3.021h30c2.488.001 3.816-1.844 2.174-3.021z" fill="#eceae6"/></g></g><g><g><path d="m138.108 11.957c-19.03 24.737-30.249 55.795-29.952 89.486.693 78.713 65.015 142.91 143.729 143.457 80.423.559 145.794-64.466 145.794-144.76 0-33.187-11.172-63.761-29.954-88.178-2.18-2.835-5.582-4.462-9.158-4.462h-211.306c-3.574 0-6.974 1.625-9.153 4.457z" fill="#f7f9f5"/></g></g><g><g><path d="m367.724 11.962c-2.18-2.835-5.582-4.462-9.158-4.462h-30c3.576 0 6.978 1.627 9.158 4.462 18.782 24.417 29.954 54.991 29.954 88.178 0 74.878-56.852 136.468-129.743 143.984 4.592.477 9.244.744 13.95.776 80.423.559 145.794-64.467 145.794-144.76-.001-33.186-11.173-63.761-29.955-88.178z" fill="#eceae6"/></g></g><g><g><path d="m110.585 73.572c-1.675 9.024-2.514 18.342-2.429 27.871.693 78.713 65.015 142.91 143.729 143.458 80.423.559 145.794-64.466 145.794-144.761 0-9.076-.841-17.955-2.44-26.568z" fill="#d4f2f6"/></g></g><g><g><path d="m395.238 73.572h-30c1.598 8.613 2.44 17.492 2.44 26.568 0 74.878-56.852 136.468-129.743 143.984 4.592.477 9.244.744 13.95.776 80.423.559 145.794-64.466 145.794-144.76-.001-9.076-.842-17.955-2.441-26.568z" fill="#a6e7f0"/></g></g><g><g><path d="m200.345 155.543-28.319 1.374c-6.378.309-11.799-4.61-12.109-10.988l-1.374-28.319c-.309-6.378 4.61-11.799 10.988-12.109l28.319-1.374c6.378-.309 11.799 4.61 12.109 10.988l1.374 28.319c.31 6.378-4.61 11.799-10.988 12.109z" fill="#f7f9f5"/></g></g><g><g><path d="m209.96 115.114c-.309-6.378-5.731-11.298-12.109-10.988l-24.329 1.18c3.642 1.799 6.227 5.463 6.438 9.808l1.374 28.32c.309 6.378-4.61 11.799-10.988 12.109l-3.99.194c1.704.842 3.638 1.279 5.671 1.18l28.319-1.374c6.378-.309 11.298-5.73 10.988-12.109z" fill="#eceae6"/></g></g><g><g><circle cx="254.778" cy="111.155" fill="#a6e7f0" r="8.59"/></g></g><g><g><circle cx="187.864" cy="190.833" fill="#a6e7f0" r="8.59"/></g></g><g><g><circle cx="135.022" cy="106.895" fill="#a6e7f0" r="8.59"/></g></g><g><g><path d="m287.809 194.149c17.823 1.923 36.326-3.945 49.989-17.608 23.263-23.263 23.931-60.559 2.013-84.634l-63.796 63.796" fill="#a2e62e"/></g></g><g><g><path d="m339.811 91.907-18.45 18.45c8.841 22.096 4.331 48.29-13.563 66.184-6.221 6.221-13.451 10.808-21.158 13.797l1.169 3.811c17.823 1.923 36.326-3.946 49.989-17.608 23.263-23.263 23.931-60.559 2.013-84.634z" fill="#97d729"/></g></g><g><g><path d="m276.015 155.703-22.851 22.851c9.935 9.045 22.122 14.244 34.645 15.595" fill="#a2e62e"/></g></g><g><g><path d="m278.756 152.613c9.756 8.882 24.871 8.612 34.298-.816 9.427-9.427 9.698-24.542.816-34.298z" fill="#d1f19e"/></g></g><g><g><path d="m281.319 198.252-28.37 16.379c-5.53 3.193-12.601 1.298-15.794-4.232l-16.379-28.37c-3.193-5.53-1.298-12.601 4.232-15.794l28.37-16.379c5.53-3.193 12.601-1.298 15.794 4.232l16.379 28.37c3.193 5.53 1.299 12.601-4.232 15.794z" fill="#f7f9f5"/></g></g><g><g><path d="m285.551 182.458-16.379-28.37c-3.193-5.53-10.264-7.425-15.794-4.232l-12.487 7.209 14.66 25.393c3.193 5.53 1.298 12.601-4.232 15.794l-15.883 9.17 1.719 2.977c3.193 5.53 10.264 7.425 15.794 4.232l28.37-16.379c5.531-3.193 7.425-10.264 4.232-15.794z" fill="#eceae6"/></g></g><g><path d="m345.357 86.858c-1.38-1.516-3.32-2.401-5.37-2.449-2.03-.055-4.029.745-5.479 2.195l-60.873 60.872c-2.48-2.91-5.77-5.009-9.542-6.02-4.919-1.317-10.054-.642-14.465 1.905l-28.37 16.379c-4.409 2.545-7.563 6.656-8.881 11.574s-.642 10.056 1.904 14.465l16.379 28.371c3.527 6.108 9.948 9.527 16.541 9.527 3.231 0 6.505-.822 9.498-2.55l28.37-16.379c1.453-.838 2.735-1.855 3.873-2.984 1.86.149 3.717.248 5.563.248 18.182 0 35.57-7.142 48.596-20.167 26.045-26.045 27.037-67.768 2.256-94.987zm-67.788 104.899-28.37 16.379c-1.942 1.121-4.429.453-5.549-1.487l-16.379-28.371c-.543-.939-.687-2.034-.406-3.082s.953-1.924 1.893-2.466l28.37-16.379c.626-.361 1.321-.546 2.024-.546.354 0 .708.046 1.059.14 1.048.281 1.923.953 2.466 1.893l16.38 28.369c1.119 1.94.452 4.43-1.488 5.55zm54.925-20.519c-10.175 10.174-23.752 15.752-37.957 15.767-.179-2.836-.976-5.673-2.49-8.297l-10.406-18.023 57.511-57.511c14.175 21.032 11.817 49.59-6.658 68.064z"/><path d="m268.758 299.164c4.143 0 7.5-3.358 7.5-7.5v-41.033c31.621-4.833 60.805-19.467 83.945-42.447 29.002-28.801 44.975-67.172 44.975-108.043 0-33.88-10.896-65.953-31.509-92.751-3.56-4.628-9.206-7.39-15.104-7.39h-211.304c-5.896 0-11.539 2.76-15.098 7.384v.001c-20.915 27.188-31.81 59.735-31.507 94.125.661 75.069 56.7 137.802 128.914 149.083v180.198c0 8.399-4.133 16.374-11.055 21.333l-51.768 37.085c-3.276 2.347-4.626 6.25-3.439 9.943 1.283 3.993 5.294 6.675 9.981 6.675h159.248c4.688 0 8.698-2.683 9.981-6.675 1.187-3.693-.163-7.596-3.439-9.943l-51.768-37.084c-6.922-4.959-11.055-12.935-11.055-21.333v-109.128c0-4.142-3.357-7.5-7.5-7.5s-7.5 3.358-7.5 7.5v109.127c0 13.224 6.475 25.758 17.318 33.527l37.006 26.509h-125.334l37.006-26.51c10.844-7.769 17.318-20.303 17.318-33.527v-178.618c2.407.132 4.828.212 7.263.229.364.002.728.003 1.091.003 2.791 0 5.568-.082 8.334-.23v39.49c0 4.142 3.357 7.5 7.5 7.5zm-15.837-61.76c-.326 0-.658-.001-.984-.003-74.49-.518-135.625-61.538-136.28-136.023-.061-6.862.375-13.641 1.292-20.305h64.399c4.143 0 7.5-3.358 7.5-7.5s-3.357-7.5-7.5-7.5h-61.467c4.536-17.833 12.669-34.589 24.171-49.542.738-.958 1.938-1.53 3.209-1.53h211.305c1.273 0 2.475.574 3.215 1.535 11.49 14.938 19.625 31.698 24.164 49.537h-174.597c-4.143 0-7.5 3.358-7.5 7.5s3.357 7.5 7.5 7.5h177.525c.863 6.264 1.305 12.629 1.305 19.068 0 36.845-14.398 71.436-40.544 97.4-25.911 25.73-60.219 39.865-96.713 39.863z"/><path d="m218.825 143.071-1.374-28.32c-.51-10.498-9.508-18.619-19.963-18.116l-28.32 1.374c-10.497.51-18.624 9.465-18.116 19.963l1.374 28.32c.494 10.186 8.938 18.138 19.029 18.138.31 0 .622-.007.935-.022l28.319-1.374c5.086-.247 9.771-2.459 13.192-6.229s5.171-8.649 4.924-13.734zm-16.031 3.653c-.729.803-1.728 1.274-2.812 1.327l-28.319 1.374c-2.264.114-4.146-1.624-4.255-3.86l-1.374-28.318c-.108-2.238 1.624-4.147 3.86-4.255l28.32-1.374c.066-.003.133-.005.198-.005 2.15 0 3.95 1.695 4.056 3.865l1.374 28.32c.053 1.083-.32 2.122-1.048 2.926z"/></g></g></svg>