<svg id="Capa_1" enable-background="new 0 0 495.371 495.371" height="512" viewBox="0 0 495.371 495.371" width="512" xmlns="http://www.w3.org/2000/svg"><g><g><g><path d="m317.694 485.243-44.306-32.256c-7.629-5.554-12.142-14.422-12.142-23.858v-261.305h-27.121v261.305c0 9.437-4.513 18.304-12.142 23.858l-44.306 32.256c-1.405 1.023-.269 2.628 1.861 2.628h136.296c2.129 0 3.265-1.605 1.86-2.628z" fill="#f7f9f5"/></g></g><g><g><path d="m317.694 485.243-44.306-32.256c-7.629-5.554-12.142-14.422-12.142-23.858v-261.305h-27.121v261.305c0 3.12-.503 6.175-1.439 9.071 1.895 5.864 5.596 11.069 10.702 14.787l44.306 32.256c1.405 1.023.269 2.628-1.861 2.628h30c2.13 0 3.266-1.605 1.861-2.628z" fill="#eceae6"/></g></g><g><g><path d="m276.334 199.239 138.959-158.224c3.364-3.831.644-9.84-4.454-9.84h-326.307c-5.099 0-7.819 6.01-4.454 9.84l138.959 158.224c15.185 17.291 42.111 17.291 57.297 0l138.959-158.224c3.364-3.831.644-9.84-4.454-9.84h-326.307c-5.099 0-7.819 6.01-4.454 9.84l138.959 158.224c15.185 17.291 42.111 17.291 57.297 0z" fill="#f7f9f5"/></g></g><g><g><path d="m410.839 31.175h-30c5.099 0 7.819 6.01 4.454 9.84l-138.959 158.224c-3.905 4.447-8.59 7.741-13.649 9.9 14.612 6.238 32.368 2.944 43.649-9.9l138.959-158.224c3.365-3.831.644-9.84-4.454-9.84z" fill="#eceae6"/></g></g><g><g><path d="m130.219 98.108 88.818 101.131c15.186 17.291 42.112 17.291 57.297 0l88.818-101.131z" fill="#d4f2f6"/></g></g><g><g><path d="m335.152 98.108-88.818 101.131c-3.905 4.447-8.59 7.741-13.649 9.9 14.612 6.238 32.368 2.944 43.649-9.9l88.818-101.131z" fill="#a6e7f0"/></g></g><g><circle cx="255.544" cy="137.669" fill="#d1f19e" r="24.299"/></g><g><g><circle cx="286.9" cy="98.543" fill="#a2e62e" r="24.299"/></g></g><g><path d="m262.613 97.79c-.223 7.369 2.895 14.75 9.091 19.715 10.472 8.393 25.765 6.707 34.157-3.765 3.766-4.699 5.496-10.369 5.32-15.95z" fill="#d1f19e"/></g><path d="m410.839 23.675h-53.894l9.204-11.484c2.59-3.232 2.07-7.952-1.162-10.543-3.232-2.59-7.953-2.07-10.543 1.162l-16.722 20.865h-138.37c-4.142 0-7.5 3.358-7.5 7.5s3.358 7.5 7.5 7.5h126.348l-25.019 31.218c-13.036-6.271-29.17-2.995-38.596 8.765-2.866 3.576-4.88 7.642-5.988 11.951h-122.483l-45.61-51.934h75.348c4.142 0 7.5-3.358 7.5-7.5s-3.358-7.5-7.5-7.5h-78.82c-5.343 0-10.03 3.024-12.233 7.891s-1.381 10.385 2.144 14.399l138.959 158.224c3.769 4.292 8.266 7.786 13.224 10.365v105.165c0 4.142 3.358 7.5 7.5 7.5s7.5-3.358 7.5-7.5v-100.432c1.998.268 4.02.421 6.061.421s4.063-.153 6.061-.421v209.841c0 11.794 5.692 22.98 15.227 29.921l29.286 21.321h-101.15l29.286-21.321c9.535-6.942 15.228-18.127 15.228-29.921v-79.41c0-4.142-3.358-7.5-7.5-7.5s-7.5 3.358-7.5 7.5v79.41c0 7.014-3.386 13.666-9.057 17.795l-44.306 32.256c-3.171 2.309-4.461 6.133-3.286 9.743 1.255 3.857 5.098 6.448 9.561 6.448h136.295c4.463 0 8.306-2.591 9.561-6.448 1.175-3.61-.115-7.435-3.286-9.743l-44.306-32.256c-5.671-4.128-9.056-10.781-9.056-17.795v-214.575c4.957-2.579 9.454-6.073 13.223-10.365l138.96-158.223c3.526-4.014 4.348-9.531 2.145-14.399-2.204-4.867-6.891-7.891-12.234-7.891zm-109.019 82.585c-.217.419-.457.829-.712 1.233-.07.11-.141.22-.214.329-.277.417-.566.829-.885 1.227-2.822 3.521-6.786 5.592-10.943 6.133-.109.014-.217.04-.326.052-4.276.471-8.731-.685-12.346-3.581-.495-.396-.955-.822-1.396-1.263-.15-.15-.289-.31-.433-.466-.278-.3-.547-.606-.801-.922-.156-.195-.306-.394-.453-.596-.217-.298-.421-.604-.617-.914-.138-.219-.279-.435-.406-.66-.189-.332-.355-.674-.52-1.018-.033-.069-.068-.136-.1-.205h30.454c-.054.116-.101.234-.157.349-.05.1-.094.203-.145.302zm-56.782 44.517c-3.501-2.806-5.701-6.808-6.192-11.268-.492-4.46.783-8.845 3.589-12.347 2.806-3.501 6.808-5.7 11.268-6.192.627-.069 1.251-.103 1.873-.103 3.802 0 7.464 1.281 10.473 3.693 3.501 2.806 5.701 6.808 6.192 11.268s-.783 8.845-3.589 12.346c-2.806 3.501-6.808 5.7-11.268 6.192-4.463.491-8.845-.782-12.346-3.589zm41.879-69.026c3.686 0 7.396 1.205 10.489 3.683 1.723 1.381 3.09 3.04 4.112 4.855h-29.233c.443-.78.934-1.538 1.506-2.252 3.314-4.135 8.198-6.286 13.126-6.286zm-16.218 112.539c-5.814 6.62-14.202 10.417-23.013 10.417-8.812 0-17.199-3.797-23.014-10.417l-77.884-88.682h109.103c.02.09.042.179.063.268-1.291-.014-2.59.041-3.893.184-8.443.93-16.018 5.093-21.33 11.721s-7.725 14.928-6.794 23.371c.707 6.41 3.28 12.316 7.376 17.115l-7.366 9.056c-2.614 3.214-2.127 7.937 1.086 10.551 1.391 1.131 3.064 1.682 4.728 1.682 2.179 0 4.341-.945 5.823-2.768l7.883-9.693c3.793 1.563 7.859 2.376 12.016 2.376 1.176 0 2.359-.065 3.545-.196 8.443-.93 16.018-5.093 21.33-11.721s7.725-14.928 6.794-23.371c-.144-1.305-.374-2.587-.67-3.845.119.001.238.008.357.008 1.176 0 2.359-.065 3.545-.196 6.538-.721 12.55-3.387 17.399-7.628.077-.067.153-.135.23-.203.344-.307.682-.622 1.014-.945.108-.105.216-.209.323-.315.309-.309.61-.627.907-.95.106-.115.214-.226.318-.343.389-.435.77-.879 1.137-1.338.01-.013.019-.026.03-.039.306-.383.601-.772.888-1.167.13-.179.252-.361.378-.542.156-.225.313-.448.462-.677.155-.235.302-.473.45-.711.107-.173.214-.345.318-.52.163-.274.32-.55.474-.828.075-.135.149-.271.222-.407.166-.31.327-.621.482-.935.049-.099.096-.199.143-.298.167-.348.33-.697.483-1.049.021-.047.04-.095.06-.143.681-1.583 1.225-3.206 1.635-4.853.032-.129.068-.258.099-.388.021-.089.042-.178.063-.267h30.683zm91.058-103.682h-44.077c-1.026-4.001-2.833-7.821-5.391-11.214l32.634-40.72h62.443z"/></g></svg>