<svg xmlns="http://www.w3.org/2000/svg" viewBox="0 0 40 40" width="40" height="40"><style>tspan { white-space:pre }.shp0 { fill: #f7f9f5 } .shp1 { fill: #eceae6 } .shp2 { fill: #d4f2f6 } .shp3 { fill: #a6e7f0 } .shp4 { fill: #d1f19e } .shp5 { fill: #a2e62e } .shp6 { fill: #000000 } </style><g id="Layer"><g id="Layer"><g id="Layer"><path id="Layer" class="shp0" d="M25.62 39.13L22.05 36.53C21.43 36.08 21.07 35.37 21.07 34.61L21.07 13.53L18.88 13.53L18.88 34.61C18.88 35.37 18.52 36.08 17.9 36.53L14.33 39.13C14.22 39.21 14.31 39.34 14.48 39.34L25.47 39.34C25.64 39.34 25.73 39.21 25.62 39.13L25.62 39.13Z" /></g></g><g id="Layer"><g id="Layer"><path id="Layer" class="shp1" d="M25.62 39.13L22.05 36.53C21.43 36.08 21.07 35.37 21.07 34.61L21.07 13.53L18.88 13.53L18.88 34.61C18.88 34.86 18.84 35.11 18.77 35.34C18.92 35.81 19.22 36.23 19.63 36.53L23.2 39.13C23.31 39.21 23.22 39.34 23.05 39.34L25.47 39.34C25.64 39.34 25.73 39.21 25.62 39.13L25.62 39.13Z" /></g></g><g id="Layer"><g id="Layer"><path id="Layer" class="shp0" d="M22.29 16.07L33.49 3.31C33.76 3 33.54 2.51 33.13 2.51L6.82 2.51C6.41 2.51 6.19 3 6.46 3.31L17.66 16.07C18.89 17.46 21.06 17.46 22.28 16.07L33.49 3.31C33.76 3 33.54 2.51 33.13 2.51L6.82 2.51C6.41 2.51 6.19 3 6.46 3.31L17.66 16.07C18.89 17.46 21.06 17.46 22.28 16.07L22.29 16.07Z" /></g></g><g id="Layer"><g id="Layer"><path id="Layer" class="shp1" d="M33.13 2.51L30.71 2.51C31.12 2.51 31.34 3 31.07 3.31L19.87 16.07C19.55 16.43 19.17 16.69 18.76 16.87C19.94 17.37 21.38 17.1 22.29 16.07L33.49 3.31C33.76 3 33.54 2.51 33.13 2.51L33.13 2.51Z" /></g></g><g id="Layer"><g id="Layer"><path id="Layer" class="shp2" d="M10.5 7.91L17.66 16.07C18.89 17.46 21.06 17.46 22.28 16.07L29.45 7.91L10.5 7.91Z" /></g></g><g id="Layer"><g id="Layer"><path id="Layer" class="shp3" d="M27.03 7.91L19.87 16.07C19.55 16.43 19.17 16.69 18.76 16.87C19.94 17.37 21.38 17.1 22.29 16.07L29.45 7.91L27.03 7.91Z" /></g></g><g id="Layer"><path id="Layer" class="shp4" d="M20.61 13.06C19.52 13.06 18.65 12.19 18.65 11.1C18.65 10.02 19.52 9.14 20.61 9.14C21.69 9.14 22.57 10.02 22.57 11.1C22.57 12.19 21.69 13.06 20.61 13.06Z" /></g><g id="Layer"><g id="Layer"><path id="Layer" class="shp5" d="M23.14 9.91C22.05 9.91 21.18 9.03 21.18 7.95C21.18 6.86 22.05 5.99 23.14 5.99C24.22 5.99 25.1 6.86 25.1 7.95C25.1 9.03 24.22 9.91 23.14 9.91Z" /></g></g><g id="Layer"><path id="Layer" class="shp4" d="M21.18 7.89C21.16 8.48 21.41 9.08 21.91 9.48C22.76 10.15 23.99 10.02 24.67 9.17C24.97 8.79 25.11 8.34 25.1 7.89L21.18 7.89Z" /></g><path id="Layer" fill-rule="evenodd" class="shp6" d="M33.13 1.91C33.56 1.91 33.94 2.15 34.12 2.55C34.3 2.94 34.23 3.38 33.95 3.71L22.74 16.47C22.44 16.81 22.07 17.09 21.67 17.3L21.67 34.61C21.67 35.17 21.95 35.71 22.4 36.04L25.98 38.64C26.23 38.83 26.34 39.14 26.24 39.43C26.14 39.74 25.83 39.95 25.47 39.95L14.48 39.95C14.12 39.95 13.81 39.74 13.71 39.43C13.61 39.14 13.72 38.83 13.97 38.64L17.55 36.04C18 35.71 18.28 35.17 18.28 34.61L18.28 28.2C18.28 27.87 18.55 27.6 18.88 27.6C19.22 27.6 19.49 27.87 19.49 28.2L19.49 34.61C19.49 35.56 19.03 36.46 18.26 37.02L15.9 38.74L24.05 38.74L21.69 37.02C20.92 36.46 20.46 35.56 20.46 34.61L20.46 17.68C20.3 17.71 20.14 17.72 19.97 17.72C19.81 17.72 19.65 17.71 19.49 17.68L19.49 25.78C19.49 26.12 19.22 26.39 18.88 26.39C18.55 26.39 18.28 26.12 18.28 25.78L18.28 17.3C17.88 17.09 17.51 16.81 17.21 16.47L6 3.71C5.72 3.38 5.65 2.94 5.83 2.55C6.01 2.15 6.39 1.91 6.82 1.91L13.17 1.91C13.51 1.91 13.78 2.18 13.78 2.51C13.78 2.85 13.51 3.12 13.17 3.12L7.1 3.12L10.78 7.31L20.65 7.31C20.74 6.96 20.9 6.63 21.14 6.34C21.9 5.39 23.2 5.13 24.25 5.64L26.27 3.12L16.08 3.12C15.74 3.12 15.47 2.85 15.47 2.51C15.47 2.18 15.74 1.91 16.08 1.91L27.24 1.91L28.58 0.23C28.79 -0.03 29.17 -0.08 29.43 0.13C29.7 0.34 29.74 0.72 29.53 0.98L28.79 1.91L33.13 1.91ZM28.11 8.52L25.64 8.52C25.64 8.52 25.63 8.53 25.63 8.54C25.63 8.55 25.63 8.56 25.62 8.57C25.59 8.7 25.55 8.83 25.49 8.96C25.49 8.96 25.49 8.97 25.49 8.97C25.47 9 25.46 9.03 25.45 9.06C25.44 9.06 25.44 9.07 25.44 9.08C25.42 9.11 25.41 9.13 25.4 9.16C25.39 9.17 25.39 9.18 25.38 9.19C25.37 9.21 25.35 9.23 25.34 9.26C25.33 9.27 25.32 9.28 25.32 9.3C25.3 9.32 25.29 9.34 25.28 9.36C25.27 9.37 25.26 9.39 25.24 9.41C25.23 9.42 25.22 9.44 25.21 9.45C25.19 9.49 25.17 9.52 25.14 9.55C25.14 9.55 25.14 9.55 25.14 9.55C25.11 9.59 25.08 9.62 25.05 9.66C25.04 9.67 25.03 9.68 25.02 9.69C25 9.71 24.97 9.74 24.95 9.76C24.94 9.77 24.93 9.78 24.92 9.79C24.89 9.81 24.87 9.84 24.84 9.86C24.83 9.87 24.83 9.88 24.82 9.88C24.43 10.22 23.95 10.44 23.42 10.5C23.32 10.51 23.23 10.51 23.13 10.51C23.12 10.51 23.11 10.51 23.1 10.51C23.13 10.61 23.15 10.72 23.16 10.82C23.23 11.5 23.04 12.17 22.61 12.71C22.18 13.24 21.57 13.58 20.89 13.65C20.79 13.66 20.7 13.67 20.6 13.67C20.27 13.67 19.94 13.6 19.63 13.48L19 14.26C18.88 14.4 18.7 14.48 18.53 14.48C18.39 14.48 18.26 14.44 18.15 14.34C17.89 14.13 17.85 13.75 18.06 13.49L18.65 12.76C18.32 12.38 18.12 11.9 18.06 11.38C17.98 10.7 18.18 10.03 18.61 9.5C19.04 8.96 19.65 8.63 20.33 8.55C20.43 8.54 20.54 8.54 20.64 8.54C20.64 8.53 20.64 8.52 20.64 8.52L11.84 8.52L18.12 15.67C18.59 16.2 19.26 16.51 19.97 16.51C20.69 16.51 21.36 16.2 21.83 15.67L28.11 8.52ZM19.76 12.16C20.04 12.39 20.4 12.49 20.76 12.45C21.12 12.41 21.44 12.23 21.67 11.95C21.89 11.67 21.99 11.31 21.95 10.95C21.92 10.59 21.74 10.27 21.46 10.05C21.21 9.85 20.92 9.75 20.61 9.75C20.56 9.75 20.51 9.75 20.46 9.76C20.1 9.8 19.78 9.97 19.55 10.25C19.32 10.54 19.22 10.89 19.26 11.25C19.3 11.61 19.48 11.93 19.76 12.16ZM23.14 6.59C22.74 6.59 22.35 6.77 22.08 7.1C22.03 7.16 21.99 7.22 21.96 7.28L24.32 7.28C24.23 7.13 24.12 7 23.98 6.89C23.73 6.69 23.44 6.59 23.14 6.59ZM24.34 8.57C24.34 8.56 24.35 8.55 24.35 8.54C24.36 8.54 24.36 8.53 24.36 8.52L21.91 8.52C21.91 8.52 21.91 8.53 21.92 8.53C21.93 8.56 21.94 8.59 21.96 8.62C21.97 8.63 21.98 8.65 21.99 8.67C22.01 8.69 22.02 8.72 22.04 8.74C22.05 8.76 22.07 8.77 22.08 8.79C22.1 8.82 22.12 8.84 22.14 8.86C22.15 8.88 22.17 8.89 22.18 8.9C22.21 8.94 22.25 8.97 22.29 9C22.58 9.24 22.94 9.33 23.29 9.29C23.29 9.29 23.3 9.29 23.31 9.29C23.65 9.25 23.97 9.08 24.19 8.79C24.22 8.76 24.24 8.73 24.27 8.7C24.27 8.69 24.28 8.68 24.28 8.67C24.3 8.64 24.32 8.6 24.34 8.57ZM32.85 3.12L27.82 3.12L25.18 6.4C25.39 6.68 25.54 6.98 25.62 7.31L29.17 7.31L32.85 3.12Z" /></g></svg>