<svg id="Capa_1" enable-background="new 0 0 509.307 509.307" height="512" viewBox="0 0 509.307 509.307" width="512" xmlns="http://www.w3.org/2000/svg"><g><g><g><path d="m333.573 498.892-49.946-35.78c-8.6-6.161-13.687-15.997-13.687-26.465v-166.438h-30.573v166.438c0 10.467-5.087 20.304-13.687 26.465l-49.946 35.78c-1.584 1.135-.303 2.915 2.097 2.915h153.644c2.401 0 3.682-1.78 2.098-2.915z" fill="#f7f9f5"/></g></g><g><g><path d="m333.573 498.892-49.946-35.78c-8.6-6.161-13.687-15.997-13.687-26.465v-166.438h-30v166.438c0 10.468 5.087 20.304 13.687 26.465l49.946 35.78c1.584 1.135.303 2.915-2.097 2.915h30c2.4 0 3.681-1.78 2.097-2.915z" fill="#eceae6"/></g></g><g><g><path d="m254.654 298.655c-31.919 0-58.873-21.255-67.482-50.383-2.459-8.321-3.139-17.067-2.357-25.709l18.583-205.156c.508-5.611 5.212-9.908 10.846-9.908h80.819c5.634 0 10.338 4.297 10.846 9.908l18.583 205.156c.783 8.642.103 17.387-2.357 25.709-8.608 29.129-35.563 50.383-67.481 50.383z" fill="#f7f9f5"/></g></g><g><g><path d="m324.492 222.564-18.583-205.156c-.508-5.611-5.212-9.908-10.846-9.908h-30c5.634 0 10.338 4.297 10.846 9.908l18.583 205.156c.783 8.642.103 17.387-2.357 25.708-7.22 24.429-27.347 43.313-52.482 48.772 4.834 1.05 9.851 1.61 15 1.61 31.919 0 58.873-21.255 67.482-50.383 2.46-8.319 3.14-17.065 2.357-25.707z" fill="#eceae6"/></g></g><g><g><path d="m309.232 54.091h-109.157l-15.26 168.473c-.783 8.641-.103 17.387 2.357 25.708 8.609 29.128 35.563 50.383 67.482 50.383 31.919 0 58.873-21.255 67.482-50.383 2.459-8.321 3.139-17.067 2.357-25.708z" fill="#fee8c7"/></g></g><g><g><path d="m324.492 222.564-15.26-168.473h-30l15.26 168.473c.783 8.641.103 17.387-2.357 25.708-7.22 24.429-27.347 43.313-52.482 48.772 4.834 1.05 9.851 1.611 15 1.611 31.919 0 58.873-21.255 67.482-50.383 2.46-8.32 3.14-17.066 2.357-25.708z" fill="#fedba6"/></g></g><g><g><circle cx="254.654" cy="234.96" fill="#fd6930" r="27.897"/></g></g><g><g><path d="m254.654 207.063c-5.523 0-10.667 1.612-15 4.381 7.752 4.956 12.897 13.632 12.897 23.516s-5.145 18.56-12.897 23.516c4.333 2.77 9.477 4.381 15 4.381 15.407 0 27.897-12.49 27.897-27.897s-12.49-27.897-27.897-27.897z" fill="#fd5426"/></g></g><g><path d="m290.05 234.96c0-19.348-15.605-35.111-34.889-35.384-8.403-51.293 15.654-74.877 16.819-75.98 3.021-2.808 3.209-7.532.413-10.571-2.804-3.048-7.548-3.246-10.598-.441-1.332 1.226-31.435 29.757-21.358 89.97-12.458 5.486-21.181 17.943-21.181 32.406 0 19.518 15.879 35.397 35.397 35.397s35.397-15.879 35.397-35.397zm-55.794 0c0-11.247 9.15-20.397 20.397-20.397s20.396 9.15 20.396 20.397-9.149 20.397-20.396 20.397-20.397-9.15-20.397-20.397z"/><path d="m337.941 492.795-49.945-35.78c-6.609-4.735-10.556-12.35-10.556-20.368v-54.205c0-4.142-3.357-7.5-7.5-7.5s-7.5 3.358-7.5 7.5v54.205c0 12.843 6.288 25.016 16.819 32.562l35.035 25.098h-119.281l35.035-25.099c10.531-7.545 16.819-19.718 16.819-32.561v-130.888c2.572.253 5.167.396 7.786.396s5.214-.143 7.786-.396v46.684c0 4.142 3.357 7.5 7.5 7.5s7.5-3.358 7.5-7.5v-49.67c8.664-2.644 16.837-6.803 24.229-12.41 13.174-9.993 22.997-24.186 27.66-39.964 2.648-8.963 3.535-18.555 2.634-28.511l-18.584-205.156c-.863-9.539-8.737-16.732-18.315-16.732h-80.818c-9.578 0-17.452 7.193-18.315 16.731l-18.584 205.157c-.901 9.955-.015 19.547 2.634 28.511 4.663 15.778 14.486 29.971 27.66 39.963 7.392 5.607 15.564 9.767 24.229 12.41v133.875c0 8.018-3.946 15.632-10.556 20.368l-49.943 35.779c-3.257 2.332-4.599 6.213-3.419 9.888 1.272 3.962 5.243 6.625 9.882 6.625h153.645c4.639 0 8.609-2.663 9.882-6.625 1.177-3.675-.164-7.556-3.419-9.887zm-143.577-246.648c-2.109-7.139-2.809-14.846-2.079-22.906l14.643-161.65h16.48c4.143 0 7.5-3.358 7.5-7.5s-3.357-7.5-7.5-7.5h-15.121l2.582-28.507c.159-1.759 1.61-3.084 3.376-3.084h80.818c1.766 0 3.217 1.326 3.376 3.085l2.582 28.506h-47.614c-4.143 0-7.5 3.358-7.5 7.5s3.357 7.5 7.5 7.5h48.972l14.643 161.649c.729 8.061.03 15.768-2.079 22.906-7.833 26.5-32.625 45.008-60.29 45.008s-52.456-18.507-60.289-45.007z"/></g></g></svg>