<svg id="Capa_1" enable-background="new 0 0 508.133 508.133" height="512" viewBox="0 0 508.133 508.133" width="512" xmlns="http://www.w3.org/2000/svg"><g><g><g><path d="m399.418 70.931c-9.812 14.202-30.133 18.822-44.437 8.94s-17.173-30.523-7.361-44.725c7.978-11.548 41.153-22.954 53.708-27.441 2.292-.819 4.707.849 4.752 3.283.246 13.33 1.316 48.395-6.662 59.943z" fill="#97d729"/></g></g><g><g><path d="m406.08 10.988c-.045-2.434-2.46-4.102-4.752-3.283-5.617 2.007-15.362 5.402-25.131 9.573.254 15.862.15 43.624-6.779 53.653-3.111 4.503-7.28 8.038-11.977 10.458 14.09 7.81 32.715 2.949 41.977-10.458 7.978-11.548 6.908-46.613 6.662-59.943z" fill="#8bc727"/></g></g><g><g><path d="m344.093 63.339c-2.004-7.877-1.864-17.685 2.106-25.225-8.707-10.465-19.685-20.851-25.27-26.233-1.753-1.689-4.64-1.161-5.681 1.039-5.705 12.05-21.098 43.574-18.574 57.381 3.105 16.981 19.729 29.547 36.831 26.42 9.863-1.803 17.717-8.439 22.015-16.985-5.593-3.477-9.593-9.188-11.427-16.397z" fill="#81b823"/></g></g><g><g><path d="m321.627 498.097-42.757-31.128c-7.362-5.36-11.717-13.917-11.717-23.024v-252.166h-26.173v252.166c0 9.107-4.355 17.664-11.717 23.024l-42.757 31.128c-1.356.987-.26 2.536 1.796 2.536h131.529c2.055 0 3.152-1.549 1.796-2.536z" fill="#f7f9f5"/></g></g><g><g><path d="m321.627 498.097-42.757-31.128c-7.362-5.36-11.717-13.917-11.717-23.024v-252.167h-26.173v252.166c0 3.55-.67 7.013-1.914 10.24 1.947 5.05 5.311 9.514 9.803 12.784l42.757 31.128c1.356.987.26 2.536-1.795 2.536h30c2.055.001 3.152-1.548 1.796-2.535z" fill="#eceae6"/></g></g><g><g><path d="m281.713 221.096 134.1-152.691c3.247-3.697.622-9.496-4.299-9.496h-314.895c-4.92 0-7.545 5.799-4.299 9.496l134.1 152.691c14.654 16.686 40.639 16.686 55.293 0l134.1-152.691c3.247-3.697.622-9.496-4.299-9.496h-314.895c-4.92 0-7.545 5.799-4.299 9.496l134.1 152.691c14.654 16.686 40.639 16.686 55.293 0z" fill="#f7f9f5"/></g></g><g><g><path d="m411.514 58.909h-30c4.92 0 7.545 5.799 4.299 9.496l-134.1 152.691c-3.634 4.137-7.965 7.246-12.647 9.332 14.198 6.326 31.626 3.217 42.647-9.332l134.1-152.691c3.247-3.697.621-9.496-4.299-9.496z" fill="#eceae6"/></g></g><g><g><path d="m119.056 98.847 107.364 122.249c14.655 16.686 40.639 16.686 55.294 0l107.363-122.249z" fill="#e759aa"/></g></g><g><g><path d="m359.077 98.847-107.364 122.249c-3.634 4.137-7.965 7.246-12.647 9.332 14.199 6.326 31.626 3.217 42.647-9.332l107.364-122.249z" fill="#e03d9c"/></g></g><g><g><path d="m180.372 168.664 46.048 52.432c14.655 16.686 40.639 16.686 55.294 0l46.048-52.432z" fill="#e03d9c"/></g></g><g><g><path d="m297.761 168.664-46.048 52.432c-3.634 4.137-7.965 7.246-12.647 9.332 14.199 6.326 31.626 3.217 42.647-9.332l46.048-52.432z" fill="#c53287"/></g></g><g><g><circle cx="223.61" cy="148.19" fill="#a82975" r="20.806"/></g></g><path d="m267.153 337.437c4.142 0 7.5-3.358 7.5-7.5v-93.908c4.756-2.497 9.073-5.859 12.696-9.984l134.1-152.691c2.183-2.486 3.313-5.557 3.312-8.686-.001-1.846-.396-3.712-1.201-5.491-2.03-4.484-6.201-7.378-11.039-7.731 1.582-13.834 1.271-29.817 1.094-38.736l-.036-1.861c-.065-3.551-1.848-6.875-4.768-8.893-2.92-2.018-6.661-2.509-10.006-1.314l-1.763.628c-20.787 7.398-41.036 15.488-51.35 24.882-6.733-7.344-13.708-14.048-18.215-18.381l-1.34-1.29c-2.558-2.465-6.169-3.555-9.661-2.917s-6.485 2.936-8.005 6.146l-.802 1.69c-4.284 9.019-12.195 25.684-16.204 40.008h-138.496l-18.337-21.631c-2.679-3.159-7.411-3.55-10.571-.872-3.16 2.679-3.55 7.411-.872 10.571l10.115 11.932h-36.685c-5.26 0-9.875 2.977-12.044 7.769-.805 1.778-1.2 3.645-1.201 5.491-.001 3.129 1.128 6.2 3.312 8.686l134.1 152.691c3.623 4.125 7.94 7.487 12.696 9.984v207.916c0 6.685-3.227 13.025-8.631 16.96l-42.757 31.129c-3.153 2.296-4.435 6.102-3.265 9.696 1.247 3.83 5.055 6.403 9.476 6.403h131.529c4.421 0 8.229-2.573 9.476-6.403 1.169-3.594-.112-7.4-3.266-9.696l-42.757-31.128c-5.405-3.935-8.631-10.275-8.631-16.96v-84.008c0-4.142-3.358-7.5-7.5-7.5s-7.5 3.358-7.5 7.5v84.008c0 11.465 5.534 22.339 14.803 29.087l27.61 20.101h-95.999l27.61-20.101c9.27-6.748 14.803-17.622 14.803-29.087v-203.204c1.843.234 3.707.368 5.587.368 1.879 0 3.743-.134 5.585-.368v89.195c-.002 4.142 3.356 7.5 7.498 7.5zm131.532-320.824c.158 9.295.219 23.287-1.27 34.796h-47.936c.41-4.33 1.877-8.476 4.312-12 5.674-8.213 32.259-18.247 44.894-22.796zm-79.008 4.474c4.889 4.725 11.485 11.237 17.449 17.98-1.524 3.923-2.434 8.09-2.691 12.343h-27.311c3.429-10.623 8.796-22.36 12.553-30.323zm-173.657 45.322 21.14 24.938h-44.71l-21.902-24.938zm108.047 159.701c-8.427 0-16.451-3.632-22.012-9.964l-96.431-109.799h44.252l21.089 24.878c-3.553 4.731-5.661 10.606-5.661 16.964 0 15.608 12.698 28.306 28.306 28.306 4.696 0 9.125-1.156 13.028-3.189l18.922 22.321c1.484 1.75 3.597 2.65 5.725 2.65 1.713 0 3.437-.584 4.846-1.779 3.16-2.679 3.55-7.411.872-10.571l-19.349-22.825c2.698-4.334 4.263-9.444 4.263-14.915 0-15.608-12.698-28.306-28.306-28.306-3.816 0-7.456.764-10.782 2.139l-13.288-15.675h31.445c4.142 0 7.5-3.358 7.5-7.5s-3.358-7.5-7.5-7.5h-44.16l-21.14-24.938h241.9l-21.902 24.938h-124.699c-4.142 0-7.5 3.358-7.5 7.5s3.358 7.5 7.5 7.5h111.523l-96.431 109.799c-5.56 6.335-13.583 9.966-22.01 9.966zm-30.457-64.614c-7.337 0-13.306-5.969-13.306-13.306s5.969-13.306 13.306-13.306 13.306 5.969 13.306 13.306-5.969 13.306-13.306 13.306z"/></g></svg>