<svg id="Capa_1" enable-background="new 0 0 507.342 507.342" height="512" viewBox="0 0 507.342 507.342" width="512" xmlns="http://www.w3.org/2000/svg"><g><g><g><circle cx="349.12" cy="56.182" fill="#fee903" r="48.682"/></g></g><g><g><path d="m349.12 7.5c-5.236 0-10.274.836-15 2.366 19.544 6.326 33.682 24.666 33.682 46.316 0 21.651-14.138 39.991-33.682 46.316 4.726 1.53 9.764 2.366 15 2.366 26.886 0 48.682-21.796 48.682-48.682s-21.796-48.682-48.682-48.682z" fill="#f4d902"/></g></g><g><g><path d="m304.673 497.306-42.757-31.128c-7.362-5.36-11.717-13.917-11.717-23.024v-252.166h-26.173v252.166c0 9.107-4.355 17.664-11.717 23.024l-42.757 31.128c-1.356.987-.26 2.536 1.796 2.536h131.529c2.056 0 3.153-1.549 1.796-2.536z" fill="#f7f9f5"/></g></g><g><g><path d="m304.673 497.306-42.757-31.128c-7.362-5.36-11.717-13.917-11.717-23.024v-252.166h-26.173v252.166c0 3.55-.67 7.013-1.914 10.24 1.947 5.05 5.311 9.514 9.803 12.784l42.757 31.128c1.356.987.26 2.536-1.795 2.536h30c2.056 0 3.153-1.549 1.796-2.536z" fill="#eceae6"/></g></g><g><g><path d="m339.923 37.343h-209.62c-11.467 0-20.763 9.296-20.763 20.763v51.636c0 18.528 6.742 36.422 18.968 50.343l94.123 77.172c8.091 9.213 22.438 9.213 30.529 0l88.557-70.834c12.226-13.921 18.968-31.816 18.968-50.343v-57.974c.001-11.467-9.294-20.763-20.762-20.763z" fill="#f7f9f5"/></g></g><g><g><path d="m339.924 37.343h-30c11.467 0 20.763 9.296 20.763 20.763v57.974c0 18.528-6.742 36.422-18.968 50.343l-88.557 70.834c-.084.096-.179.176-.265.27 8.134 8.927 22.258 8.847 30.265-.27l88.557-70.834c12.226-13.921 18.968-31.816 18.968-50.343v-57.974c-.001-11.467-9.296-20.763-20.763-20.763z" fill="#eceae6"/></g></g><g><g><path d="m109.54 84.386v25.355c0 18.528 6.742 36.422 18.969 50.344l94.123 77.172c8.091 9.213 22.438 9.213 30.529 0l88.557-70.834c12.226-13.921 18.968-31.816 18.968-50.343v-31.694z" fill="#fefbdd"/></g></g><g><g><path d="m330.686 84.386v31.694c0 18.528-6.742 36.422-18.968 50.343l-88.557 70.834c-.084.096-.179.176-.265.27 8.134 8.927 22.258 8.847 30.265-.27l88.557-70.834c12.226-13.921 18.968-31.816 18.968-50.343v-31.694z" fill="#fee8c7"/></g></g><g><g><circle cx="237.113" cy="190.919" fill="#fd5426" r="23.769"/></g></g><g><g><path d="m237.113 167.15c-5.689 0-10.909 2.001-15 5.334 5.35 4.358 8.769 10.996 8.769 18.435s-3.419 14.077-8.769 18.435c4.091 3.333 9.311 5.334 15 5.334 13.127 0 23.769-10.642 23.769-23.769s-10.642-23.769-23.769-23.769z" fill="#ef4424"/></g></g><g><path d="m405.302 56.182c0-30.979-25.203-56.182-56.182-56.182-20.979 0-39.943 11.563-49.63 29.843h-169.187c-15.584 0-28.263 12.679-28.263 28.263v51.636c0 20.359 7.398 39.996 20.833 55.293.27.307.564.591.88.851l92.774 76.065v201.203c0 6.686-3.227 13.026-8.632 16.96l-42.757 31.129c-3.153 2.296-4.435 6.102-3.265 9.695 1.247 3.831 5.055 6.404 9.476 6.404h131.529c4.421 0 8.229-2.573 9.476-6.404 1.17-3.594-.112-7.399-3.266-9.696l-42.757-31.128c-5.405-3.935-8.631-10.275-8.631-16.96v-88.763c0-4.142-3.358-7.5-7.5-7.5s-7.5 3.358-7.5 7.5v88.763c0 11.465 5.534 22.339 14.803 29.087l27.61 20.101h-95.999l27.61-20.101c9.27-6.748 14.803-17.622 14.803-29.087v-192.236c2.07.487 4.205.749 6.37.749 1.623 0 3.228-.15 4.803-.426v73.15c0 4.142 3.358 7.5 7.5 7.5s7.5-3.358 7.5-7.5v-81.019c.208-.211.419-.419.621-.637l88.083-70.455c.343-.274.661-.578.951-.908 13.435-15.297 20.833-34.934 20.833-55.293v-7.047c21.992-7.954 37.114-29.267 37.114-52.85zm-68.797 104.807-88.029 70.411c-.343.274-.661.578-.951.908-.603.687-1.264 1.295-1.971 1.827-.031.025-.065.047-.096.072-2.169 1.599-4.776 2.46-7.561 2.46-3.741 0-7.161-1.548-9.629-4.359-.27-.307-.564-.591-.88-.851l-93.637-76.772c-10.78-12.492-16.71-28.429-16.71-44.943v-17.856h53.746c4.142 0 7.5-3.358 7.5-7.5s-3.358-7.5-7.5-7.5h-53.747v-18.781c0-7.313 5.95-13.263 13.263-13.263h209.621c7.313 0 13.263 5.95 13.263 13.263v18.781h-152.4c-4.142 0-7.5 3.358-7.5 7.5s3.358 7.5 7.5 7.5h152.4v24.193c-.001 16.501-5.92 32.423-16.682 44.91zm31.681-68.312v-34.572c0-15.584-12.679-28.263-28.263-28.263h-22.486c7.692-9.263 19.203-14.842 31.683-14.842 22.708 0 41.182 18.474 41.182 41.182 0 15.403-8.799 29.483-22.116 36.495z"/><path d="m237.113 159.65c-8.229 0-15.722 3.201-21.311 8.416-19.058-21.77-23.046-41.59-23.107-41.905-.75-4.061-4.641-6.753-8.71-6.018-4.076.737-6.783 4.64-6.045 8.715.198 1.094 4.954 25.985 29.475 52.294-1.014 3.075-1.57 6.356-1.57 9.766 0 17.242 14.027 31.269 31.269 31.269s31.269-14.027 31.269-31.269-14.028-31.268-31.27-31.268zm0 47.538c-8.971 0-16.269-7.298-16.269-16.269s7.298-16.269 16.269-16.269 16.269 7.298 16.269 16.269-7.298 16.269-16.269 16.269z"/></g></g></svg>