<svg id="Capa_1" enable-background="new 0 0 507.467 507.467" height="512" viewBox="0 0 507.467 507.467" width="512" xmlns="http://www.w3.org/2000/svg"><g><g><g><circle cx="161.904" cy="95.33" fill="#f4d902" r="87.83"/></g></g><g><g><path d="m161.904 7.5c-5.115 0-10.125.442-15 1.281 41.36 7.118 72.83 43.156 72.83 86.549s-31.47 79.431-72.83 86.549c4.875.839 9.885 1.281 15 1.281 48.507 0 87.83-39.323 87.83-87.83 0-48.507-39.322-87.83-87.83-87.83z" fill="#e3ca00"/></g></g><g><g><circle cx="161.904" cy="95.33" fill="#fef056" r="44.496"/></g></g><g><g><path d="m161.904 50.834c-5.265 0-10.313.92-15 2.599 17.193 6.157 29.496 22.587 29.496 41.897s-12.303 35.74-29.496 41.897c4.687 1.678 9.735 2.599 15 2.599 24.574 0 44.496-19.921 44.496-44.495s-19.921-44.497-44.496-44.497z" fill="#fee903"/></g></g><g><g><path d="m371.445 499.967h-151.094c-15.29 0-27.803-12.166-28.234-27.45l-33.698-364.279c-.464-12.836 9.816-23.494 22.661-23.494h229.637c12.844 0 23.124 10.658 22.661 23.494l-33.698 364.279c-.432 15.284-12.946 27.45-28.235 27.45z" fill="#f7f9f5"/></g></g><g><g><path d="m410.716 84.745h-30c12.844 0 23.124 10.658 22.661 23.494l-33.698 364.279c-.431 15.283-12.944 27.45-28.234 27.45h30c15.29 0 27.803-12.166 28.234-27.45l33.698-364.279c.464-12.836-9.816-23.494-22.661-23.494z" fill="#eceae6"/></g></g><g><g><path d="m162.959 157.31 17.778 192.185c2.496 26.984 25.135 47.626 52.235 47.626h125.853c27.1 0 49.739-20.642 52.235-47.626l17.778-192.185z" fill="#fec165"/></g></g><g><g><path d="m398.838 157.31-17.778 192.185c-2.496 26.984-25.135 47.626-52.235 47.626h30c27.1 0 49.739-20.642 52.235-47.626l17.778-192.185z" fill="#fdb441"/></g></g><g><g><path d="m424.667 202.398 4.171-45.088h-265.879l4.171 45.088z" fill="#fedba6"/></g></g><g><g><path d="m398.838 157.31-4.171 45.088h30l4.171-45.088z" fill="#fec165"/></g></g><g><g><path d="m273.25 363.628-37.699-21.284c-5.561-3.139-7.523-10.192-4.384-15.753l21.285-37.699c3.139-5.561 10.192-7.523 15.753-4.384l37.699 21.284c5.561 3.139 7.523 10.192 4.384 15.753l-21.285 37.699c-3.14 5.561-10.192 7.523-15.753 4.384z" fill="#fea613"/></g></g><g><g><path d="m305.903 305.792-37.699-21.285c-5.56-3.139-12.613-1.177-15.752 4.384l-1.567 2.776 15.202 8.583c10.982 6.2 14.858 20.129 8.658 31.111l-14.175 25.107 12.68 7.159c5.561 3.139 12.613 1.177 15.753-4.384l21.285-37.699c3.139-5.56 1.176-12.612-4.385-15.752z" fill="#fe9901"/></g></g><g><g><path d="m373.207 281.369-38.219 5.881c-6.311.971-12.215-3.358-13.186-9.669l-5.881-38.219c-.971-6.311 3.358-12.215 9.669-13.186l38.219-5.881c6.311-.971 12.215 3.358 13.186 9.669l5.881 38.219c.972 6.312-3.357 12.215-9.669 13.186z" fill="#fea613"/></g></g><g><g><path d="m382.877 268.183-5.881-38.219c-.971-6.311-6.875-10.64-13.186-9.669l-20.226 3.112c1.762 1.696 3.011 3.953 3.412 6.557l3.475 22.58c2.3 14.948-7.953 28.931-22.901 31.231l-2.355.362c2.509 2.415 6.067 3.683 9.774 3.112l38.219-5.881c6.311-.97 10.64-6.873 9.669-13.185z" fill="#fe9901"/></g></g><g><g><circle cx="252.144" cy="281.377" fill="#ef4424" r="34.279"/></g></g><g><g><path d="m252.144 247.098c-5.38 0-10.469 1.242-15 3.451 11.414 5.564 19.279 17.276 19.279 30.828s-7.866 25.264-19.279 30.828c4.531 2.209 9.62 3.451 15 3.451 18.932 0 34.279-15.347 34.279-34.279s-15.347-34.279-34.279-34.279z" fill="#d73d24"/></g></g><g><path d="m314.389 278.722c1.449 9.411 9.588 16.165 18.83 16.165.96 0 1.933-.073 2.91-.224l38.219-5.881c5.032-.774 9.462-3.462 12.474-7.568 3.011-4.106 4.242-9.139 3.468-14.171l-5.881-38.218c-.774-5.033-3.462-9.462-7.568-12.474-4.105-3.012-9.14-4.245-14.171-3.468l-38.219 5.881c-10.389 1.598-17.54 11.351-15.942 21.739zm12.343-45.133 38.219-5.881c.209-.032.419-.048.626-.048.857 0 1.689.271 2.394.787.875.642 1.447 1.585 1.612 2.658l5.881 38.219c.165 1.072-.097 2.145-.738 3.02s-1.586 1.448-2.658 1.613l-38.219 5.881c-2.219.337-4.292-1.184-4.633-3.397l-5.881-38.218c-.341-2.215 1.183-4.293 3.397-4.634z"/><path d="m309.591 299.262-16.549-9.343c.575-2.759.881-5.615.881-8.542 0-23.037-18.742-41.779-41.78-41.779-4.307 0-8.464.656-12.376 1.872-2.743-9.331-5.939-27.131 2.301-44.225 1.799-3.731.232-8.214-3.499-10.013-3.73-1.799-8.214-.232-10.013 3.499-11.357 23.56-5.882 47.219-2.291 57.882-9.676 7.659-15.901 19.494-15.901 32.764 0 14.313 7.237 26.963 18.241 34.495l-3.97 7.031c-5.167 9.153-1.925 20.803 7.228 25.971l37.699 21.284c2.9 1.637 6.102 2.471 9.343 2.471 1.715 0 3.442-.234 5.14-.707 4.905-1.365 8.985-4.559 11.488-8.992l21.285-37.7c5.168-9.152 1.925-20.802-7.227-25.968zm-57.447-44.664c14.767 0 26.78 12.013 26.78 26.779s-12.013 26.779-26.78 26.779c-14.766 0-26.779-12.013-26.779-26.779s12.013-26.779 26.779-26.779zm51.612 63.259-21.285 37.7c-.533.944-1.402 1.625-2.447 1.916-1.046.289-2.142.158-3.086-.376l-37.699-21.284c-1.951-1.102-2.642-3.584-1.54-5.535l4.678-8.286c3.136.754 6.404 1.165 9.767 1.165 14.745 0 27.721-7.685 35.159-19.253l14.914 8.421c1.95 1.099 2.641 3.582 1.539 5.532z"/><path d="m432.434 86.471c-5.738-5.95-13.451-9.227-21.718-9.227h-155.221c-8.532-44.455-47.678-77.244-93.591-77.244-52.565 0-95.33 42.765-95.33 95.33 0 51.427 40.934 93.466 91.931 95.263l26.123 282.389c.677 19.358 16.32 34.485 35.723 34.485h151.094c19.403 0 35.047-15.126 35.723-34.485l29.131-314.905 4.547-49.147c.014-.14.022-.28.027-.421.298-8.261-2.7-16.088-8.439-22.038zm-350.86 8.859c0-44.294 36.036-80.33 80.33-80.33 37.709 0 70.007 26.239 78.275 62.245h-29.523c-7.54-20.34-26.947-33.91-48.753-33.91-28.67 0-51.996 23.325-51.996 51.996 0 25.838 19.308 47.801 44.543 51.449l2.657 28.725c-42.066-2.491-75.533-37.492-75.533-80.175zm77.787-8.859c-5.739 5.95-8.736 13.777-8.438 22.038.005.141.014.281.027.42l2.063 22.306c-16.164-4.019-28.105-18.762-28.105-35.905 0-20.399 16.596-36.996 36.996-36.996 13.568 0 25.829 7.383 32.283 18.91h-13.107c-8.267.001-15.98 3.277-21.719 9.227zm232.85 385.355c-.016.16-.024.32-.029.48-.317 11.305-9.427 20.161-20.736 20.161h-151.095c-11.31 0-20.418-8.856-20.737-20.162-.004-.16-.014-.32-.029-.479l-7.715-83.396c10.741 10.089 25.201 16.19 41.101 16.19h62.926c4.143 0 7.5-3.358 7.5-7.5s-3.357-7.5-7.5-7.5h-62.926c-23.368 0-42.614-17.547-44.767-40.816 0 0 0-.001 0-.002l-17.02-183.992h55.194c4.142 0 7.5-3.358 7.5-7.5s-3.358-7.5-7.5-7.5h-56.581l-3.888-42.032c-.098-4.084 1.407-7.946 4.249-10.893 2.886-2.992 6.765-4.64 10.922-4.64h229.637c4.157 0 8.036 1.648 10.922 4.64 2.843 2.947 4.348 6.809 4.25 10.893l-3.889 42.032h-165.622c-4.142 0-7.5 3.358-7.5 7.5s3.358 7.5 7.5 7.5h164.234l-17.022 184.004c-2.157 23.264-21.401 40.807-44.766 40.807h-32.927c-4.143 0-7.5 3.358-7.5 7.5s3.357 7.5 7.5 7.5h32.927c15.9 0 30.36-6.101 41.101-16.19z"/></g></g></svg>