<svg id="Capa_1" enable-background="new 0 0 505.348 505.348" height="512" viewBox="0 0 505.348 505.348" width="512" xmlns="http://www.w3.org/2000/svg"><g><g><g><path d="m328.067 495.018-47.714-34.737c-8.216-5.981-13.076-15.531-13.076-25.693v-281.405h-29.207v281.404c0 10.162-4.86 19.712-13.076 25.693l-47.714 34.737c-1.513 1.102-.29 2.83 2.004 2.83h146.779c2.294.001 3.518-1.727 2.004-2.829z" fill="#f7f9f5"/></g></g><g><g><path d="m328.067 495.018-47.714-34.737c-8.216-5.981-13.076-15.531-13.076-25.693v-281.405h-29.207v281.404c0 1.663-.143 3.306-.396 4.922 1.296 8.266 5.808 15.768 12.679 20.771l47.714 34.737c1.513 1.102.29 2.83-2.004 2.83h30c2.294.001 3.518-1.727 2.004-2.829z" fill="#eceae6"/></g></g><g><g><path d="m284.36 193.384 153.693-175c3.721-4.237.712-10.884-4.927-10.884h-360.904c-5.639 0-8.648 6.647-4.927 10.884l153.693 175c16.796 19.124 46.577 19.124 63.372 0l153.693-175c3.721-4.237.712-10.884-4.927-10.884h-360.904c-5.639 0-8.648 6.647-4.927 10.884l153.693 175c16.796 19.124 46.577 19.124 63.372 0z" fill="#ffefd2"/></g></g><g><g><path d="m433.126 7.5h-30c5.639 0 8.648 6.647 4.927 10.884l-153.693 175c-4.727 5.382-10.482 9.249-16.686 11.602 15.843 6.008 34.617 2.141 46.686-11.602l153.693-175c3.721-4.237.712-10.884-4.927-10.884z" fill="#fedba6"/></g></g><g><g><path d="m102.314 58.258 118.674 135.126c16.796 19.124 46.577 19.124 63.372 0l118.674-135.126z" fill="#c4573a"/></g></g><g><g><path d="m373.034 58.258-118.674 135.126c-4.727 5.382-10.482 9.249-16.686 11.602 15.843 6.008 34.617 2.141 46.686-11.602l118.674-135.126z" fill="#a74b30"/></g></g><g><g><ellipse cx="216.88" cy="112.145" fill="#8c3d27" rx="22.346" ry="24.638" transform="matrix(.952 -.306 .306 .952 -23.92 71.785)"/></g></g><g><g><ellipse cx="282.191" cy="128.745" fill="#8c3d27" rx="24.638" ry="22.346" transform="matrix(.306 -.952 .952 .306 73.233 357.969)"/></g></g><g><path d="m207.041 81.551c-15.667 5.039-23.999 22.862-18.573 39.732 2.586 8.042 7.898 14.712 14.958 18.782 4.635 2.672 9.661 4.03 14.69 4.03 2.892 0 5.784-.449 8.603-1.356 7.723-2.483 13.891-8.077 17.368-15.751 3.364-7.422 3.793-15.939 1.206-23.981-5.426-16.869-22.592-26.495-38.252-21.456zm23.384 39.245c-1.709 3.771-4.655 6.492-8.298 7.664-3.644 1.172-7.623.677-11.209-1.39-3.825-2.206-6.728-5.892-8.171-10.38-2.893-8.996 1.093-18.354 8.886-20.86 1.313-.422 2.649-.623 3.98-.623 6.575 0 12.994 4.912 15.4 12.393 1.444 4.488 1.235 9.174-.588 13.196z"/><path d="m310.604 137.883c2.587-8.042 2.158-16.559-1.206-23.981-3.478-7.674-9.646-13.268-17.368-15.751-7.723-2.484-15.994-1.534-23.293 2.674-7.06 4.07-12.372 10.741-14.958 18.782-5.426 16.87 2.906 34.693 18.573 39.732 2.819.907 5.688 1.339 8.527 1.339 12.937 0 25.277-8.962 29.725-22.795zm-42.546-13.683c1.443-4.488 4.346-8.174 8.171-10.38 2.313-1.333 4.788-2.012 7.232-2.012 1.346 0 2.683.206 3.977.622 3.643 1.171 6.589 3.893 8.298 7.664 1.823 4.022 2.032 8.708.589 13.196-2.894 8.996-11.584 14.277-19.381 11.77-7.793-2.506-11.779-11.864-8.886-20.86z"/><path d="m267.278 340.351c4.143 0 7.5-3.358 7.5-7.5v-122.83c5.721-2.844 10.909-6.781 15.219-11.688l153.692-175c2.32-2.643 3.521-5.908 3.52-9.235-.001-1.963-.421-3.947-1.276-5.838-2.308-5.095-7.215-8.26-12.807-8.26h-360.904c-5.592 0-10.499 3.165-12.806 8.259-.855 1.891-1.275 3.875-1.276 5.838-.002 3.327 1.199 6.592 3.52 9.235l153.692 175c4.31 4.907 9.498 8.844 15.219 11.688v224.566c0 7.737-3.734 15.076-9.99 19.63l-47.714 34.737c-3.21 2.337-4.517 6.203-3.33 9.849 1.274 3.915 5.192 6.545 9.748 6.545h146.779c4.556 0 8.474-2.63 9.748-6.545 1.187-3.646-.12-7.512-3.33-9.849l-47.714-34.737c-6.256-4.554-9.99-11.893-9.99-19.63v-71.736c0-4.142-3.357-7.5-7.5-7.5s-7.5 3.358-7.5 7.5v71.736c0 12.517 6.042 24.389 16.162 31.757l32.972 24.004h-112.475l32.972-24.004c10.12-7.368 16.162-19.24 16.162-31.757v-219.885c2.339.338 4.71.526 7.104.526s4.765-.188 7.104-.526v118.15c-.001 4.142 3.356 7.5 7.499 7.5zm-40.655-151.916-107.74-122.677h45.805c4.143 0 7.5-3.358 7.5-7.5s-3.357-7.5-7.5-7.5h-58.979l-31.404-35.758h356.738l-31.404 35.758h-204.951c-4.143 0-7.5 3.358-7.5 7.5s3.357 7.5 7.5 7.5h191.778l-107.74 122.677c-6.581 7.495-16.076 11.792-26.051 11.792s-19.471-4.298-26.052-11.792z"/></g></g></svg>