<svg id="Capa_1" enable-background="new 0 0 507.674 507.674" height="512" viewBox="0 0 507.674 507.674" width="512" xmlns="http://www.w3.org/2000/svg"><g><g><g><path d="m253.355 28.352 119.316 149.145c41.095-32.966 47.736-92.998 14.814-134.15-32.921-41.152-92.947-47.851-134.13-14.995z" fill="#ffefd2"/></g></g><g><g><path d="m387.485 43.347c-22.229-27.786-56.815-39.861-89.614-34.661 22.678 3.59 44.14 15.319 59.614 34.661 27.87 34.837 27.384 83.203 1.647 117.227l13.539 16.923c41.095-32.966 47.736-92.998 14.814-134.15z" fill="#fedba6"/></g></g><g><g><path d="m351.162 150.61c26.246-21.087 30.481-59.451 9.438-85.755s-59.4-30.593-85.735-9.616" fill="#fd6930"/></g></g><g><g><path d="m360.6 64.856c-15.439-19.299-40.196-26.729-62.69-21.043 12.463 3.147 24.04 10.231 32.69 21.043 15.853 19.817 17.353 46.476 5.908 67.438l14.654 18.317c26.246-21.088 30.48-59.452 9.438-85.755z" fill="#fd5426"/></g></g><g><g><path d="m296.106 500.174h-164.992c-11.278 0-20.512-8.968-20.841-20.242l-10.953-383.683c-.165-5.657 4.376-10.332 10.035-10.332h208.51c5.659 0 10.2 4.675 10.035 10.332l-10.953 383.683c-.329 11.273-9.563 20.242-20.841 20.242z" fill="#f7f9f5"/></g></g><g><g><path d="m286.678 432.992c17.49 0 31.809-13.908 32.319-31.39l8.903-305.353c.165-5.657-4.376-10.332-10.035-10.332h-208.51c-5.659 0-10.2 4.675-10.035 10.332l8.903 305.353c.51 17.483 14.829 31.39 32.319 31.39z" fill="#fead8a"/></g></g><g><g><path d="m317.865 85.917h-30c5.659 0 10.2 4.675 10.035 10.332l-8.903 305.353c-.51 17.483-14.829 31.39-32.319 31.39h30c17.49 0 31.809-13.908 32.319-31.39l8.903-305.353c.165-5.657-4.376-10.332-10.035-10.332z" fill="#fd9468"/></g></g><g><g><path d="m259.478 98.844-51.685 51.685c-7.139 7.139-18.715 7.139-25.854 0l-51.685-51.685c-7.139-7.139-7.139-18.715 0-25.854l51.685-51.685c7.139-7.139 18.715-7.139 25.854 0l51.685 51.685c7.139 7.139 7.139 18.715 0 25.854z" fill="#d4f2f6"/></g></g><g><g><path d="m259.478 72.99-51.685-51.685c-7.139-7.139-18.715-7.139-25.854 0l-2.073 2.073 49.612 49.612c7.139 7.139 7.139 18.715 0 25.854l-49.612 49.612 2.073 2.073c7.139 7.139 18.715 7.139 25.854 0l51.685-51.685c7.139-7.139 7.139-18.715 0-25.854z" fill="#a6e7f0"/></g></g><g><g><path d="m124.923 85.44c-.125 4.836 1.641 9.713 5.332 13.404l51.685 51.685c7.139 7.139 18.715 7.139 25.854 0l51.685-51.685c3.691-3.691 5.457-8.567 5.332-13.404z" fill="#fead8a"/></g></g><g><g><path d="m124.923 85.44c-.125 4.836 1.641 9.713 5.332 13.404l51.685 51.685c7.139 7.139 18.715 7.139 25.854 0l51.685-51.685c3.691-3.691 5.457-8.567 5.332-13.404z" fill="#fead8a"/></g></g><g><g><path d="m234.81 85.44c.125 4.836-1.641 9.713-5.332 13.404l-49.612 49.612 2.073 2.073c7.139 7.139 18.715 7.139 25.854 0l51.685-51.685c3.691-3.691 5.457-8.567 5.332-13.404z" fill="#fd9468"/></g></g><g><g><path d="m289.068 230.119-29.551 29.551c-7.139 7.139-18.715 7.139-25.854 0l-29.551-29.551c-7.139-7.139-7.139-18.715 0-25.854l29.551-29.551c7.139-7.139 18.715-7.139 25.854 0l29.551 29.551c7.139 7.14 7.139 18.715 0 25.854z" fill="#fead8a"/></g></g><g><g><path d="m289.068 204.265-29.551-29.552c-7.139-7.139-18.715-7.139-25.854 0l-2.073 2.073 27.478 27.478c7.139 7.139 7.139 18.715 0 25.854l-27.478 27.479 2.073 2.073c7.139 7.139 18.715 7.139 25.854 0l29.551-29.551c7.139-7.139 7.139-18.714 0-25.854z" fill="#fd9468"/></g></g><g><g><path d="m243.536 361.015-16.999 16.999c-7.139 7.139-18.715 7.139-25.854 0l-16.999-16.999c-7.139-7.139-7.139-18.715 0-25.854l16.999-16.999c7.139-7.139 18.715-7.139 25.854 0l16.999 16.999c7.139 7.139 7.139 18.715 0 25.854z" fill="#fead8a"/></g></g><g><g><path d="m243.536 335.161-16.999-16.999c-7.139-7.139-18.715-7.139-25.854 0l-2.073 2.073 14.926 14.926c7.139 7.139 7.139 18.714 0 25.854l-14.926 14.926 2.073 2.073c7.139 7.139 18.715 7.139 25.854 0l16.999-16.999c7.139-7.139 7.139-18.715 0-25.854z" fill="#fd9468"/></g></g><g><g><path d="" style="fill:none;stroke:#000;stroke-width:15;stroke-linecap:round;stroke-linejoin:round;stroke-miterlimit:10"/></g></g><g><path d="m393.341 38.662c-2.589-3.235-7.309-3.759-10.542-1.171-3.234 2.587-3.759 7.307-1.171 10.542 28.692 35.865 24.689 87.552-7.99 118.667l-12.206-15.256c24.34-24.355 27.012-63.788 5.023-91.273-21.988-27.486-61.045-33.535-90.149-15.135l-12.208-15.26c29.533-19.76 67.976-19.947 97.887.151 3.438 2.311 8.098 1.396 10.408-2.042s1.396-8.098-2.043-10.408c-18.04-12.122-39.136-18.153-60.947-17.417-22.267.743-43.265 8.499-60.726 22.429-1.556 1.242-2.555 3.051-2.775 5.03-.222 1.979.353 3.964 1.597 5.518l21.499 26.874s0 .001.001.001c0 0 .001.001.001.001l14.803 18.504h-12.593c-1.188-3.929-3.328-7.63-6.428-10.73l-51.686-51.685c-4.869-4.87-11.344-7.551-18.23-7.551s-13.36 2.682-18.23 7.551l-51.685 51.685c-3.046 3.046-5.235 6.72-6.448 10.73h-9.147c-4.782 0-9.25 1.889-12.582 5.319-3.331 3.43-5.09 7.952-4.95 12.727l10.953 383.688c.451 15.434 12.898 27.523 28.338 27.523h25.76c4.143 0 7.5-3.358 7.5-7.5s-3.357-7.5-7.5-7.5h-25.76c-7.271 0-13.132-5.693-13.344-12.956l-1.35-47.279c6.683 5.062 15.029 8.054 24.121 8.054h31.899 82.339 31.898c9.092 0 17.438-2.992 24.121-8.053l-1.35 47.274c-.212 7.268-6.073 12.961-13.344 12.961h-109.231c-4.143 0-7.5 3.358-7.5 7.5s3.357 7.5 7.5 7.5h109.232c15.439 0 27.887-12.09 28.338-27.528l9.673-338.836 12.258 15.323 20.44 25.55c1.244 1.555 3.055 2.551 5.033 2.77.274.03.55.045.823.045 1.698 0 3.355-.577 4.693-1.65 44.242-35.492 51.409-100.398 15.977-144.687zm-213.475 54.755h74.42c-.039.04-.072.084-.112.124l-51.686 51.685c-2.036 2.036-4.743 3.158-7.623 3.158s-5.587-1.122-7.623-3.158l-51.685-51.686c-.04-.04-.073-.083-.112-.123zm-44.308-15.124 51.684-51.684c2.037-2.037 4.744-3.158 7.624-3.158s5.587 1.122 7.623 3.158l51.686 51.684c.04.04.073.084.113.125h-74.421-44.42c.038-.041.071-.085.111-.125zm175.943 323.09c-.394 13.519-11.297 24.109-24.822 24.109h-9.953c2.274-4.564 3.634-9.911 3.761-15.681l2.579-116.739c.092-4.141-3.191-7.572-7.332-7.664-.057-.001-.113-.002-.169-.002-4.065 0-7.405 3.25-7.495 7.334l-2.579 116.739c-.191 8.68-5.097 16.012-10.711 16.012h-82.339c-5.614 0-10.521-7.333-10.712-16.012l-2.597-117.56c-.09-4.085-3.43-7.334-7.495-7.334-.056 0-.112 0-.169.002-4.141.091-7.424 3.522-7.332 7.664l2.597 117.56c.127 5.77 1.487 11.117 3.761 15.681h-9.953c-13.524 0-24.428-10.59-24.821-24.109-.017-.563-.1-1.106-.233-1.63l-8.67-303.723c-.027-.934.438-1.556.717-1.843s.887-.77 1.821-.77h9.147c1.213 4.01 3.403 7.684 6.448 10.73l51.686 51.686c4.869 4.869 11.344 7.551 18.229 7.551 6.887 0 13.361-2.682 18.23-7.551l51.686-51.685c3.1-3.1 5.24-6.801 6.428-10.73h46.655c.935 0 1.542.482 1.821.77s.744.91.717 1.848l-8.67 303.715c-.132.524-.215 1.069-.231 1.632zm18.946-317.647c-3.332-3.43-7.8-5.319-12.582-5.319h-14.853l-17.259-21.573c22.572-13.293 52.171-8.326 68.99 12.697 16.819 21.024 15.166 50.993-2.756 70.095l-17.208-21.51.618-21.658c.14-4.78-1.619-9.301-4.95-12.732z"/><path d="m231.841 312.859c-4.869-4.87-11.344-7.551-18.23-7.551s-13.36 2.682-18.23 7.551l-16.999 16.999c-10.051 10.052-10.051 26.408.001 36.46l16.998 16.999c4.87 4.87 11.345 7.551 18.23 7.551 6.887 0 13.361-2.682 18.229-7.551l16.999-16.999h.001c4.869-4.87 7.551-11.344 7.551-18.23s-2.682-13.361-7.551-18.23zm6.391 42.853-16.999 16.999c-2.036 2.036-4.743 3.157-7.623 3.157s-5.587-1.121-7.623-3.158l-16.999-16.998c-4.203-4.204-4.204-11.044 0-15.248l16.998-16.999c2.037-2.037 4.744-3.158 7.624-3.158s5.587 1.122 7.623 3.158l17 17c2.036 2.036 3.157 4.743 3.157 7.623s-1.121 5.587-3.158 7.624z"/><path d="m264.82 169.411c-4.869-4.87-11.344-7.551-18.23-7.551s-13.36 2.682-18.23 7.551l-29.551 29.551c-4.869 4.87-7.551 11.344-7.551 18.23s2.682 13.361 7.551 18.23l29.551 29.551c4.87 4.87 11.345 7.551 18.23 7.551 6.887 0 13.361-2.682 18.23-7.551l29.551-29.551c4.87-4.87 7.552-11.344 7.552-18.23s-2.682-13.361-7.551-18.23zm18.945 55.405-29.553 29.552c-2.036 2.036-4.743 3.157-7.623 3.157s-5.587-1.121-7.623-3.158l-29.552-29.552c-2.036-2.036-3.157-4.743-3.157-7.623s1.121-5.587 3.158-7.624l29.55-29.551c2.037-2.037 4.744-3.158 7.624-3.158s5.587 1.122 7.623 3.158l29.552 29.551c2.037 2.037 3.158 4.744 3.158 7.624s-1.121 5.587-3.157 7.624z"/></g></g></svg>