<svg id="Capa_1" enable-background="new 0 0 508.208 508.208" height="512" viewBox="0 0 508.208 508.208" width="512" xmlns="http://www.w3.org/2000/svg"><g><g><g><path d="m326.183 498.003-45.617-33.21c-7.855-5.718-12.501-14.848-12.501-24.564v-272.034h-27.923v272.033c0 9.716-4.646 18.845-12.501 24.564l-45.617 33.21c-1.447 1.053-.277 2.706 1.916 2.706h140.327c2.193.001 3.363-1.652 1.916-2.705z" fill="#f7f9f5"/></g></g><g><g><path d="m326.183 498.003-45.617-33.21c-7.855-5.718-12.501-14.848-12.501-24.564v-272.034h-27.923v272.033c0 2.675-.364 5.301-1.038 7.828 1.775 6.652 5.77 12.592 11.462 16.736l45.617 33.21c1.447 1.053.277 2.706-1.916 2.706h30c2.194 0 3.363-1.652 1.916-2.705z" fill="#eceae6"/></g></g><g><g><path d="m171.693 7.5c-3.555 0-6.826 2.003-8.382 5.2-12.14 24.947-19.244 55.148-19.244 87.69 0 85.697 49.265 155.168 110.037 155.168s110.037-69.471 110.037-155.168c0-32.542-7.104-62.744-19.244-87.69-1.556-3.197-4.827-5.2-8.382-5.2h-164.822z" fill="#f7f9f5"/></g></g><g><g><path d="m344.897 12.7c-1.556-3.197-4.827-5.2-8.382-5.2h-30c3.555 0 6.826 2.003 8.382 5.2 12.14 24.947 19.244 55.148 19.244 87.69 0 78.521-41.362 143.409-95.037 153.727 4.905.943 9.911 1.441 15 1.441 60.772 0 110.037-69.471 110.037-155.168 0-32.542-7.104-62.744-19.244-87.69z" fill="#eceae6"/></g></g><g><g><path d="m144.264 91.522c-.117 2.938-.197 5.889-.197 8.868 0 85.697 49.265 155.168 110.037 155.168s110.037-69.471 110.037-155.168c0-2.979-.08-5.93-.197-8.868z" fill="#fe7d43"/></g></g><g><g><path d="m363.944 91.522h-30c.117 2.938.197 5.889.197 8.868 0 78.521-41.362 143.408-95.037 153.727 4.905.943 9.911 1.441 15 1.441 60.772 0 110.037-69.471 110.037-155.168 0-2.979-.079-5.93-.197-8.868z" fill="#fd6930"/></g></g><g><g><path d="m311.129 179.302-25.818 2.514c-5.058.492-9.557-3.209-10.05-8.267l-2.514-25.818c-.492-5.058 3.209-9.557 8.267-10.05l25.818-2.514c5.058-.492 9.557 3.209 10.05 8.267l2.514 25.818c.492 5.058-3.209 9.557-8.267 10.05z" fill="#fead8a"/></g></g><g><g><path d="m319.395 169.252-2.514-25.817c-.492-5.058-4.992-8.759-10.05-8.267l-23.051 2.244c1.7 1.489 2.864 3.596 3.1 6.022l2.514 25.817c.492 5.058-3.209 9.558-8.266 10.05l-2.767.269c1.844 1.615 4.318 2.5 6.949 2.244l25.818-2.514c5.059-.49 8.76-4.99 8.267-10.048z" fill="#fd9468"/></g></g><g><g><path d="m363.533 116.746c.399-5.375.608-10.831.608-16.356 0-2.979-.08-5.93-.197-8.868h-219.68c-.117 2.938-.197 5.889-.197 8.868 0 5.525.208 10.98.608 16.356z" fill="#fead8a"/></g></g><g><g><path d="m363.944 91.522h-30c.117 2.938.197 5.889.197 8.868 0 5.525-.208 10.98-.608 16.356h30c.399-5.375.608-10.831.608-16.356 0-2.979-.079-5.93-.197-8.868z" fill="#fd9468"/></g></g><g><g><path d="m267.687 205.858-34.278-7.247c-4.972-1.051-8.15-5.934-7.099-10.906l7.247-34.278c1.051-4.972 5.934-8.15 10.906-7.099l34.278 7.247c4.972 1.051 8.15 5.934 7.099 10.906l-7.247 34.278c-1.051 4.971-5.934 8.15-10.906 7.099z" fill="#fead8a"/></g></g><g><g><path d="m278.741 153.574-34.278-7.247c-3.944-.834-7.825 1-9.788 4.273 12.741 2.694 20.885 15.206 18.192 27.947l-4.273 20.212c-.217 1.028-.606 1.973-1.117 2.826l20.212 4.273c4.972 1.051 9.854-2.127 10.906-7.099l7.247-34.278c1.049-4.973-2.129-9.856-7.101-10.907z" fill="#fd9468"/></g></g><g><g><path d="m175.58 91.786c-1.351 7.846-1.341 16.063.277 24.342 7.096 36.308 42.113 60.051 78.406 53.324l-15.178-77.666z" fill="#fe7d43"/></g></g><g><g><path d="m228.419 37.209c-36.156 7.432-59.658 42.611-52.562 78.919s42.113 60.051 78.406 53.324z" fill="#fd6930"/></g></g><g><g><path d="m233.962 65.569c-20.493 4.369-33.779 24.372-29.745 45.016 4.035 20.645 23.874 34.174 44.504 30.506z" fill="#fe7d43"/></g></g><g><g><path d="m205.231 91.786c-1.837 5.894-2.281 12.314-1.014 18.8 4.035 20.645 23.874 34.174 44.504 30.506l-9.636-49.306z" fill="#fead8a"/></g></g><g><g><circle cx="185.369" cy="170.591" fill="#fd6930" r="8.756"/></g></g><g><g><circle cx="253.806" cy="225.59" fill="#fd6930" r="8.756"/></g></g><g><g><circle cx="215.938" cy="212.456" fill="#fd6930" r="4.378"/></g></g><g><g><circle cx="266.94" cy="124.703" fill="#fd6930" r="4.378"/></g></g><path d="m338.03 214.449c21.675-30.564 33.611-71.071 33.611-114.059 0-32.628-6.916-64.086-20-90.972-2.784-5.721-8.721-9.418-15.126-9.418h-164.822c-6.405 0-12.342 3.697-15.125 9.418-13.085 26.886-20.001 58.344-20.001 90.972 0 42.988 11.937 83.495 33.611 114.059 17.151 24.185 38.815 39.977 62.464 45.934v126.531c0 4.142 3.358 7.5 7.5 7.5s7.5-3.358 7.5-7.5v-124.101c2.143.158 4.297.245 6.461.245s4.318-.087 6.461-.245v177.415c0 12.072 5.827 23.522 15.587 30.627l30.703 22.353h-105.501l30.703-22.353c9.76-7.105 15.587-18.555 15.587-30.627v-23.314c0-4.142-3.358-7.5-7.5-7.5s-7.5 3.358-7.5 7.5v23.314c0 7.292-3.52 14.208-9.415 18.5l-45.617 33.21c-3.186 2.319-4.482 6.159-3.303 9.784 1.262 3.879 5.133 6.485 9.632 6.485h140.327c4.499 0 8.37-2.606 9.632-6.485 1.18-3.625-.117-7.464-3.303-9.784l-45.617-33.21c-5.896-4.292-9.415-11.208-9.415-18.5v-179.845c23.652-5.957 45.315-21.749 62.466-45.934zm-186.463-114.059c0-.457.015-.911.018-1.368h15.649c-.351 6.086.043 12.306 1.263 18.544 5.542 28.36 26.694 49.937 52.812 57.534l-2.337 11.053c-1.904 9.01 3.876 17.89 12.886 19.795l34.278 7.247c1.16.245 2.317.363 3.459.363 7.722 0 14.677-5.398 16.336-13.249l2.379-11.25 23.546-2.292c4.44-.432 8.446-2.567 11.28-6.013 2.834-3.445 4.157-7.788 3.725-12.228l-2.514-25.817c-.432-4.44-2.568-8.446-6.013-11.28s-7.786-4.159-12.228-3.725l-25.817 2.514c-4.44.432-8.446 2.567-11.28 6.013-1.679 2.041-2.813 4.401-3.38 6.906l-9.247-1.955-8.239-42.158h4.822c4.142 0 7.5-3.358 7.5-7.5s-3.358-7.5-7.5-7.5h-7.753l-9.43-48.251c-.384-1.965-1.538-3.694-3.204-4.804s-3.705-1.508-5.667-1.104c-28.589 5.876-50.112 27.609-57.243 54.159h-17.467c1.878-24.431 7.952-47.69 17.857-68.042.29-.596.933-.981 1.637-.981h164.822c.705 0 1.347.385 1.638.981 9.904 20.351 15.978 43.61 17.856 68.041h-73.046c-4.142 0-7.5 3.358-7.5 7.5s3.358 7.5 7.5 7.5h73.66c.003.457.018.911.018 1.368 0 81.424-45.998 147.668-102.537 147.668s-102.539-66.245-102.539-147.669zm139.268 53.075c-2.43-3.733-6.167-6.297-10.523-7.224.076-.2.181-.362.28-.483.205-.248.569-.556 1.149-.612l25.818-2.514c.581-.057.998.176 1.246.379.248.205.556.569.612 1.149l2.514 25.818c.057.58-.175.998-.379 1.246-.205.248-.569.556-1.149.612l-18.839 1.834 1.615-7.639c.922-4.364.09-8.827-2.344-12.566zm-13.645 7.447c.57.121.898.467 1.074.736.175.27.359.71.238 1.28l-7.247 34.278c-.121.57-.467.898-.736 1.074s-.709.359-1.281.239l-34.278-7.247c-.918-.194-1.507-1.099-1.313-2.017l2.417-11.43c1.981.161 3.976.252 5.984.252 4.482 0 9.028-.408 13.582-1.251 1.968-.365 3.709-1.501 4.835-3.157 1.125-1.655 1.543-3.691 1.159-5.656l-2.119-10.841zm-37.479-26.819c-13.563-1.036-25.418-11.048-28.133-24.946-.669-3.423-.727-6.833-.266-10.125h21.546zm-21.977-50.071c2.8-3.551 6.367-6.511 10.516-8.578l1.676 8.578zm-17.446 0h-14.958c5.875-17.184 19.406-31.353 37.273-37.469l2.7 13.818c-11.259 4.405-20.106 13.057-25.015 23.651zm-4.066 15c-.403 4.253-.222 8.621.634 13.001 4.26 21.799 23.665 37.158 45.206 37.157.198 0 .397-.01.595-.013l2.7 13.818c-29.353 1.656-56.361-18.726-62.14-48.296-1.031-5.276-1.314-10.533-.945-15.667z"/></g></svg>