<svg id="Capa_1" enable-background="new 0 0 511.268 511.268" height="512" viewBox="0 0 511.268 511.268" width="512" xmlns="http://www.w3.org/2000/svg"><g><g><g><path d="m213.164 121.832c9.246 11.291 18.432 22.632 27.494 34.071l2.56-.484c4.259-13.958 8.671-27.869 13.157-41.757 8.798-27.238 17.126-54.516 24.876-82.015-30.189-20.588-98.246-10.728-121.189 22.913 17.255 22.771 34.968 45.125 53.102 67.272z" fill="#fef056"/></g></g><g><g><path d="m223.598 21.924c10.667 1.495 20.288 4.701 27.653 9.723-7.75 27.499-16.079 54.777-24.876 82.015-1.884 5.834-3.751 11.674-5.604 17.518 6.673 8.205 13.32 16.432 19.887 24.723l2.56-.484c4.259-13.958 8.671-27.869 13.157-41.757 8.798-27.238 17.126-54.516 24.876-82.015-13.893-9.475-35.807-12.496-57.653-9.723z" fill="#f4d902"/></g></g><g><g><circle cx="282.901" cy="93.787" fill="#ef4424" r="35.365"/></g></g><g><g><path d="m295.767 60.846c-9.393-3.669-19.399-3.038-27.864.925 16.745 7.828 24.76 27.418 17.939 44.882-3.437 8.8-10.014 15.437-17.944 19.15.699.327 1.408.64 2.136.925 18.193 7.106 38.702-1.882 45.808-20.075s-1.882-38.702-20.075-45.807z" fill="#d73d24"/></g></g><g><g><path d="m326.095 503.768h-132.664c-14.563 0-25.94-12.578-24.484-27.068l13.889-128.193c2.256-22.445 2.466-45.048.629-67.531l-15.064-154.369c-1.171-14.333 10.145-26.611 24.525-26.611h133.674c14.38 0 25.696 12.278 24.525 26.611l-15.064 154.369c-1.837 22.483-1.626 45.086.629 67.531l13.889 128.193c1.456 14.491-9.921 27.068-24.484 27.068z" fill="#f7f9f5"/></g></g><g><g><path d="m351.125 126.608c1.171-14.333-10.145-26.611-24.525-26.611h-30c14.38 0 25.696 12.279 24.525 26.611l-15.064 154.369c-1.837 22.483-1.626 45.086.629 67.531l13.889 128.192c1.456 14.49-9.921 27.068-24.484 27.068h30c14.563 0 25.94-12.578 24.484-27.068l-13.889-128.193c-2.256-22.445-2.466-45.048-.629-67.531z" fill="#eceae6"/></g></g><g><g><path d="m183.466 280.977c1.837 22.483 1.626 45.086-.629 67.531l-1.97 18.179c-3.24 29.906 20.188 56.009 50.269 56.009h57.256c30.081 0 53.509-26.103 50.269-56.009l-1.97-18.179c-2.256-22.445-2.466-45.048-.629-67.531l15.064-154.369c1.171-14.333-10.145-26.611-24.525-26.611h-133.675c-14.38 0-25.696 12.279-24.525 26.611z" fill="#fea613"/></g></g><g><g><path d="m351.125 126.608c1.171-14.333-10.145-26.611-24.525-26.611h-30c14.38 0 25.696 12.279 24.525 26.611l-15.064 154.369c-1.837 22.483-1.626 45.086.629 67.531l1.97 18.178c3.24 29.906-20.188 56.009-50.269 56.009h30c30.081 0 53.509-26.104 50.269-56.009l-1.97-18.178c-2.256-22.445-2.466-45.048-.629-67.531z" fill="#fe9901"/></g></g><g><g><path d="m336.69 348.507c-2.256-22.445-2.466-45.048-.629-67.531l5.158-52.857h-162.911l5.158 52.857c1.837 22.483 1.626 45.086-.629 67.531l-1.97 18.179c-3.24 29.906 20.188 56.009 50.269 56.009h57.256c30.081 0 53.509-26.104 50.269-56.009z" fill="#fd6930"/></g></g><g><g><path d="m336.69 348.507c-2.256-22.445-2.466-45.048-.629-67.531l5.158-52.857h-30l-5.158 52.857c-1.837 22.483-1.626 45.086.629 67.531l1.97 18.179c3.24 29.905-20.188 56.009-50.269 56.009h30c30.081 0 53.509-26.104 50.269-56.009z" fill="#fd5426"/></g></g><path d="m350.209 102.845c-6.061-6.576-14.666-10.348-23.609-10.348h-.847c-.409-14.652-8.206-27.898-20.645-35.382 10.817-31.931 4.86-51.053 4.584-51.902-1.281-3.939-5.524-6.128-9.463-4.848-3.939 1.281-6.105 5.479-4.824 9.417.05.164 4.489 15.513-4.312 41.93-2.505-.493-5.033-.76-7.564-.798 1.691-5.805 3.347-11.578 4.941-17.234.874-3.102-.331-6.415-2.993-8.23-16.102-10.981-41.829-14.745-68.817-10.073-28.071 4.861-50.958 17.603-62.793 34.957-1.815 2.662-1.728 6.187.219 8.755 8.772 11.576 18.002 23.485 27.499 35.486-4.633 1.752-8.854 4.565-12.267 8.269-6.061 6.577-9.119 15.46-8.391 24.374.003.039.007.079.011.118l4.38 44.88c.402 4.122 4.065 7.144 8.193 6.736 4.123-.402 7.138-4.07 6.736-8.193l-4.374-44.815c-.377-4.8 1.21-9.392 4.475-12.934 3.277-3.556 7.745-5.514 12.58-5.514h133.672c4.835 0 9.303 1.958 12.58 5.514 3.265 3.542 4.853 8.134 4.474 12.935l-15.057 154.303c-.004.039-.007.079-.011.118-1.87 22.874-1.653 46.053.648 68.949l1.969 18.172v.007c1.315 12.14-2.608 24.314-10.764 33.401-8.156 9.088-19.837 14.3-32.048 14.3h-57.256c-12.211 0-23.892-5.212-32.048-14.3-8.156-9.087-12.08-21.262-10.764-33.401 0-.001 0-.002 0-.004l1.975-18.232c2.295-22.836 2.511-46.015.642-68.892-.003-.039-.007-.079-.011-.118l-7.912-81.071c-.402-4.123-4.073-7.146-8.193-6.736-4.123.402-7.138 4.07-6.736 8.193l7.906 81.012c1.79 21.955 1.581 44.196-.616 66.054l-1.969 18.172c0 .002-.001.004-.001.006 0 .004 0 .007-.001.011l-11.922 110.061c-.906 9.012 2.06 18.032 8.135 24.749 4.918 5.437 11.542 8.997 18.691 10.156.771.268 1.598.413 2.459.413h2.66c4.142 0 7.5-3.358 7.5-7.5s-3.358-7.5-7.5-7.5c-4.896 0-9.402-2-12.687-5.631s-4.824-8.314-4.34-13.129l7.725-71.298c1.178 1.625 2.442 3.197 3.795 4.705 10.998 12.253 26.747 19.28 43.211 19.28h57.256c16.464 0 32.214-7.027 43.211-19.28 1.353-1.508 2.618-3.08 3.796-4.706l7.719 71.241c.49 4.872-1.049 9.555-4.334 13.187-3.285 3.631-7.791 5.631-12.687 5.631h-105.324c-4.142 0-7.5 3.358-7.5 7.5s3.358 7.5 7.5 7.5h105.325c9.057 0 17.736-3.853 23.811-10.569 6.076-6.717 9.041-15.737 8.129-24.807l-11.919-110.009c0-.001 0-.003 0-.005 0-.001 0-.002 0-.003l-1.963-18.117c-2.203-21.917-2.412-44.159-.622-66.109l15.058-154.312c.004-.039.007-.079.011-.118.728-8.914-2.331-17.798-8.392-24.374zm-95.149-10.348c.138-3.012.764-5.977 1.886-8.847 2.708-6.933 7.953-12.396 14.77-15.384 6.818-2.989 14.39-3.141 21.323-.434 10.415 4.068 17.208 13.735 17.69 24.665zm-73.689-48.072 6.881 11.201c1.416 2.305 3.877 3.575 6.398 3.575 1.338 0 2.694-.358 3.918-1.11 3.529-2.168 4.633-6.787 2.465-10.316l-6.405-10.427c4.661-2.002 9.668-3.711 14.943-5.087l2.751 11.303c.834 3.429 3.902 5.729 7.281 5.729.587 0 1.184-.07 1.779-.215 4.025-.979 6.493-5.036 5.514-9.061l-2.584-10.616c5.601-.725 11.115-1.039 16.419-.952l-.883 11.687c-.313 4.13 2.783 7.732 6.913 8.044.192.015.384.022.573.022 3.886 0 7.173-2.997 7.471-6.935l.864-11.426c6.289 1.127 11.99 2.911 16.789 5.327-1.769 6.205-3.599 12.515-5.463 18.827-.434.174-.87.344-1.301.533-10.487 4.596-18.556 13-22.721 23.666-1.809 4.63-2.783 9.425-2.924 14.304h-41.03c-.153-.245-.317-.485-.501-.716-10-12.543-19.74-25.029-29.006-37.183 3.233-3.692 7.235-7.108 11.859-10.174z"/></g></svg>