<svg id="Capa_1" enable-background="new 0 0 510.422 510.422" height="512" viewBox="0 0 510.422 510.422" width="512" xmlns="http://www.w3.org/2000/svg"><g><g><g><path d="m358.068 82.4c15.28-15.28 35.09-23.264 55.106-23.957 13.335-.462 20.181-16.354 10.916-25.956-1.28-1.326-2.613-2.62-4-3.878-31.116-28.229-79.28-28.134-110.282.219-34.711 31.745-35.616 85.65-2.715 118.551.295.295.592.587.89.877 9.654 9.369 25.661 2.681 26.129-10.764.696-20.012 8.679-39.815 23.956-55.092z" fill="#fe9901"/></g></g><g><g><path d="m423.998 32.391c-1.251-1.293-2.554-2.554-3.907-3.782-19.466-17.659-45.602-24.233-70.036-19.74 14.53 2.667 28.462 9.24 40.036 19.74.108.098.215.195.322.293 11.006 10.089 4.555 28.629-10.337 29.706-18.952 1.371-37.516 9.3-52.008 23.791-15.277 15.277-23.26 35.08-23.956 55.092-.068 1.961-.475 3.773-1.137 5.418 1.315 1.523 2.672 3.023 4.118 4.469.295.295.592.587.89.876 9.654 9.369 25.661 2.681 26.129-10.764.696-20.012 8.679-39.815 23.956-55.092 15.28-15.28 35.09-23.264 55.106-23.957 13.395-.462 20.146-16.419 10.824-26.05z" fill="#fb8801"/></g></g><g><g><path d="m121.264 76.004c-16.471 0-30.993 11.033-35.16 26.968-2.636 10.08-4.04 20.658-4.04 31.564v243.879c0 68.763 55.743 124.506 124.506 124.506h76.762c68.763 0 124.506-55.743 124.506-124.506v-243.879c0-10.906-1.404-21.484-4.04-31.564-4.167-15.935-18.689-26.968-35.16-26.968z" fill="#f7f9f5"/></g></g><g><g><path d="m403.799 102.973c-4.167-15.935-18.689-26.968-35.16-26.968h-30c16.471 0 30.993 11.033 35.16 26.968 2.636 10.08 4.04 20.657 4.04 31.564v243.88c0 68.763-55.743 124.506-124.506 124.506h30c68.763 0 124.506-55.743 124.506-124.506v-243.88c0-10.907-1.404-21.485-4.04-31.564z" fill="#eceae6"/></g></g><g><g><path d="m308.789 377.813c54.703 0 99.049-44.346 99.049-99.049v-144.228c0-10.907-1.404-21.485-4.04-31.564-4.167-15.934-18.689-26.968-35.159-26.968h-149.241l-18.367 20-13.984-20h-65.784c-16.47 0-30.992 11.033-35.159 26.967-2.636 10.08-4.04 20.658-4.04 31.565v144.228c0 54.703 44.346 99.049 99.049 99.049z" fill="#fe9901"/></g></g><g><g><path d="m403.798 102.972c-4.167-15.934-18.689-26.968-35.159-26.968h-30c16.47 0 30.992 11.033 35.159 26.968 2.636 10.08 4.04 20.658 4.04 31.564v144.228c0 54.703-44.346 99.049-99.049 99.049h30c54.703 0 99.049-44.346 99.049-99.049v-144.228c.001-10.906-1.404-21.484-4.04-31.564z" fill="#fb8801"/></g></g><g><g><path d="m407.839 159.445v-24.908c0-10.906-1.404-21.485-4.04-31.564-4.167-15.934-18.689-26.968-35.159-26.968h-247.376c-16.47 0-30.992 11.033-35.159 26.967-2.636 10.08-4.041 20.658-4.041 31.565v24.908z" fill="#fee8c7"/></g></g><g><g><path d="m403.799 102.972c-4.167-15.934-18.689-26.968-35.159-26.968h-30c16.47 0 30.992 11.033 35.159 26.968 2.636 10.08 4.04 20.658 4.04 31.564v24.908h30v-24.908c0-10.906-1.405-21.484-4.04-31.564z" fill="#fedba6"/></g></g><g><g><circle cx="123.584" cy="219.045" fill="#fdb441" r="10.086"/></g></g><g><g><circle cx="343.617" cy="329.063" fill="#fdb441" r="10.086"/></g></g><g><g><circle cx="360.109" cy="208.959" fill="#fdb441" r="10.086"/></g></g><g><g><circle cx="158.397" cy="329.063" fill="#fdb441" r="10.086"/></g></g><g><g><circle cx="252.871" cy="188.786" fill="#fdb441" r="10.086"/></g></g><g><g><path d="m268.749 279.179-45.755 45.755c-5.53 5.53-14.496 5.53-20.026 0l-45.755-45.755c-5.53-5.53-5.53-14.496 0-20.026l45.755-45.755c5.53-5.53 14.496-5.53 20.026 0l45.755 45.755c5.53 5.531 5.53 14.496 0 20.026z" fill="#fea613"/></g></g><g><g><path d="m339.489 279.179-45.755 45.755c-5.53 5.53-14.496 5.53-20.026 0l-45.755-45.755c-5.53-5.53-5.53-14.496 0-20.026l45.755-45.755c5.53-5.53 14.496-5.53 20.026 0l45.755 45.755c5.53 5.531 5.53 14.496 0 20.026z" fill="#fea613"/></g></g><g><g><path d="m268.749 259.154-45.755-45.755c-5.53-5.53-14.496-5.53-20.026 0l-4.987 4.987 40.768 40.768c5.53 5.53 5.53 14.496 0 20.026l-40.768 40.768 4.987 4.987c5.53 5.53 14.496 5.53 20.026 0l45.755-45.755c5.53-5.531 5.53-14.496 0-20.026z" fill="#fb8801"/></g></g><g><g><path d="m339.489 259.154-45.755-45.755c-5.53-5.53-14.496-5.53-20.026 0l-4.987 4.987 40.768 40.768c5.53 5.53 5.53 14.496 0 20.026l-40.768 40.768 4.987 4.987c5.53 5.53 14.496 5.53 20.026 0l45.755-45.755c5.53-5.531 5.53-14.496 0-20.026z" fill="#fb8801"/></g></g><path d="m429.486 27.278c-1.396-1.447-2.862-2.868-4.356-4.224-16.392-14.871-37.713-23.054-60.057-23.054-.06 0-.121 0-.181 0-22.409.044-43.77 8.317-60.146 23.293-13.331 12.192-22.527 27.801-26.69 45.211h-61.992c-4.142 0-7.5 3.358-7.5 7.5s3.358 7.5 7.5 7.5h152.575c13.14 0 24.613 8.786 27.903 21.366 2.519 9.633 3.796 19.614 3.796 29.667v144.228c0 50.48-41.068 91.549-91.549 91.549h-36.005c-4.143 0-7.5 3.358-7.5 7.5s3.357 7.5 7.5 7.5h36.005c38.869 0 72.938-20.924 91.549-52.097v45.2c0 51.988-34.085 96.158-81.079 111.355v-57.963c0-4.142-3.357-7.5-7.5-7.5s-7.5 3.358-7.5 7.5v60.654c0 .363.035.717.084 1.065-6.818 1.242-13.84 1.894-21.011 1.894h-9.999c.39-.908.608-1.908.608-2.959v-46.785c0-4.142-3.357-7.5-7.5-7.5s-7.5 3.358-7.5 7.5v46.785c0 1.051.218 2.051.608 2.959h-31.526c.391-.908.609-1.908.609-2.959v-46.785c0-4.142-3.358-7.5-7.5-7.5s-7.5 3.358-7.5 7.5v46.785c0 1.051.218 2.051.609 2.959h-7.671c-7.171 0-14.193-.652-21.011-1.894.05-.349.084-.703.084-1.065v-60.654c0-4.142-3.358-7.5-7.5-7.5s-7.5 3.358-7.5 7.5v57.963c-46.994-15.198-81.079-59.368-81.079-111.355v-45.2c18.611 31.172 52.68 52.097 91.549 52.097h61.671c4.143 0 7.5-3.358 7.5-7.5s-3.357-7.5-7.5-7.5h-61.671c-50.48 0-91.549-41.069-91.549-91.549v-144.228c0-10.054 1.277-20.036 3.796-29.667 3.29-12.58 14.764-21.366 27.903-21.366h31.026l33.086 136.881-33.466 33.466c-8.445 8.445-8.445 22.187 0 30.632l45.755 45.754c4.091 4.091 9.531 6.344 15.316 6.344s11.225-2.253 15.316-6.344l20.054-20.053 20.053 20.053c4.224 4.223 9.77 6.335 15.317 6.334 5.546-.001 11.094-2.112 15.316-6.334l45.755-45.755c8.444-8.445 8.444-22.187 0-30.632l-45.755-45.755c-8.447-8.445-22.187-8.445-30.634 0l-20.053 20.053-20.053-20.053c-4.091-4.091-9.531-6.344-15.316-6.344-5.722 0-11.1 2.21-15.175 6.216l-30.084-124.463h18.343c4.142 0 7.5-3.358 7.5-7.5s-3.358-7.5-7.5-7.5h-21.969l-13.901-57.511c-.973-4.026-5.023-6.5-9.052-5.528-4.026.973-6.501 5.026-5.528 9.052l13.049 53.986h-27.4c-19.958 0-37.4 13.394-42.415 32.571-2.843 10.869-4.284 22.127-4.284 33.461v243.879c0 72.788 59.218 132.006 132.006 132.006h76.762c72.788 0 132.006-59.218 132.006-132.006v-243.877c0-11.333-1.441-22.59-4.284-33.461-3.464-13.247-12.858-23.731-24.915-28.95 8.55-3.747 17.776-5.857 27.294-6.187 9.304-.322 17.247-5.872 20.73-14.484 3.398-8.402 1.607-17.665-4.677-24.177zm-150.475 191.424c2.595-2.596 6.822-2.598 9.419 0l45.755 45.755c2.597 2.597 2.597 6.823 0 9.419l-45.755 45.754c-2.597 2.597-6.824 2.596-9.419 0l-20.054-20.054 15.095-15.094c4.091-4.091 6.344-9.531 6.344-15.316s-2.253-11.225-6.344-15.316l-15.094-15.094zm-66.03-1.951c1.779 0 3.451.692 4.709 1.951l45.755 45.755c1.258 1.258 1.95 2.93 1.95 4.709s-.692 3.452-1.951 4.71l-45.755 45.754c-1.258 1.258-2.93 1.951-4.709 1.951s-3.452-.693-4.71-1.951l-45.754-45.754c-2.597-2.597-2.597-6.823 0-9.419l45.755-45.755c1.258-1.258 2.931-1.951 4.71-1.951zm207.277-170.921c-.469 1.157-2.381 4.946-7.345 5.117-18.141.628-35.413 6.634-49.952 17.367-.081.06-.154.127-.232.19h-69.165c3.805-13.079 11.1-24.808 21.305-34.142 28.037-25.641 72.042-25.728 100.181-.2 1.25 1.134 2.476 2.322 3.643 3.531 3.088 3.202 2.123 6.757 1.565 8.137z"/></g></svg>