<svg id="Capa_1" enable-background="new 0 0 506.919 506.919" height="512" viewBox="0 0 506.919 506.919" width="512" xmlns="http://www.w3.org/2000/svg"><g><g><g><path d="m75.296 180.98c6.799 15.689 2.409 32.697-9.804 37.99s-27.625-3.135-34.424-18.824 5.032-49 5.032-49 32.397 14.145 39.196 29.834z" fill="#05e39c"/></g></g><g><g><path d="m75.296 180.98c-6.799-15.689-39.195-29.834-39.195-29.834s-2.276 6.409-4.257 14.927c5.916 4.468 11.151 9.598 13.452 14.907 5.439 12.55 3.712 25.939-3.447 33.505 7.226 5.76 16.052 7.774 23.643 4.484 12.213-5.292 16.603-22.301 9.804-37.989z" fill="#0ed290"/></g></g><g><g><path d="m59.358 246.463c30.681 7.589 61.801-10.959 69.663-41.634 7.862-30.676-10.501-61.905-41.05-70.009z" fill="#fee903"/></g></g><g><g><path d="m66.44 218.832c15.42 3.68 30.999-5.669 34.95-21.085s-5.211-31.105-20.5-35.297z" fill="#fee903"/></g></g><g><path d="m101.97 194.908c2.222-14.46-6.729-28.523-21.08-32.458l-8.318 32.458z" fill="#fef6ad"/></g><g><g><path d="m405.178 484.96h-210.877v-5.755c0-21.898 17.752-39.651 39.651-39.651h131.576c21.898 0 39.651 17.752 39.651 39.651v5.755z" fill="#f7f9f5"/></g></g><g><g><path d="m365.527 439.554h-30c21.898 0 39.651 17.752 39.651 39.65v5.755h30v-5.755c0-21.898-17.752-39.65-39.651-39.65z" fill="#eceae6"/></g></g><g><g><path d="m443.048 154.284h-110.111v195.741h110.111c31.133 0 56.371-25.238 56.371-56.371v-83c0-31.132-25.238-56.37-56.371-56.37zm31.37 139.37c0 17.298-14.072 31.371-31.37 31.371h-85.111v-145.741h85.111c17.298 0 31.37 14.073 31.37 31.371z" fill="#f7f9f5"/></g></g><g><g><path d="m392.852 76.614c0-1.67-1.312-3.044-2.98-3.122l-205.505-9.551c-3.458-.161-6.196 2.885-5.67 6.306 9.644 62.741 6.129 164.743-8.271 226.567-2.193 9.417-3.376 19.221-3.428 29.294-.374 72.363 58.446 131.934 130.807 132.436 73.189.508 132.679-58.669 132.679-131.741 0-13.792-2.12-27.089-6.053-39.582-17.779-56.487-31.579-151.388-31.579-210.607z" fill="#f7f9f5"/></g></g><g><g><path d="m424.431 287.221c-17.779-56.488-31.579-151.388-31.579-210.608 0-1.669-1.312-3.044-2.98-3.122l-29.894-1.389v1.405c1.616.131 2.874 1.473 2.874 3.106 0 59.219 13.8 154.12 31.579 210.608 3.932 12.493 6.053 25.789 6.053 39.582 0 67.678-51.034 123.428-116.716 130.888 4.613.527 9.295.82 14.037.853 73.189.508 132.679-58.669 132.679-131.741 0-13.792-2.121-27.088-6.053-39.582z" fill="#eceae6"/></g></g><g><g><path d="m394.246 121.986h-210.429c2.879 58.07-1.907 125.821-13.351 174.658-2.21 9.432-3.407 19.254-3.468 29.346-.438 72.408 58.399 132.052 130.807 132.554 73.189.508 132.679-58.669 132.679-131.74 0-15.95-2.836-31.238-8.03-45.386-15.729-42.844-24.917-105.944-28.208-159.432z" fill="#fd5426"/></g></g><g><g><path d="m422.454 281.417c-15.729-42.842-24.916-105.942-28.208-159.431h-30c3.292 53.489 12.479 116.589 28.208 159.431 5.194 14.149 8.03 29.436 8.03 45.386 0 67.678-51.034 123.428-116.716 130.888 4.613.527 9.295.82 14.037.853 73.189.508 132.679-58.669 132.679-131.741 0-15.95-2.836-31.237-8.03-45.386z" fill="#ef4424"/></g></g><g><g><path d="m127.871 481.873-34.631-25.212c-5.963-4.341-9.49-11.272-9.49-18.648v-204.241h-21.198v204.241c0 7.376-3.527 14.307-9.49 18.648l-34.631 25.212c-1.098.8-.21 2.054 1.454 2.054h106.532c1.664 0 2.552-1.254 1.454-2.054z" fill="#f7f9f5"/></g></g><g><g><path d="m127.871 481.873-34.631-25.213c-5.963-4.341-9.49-11.272-9.49-18.648v-204.24h-21.198v204.241c0 4.926-1.58 9.648-4.401 13.538 1.403 1.935 3.108 3.668 5.089 5.11l34.631 25.212c1.099.8.21 2.054-1.454 2.054h30c1.664 0 2.552-1.254 1.454-2.054z" fill="#eceae6"/></g></g><g><g><path d="m73.574 352.322c-36.492 0-66.074-29.582-66.074-66.074v-66.126c0-13.228 10.723-23.951 23.951-23.951h84.247c13.228 0 23.951 10.723 23.951 23.951v66.126c-.001 36.491-29.583 66.074-66.075 66.074z" fill="#fd5426"/></g></g><g><g><path d="m115.698 196.171h-30c13.228 0 23.951 10.723 23.951 23.951v66.126c0 31.33-21.812 57.547-51.074 64.343 4.821 1.12 9.838 1.731 15 1.731 36.492 0 66.074-29.583 66.074-66.074v-66.126c-.001-13.228-10.724-23.951-23.951-23.951z" fill="#ef4424"/></g></g><g><g><path d="m372.026 372.335-14.283 14.283c-5.53 5.53-14.496 5.53-20.026 0l-14.283-14.283c-5.53-5.53-5.53-14.496 0-20.026l14.283-14.283c5.53-5.53 14.496-5.53 20.026 0l14.283 14.283c5.53 5.53 5.53 14.496 0 20.026z" fill="#fe7d43"/></g></g><g><g><path d="m372.026 352.309-14.283-14.283c-5.53-5.53-14.496-5.53-20.026 0l-4.987 4.987 9.296 9.296c5.53 5.53 5.53 14.496 0 20.026l-9.296 9.296 4.987 4.987c5.53 5.53 14.496 5.53 20.026 0l14.283-14.283c5.53-5.53 5.53-14.496 0-20.026z" fill="#fd6930"/></g></g><g><g><path d="m382.974 235.79-1.733 20.125c-.671 7.792-7.531 13.564-15.323 12.894l-20.125-1.733c-7.792-.671-13.564-7.531-12.893-15.323l1.733-20.125c.671-7.792 7.531-13.564 15.323-12.894l20.125 1.733c7.791.671 13.564 7.531 12.893 15.323z" fill="#fe7d43"/></g></g><g><g><path d="m370.081 220.467-20.125-1.733c-3.06-.263-5.969.478-8.423 1.934 7.043 1.342 12.07 7.823 11.441 15.122l-1.733 20.125c-.407 4.732-3.105 8.708-6.9 10.96.475.091.959.159 1.452.201l20.125 1.733c7.792.671 14.652-5.102 15.323-12.893l1.733-20.125c.671-7.793-5.102-14.653-12.893-15.324z" fill="#fd6930"/></g></g><g><g><path d="m261.976 171.929c-28.391 13.887-40.334 48.09-26.659 76.653s47.806 40.707 76.427 27.3z" fill="#fee903"/></g></g><g><g><path d="m274.293 197.656c-14.183 7.083-20.121 24.254-13.249 38.608s23.971 20.496 38.382 13.89z" fill="#fee903"/></g></g><g><path d="m274.293 197.656c-14.183 7.083-20.121 24.254-13.249 38.608s23.971 20.496 38.382 13.89z" fill="#fef6ad"/></g><g><g><path d="m278.682 342.044-1.733 20.125c-.671 7.792-7.531 13.564-15.323 12.894l-20.125-1.733c-7.792-.671-13.564-7.531-12.894-15.323l1.733-20.125c.671-7.792 7.531-13.564 15.323-12.894l20.125 1.733c7.792.671 13.565 7.531 12.894 15.323z" fill="#fe7d43"/></g></g><g><g><path d="m265.788 326.721-20.125-1.733c-3.06-.263-5.969.478-8.423 1.934 7.043 1.342 12.07 7.823 11.441 15.122l-1.733 20.125c-.407 4.732-3.105 8.708-6.9 10.959.475.091.96.159 1.452.201l20.125 1.733c7.792.67 14.652-5.102 15.323-12.894l1.733-20.125c.672-7.791-5.101-14.651-12.893-15.322z" fill="#fd6930"/></g></g><g><g><circle cx="49.715" cy="257.952" fill="#ef4424" r="6.711"/></g></g><g><g><circle cx="88.887" cy="290.957" fill="#ef4424" r="6.711"/></g></g><g><g><circle cx="82.176" cy="237.529" fill="#ef4424" r="6.711"/></g></g><g><g><circle cx="208.308" cy="284.246" fill="#ef4424" r="6.711"/></g></g><g><g><circle cx="357.937" cy="174.607" fill="#ef4424" r="6.711"/></g></g><g><g><circle cx="293.029" cy="404.132" fill="#ef4424" r="6.711"/></g></g><g><g><circle cx="387.993" cy="311.508" fill="#ef4424" r="6.711"/></g></g><g><g><circle cx="52.129" cy="301.422" fill="#ef4424" r="6.711"/></g></g><g><path d="m363.046 332.722c-8.445-8.444-22.186-8.445-30.633 0l-14.283 14.283c-4.091 4.091-6.344 9.531-6.344 15.316s2.253 11.225 6.344 15.316l14.283 14.283c4.092 4.091 9.531 6.345 15.317 6.345 5.785 0 11.225-2.253 15.316-6.345l14.283-14.283c8.444-8.445 8.444-22.187 0-30.632zm3.677 34.309-14.283 14.283c-1.258 1.258-2.931 1.951-4.709 1.951-1.779 0-3.452-.693-4.71-1.951l-14.284-14.284c-1.258-1.258-1.95-2.93-1.95-4.709s.692-3.452 1.951-4.71l14.282-14.283c1.299-1.299 3.005-1.948 4.711-1.948 1.705 0 3.411.649 4.709 1.947l14.283 14.283c2.596 2.599 2.596 6.825 0 9.421z"/><path d="m370.725 212.995-20.126-1.733c-5.763-.493-11.376 1.281-15.804 5.007-4.427 3.725-7.138 8.951-7.635 14.715l-1.733 20.125c-1.024 11.9 7.823 22.415 19.723 23.439l20.125 1.732c.63.054 1.254.081 1.874.081 11.11 0 20.595-8.534 21.565-19.803l1.733-20.125s0 0 0-.001c1.023-11.898-7.824-22.412-19.722-23.437zm4.777 22.153-1.733 20.124c-.314 3.659-3.539 6.382-7.207 6.065l-20.125-1.732c-3.659-.315-6.38-3.548-6.064-7.208l1.733-20.125c.152-1.773.986-3.38 2.348-4.525 1.211-1.019 2.711-1.564 4.276-1.564.193 0 .388.008.582.025l20.126 1.733c3.659.314 6.378 3.547 6.064 7.207z"/><path d="m443.048 146.784h-38.25c-2.82-25.353-4.447-49.692-4.447-70.171 0-5.687-4.45-10.349-10.131-10.613l-40.025-1.86 10.788-40.237c1.072-4.001-1.301-8.114-5.302-9.187-4.004-1.072-8.113 1.3-9.187 5.302l-11.638 43.408-150.143-6.978c-3.897-.186-7.641 1.381-10.252 4.286-2.613 2.906-3.771 6.788-3.179 10.651 9.634 62.678 5.973 163.041-8.162 223.726-2.35 10.089-3.569 20.504-3.624 30.957-.232 44.894 20.954 85.026 53.94 110.688-15.93 7.733-26.636 24.115-26.636 42.447v5.755c0 4.142 3.357 7.5 7.5 7.5h210.877c4.143 0 7.5-3.358 7.5-7.5v-5.755c0-18.877-11.305-35.526-27.798-42.987 4.157-3.286 8.159-6.82 11.975-10.611 19.094-18.962 32.01-42.46 37.749-68.082h8.444c35.219 0 63.871-28.652 63.871-63.871v-82.999c.001-35.216-28.651-63.869-63.87-63.869zm-5.389 170.742c-.73-11.085-2.751-22.001-6.073-32.556-8.31-26.403-15.867-61.832-21.469-98.185h32.931c13.162 0 23.87 10.708 23.87 23.871v82.999c0 13.163-10.708 23.871-23.87 23.871zm-52.286-236.735c.106 10.446.607 21.799 1.438 33.695h-50.114l9.522-35.514zm-15.554 366.546c15.303 2.037 26.98 14.831 27.812 30.123h-195.782c.788-14.466 11.317-26.827 25.616-29.752.517-.106 1.01-.264 1.477-.465 20.261 11.795 43.755 18.628 68.811 18.802.333.002.662.003.995.003 25.043 0 49.073-6.572 70.139-18.901.304.079.613.148.932.19zm16.467-32.374c-23.453 23.291-54.509 36.084-87.541 36.084-.295 0-.593-.001-.889-.003-68.374-.474-123.713-56.502-123.359-124.896.049-9.334 1.137-18.631 3.233-27.632 10.495-45.059 15.361-111.436 13.5-169.03h49.468c4.143 0 7.5-3.358 7.5-7.5s-3.357-7.5-7.5-7.5h-50.117c-.843-15.393-2.204-29.917-4.107-42.938l144.406 6.711-9.713 36.227h-50.468c-4.143 0-7.5 3.358-7.5 7.5s3.357 7.5 7.5 7.5h46.446l-24.115 89.941-24.29-50.737c-.863-1.804-2.412-3.188-4.301-3.845s-3.964-.532-5.76.347c-31.989 15.648-45.505 54.51-30.128 86.629 9.188 19.19 26.718 31.846 46.219 35.711l-8.5 31.703-19.964-1.719c-11.906-1.026-22.415 7.824-23.439 19.723l-1.732 20.125c-1.024 11.9 7.823 22.415 19.723 23.439l20.126 1.733c.629.054 1.253.081 1.872.081 11.11 0 20.596-8.534 21.566-19.804l1.732-20.125c.496-5.765-1.282-11.377-5.007-15.804-.344-.409-.715-.788-1.084-1.168l9.918-36.991c8.41-.324 16.88-2.273 24.944-6.05 1.811-.849 3.208-2.385 3.881-4.269.673-1.883.565-3.958-.298-5.762l-12.316-25.725c0-.001-.001-.002-.001-.003l-3.29-6.872c.191-.403.353-.825.473-1.271l29.301-109.286h55.333c4.928 55.042 16.188 118.43 29.269 159.987 3.786 12.031 5.706 24.59 5.706 37.33 0 33.349-13.033 64.658-36.697 88.159zm-84.82-143.183c-23.161 6.813-48.659-4.035-59.385-26.437-10.725-22.403-3.187-49.068 16.644-62.836l5.948 12.423c-13.132 10.372-17.874 28.948-10.393 44.573 6.254 13.063 19.469 20.765 33.167 20.765 2.688 0 5.393-.306 8.069-.917zm-36.321 62.413c1.772.153 3.38.986 4.525 2.348s1.692 3.087 1.539 4.859l-1.732 20.125c-.314 3.659-3.546 6.381-7.207 6.065l-20.125-1.733c-3.659-.315-6.38-3.548-6.064-7.208l1.732-20.125c.298-3.466 3.214-6.089 6.631-6.089.19 0 .383.008.576.024zm23.613-88.955c-8.559.549-17.051-4.068-20.949-12.213-3.899-8.145-2.173-17.649 3.624-23.976l10.911 22.789zm203.161 48.416c0 26.947-21.924 48.871-48.871 48.871h-5.946c.369-3.309.623-6.643.757-10h5.189c21.433 0 38.87-17.438 38.87-38.871v-82.999c0-21.433-17.438-38.871-38.87-38.871h-35.123c-.461-3.337-.911-6.672-1.336-10h36.459c26.947 0 48.871 21.923 48.871 48.871z"/><path d="m137.904 197.872c3.688-32.005-16.595-61.968-48.009-70.302-1.933-.512-3.991-.232-5.716.779-1.726 1.011-2.976 2.67-3.473 4.608l-7.078 27.62c-.001.004-.003.007-.004.011l-1.179 4.6c-12.361-11.518-30.666-19.747-33.344-20.916-1.905-.832-4.074-.835-5.983-.008-1.909.828-3.389 2.411-4.085 4.372-.351.989-8.325 23.682-7.508 41.65-12.491 4.166-21.525 15.962-21.525 29.836v7.407c0 4.142 3.357 7.5 7.5 7.5s7.5-3.358 7.5-7.5v-7.407c0-9.071 7.38-16.451 16.45-16.451h84.247c9.071 0 16.451 7.38 16.451 16.451v66.126c0 32.298-26.276 58.574-58.574 58.574s-58.574-26.276-58.574-58.574v-28.719c0-4.142-3.357-7.5-7.5-7.5s-7.5 3.358-7.5 7.5v28.719c0 34.173 23.42 62.976 55.052 71.209v80.555c0 4.96-2.395 9.666-6.404 12.585l-34.634 25.214c-3.014 2.196-4.283 5.992-3.158 9.446 1.202 3.69 4.83 6.169 9.029 6.169h106.532c4.2 0 7.829-2.48 9.03-6.171 1.124-3.455-.146-7.251-3.162-9.447l-34.631-25.212c-4.01-2.919-6.404-7.625-6.404-12.585v-80.351c32.058-7.938 55.898-36.938 55.898-71.414v-66.126c0-8.68-3.536-16.551-9.244-22.248zm-49.078 264.852 18.822 13.703h-68.995l18.822-13.703c7.875-5.733 12.576-14.971 12.576-24.712v-78.28c1.168.055 2.341.089 3.522.089.897 0 1.786-.036 2.676-.068v78.258c.001 9.742 4.702 18.98 12.577 24.713zm5.869-274.053h-12.782l3.998-15.6c5.005 3.677 8.232 9.402 8.784 15.6zm-53.995-26.982c10.577 5.543 23.217 13.891 27.2 21.235l-1.473 5.748h-29.947c-.228-8.955 2.22-19.763 4.22-26.983zm69.022 26.982c-.697-12.922-8.28-24.796-19.927-30.758l3.423-13.357c18.032 7.816 29.811 25.485 30.118 45.058-2.447-.613-5.005-.943-7.64-.943z"/></g></g></svg>