<svg id="Capa_1" enable-background="new 0 0 510.097 510.097" height="512" viewBox="0 0 510.097 510.097" width="512" xmlns="http://www.w3.org/2000/svg"><g><circle cx="125.997" cy="89.969" fill="#fef056" r="82.469"/><path d="m125.997 7.5c-5.119 0-10.122.49-14.983 1.383 30.869 5.737 57.078 28.917 65.065 61.389 10.879 44.228-16.157 88.901-60.385 99.78-1.565.385-3.131.71-4.696 1.001 4.866.895 9.874 1.386 14.998 1.386 45.547 0 82.469-36.923 82.469-82.469s-36.922-82.47-82.468-82.47z" fill="#f4d902"/><circle cx="125.997" cy="89.969" fill="#fef6ad" r="23.696"/><path d="m317.423 258.878h-38.28c-82.371 0-149.146-66.775-149.146-149.146 0-11.15 9.039-20.19 20.189-20.19h296.194c11.15 0 20.19 9.039 20.19 20.19-.001 82.371-66.776 149.146-149.147 149.146z" fill="#f7f9f5"/><path d="m446.38 89.542h-30c11.15 0 20.189 9.039 20.189 20.19 0 82.371-66.775 149.146-149.146 149.146h30c82.371 0 149.146-66.775 149.146-149.146 0-11.151-9.039-20.19-20.189-20.19z" fill="#eceae6"/><path d="m366.118 500.011-44.306-31.74c-7.629-5.465-12.142-14.191-12.142-23.476v-257.124h-27.121v257.123c0 9.286-4.513 18.011-12.142 23.476l-44.306 31.74c-1.405 1.007-.269 2.586 1.861 2.586h136.296c2.129.001 3.265-1.579 1.86-2.585z" fill="#f7f9f5"/><path d="m366.118 500.011-44.306-31.74c-7.629-5.465-12.142-14.191-12.142-23.476v-257.124h-27.121v257.123c0 3.07-.503 6.076-1.439 8.926 1.895 5.77 5.596 10.892 10.702 14.55l44.306 31.74c1.405 1.007.269 2.586-1.86 2.586h30c2.129.001 3.265-1.579 1.86-2.585z" fill="#eceae6"/><path d="m137.213 155.656c19.367 59.897 75.585 103.222 141.93 103.222h38.28c66.346 0 122.563-43.325 141.93-103.222z" fill="#fef056"/><path d="m429.353 155.656c-19.367 59.897-75.585 103.222-141.93 103.222h30c66.346 0 122.563-43.325 141.93-103.222z" fill="#fee903"/><g fill="#f4d902"><circle cx="214.283" cy="184.516" r="8.299"/><circle cx="256.283" cy="184.516" r="8.299"/><circle cx="298.283" cy="184.516" r="8.299"/><circle cx="340.283" cy="184.516" r="8.299"/><circle cx="382.283" cy="184.516" r="8.299"/><circle cx="238.783" cy="215.565" r="8.299"/><circle cx="280.783" cy="215.565" r="8.299"/><circle cx="322.783" cy="215.565" r="8.299"/><circle cx="364.783" cy="215.565" r="8.299"/></g><g><path d="m125.997 46.529c4.142 0 7.5-3.358 7.5-7.5v-6.202c0-4.142-3.358-7.5-7.5-7.5s-7.5 3.358-7.5 7.5v6.202c0 4.142 3.358 7.5 7.5 7.5z"/><path d="m162.018 61.449c1.919 0 3.839-.732 5.303-2.197l4.386-4.386c2.929-2.929 2.929-7.677 0-10.606s-7.678-2.929-10.606 0l-4.386 4.386c-2.929 2.929-2.929 7.677 0 10.606 1.464 1.465 3.383 2.197 5.303 2.197z"/><path d="m84.673 120.686-4.386 4.386c-2.929 2.929-2.929 7.677 0 10.607 1.464 1.465 3.384 2.197 5.303 2.197s3.839-.732 5.303-2.197l4.386-4.386c2.929-2.929 2.929-7.678 0-10.607-2.927-2.928-7.676-2.928-10.606 0z"/><path d="m82.556 89.969c0-4.142-3.358-7.5-7.5-7.5h-6.203c-4.142 0-7.5 3.358-7.5 7.5s3.358 7.5 7.5 7.5h6.203c4.142 0 7.5-3.358 7.5-7.5z"/><path d="m84.673 59.252c1.465 1.464 3.384 2.196 5.303 2.196s3.839-.732 5.304-2.197c2.929-2.929 2.928-7.678 0-10.607l-4.386-4.386c-2.93-2.929-7.678-2.928-10.607.001s-2.928 7.678 0 10.607z"/><path d="m317.423 266.378c86.375 0 156.646-70.271 156.646-156.646 0-15.268-12.422-27.69-27.689-27.69h-135.27c-4.143 0-7.5 3.358-7.5 7.5s3.357 7.5 7.5 7.5h135.27c6.997 0 12.689 5.693 12.689 12.69 0 13.312-1.849 26.2-5.299 38.424h-310.974c-3.449-12.224-5.299-25.112-5.299-38.424 0-6.997 5.692-12.69 12.689-12.69h130.924c4.143 0 7.5-3.358 7.5-7.5s-3.357-7.5-7.5-7.5h-65.515c-4.041-46.155-43.017-82.042-89.598-82.042-49.609 0-89.969 40.36-89.969 89.969s40.36 89.969 89.969 89.969c4.248 0 8.503-.317 12.691-.908 25.046 50.557 76.588 85.752 136.362 87.293v58.191c0 4.142 3.357 7.5 7.5 7.5s7.5-3.358 7.5-7.5v-58.138h12.121v178.417c0 11.666 5.71 22.722 15.273 29.573l28.937 20.729h-100.542l28.937-20.729c9.563-6.852 15.273-17.907 15.273-29.573v-90.279c0-4.142-3.357-7.5-7.5-7.5s-7.5 3.358-7.5 7.5v90.279c0 6.841-3.368 13.338-9.01 17.379l-44.306 31.74c-3.193 2.287-4.506 6.102-3.345 9.719 1.242 3.867 5.089 6.464 9.573 6.464h136.295c4.483 0 8.33-2.598 9.572-6.464 1.162-3.617-.151-7.432-3.344-9.719l-44.306-31.74c-5.642-4.042-9.01-10.538-9.01-17.379v-178.415zm-194.647-160.536c-7.393-1.498-12.975-8.045-12.975-15.873 0-8.931 7.266-16.196 16.197-16.196 6.646 0 12.431 3.99 14.909 9.874-9.54 3.404-16.677 11.897-18.131 22.195zm3.221 59.096c-41.338 0-74.969-33.631-74.969-74.969s33.631-74.969 74.969-74.969c38.375 0 70.561 29.221 74.541 67.042h-44.362c-3.551-13.633-15.839-23.269-30.178-23.269-17.202 0-31.197 13.995-31.197 31.196 0 16.159 12.35 29.486 28.106 31.042.902 12.615 3.307 24.82 7.032 36.44.096.39.215.77.369 1.133.673 2.045 1.386 4.071 2.14 6.078-2.144.183-4.298.276-6.451.276zm21.97-1.782h300.632c-21.132 51.698-71.964 88.222-131.175 88.222h-38.28c-59.212 0-110.045-36.525-131.177-88.222z"/></g></g></svg>