<svg id="Capa_1" enable-background="new 0 0 511.94 511.94" height="512" viewBox="0 0 511.94 511.94" width="512" xmlns="http://www.w3.org/2000/svg"><g><g><circle cx="151.899" cy="57.791" fill="#a74b30" r="50.291"/></g></g><g><g><path d="m151.899 7.5c-5.224 0-10.262.798-15 2.276 20.449 6.382 35.292 25.465 35.292 48.015s-14.843 41.634-35.292 48.015c4.738 1.479 9.776 2.276 15 2.276 27.775 0 50.292-22.516 50.292-50.292s-22.517-50.29-50.292-50.29z" fill="#8c3d27"/></g></g><g><g><path d="m363.939 121.715h-125.098v222.383h125.098c35.37 0 64.043-28.673 64.043-64.043v-94.297c0-35.37-28.673-64.043-64.043-64.043zm35.64 158.339c0 19.652-15.988 35.641-35.64 35.641h-96.696v-165.577h96.696c19.652 0 35.64 15.988 35.64 35.64z" fill="#f7f9f5"/></g></g><g><g><path d="m318.361 104.737h-202.196v-6.45c0-25.219 16.185-46.657 38.734-54.496 17.414-6.053 33.995-14.276 48.836-25.213l13.528-9.97 13.528 9.97c14.841 10.938 31.422 19.16 48.836 25.213 22.549 7.838 38.734 29.277 38.734 54.496z" fill="#fee8c7"/></g></g><g><g><path d="m279.627 43.791c-17.414-6.053-33.995-14.276-48.836-25.213l-13.528-9.97-13.528 9.97c-.487.359-.981.707-1.472 1.06 14.463 10.407 30.522 18.299 47.364 24.153 22.549 7.838 38.734 29.277 38.734 54.496v6.45h30v-6.45c0-25.219-16.185-46.658-38.734-54.496z" fill="#fedba6"/></g></g><g><g><path d="m267.43 504.44h-105.566c-12.459 0-22.559-10.1-22.559-22.559v-135.629h150.685v135.629c-.001 12.459-10.101 22.559-22.56 22.559z" fill="#f7f9f5"/></g></g><g><g><path d="m259.989 346.252v135.63c0 12.458-10.1 22.559-22.559 22.559h30c12.459 0 22.559-10.1 22.559-22.559v-135.63z" fill="#eceae6"/></g></g><g><g><path d="m333.149 74.621h-237.004c-7.786 0-13.574 7.204-11.897 14.807 0 0 28.195 180.96 25.547 218.789-.226 3.23-.306 6.501-.233 9.805 1.241 56.294 47.311 101.961 103.613 102.732 58.726.803 106.583-46.56 106.583-105.101 0-2.78-.108-5.536-.32-8.261-2.835-36.402 25.608-217.963 25.608-217.963 1.677-7.604-4.111-14.808-11.897-14.808z" fill="#fbc56d"/></g></g><g><g><path d="m333.149 74.621h-30c7.786 0 13.574 7.204 11.897 14.807 0 0-28.443 181.561-25.608 217.963.212 2.726.32 5.481.32 8.261 0 52.944-39.145 96.743-90.071 104.04 4.417.636 8.918.999 13.488 1.062 58.726.803 106.583-46.56 106.583-105.102 0-2.78-.108-5.535-.32-8.261-2.835-36.402 25.608-217.963 25.608-217.963 1.677-7.603-4.111-14.807-11.897-14.807z" fill="#e9b665"/></g></g><g><g><path d="m327.61 212.084h-225.991c5.2 41.206 9.282 80.652 8.198 96.133-.226 3.23-.306 6.501-.233 9.805 1.241 56.294 47.311 101.961 103.613 102.732 58.726.803 106.583-46.56 106.583-105.102 0-2.78-.108-5.535-.321-8.261-1.161-14.907 2.923-54.154 8.151-95.307z" fill="#dd7f66"/></g></g><g><g><path d="m327.61 212.084h-30c-5.228 41.153-9.312 80.4-8.151 95.307.212 2.726.321 5.481.321 8.261 0 52.944-39.145 96.743-90.071 104.04 4.417.636 8.918.999 13.488 1.062 58.726.803 106.583-46.56 106.583-105.102 0-2.78-.108-5.535-.321-8.261-1.161-14.907 2.923-54.154 8.151-95.307z" fill="#d6694b"/></g></g><g><g><path d="m320.031 283.184h-210.866c.761 10.762 1.042 19.455.652 25.033-.226 3.23-.306 6.501-.233 9.805 1.241 56.294 47.311 101.961 103.613 102.732 58.726.803 106.583-46.56 106.583-105.102 0-2.78-.108-5.535-.321-8.261-.414-5.314-.161-13.722.572-24.207z" fill="#c4573a"/></g></g><g><g><path d="m320.031 283.184h-30c-.733 10.485-.986 18.893-.572 24.207.212 2.726.321 5.481.321 8.261 0 52.944-39.145 96.743-90.071 104.04 4.417.636 8.918.999 13.488 1.062 58.726.803 106.583-46.56 106.583-105.102 0-2.78-.108-5.535-.321-8.261-.414-5.314-.161-13.722.572-24.207z" fill="#a74b30"/></g></g><g><g><path d="m333.149 74.621h-237.004c-7.786 0-13.574 7.204-11.897 14.807 0 0 28.195 180.96 25.547 218.789-.226 3.23-.306 6.501-.233 9.805 1.241 56.294 47.311 101.961 103.613 102.732 58.726.803 106.583-46.56 106.583-105.101 0-2.78-.108-5.536-.32-8.261-2.835-36.402 25.608-217.963 25.608-217.963 1.677-7.604-4.111-14.808-11.897-14.808z" fill="none"/></g></g><g><g><path d="m327.61 212.084h-225.991c5.2 41.206 9.282 80.652 8.198 96.133-.226 3.23-.306 6.501-.233 9.805 1.241 56.294 47.311 101.961 103.613 102.732 58.726.803 106.583-46.56 106.583-105.102 0-2.78-.108-5.535-.321-8.261-1.161-14.907 2.923-54.154 8.151-95.307z" fill="none"/></g></g><g><g><path d="m320.031 283.184h-210.866c.761 10.762 1.042 19.455.652 25.033-.226 3.23-.306 6.501-.233 9.805 1.241 56.294 47.311 101.961 103.613 102.732 58.726.803 106.583-46.56 106.583-105.102 0-2.78-.108-5.535-.321-8.261-.414-5.314-.161-13.722.572-24.207z" fill="none"/></g></g><path d="m363.94 114.215h-15.086c1.984-13.234 3.343-21.975 3.569-23.426 1.196-5.775-.229-11.707-3.931-16.313-3.755-4.674-9.348-7.355-15.344-7.355h-15.217c-5.011-9.189-12.064-16.924-20.539-22.699l16.128-33.142c1.813-3.725.262-8.213-3.462-10.025-3.73-1.815-8.213-.262-10.026 3.462l-15.933 32.742c-.667-.257-1.333-.516-2.01-.752-17.656-6.137-33.418-14.268-46.849-24.166l-13.528-9.97c-2.645-1.95-6.254-1.95-8.898 0l-13.528 9.97c-2.085 1.536-4.245 3.015-6.441 4.465-10.801-10.879-25.383-17.006-40.946-17.006-31.866 0-57.792 25.925-57.792 57.791 0 3.15.257 6.285.761 9.375-5.507.352-10.579 2.97-14.066 7.31-3.7 4.605-5.127 10.536-3.933 16.311 1.082 6.978 27.965 180.898 25.444 216.907-.243 3.469-.327 7-.25 10.495.606 27.468 11.148 53.42 29.802 73.639-.036.299-.061.602-.061.911v89.144c0 16.574 13.484 30.059 30.059 30.059h105.567c16.575 0 30.06-13.484 30.06-30.059v-89.144c0-.258-.013-.513-.039-.764 10.89-11.788 18.994-25.509 23.981-40.375h42.508c39.449 0 71.543-32.094 71.543-71.543v-94.296c0-39.452-32.094-71.546-71.543-71.546zm-36.944 193.98c-.03-.461-.045-.927-.081-1.386-.383-4.914-.163-12.652.497-22.33.073-.421.119-.852.119-1.294 0-.081-.01-.159-.012-.24 1.317-18.42 4.139-43.427 7.429-69.315.073-.351.115-.712.138-1.079 2.372-18.605 4.977-37.619 7.433-54.933h21.421c15.517 0 28.14 12.624 28.14 28.14v94.296c0 15.517-12.623 28.141-28.14 28.141zm-118.812-283.579 9.079-6.691 9.078 6.691c14.644 10.792 31.743 19.627 50.823 26.259 9.078 3.156 16.958 8.805 22.847 16.246h-165.497c5.889-7.441 13.77-13.09 22.848-16.246 13.723-4.771 26.415-10.687 37.913-17.645.1-.059.201-.117.299-.181 4.379-2.662 8.59-5.471 12.61-8.433zm-56.285-9.616c10.211 0 19.846 3.574 27.477 9.992-8.385 4.46-17.373 8.39-26.939 11.715-15.339 5.332-28.052 16.129-35.842 30.414h-6.447c-.677-3.05-1.04-6.177-1.04-9.33-.001-23.595 19.195-42.791 42.791-42.791zm-34.793 275.684h106.914c4.143 0 7.5-3.358 7.5-7.5s-3.357-7.5-7.5-7.5h-107.945c-1.322-16.151-3.478-35.742-5.978-56.1h29.447c4.143 0 7.5-3.358 7.5-7.5s-3.357-7.5-7.5-7.5h-31.331c-7.138-55.678-15.908-112.16-16.555-116.311-.023-.154-.053-.308-.086-.46-.421-1.908.397-3.289.923-3.942.524-.653 1.696-1.75 3.649-1.75h237.004c1.953 0 3.126 1.096 3.65 1.75.525.653 1.343 2.034.922 3.941-.033.151-.062.303-.085.456-.652 4.162-9.486 60.753-16.656 116.316h-151.435c-4.143 0-7.5 3.358-7.5 7.5s3.357 7.5 7.5 7.5h149.54c-2.524 20.427-4.694 40.041-6.005 56.1h-59.06c-4.143 0-7.5 3.358-7.5 7.5s3.357 7.5 7.5 7.5h58.042c-.363 7.226-.425 13.138-.102 17.288.197 2.542.298 5.126.298 7.68 0 26.326-10.322 51.006-29.066 69.496-18.414 18.164-42.703 28.117-68.536 28.116-.458 0-.92-.003-1.378-.01-25.279-.346-49.172-10.421-67.277-28.371s-28.383-41.754-28.94-67.027c-.067-3.037.006-6.103.217-9.115.306-4.378.221-10.552-.171-18.057zm150.324 206.256h-105.566c-8.304 0-15.059-6.755-15.059-15.059v-76.474c19.065 14.491 42.111 22.515 66.268 22.846.53.007 1.06.011 1.589.011 24.802 0 48.371-7.962 67.828-22.713v76.331c0 8.303-6.756 15.058-15.06 15.058zm153.053-216.886c0 31.178-25.365 56.543-56.543 56.543h-38.619c.823-4.403 1.387-8.876 1.683-13.403h36.936c23.787 0 43.14-19.353 43.14-43.141v-94.296c0-23.788-19.353-43.14-43.14-43.14h-19.271c.678-4.683 1.333-9.167 1.957-13.403h17.314c31.178 0 56.543 25.365 56.543 56.543z"/></svg>