<svg id="Capa_1" enable-background="new 0 0 507.885 507.885" height="512" viewBox="0 0 507.885 507.885" width="512" xmlns="http://www.w3.org/2000/svg"><g><g><g><path d="m282.2 110.832-47.56 47.56c-4.232 4.232-11.093 4.232-15.325 0l-47.56-47.56c-4.232-4.232-4.232-11.093 0-15.325l47.56-47.56c4.232-4.232 11.093-4.232 15.325 0l47.56 47.56c4.232 4.232 4.232 11.093 0 15.325z" fill="#d4f2f6"/></g></g><g><g><path d="m282.2 95.507-47.56-47.561c-4.232-4.232-11.093-4.232-15.325 0l-7.337 7.337 10.238 10.238c20.792 20.792 20.792 54.503 0 75.295l-10.238 10.238 7.337 7.337c4.232 4.232 11.093 4.232 15.325 0l47.56-47.56c4.232-4.23 4.232-11.092 0-15.324z" fill="#a6e7f0"/></g></g><g><g><path d="m370.932 12.339c-41.655-14.973-87.812 6.068-103.674 47.607s4.523 87.989 45.556 104.591z" fill="#0ed290"/></g></g><g><g><path d="m328.375 8.935c4.208.792 8.405 1.911 12.558 3.404l-52.317 137.007c6.926 6.289 15.044 11.487 24.199 15.191l58.118-152.198c-14.122-5.076-28.758-6.002-42.558-3.404z" fill="#00c285"/></g></g><g><g><path d="m317.585 500.385h-127.285c-10.987 0-19.894-8.907-19.894-19.894v-73.016h167.072v73.016c.001 10.988-8.906 19.894-19.893 19.894z" fill="#dd7f66"/></g></g><g><g><path d="m307.479 407.476v73.016c0 10.987-8.907 19.894-19.894 19.894h30c10.987 0 19.894-8.907 19.894-19.894v-73.016z" fill="#d6694b"/></g></g><g><g><path d="m355.953 116.458.477-6.609h-204.975l.477 6.609c3.12 43.229-3.433 86.487-18.124 127.263-6.555 18.194-10.18 38.188-10.18 59.174 0 84.214 58.344 152.482 130.314 152.482s130.314-68.269 130.314-152.482c0-20.986-3.624-40.98-10.18-59.174-14.69-40.776-21.243-84.035-18.123-127.263z" fill="#d6694b"/></g></g><g><g><path d="m374.077 243.72c-14.691-40.775-21.244-84.034-18.124-127.262l.477-6.609h-30l-.477 6.609c-3.12 43.229 3.433 86.487 18.124 127.262 6.555 18.194 10.18 38.188 10.18 59.174 0 78.276-50.41 142.765-115.314 151.471 4.923.66 9.926 1.011 15 1.011 71.971 0 130.314-68.269 130.314-152.482 0-20.985-3.624-40.979-10.18-59.174z" fill="#c4573a"/></g></g><g><g><path d="m151.73 161.567h204.424c-1.198-14.969-1.289-30.041-.202-45.109l.477-6.609h-204.974l.477 6.609c1.088 15.068.996 30.139-.202 45.109z" fill="#c4573a"/></g></g><g><g><path d="m355.953 116.458.477-6.609h-30l-.477 6.609c-1.088 15.068-.996 30.14.202 45.109h30c-1.198-14.97-1.289-30.041-.202-45.109z" fill="#a74b30"/></g></g><g><path d="m391.757 302.895c0-21.386-3.574-42.15-10.624-61.716-9.529-26.449-15.363-53.262-17.504-80.125-.008-.112-.013-.225-.025-.336-1.145-14.576-1.22-29.165-.17-43.719l.477-6.609c.15-2.078-.571-4.124-1.99-5.649s-3.408-2.391-5.491-2.391h-11.841l4.29-11.234s0 0 0-.001c0 0 0-.001.001-.002l29.059-76.097c.719-1.882.65-3.975-.19-5.806-.841-1.831-2.383-3.247-4.279-3.928-22.025-7.917-45.88-6.904-67.17 2.851-1.659.76-3.276 1.583-4.872 2.434-.06.029-.121.052-.18.083-.142.074-.275.159-.41.241-18.646 10.12-32.948 26.38-40.584 46.381-.532 1.393-1.014 2.798-1.474 4.208l-18.835-18.835c-7.149-7.149-18.782-7.149-25.932 0l-47.561 47.561c-3.268 3.268-5.129 7.556-5.331 12.145h-9.666c-2.083 0-4.072.866-5.491 2.391s-2.14 3.571-1.99 5.649l.477 6.609c1.05 14.554.975 29.144-.17 43.719-.013.111-.018.224-.025.336-2.141 26.863-7.975 53.676-17.504 80.125-7.049 19.566-10.624 40.33-10.624 61.716 0 4.023.13 8.086.387 12.075.266 4.133 3.825 7.281 7.966 7.003 4.133-.266 7.269-3.832 7.003-7.966-.236-3.669-.355-7.408-.355-11.112 0-19.647 3.275-38.701 9.736-56.632 9.18-25.479 15.083-51.296 17.725-77.196h68.391c4.142 0 7.5-3.358 7.5-7.5s-3.358-7.5-7.5-7.5h-67.23c.648-12.241.588-24.489-.237-36.718h188.86c-.825 12.229-.885 24.477-.237 36.718h-91.157c-4.142 0-7.5 3.358-7.5 7.5s3.358 7.5 7.5 7.5h92.316c2.642 25.9 8.545 51.718 17.725 77.196 6.46 17.931 9.736 36.984 9.736 56.632 0 79.943-55.094 144.982-122.814 144.982-26.793 0-52.259-10.021-73.644-28.978-20.928-18.552-36.564-44.964-44.027-74.371-1.019-4.015-5.1-6.445-9.114-5.425-4.015 1.019-6.444 5.1-5.425 9.114 7.289 28.724 21.769 54.896 41.174 74.78v57.495c0 15.105 12.289 27.394 27.394 27.394h127.285c15.105 0 27.394-12.289 27.394-27.394v-57.598c28.662-29.339 46.777-72.257 46.777-120zm-121.153-200.546c-2.003-10.852-1.534-21.945 1.346-32.583l60.242 23.004-3.658 9.58h-57.93zm90.454-85.175-20.248 53.026-25.841-49.48c14.712-6.129 30.749-7.346 46.089-3.546zm-59.288 10.678 24.297 46.523-48.772-18.625c5.669-11.306 14.07-20.85 24.475-27.898zm-124.713 72.959 47.561-47.561c1.301-1.301 3.418-1.301 4.719 0l25.629 25.629c-.898 7.787-.763 15.668.428 23.469h-79.208c.119-.476.365-1.031.871-1.537zm140.528 392.074h-127.285c-6.834 0-12.394-5.56-12.394-12.394v-44.121c22.541 17.372 48.638 26.507 76.036 26.507 28.084 0 54.228-9.811 76.036-26.623v44.238c.001 6.834-5.559 12.393-12.393 12.393z"/></g></g></svg>