<svg id="Capa_1" enable-background="new 0 0 507.752 507.752" height="512" viewBox="0 0 507.752 507.752" width="512" xmlns="http://www.w3.org/2000/svg"><g><g><g><path d="m322.535 128.404c-21.635 2.273-42.731-13.369-45.02-35.158s15.096-41.474 36.73-43.747c17.591-1.848 55.727 20.517 70.322 28.841 2.664 1.52 3.051 5.198.76 7.238-12.545 11.176-45.201 40.978-62.792 42.826z" fill="#5de1c4"/></g></g><g><g><path d="m384.569 78.341c-14.593-8.323-52.732-30.691-70.324-28.843-4.155.437-8.15 1.521-11.882 3.133 12.589 4.204 27.243 11.753 38.679 18.062 9.405 5.189 10.768 18.142 2.647 25.173-12.028 10.412-28.345 23.615-41.331 29.519 6.26 2.608 13.188 3.752 20.177 3.018 17.592-1.848 50.25-31.653 62.794-42.827 2.289-2.038 1.903-5.716-.76-7.235z" fill="#0ed2b3"/></g></g><g><g><path d="m329.019 87.405c-10.301 19.161-35.104 27.791-54.402 17.417s-25.78-35.824-15.48-54.984c8.375-15.58 48.328-34.509 63.424-41.885 2.756-1.347 6.014.405 6.411 3.446 2.174 16.661 8.422 60.427.047 76.006z" fill="#5de1c4"/></g></g><g><g><path d="m328.972 11.399c-.397-3.042-3.655-4.793-6.411-3.446-5.281 2.581-13.607 6.578-22.557 11.349 2.538 19.837 6.284 54.582-.985 68.104-4.715 8.771-12.472 15.325-21.346 18.87 18.785 7.982 41.581-.706 51.346-18.87 8.375-15.58 2.127-59.346-.047-76.007z" fill="#0ed2b3"/></g></g><g><g><path d="m292.316 500.252h-135.816c-13.863 0-25.207-11.036-25.587-24.894l-9.981-363.383c-.4-14.581 11.31-26.617 25.896-26.617h155.159c14.586 0 26.297 12.037 25.896 26.617l-9.981 363.383c-.38 13.858-11.723 24.894-25.586 24.894z" fill="#f7f9f5"/></g></g><g><g><path d="m301.988 85.357h-30c14.586 0 26.297 12.037 25.896 26.617l-9.981 363.383c-.381 13.858-11.724 24.894-25.587 24.894h30c13.863 0 25.207-11.036 25.587-24.894l9.981-363.383c.4-14.58-11.31-26.617-25.896-26.617z" fill="#eceae6"/></g></g><g><g><path d="m121.878 146.424 9.035 328.934c.381 13.858 11.724 24.894 25.587 24.894h135.815c13.863 0 25.207-11.036 25.587-24.894l9.035-328.934z" fill="#9cf8d2"/></g></g><g><g><path d="m296.938 146.424-9.035 328.934c-.381 13.858-11.724 24.894-25.587 24.894h30c13.863 0 25.207-11.036 25.587-24.894l9.035-328.934z" fill="#5de1c4"/></g></g><g><g><path d="m203.711 308.345c1.476 14.049-8.682 27.748-22.831 29.234s-26.932-9.803-28.408-23.851c-1.2-11.423 13.323-36.187 18.729-45.664.987-1.73 3.376-1.981 4.7-.494 7.258 8.147 26.61 29.352 27.81 40.775z" fill="#5de1c4"/></g></g><g><g><path d="m203.711 308.345c-1.2-11.423-20.552-32.628-27.81-40.775-1.325-1.487-3.714-1.236-4.7.494-2.263 3.967-6.122 10.615-9.758 17.84 6.156 7.99 11.647 16.526 12.268 22.441.99 9.423-3.258 18.683-10.43 24.211 4.948 3.706 11.129 5.703 17.599 5.023 14.15-1.486 24.307-15.185 22.831-29.234z" fill="#0ed2b3"/></g></g><g><g><path d="m225.873 435.963-29.526 20.948c-3.442 2.442-8.212 1.631-10.654-1.811l-19.245-27.127c-2.442-3.442-1.631-8.212 1.811-10.654l29.526-20.948c3.442-2.442 8.212-1.631 10.654 1.811l19.245 27.127c2.442 3.442 1.632 8.212-1.811 10.654z" fill="#c2fae3"/></g></g><g><g><path d="m227.684 425.309-19.245-27.127c-2.442-3.442-7.212-4.252-10.654-1.811l-13.723 9.736 13.623 19.202c2.442 3.442 1.631 8.212-1.811 10.654l-15.803 11.212 5.623 7.925c2.442 3.442 7.212 4.253 10.654 1.811l29.526-20.948c3.442-2.441 4.252-7.211 1.81-10.654z" fill="#6cf5c2"/></g></g><g><g><path d="m225.873 229.233-29.526 20.948c-3.442 2.442-8.212 1.631-10.654-1.811l-19.245-27.127c-2.442-3.442-1.631-8.212 1.811-10.654l29.526-20.948c3.442-2.442 8.212-1.631 10.654 1.811l19.245 27.127c2.442 3.442 1.632 8.212-1.811 10.654z" fill="#c2fae3"/></g></g><g><g><path d="m227.684 218.579-19.245-27.127c-2.442-3.442-7.212-4.253-10.654-1.811l-13.723 9.736 13.623 19.202c2.442 3.442 1.631 8.212-1.811 10.654l-15.803 11.212 5.623 7.925c2.442 3.442 7.212 4.253 10.654 1.811l29.526-20.948c3.442-2.442 4.252-7.212 1.81-10.654z" fill="#6cf5c2"/></g></g><g><g><circle cx="257.545" cy="226.497" fill="#0ed2b3" r="45.966"/></g></g><g><g><path d="m273.037 183.221c-10.253-3.67-20.947-3.467-30.495-.163.165.057.33.104.495.163 23.901 8.557 36.34 34.869 27.783 58.769-4.886 13.648-15.564 23.548-28.274 27.947 23.768 8.211 49.777-4.21 58.274-27.947 8.557-23.9-3.882-50.213-27.783-58.769z" fill="#0ab69f"/></g></g><g><g><path d="m236.741 385.789c-10.978-8.89-13.482-25.76-4.528-36.816s25.975-12.112 36.953-3.222c8.926 7.229 16.167 35.009 19.047 45.533.526 1.921-.986 3.788-2.974 3.673-10.894-.629-39.572-1.94-48.498-9.168z" fill="#5de1c4"/></g></g><g><g><path d="m289.816 339.28-29.526 20.948c-3.442 2.442-8.212 1.631-10.654-1.811l-19.246-27.127c-2.442-3.442-1.631-8.212 1.811-10.654l29.526-20.948c3.442-2.442 8.212-1.631 10.654 1.811l19.245 27.127c2.443 3.442 1.632 8.212-1.81 10.654z" fill="#c2fae3"/></g></g><g><g><path d="m291.626 328.626-19.245-27.127c-2.442-3.442-7.212-4.253-10.654-1.811l-13.723 9.736 13.623 19.202c2.442 3.442 1.631 8.212-1.811 10.654l-15.803 11.211 5.623 7.925c2.442 3.442 7.212 4.253 10.654 1.811l29.526-20.948c3.442-2.441 4.253-7.211 1.81-10.653z" fill="#6cf5c2"/></g></g><g><path d="m394.264 80.981c-.402-3.826-2.638-7.249-5.981-9.155l-2.052-1.173c-10.325-5.907-29.062-16.621-45.898-23.116-.794-13.335-2.548-26.66-3.617-34.768l-.307-2.34c-.498-3.817-2.818-7.183-6.207-9.004-3.389-1.822-7.475-1.901-10.934-.21l-2.123 1.035c-28.805 14.029-56.57 29.074-64.614 44.038-5.163 9.604-6.892 20.773-5.039 31.57h-100.664c-9.097 0-17.6 3.591-23.943 10.111s-9.7 15.119-9.45 24.212l9.981 363.383c.495 18.05 15.027 32.188 33.084 32.188h30.91c4.142 0 7.5-3.358 7.5-7.5s-3.358-7.5-7.5-7.5h-30.91c-9.873 0-17.819-7.731-18.09-17.6l-8.823-321.228h12.29c4.142 0 7.5-3.358 7.5-7.5s-3.358-7.5-7.5-7.5h-12.702l-.746-27.156c-.138-5.01 1.711-9.748 5.207-13.34 3.495-3.592 8.18-5.571 13.192-5.571h155.16c5.012 0 9.697 1.979 13.192 5.571 3.496 3.592 5.345 8.33 5.207 13.34l-.746 27.156h-147.763c-4.142 0-7.5 3.358-7.5 7.5s3.358 7.5 7.5 7.5h147.351l-8.823 321.228c-.271 9.869-8.218 17.6-18.09 17.6h-74.906c-4.142 0-7.5 3.358-7.5 7.5s3.358 7.5 7.5 7.5h74.905c18.056 0 32.588-14.139 33.084-32.188l9.423-343.07c18.357-8.154 41.89-29.167 53.734-39.745l1.759-1.57c2.876-2.56 4.352-6.373 3.949-10.198zm-92.276-3.124h-4.36l9.258-17.221c1.961-3.648.594-8.196-3.055-10.157-3.646-1.96-8.195-.594-10.157 3.055l-13.076 24.324h-17.782c-2.068-8.294-1.051-17.067 2.928-24.468 6.587-12.254 42.313-30.014 56.339-36.859 1.15 8.761 2.724 21.192 3.379 33.671 1.166 22.178-1.41 30.604-3.049 33.653-.122.228-.262.446-.39.671-5.744-4.329-12.696-6.669-20.035-6.669zm33.304 37.567.089-3.244c.151-5.483-1.018-10.782-3.354-15.559 1.329-1.808 2.539-3.696 3.598-5.665 3.158-5.875 4.84-14.799 5.092-27.058 13.404 5.785 27.564 13.771 36.492 18.873-9.511 8.485-27.367 24.212-41.917 32.653z"/><path d="m145.014 314.512c1.819 17.313 16.737 30.698 33.401 30.697 1.076 0 2.161-.056 3.249-.17 8.843-.929 16.812-5.473 22.438-12.796 5.401-7.029 7.977-16.025 7.068-24.681-1.23-11.714-14.498-27.994-28.652-43.842l-1.016-1.139c-2.224-2.497-5.54-3.78-8.861-3.43-3.325.349-6.298 2.292-7.955 5.197l-.76 1.33c-10.549 18.442-20.143 37.121-18.912 48.834zm29.54-37.154c13.851 15.835 21.146 26.515 21.698 31.771.512 4.87-.962 9.964-4.044 13.975-3.097 4.029-7.397 6.521-12.111 7.017-9.68 1.014-19.097-7.011-20.165-17.176-.553-5.256 4.364-17.219 14.622-35.587z"/><path d="m179.576 459.44c2.34 3.299 5.825 5.489 9.813 6.167.858.146 1.716.218 2.569.218 3.111 0 6.14-.959 8.729-2.796l29.527-20.948c6.809-4.831 8.418-14.301 3.588-21.111l-19.246-27.127c-4.832-6.809-14.301-8.417-21.111-3.587l-29.526 20.947c-6.81 4.831-8.419 14.301-3.588 21.111zm-6.978-36.004 29.526-20.948c.025-.018.053-.026.082-.026.044 0 .088.021.115.06l19.245 27.126c.045.064.031.153-.033.198l-29.527 20.948c-.054.037-.158.02-.197-.034l-19.245-27.126c-.045-.064-.03-.152.034-.198z"/><path d="m275.565 176.16c-21.192-7.587-44.069-.918-58.132 15.008l-2.878-4.056c-4.832-6.809-14.301-8.417-21.111-3.587l-29.526 20.947c-6.81 4.831-8.419 14.301-3.588 21.111l19.245 27.126c2.34 3.299 5.825 5.489 9.813 6.167.858.146 1.716.218 2.569.218 3.111 0 6.14-.959 8.729-2.796l8.877-6.298c5.913 12.075 16.333 21.956 29.961 26.834 5.935 2.125 12 3.132 17.969 3.132 21.95 0 42.577-13.627 50.389-35.449 9.936-27.755-4.561-58.421-32.317-68.357zm20.044 55.888-28.44-10.182 10.153-28.36c13.267 7.948 20.522 23.245 18.287 38.542zm-38.028-44.019c1.863 0 3.74.146 5.617.425l-10.152 28.357-28.444-10.183c7.003-11.617 19.651-18.599 32.979-18.599zm-65.574 56.035c-.054.038-.158.021-.197-.034l-19.245-27.126c-.045-.064-.03-.153.034-.198l29.526-20.948c.063-.045.152-.031.197.034l6.381 8.994c-.535 1.206-1.044 2.43-1.495 3.691-3.151 8.802-3.837 17.895-2.43 26.527zm27.508-23.326 28.476 10.194-10.223 28.556c-13.328-7.983-20.585-23.383-18.253-38.75zm32.375 43.806 10.223-28.555 28.475 10.194c-7.951 13.354-23.331 20.649-38.698 18.361z"/><path d="m294.155 345.397c6.81-4.831 8.419-14.301 3.588-21.111l-19.246-27.127c-2.34-3.298-5.825-5.488-9.812-6.166-3.988-.679-8 .238-11.298 2.578l-29.527 20.949c-6.809 4.831-8.418 14.301-3.588 21.11l4.355 6.139c-.79.788-1.541 1.616-2.244 2.483-11.346 14.011-8.765 35.701 5.637 47.365 9.152 7.412 30.043 9.542 51.255 10.74l1.527.087c.2.012.4.018.599.018 3.125 0 6.116-1.415 8.093-3.857 2.104-2.598 2.833-6.075 1.951-9.3l-.402-1.474c-2.308-8.479-6.386-23.442-11.809-34.687zm-14.872 41.687c-20.999-1.404-33.714-3.797-37.822-7.124-7.719-6.251-9.424-18.004-3.9-25.6l5.957 8.397c2.949 4.156 7.625 6.375 12.371 6.375 3.029 0 6.087-.904 8.74-2.787l6.165-4.374c3.49 7.909 6.478 17.914 8.489 25.113zm6.193-53.92-29.526 20.948c-.063.044-.153.029-.197-.034l-19.246-27.127c-.045-.063-.03-.152.034-.197l29.527-20.948c.02-.014.046-.021.073-.021.048 0 .099.02.124.054l19.246 27.127c.044.063.029.152-.035.198z"/></g></g></svg>