<svg id="Capa_1" enable-background="new 0 0 508.395 508.395" height="512" viewBox="0 0 508.395 508.395" width="512" xmlns="http://www.w3.org/2000/svg"><g><g><g><path d="m314.067 497.752-53.853-38.579c-9.273-6.643-14.758-17.248-14.758-28.535v-312.524h-32.965v312.524c0 11.286-5.485 21.892-14.758 28.535l-53.853 38.579c-1.708 1.224-.327 3.143 2.261 3.143h165.663c2.59.001 3.971-1.919 2.263-3.143z" fill="#f7f9f5"/></g></g><g><g><path d="m314.067 497.752-53.853-38.579c-9.273-6.643-14.758-17.249-14.758-28.535v-312.524h-30v312.524c0 11.286 5.485 21.892 14.758 28.535l53.853 38.579c1.708 1.224.327 3.143-2.261 3.143h30c2.588 0 3.969-1.919 2.261-3.143z" fill="#eceae6"/></g></g><g><g><path d="m311.871 120.922-6.828-54.74-6.828-54.74c39.815-12.448 82.795 5.699 101.641 42.914l-43.993 33.283z" fill="#fef056"/></g></g><g><g><path d="m399.857 54.356c-17.2-33.964-54.501-52.032-91.152-45.47 17.275 3.096 38.988 22.611 51.347 35.049 5.355 5.39 4.734 14.258-1.325 18.842l-32.862 24.862-16.579 12.543 2.587 20.74 43.993-33.283z" fill="#f4d902"/></g></g><g><g><path d="m338.215 42.885h-218.443c-7.176 0-12.511 6.64-10.965 13.647 0 0 25.987 166.788 23.546 201.655-.208 2.977-.282 5.991-.215 9.037 1.144 51.885 43.606 93.976 95.499 94.686 54.127.741 98.236-42.914 98.236-96.87 0-2.563-.1-5.102-.295-7.614-2.613-33.551 23.602-200.893 23.602-200.893 1.546-7.009-3.789-13.648-10.965-13.648z" fill="#f7f9f5"/></g></g><g><g><path d="m338.215 42.885h-30c7.176 0 12.511 6.64 10.965 13.647 0 0-26.215 167.342-23.602 200.894.196 2.512.295 5.051.295 7.614 0 48.392-35.482 88.489-81.848 95.713 4.448.697 8.992 1.094 13.612 1.157 54.126.74 98.236-42.914 98.236-96.87 0-2.563-.1-5.102-.295-7.614-2.613-33.551 23.602-200.894 23.602-200.894 1.546-7.008-3.789-13.647-10.965-13.647z" fill="#eceae6"/></g></g><g><g><path d="m342.497 101.049h-227.045c7.519 52 18.529 133.89 16.902 157.138-.209 2.977-.282 5.992-.215 9.037 1.144 51.885 43.606 93.976 95.499 94.686 54.127.741 98.236-42.914 98.236-96.87 0-2.563-.1-5.102-.295-7.614-1.745-22.385 9.343-104.315 16.918-156.377z" fill="#0ab69f"/></g></g><g><g><path d="m342.497 101.049h-30c-7.574 52.063-18.662 133.992-16.919 156.376.196 2.513.295 5.052.295 7.615 0 48.392-35.482 88.489-81.848 95.713 4.448.697 8.992 1.094 13.612 1.157 54.127.74 98.236-42.914 98.236-96.87 0-2.563-.1-5.102-.295-7.615-1.744-22.384 9.344-104.314 16.919-156.376z" fill="#01998d"/></g></g><g><g><path d="m332.518 174.118c3.164-25.265 6.867-51.686 9.978-73.069h-227.044c3.088 21.359 6.765 47.76 9.914 73.069z" fill="#5de1c4"/></g></g><g><g><path d="m312.497 101.049c-3.111 21.383-6.814 47.804-9.978 73.069h30c3.164-25.265 6.867-51.686 9.978-73.069z" fill="#0ed2b3"/></g></g><g><g><path d="m338.215 42.885h-218.443c-7.176 0-12.511 6.64-10.965 13.647 0 0 25.987 166.788 23.546 201.655-.208 2.977-.282 5.991-.215 9.037 1.144 51.885 43.606 93.976 95.499 94.686 54.127.741 98.236-42.914 98.236-96.87 0-2.563-.1-5.102-.295-7.614-2.613-33.551 23.602-200.893 23.602-200.893 1.546-7.009-3.789-13.648-10.965-13.648z" fill="none"/></g></g><g><g><path d="m342.497 101.049h-227.045c7.519 52 18.529 133.89 16.902 157.138-.209 2.977-.282 5.992-.215 9.037 1.144 51.885 43.606 93.976 95.499 94.686 54.127.741 98.236-42.914 98.236-96.87 0-2.563-.1-5.102-.295-7.614-1.745-22.385 9.343-104.315 16.918-156.377z" fill="none"/></g></g><g><g><path d="m332.518 174.118c3.164-25.265 6.867-51.686 9.978-73.069h-227.044c3.088 21.359 6.765 47.76 9.914 73.069z" fill="none"/></g></g><path d="m406.548 50.968c-20.583-40.646-67.086-60.281-110.57-46.684-3.462 1.083-5.653 4.487-5.204 8.086l2.871 23.015h-117.46c-4.142 0-7.5 3.358-7.5 7.5s3.358 7.5 7.5 7.5h162.031c1.555 0 2.488.873 2.906 1.393.418.521 1.069 1.62.734 3.139-.033.151-.062.302-.085.455-.312 1.992-2.659 17.024-5.767 38.177h-214.053c-3.091-21.162-5.423-36.184-5.733-38.171-.024-.154-.053-.308-.087-.461-.335-1.519.316-2.618.734-3.138.418-.521 1.352-1.394 2.907-1.394h26.412c4.142 0 7.5-3.358 7.5-7.5s-3.358-7.5-7.5-7.5h-26.412c-5.706 0-11.027 2.551-14.601 6.999-3.518 4.378-4.875 10.015-3.744 15.504.619 3.988 9.755 63.109 16.474 116.954.005.053.013.104.02.157 4.478 35.9 7.877 69.43 6.95 82.665-.225 3.213-.303 6.485-.232 9.726.597 27.046 11.583 52.508 30.936 71.695 13.864 13.745 30.914 23.169 49.416 27.545v64.009c0 8.835-4.346 17.223-11.625 22.438l-53.853 38.58c-3.299 2.363-4.66 6.291-3.467 10.005 1.294 4.028 5.352 6.735 10.096 6.735h165.663c4.745 0 8.802-2.707 10.097-6.735 1.192-3.714-.168-7.642-3.467-10.005l-53.854-38.579c-7.28-5.215-11.626-13.603-11.626-22.438v-63.971c18.481-4.318 35.468-13.635 49.335-27.314 20.044-19.771 31.082-46.163 31.082-74.314 0-2.729-.106-5.486-.317-8.197-.99-12.706 2.402-45.979 6.896-81.77.011-.085.024-.17.032-.257 3.185-25.347 6.917-51.924 10.037-73.351.002-.001.004-.002.005-.003l54.356-41.125c2.893-2.19 3.805-6.134 2.167-9.37zm-150.702 414.302 39.261 28.125h-132.265l39.26-28.125c11.202-8.025 17.89-20.971 17.89-34.632v-61.604c2.499.215 5.014.34 7.543.375.492.006.983.01 1.473.01 3.005 0 5.988-.134 8.948-.383v61.603c0 13.66 6.687 26.606 17.89 34.631zm35.912-136.595c-17.159 16.926-39.885 26.073-64.018 25.736-23.147-.316-45.025-9.542-61.603-25.979-16.579-16.437-25.99-38.233-26.501-61.373-.061-2.783.006-5.592.199-8.348.918-13.114-1.959-43.602-5.991-77.093h61.772c4.142 0 7.5-3.358 7.5-7.5s-3.358-7.5-7.5-7.5h-63.627c-2.538-20.027-5.339-40.35-7.871-58.069h209.705c-2.55 17.735-5.369 38.067-7.92 58.069h-100.287c-4.142 0-7.5 3.358-7.5 7.5s3.358 7.5 7.5 7.5h98.42c-4.05 33.432-6.921 63.736-5.936 76.389.181 2.325.272 4.691.272 7.034.001 24.104-9.451 46.704-26.614 63.634zm61.389-248.385c1.889-12.609 3.192-20.993 3.411-22.399 1.132-5.491-.226-11.128-3.744-15.508-3.573-4.447-8.895-6.998-14.6-6.998h-29.454l-2.296-18.409c32.654-7.46 66.251 6.726 83.674 35.328z"/></g></svg>