<svg id="Capa_1" enable-background="new 0 0 508.197 508.197" height="512" viewBox="0 0 508.197 508.197" width="512" xmlns="http://www.w3.org/2000/svg"><g><g><g><path d="m344.01 500.697h-179.822c-10.288 0-18.758-8.087-19.234-18.363l-21.073-454.688c-.509-10.972 8.25-20.146 19.234-20.146h221.968c10.984 0 19.743 9.174 19.234 20.146l-21.073 454.687c-.477 10.277-8.947 18.364-19.234 18.364z" fill="#f7f9f5"/></g></g><g><g><path d="m365.083 7.5h-30c10.984 0 19.743 9.174 19.234 20.146l-21.073 454.687c-.476 10.277-8.947 18.364-19.234 18.364h30c10.288 0 18.758-8.087 19.234-18.364l21.073-454.687c.508-10.972-8.25-20.146-19.234-20.146z" fill="#eceae6"/></g></g><g><g><path d="m127.005 95.072 17.948 387.262c.476 10.277 8.947 18.363 19.234 18.363h179.822c10.288 0 18.758-8.087 19.234-18.363l17.948-387.262z" fill="#e0f3f6"/></g></g><g><g><path d="m351.192 95.072-17.948 387.261c-.476 10.277-8.947 18.364-19.234 18.364h30c10.288 0 18.758-8.087 19.234-18.364l17.948-387.261z" fill="#a6e7f0"/></g></g><g><g><path d="m143.332 447.346 1.622 34.987c.476 10.277 8.947 18.363 19.234 18.363h179.822c10.288 0 18.758-8.087 19.234-18.363l1.622-34.987z" fill="#f7f9f5"/></g></g><g><g><path d="m334.865 447.346-1.622 34.987c-.476 10.277-8.947 18.364-19.234 18.364h30c10.288 0 18.758-8.087 19.234-18.364l1.622-34.987z" fill="#eceae6"/></g></g><g><g><path d="m233.795 353.588-33.704 14.355c-5.875 2.502-12.666-.232-15.168-6.107l-14.354-33.704c-2.502-5.875.232-12.666 6.107-15.168l33.704-14.354c5.875-2.502 12.666.232 15.168 6.107l14.355 33.704c2.501 5.874-.233 12.665-6.108 15.167z" fill="#f7f9f5"/></g></g><g><g><path d="m239.902 338.42-14.354-33.704c-2.502-5.875-9.293-8.609-15.168-6.107l-14.756 6.285 6.209 14.578c6.959 16.339-.645 35.226-16.985 42.185l.076.178c2.502 5.875 9.293 8.609 15.168 6.107l33.704-14.354c5.874-2.502 8.608-9.293 6.106-15.168z" fill="#eceae6"/></g></g><g><g><path d="m341.916 237.388-24.442 24.442c-4.515 4.515-11.836 4.515-16.351 0l-24.442-24.442c-4.515-4.515-4.515-11.836 0-16.351l24.442-24.442c4.515-4.515 11.836-4.515 16.351 0l24.442 24.442c4.516 4.515 4.516 11.836 0 16.351z" fill="#f7f9f5"/></g></g><g><g><path d="m341.916 221.037-24.442-24.442c-4.515-4.515-11.836-4.515-16.351 0l-6.824 6.824 8.646 8.646c9.47 9.47 9.47 24.824 0 34.294l-8.646 8.646 6.824 6.824c4.515 4.515 11.836 4.515 16.351 0l24.442-24.442c4.515-4.515 4.515-11.835 0-16.35z" fill="#eceae6"/></g></g><g><g><circle cx="322.517" cy="143.668" fill="#a6e7f0" r="10.875"/></g></g><g><g><circle cx="205.235" cy="412.622" fill="#a6e7f0" r="10.875"/></g></g><g><g><circle cx="332.535" cy="309.294" fill="#a6e7f0" r="10.875"/></g></g><g><g><path d="m288.667 136.219c-32.092-23.176-77.021-16.965-101.535 14.525s-19.514 76.57 10.827 101.996z" fill="#fee903"/></g></g><g><g><path d="m270.432 159.643c-19.143-13.13-45.443-9.239-59.893 9.323s-11.771 45.012 5.655 60.35z" fill="#fef6ad"/></g></g><g><g><circle cx="307.887" cy="379.556" fill="#ef4424" r="34.003"/></g></g><g><g><path d="m307.887 345.553c-5.385 0-10.475 1.257-15 3.485 11.256 5.543 19.003 17.124 19.003 30.518s-7.748 24.976-19.003 30.519c4.525 2.229 9.615 3.485 15 3.485 18.78 0 34.003-15.224 34.003-34.003 0-18.78-15.223-34.004-34.003-34.004z" fill="#d73d24"/></g></g><g><path d="m232.448 301.777c-4.121-9.67-15.342-14.186-25.008-10.068l-33.703 14.354c-4.685 1.995-8.312 5.695-10.214 10.418-1.901 4.723-1.851 9.904.145 14.589l14.354 33.703c1.995 4.685 5.695 8.312 10.418 10.214 2.303.927 4.713 1.39 7.122 1.39 2.534 0 5.066-.512 7.467-1.535l33.704-14.354c4.685-1.995 8.312-5.695 10.214-10.418 1.901-4.723 1.851-9.904-.145-14.589zm.585 42.69c-.405 1.007-1.179 1.795-2.177 2.22l-33.705 14.355c-.999.425-2.104.435-3.108.031-1.006-.405-1.795-1.178-2.22-2.177l-14.354-33.703c-.425-.999-.437-2.103-.031-3.109.405-1.007 1.179-1.795 2.177-2.22l33.704-14.355c.518-.22 1.056-.325 1.586-.325 1.58 0 3.086.928 3.743 2.471l14.354 33.703c.425.999.436 2.103.031 3.109z"/><path d="m271.379 215.733c-3.601 3.601-5.584 8.387-5.584 13.479s1.983 9.879 5.583 13.479l24.442 24.443c3.716 3.716 8.597 5.573 13.479 5.573 4.881 0 9.763-1.858 13.479-5.574l24.441-24.442c3.6-3.6 5.583-8.387 5.583-13.479s-1.983-9.878-5.583-13.479l-24.442-24.442c-7.431-7.431-19.523-7.432-26.958 0zm37.92-15.023c1.04 0 2.081.396 2.872 1.188l24.442 24.442c.767.767 1.189 1.787 1.189 2.872s-.423 2.105-1.189 2.872h-.001l-24.44 24.442c-1.584 1.584-4.163 1.583-5.745 0l-24.442-24.443c-.767-.767-1.189-1.787-1.189-2.872 0-1.084.423-2.104 1.19-2.872l24.44-24.441c.792-.792 1.833-1.188 2.873-1.188z"/><path d="m193.142 258.488c1.356 1.137 3.064 1.751 4.817 1.751.264 0 .528-.014.793-.042 2.024-.215 3.875-1.244 5.125-2.851l18.233-23.421c.001-.001.002-.002.002-.003l54.238-69.672c.002-.003.004-.006.006-.009l18.228-23.415c1.251-1.606 1.795-3.652 1.507-5.668-.288-2.015-1.383-3.827-3.033-5.019-17.128-12.37-38.096-17.55-59.052-14.583-21.008 2.975-39.756 13.835-52.793 30.582-13.036 16.747-18.966 37.587-16.695 58.682 2.264 21.037 12.43 40.097 28.624 53.668zm23.315-84.915c7.208-9.259 18.053-14.161 29.033-14.161 4.59 0 9.204.856 13.585 2.609l-43.361 55.7c-9.41-12.95-9.477-31.019.743-44.148zm-23.407-18.222c13.111-16.842 32.587-25.699 52.34-25.699 11.038 0 22.16 2.765 32.309 8.447l-9.152 11.756c-21.694-10.852-48.627-5.148-63.926 14.503-15.298 19.652-14.22 47.162 1.622 65.53l-9.152 11.756c-22.312-23.555-24.478-60.04-4.041-86.293z"/><path d="m384.434 8.28c-5.097-5.34-11.97-8.28-19.351-8.28h-221.969c-7.381 0-14.254 2.94-19.351 8.28-5.098 5.339-7.717 12.34-7.375 19.714l21.072 454.687c.664 14.309 12.403 25.517 26.727 25.517h179.823c14.323 0 26.063-11.208 26.727-25.517l21.072-454.687c.341-7.374-2.278-14.375-7.375-19.714zm-40.424 484.917h-179.822c-6.293 0-11.451-4.924-11.742-11.211l-1.258-27.14h76.134c4.143 0 7.5-3.358 7.5-7.5s-3.357-7.5-7.5-7.5h-76.829l-15.631-337.274h19.986c4.143 0 7.5-3.358 7.5-7.5s-3.357-7.5-7.5-7.5h-20.681l-2.793-60.273c-.15-3.239 1-6.315 3.24-8.661 2.239-2.346 5.258-3.638 8.501-3.638h221.969c3.243 0 6.262 1.292 8.501 3.638 2.24 2.346 3.391 5.422 3.24 8.662l-2.793 60.273h-189.184c-4.143 0-7.5 3.358-7.5 7.5s3.357 7.5 7.5 7.5h188.488l-15.631 337.274h-100.384c-4.143 0-7.5 3.358-7.5 7.5s3.357 7.5 7.5 7.5h99.688l-1.258 27.14c-.29 6.286-5.448 11.21-11.741 11.21z"/><path d="m307.887 338.053c-6.388 0-12.443 1.454-17.854 4.043-18.038-10.879-26.653-46.664-28.503-60.244-.556-4.102-4.33-6.975-8.434-6.425-4.105.554-6.984 4.33-6.431 8.435.293 2.174 6.743 47.942 30.708 67.598-6.817 7.398-10.99 17.268-10.99 28.097 0 22.885 18.618 41.503 41.503 41.503 22.886 0 41.504-18.618 41.504-41.503s-18.618-41.504-41.503-41.504zm0 68.007c-14.613 0-26.503-11.889-26.503-26.503s11.89-26.503 26.503-26.503c14.614 0 26.504 11.889 26.504 26.503s-11.89 26.503-26.504 26.503z"/></g></g></svg>