<svg id="Capa_1" enable-background="new 0 0 506.377 506.377" height="512" viewBox="0 0 506.377 506.377" width="512" xmlns="http://www.w3.org/2000/svg"><g><g><g><circle cx="141.081" cy="67.891" fill="#fe9901" r="60.391"/></g></g><g><g><path d="m362.506 495.875-48.579-36.839c-8.365-6.343-13.313-16.471-13.313-27.248v-250.685h-29.737v250.685c0 10.777-4.948 20.905-13.313 27.248l-48.579 36.839c-1.541 1.168-.295 3.001 2.04 3.001h149.441c2.335.001 3.581-1.832 2.04-3.001z" fill="#f7f9f5"/></g></g><g><g><path d="m362.506 495.875-48.579-36.839c-8.365-6.343-13.313-16.471-13.313-27.248v-250.685h-29.737v250.685c0 .965-.053 1.921-.132 2.874.795 9.684 5.565 18.599 13.181 24.375l48.579 36.839c1.541 1.168.295 3.001-2.04 3.001h30c2.336 0 3.582-1.833 2.041-3.002z" fill="#eceae6"/></g></g><g><g><path d="m294.676 307.948c-3.969 6.874-13.891 6.874-17.86 0l-64.801-112.238-64.8-112.238c-3.969-6.874.992-15.467 8.93-15.467h129.601 129.601c7.938 0 12.899 8.593 8.93 15.467l-64.801 112.238z" fill="#f7f9f5"/></g></g><g><g><path d="m415.347 68.005h-30c7.938 0 12.899 8.593 8.93 15.467l-64.801 112.238-58.73 101.725 6.07 10.514c3.969 6.874 13.891 6.874 17.86 0l64.801-112.238 64.801-112.238c3.968-6.875-.993-15.468-8.931-15.468z" fill="#eceae6"/></g></g><g><g><path d="m157.081 100.561 54.935 95.149 64.801 112.238c3.969 6.874 13.891 6.874 17.86 0l64.801-112.238 54.935-95.149z" fill="#fdb441"/></g></g><g><g><path d="m384.411 100.561-54.935 95.149-58.73 101.725 6.07 10.514c3.969 6.874 13.891 6.874 17.86 0l64.801-112.238 54.935-95.149h-30.001z" fill="#fea613"/></g></g><g><g><path d="m289.764 166.844c-8.154-12.665-8.383-28.148-1.967-40.651-6.911.328-13.831 2.412-20.067 6.427-18.901 12.169-24.358 37.357-12.189 56.257 12.169 18.901 37.356 24.358 56.257 12.189 6.236-4.015 10.998-9.451 14.157-15.607-14.037.667-28.037-5.95-36.191-18.615z" fill="#fe9901"/></g></g><g><g><path d="m289.764 166.844c-8.154-12.666-8.383-28.148-1.967-40.651-6.911.328-13.831 2.413-20.067 6.427-6.31 4.063-11.113 9.581-14.271 15.828.562 6.351 2.613 12.662 6.305 18.396 4.971 7.721 12.115 13.194 20.115 16.14 7.767 2.86 9.04 13.445 2.106 17.962-.062.04-.124.081-.187.121-2.261 1.456-4.614 2.652-7.022 3.611 11.783 4.656 25.557 3.771 37.022-3.611 6.236-4.015 10.998-9.451 14.157-15.606-14.037.665-28.037-5.952-36.191-18.617z" fill="#fb8801"/></g></g><g><path d="m294.102 122.133c-1.448-2.25-3.98-3.562-6.661-3.432-8.438.4-16.657 3.033-23.771 7.613-10.826 6.97-18.29 17.739-21.017 30.322s-.39 25.476 6.581 36.301c6.97 10.826 17.738 18.29 30.321 21.016 3.428.743 6.878 1.11 10.304 1.11 9.149 0 18.121-2.619 25.997-7.69 7.114-4.579 12.913-10.973 16.771-18.488 1.222-2.382 1.082-5.234-.366-7.484-1.449-2.251-3.996-3.559-6.662-3.432-11.802.559-23.138-5.258-29.529-15.185-6.392-9.928-7.005-22.637-1.601-33.167 1.222-2.381 1.082-5.234-.367-7.484zm17.92 69.347c-1.332 1.204-2.765 2.303-4.285 3.281-7.455 4.801-16.333 6.413-25.004 4.533-8.668-1.878-16.085-7.02-20.887-14.477-4.801-7.457-6.41-16.337-4.532-25.005s7.019-16.085 14.477-20.886c1.52-.979 3.111-1.828 4.76-2.542-2.083 11.812.263 24.199 6.906 34.52.001 0 .001 0 .001.001 6.645 10.32 16.95 17.581 28.564 20.575z"/><path d="m430.772 87.222c3.22-5.577 3.22-12.235 0-17.812-3.22-5.576-8.986-8.905-15.425-8.905h-76.655c-4.143 0-7.5 3.358-7.5 7.5s3.357 7.5 7.5 7.5h76.655c1.412 0 2.131.88 2.435 1.406.303.525.706 1.588 0 2.812l-7.701 13.338h-180.905c-4.143 0-7.5 3.358-7.5 7.5s3.357 7.5 7.5 7.5h172.244l-113.24 196.137c-.706 1.223-1.828 1.406-2.435 1.406s-1.729-.183-2.435-1.406l-113.24-196.138h29.105c4.143 0 7.5-3.358 7.5-7.5s-3.357-7.5-7.5-7.5h-37.766l-7.701-13.338c-.706-1.223-.303-2.287 0-2.812.304-.525 1.022-1.406 2.435-1.406h152.548c4.143 0 7.5-3.358 7.5-7.5s-3.357-7.5-7.5-7.5h-100.135c-1.771-16.336-9.379-31.428-21.543-42.609-12.556-11.54-28.868-17.895-45.932-17.895-37.435 0-67.891 30.456-67.891 67.891s30.456 67.891 67.891 67.891c8.663 0 17.018-1.614 24.931-4.751l97.366 168.642v132.116c0 8.408-3.867 16.36-10.345 21.272l-48.581 36.84c-3.163 2.4-4.414 6.304-3.189 9.946 1.314 3.906 5.237 6.531 9.763 6.531h149.441c4.525 0 8.449-2.625 9.763-6.532 1.225-3.643-.028-7.547-3.191-9.946l-48.579-36.839c-6.478-4.912-10.345-12.864-10.345-21.272v-132.117zm-285.378-72.036c11.238.912 21.855 5.374 30.396 12.814l-28.159 25.846zm17.165 45.319 23.047-21.154c4.095 6.375 6.792 13.571 7.851 21.154zm-32.138-44.425 2.456 42.445-36.675-18.574c7.546-12.078 19.82-20.913 34.219-23.871zm-42.231 51.811c0-4.917.689-9.675 1.951-14.195l37.155 18.816-28.85 26.48c-.022.02-.04.042-.062.063-6.402-8.747-10.194-19.519-10.194-31.164zm52.891 52.89c-12.119 0-23.291-4.107-32.22-10.989l29.921-27.463c.397 1.684 1.036 3.331 1.938 4.893l17.693 30.645c-5.537 1.926-11.339 2.914-17.332 2.914zm168.313 344.231 34.767 26.365h-116.831l34.768-26.365c10.194-7.731 16.28-20.151 16.28-33.224v-112.761c2.264 1.022 4.759 1.577 7.368 1.577s5.104-.555 7.368-1.577v112.761c0 13.073 6.086 25.493 16.28 33.224z"/></g></g></svg>