<svg id="Capa_1" enable-background="new 0 0 507.833 507.833" height="512" viewBox="0 0 507.833 507.833" width="512" xmlns="http://www.w3.org/2000/svg"><g><g><g><path d="m394.406 207.212c49.477-32.155 64.347-98.122 33.032-148.449s-97.065-66.131-147.77-35.949z" fill="#0ed290"/></g></g><g><g><path d="m427.438 58.763c-23.412-37.627-66.072-55.953-107.303-50.194 30.818 4.286 59.577 21.707 77.303 50.194 26.651 42.832 19.844 96.987-13.273 131.991l10.241 16.458c49.478-32.154 64.347-98.122 33.032-148.449z" fill="#00c285"/></g></g><g><g><path d="m331.754 500.333h-225.851c-15.486 0-28.16-12.322-28.596-27.802l-.133-3.671c-.108-3.004.142-6.01.745-8.955l2.602-12.693c1.181-5.764 1.001-11.724-.527-17.406l-2.68-9.967c-1.453-5.405-1.688-11.065-.688-16.571l2.262-12.456c.94-5.174.79-10.488-.441-15.601l-3.671-15.253c-1.192-4.955-1.371-10.099-.524-15.124l3.127-18.565c.485-2.88.635-5.806.446-8.72l-13.842-213.967c-.47-13 9.942-23.795 22.951-23.795h263.79c13.009 0 23.421 10.795 22.951 23.795l-17.683 211.12c-.4 4.779.112 9.59 1.51 14.177l3.431 11.258c2.433 7.984 2.156 16.548-.788 24.358l-2.273 6.029c-3.036 8.052-3.234 16.899-.561 25.079l.838 2.565c2.837 8.68 2.435 18.094-1.13 26.501l-.019.045c-3.742 8.824-3.992 18.74-.701 27.741l1.803 4.932c1.679 4.59 2.451 9.463 2.275 14.347l-.029.796c-.434 15.481-13.108 27.803-28.594 27.803z" fill="#f7f9f5"/></g></g><g><g><path d="m373.675 103.582c.469-13-9.942-23.795-22.951-23.795h-30c13.009 0 23.421 10.795 22.951 23.795l-17.683 211.12c-.4 4.779.112 9.59 1.51 14.177l3.431 11.258c2.433 7.983 2.156 16.548-.788 24.358l-2.273 6.029c-3.036 8.052-3.234 16.899-.561 25.079l.838 2.565c2.837 8.68 2.435 18.094-1.13 26.501l-.019.045c-3.742 8.824-3.992 18.74-.701 27.741l1.803 4.932c1.679 4.59 2.451 9.463 2.275 14.347l-.029.796c-.436 15.479-13.11 27.802-28.596 27.802h30c15.486 0 28.16-12.322 28.596-27.802l.029-.796c.176-4.884-.596-9.757-2.275-14.347l-1.803-4.932c-3.292-9.001-3.041-18.917.701-27.741l.019-.045c3.565-8.407 3.966-17.821 1.13-26.501l-.838-2.565c-2.673-8.18-2.475-17.027.561-25.079l2.273-6.029c2.945-7.81 3.222-16.375.788-24.358l-3.431-11.258c-1.398-4.587-1.911-9.398-1.51-14.177z" fill="#eceae6"/></g></g><g><g><path d="m360.146 364.496c2.945-7.81 3.222-16.374.788-24.358l-3.431-11.258c-1.398-4.587-1.911-9.398-1.511-14.177l12.222-145.917h-300.013l9.625 148.764c.189 2.914.039 5.84-.446 8.72l-3.127 18.565c-.846 5.025-.668 10.17.524 15.124l3.671 15.252c1.231 5.113 1.381 10.427.441 15.601l-2.262 12.456c-1 5.507-.765 11.167.688 16.571l2.68 9.967c1.528 5.682 1.708 11.642.527 17.406l-2.601 12.693c-.604 2.945-.854 5.951-.745 8.955l.133 3.671c.436 15.48 13.11 27.802 28.596 27.802h225.851c15.486 0 28.16-12.322 28.596-27.802l.029-.796c.176-4.885-.596-9.757-2.275-14.347l-1.803-4.932c-3.292-9.002-3.041-18.917.7-27.741l.019-.045c3.565-8.407 3.966-17.821 1.13-26.501l-.838-2.565c-2.673-8.18-2.475-17.027.561-25.079z" fill="#fef056"/></g></g><g><g><path d="m360.146 364.495c2.945-7.81 3.222-16.375.788-24.358l-3.431-11.258c-1.398-4.587-1.911-9.398-1.511-14.177l12.222-145.916h-30l-12.222 145.916c-.4 4.779.112 9.59 1.511 14.177l3.431 11.258c2.433 7.983 2.156 16.548-.788 24.358l-2.273 6.029c-3.036 8.052-3.234 16.899-.561 25.079l.838 2.565c2.837 8.68 2.435 18.094-1.13 26.501l-.019.045c-3.742 8.824-3.992 18.74-.701 27.741l1.803 4.932c1.679 4.59 2.451 9.463 2.275 14.347l-.029.796c-.436 15.479-13.11 27.802-28.596 27.802h30c15.486 0 28.16-12.322 28.596-27.802l.029-.796c.176-4.884-.596-9.757-2.275-14.347l-1.803-4.932c-3.292-9.001-3.041-18.917.701-27.741l.019-.045c3.565-8.407 3.966-17.821 1.13-26.501l-.838-2.565c-2.673-8.18-2.475-17.027.561-25.079z" fill="#fee903"/></g></g><g><g><path d="m362.59 235.927 5.624-67.141h-300.013l4.344 67.141z" fill="#fef6ad"/></g></g><g><g><path d="m338.214 168.786-5.624 67.141h30l5.624-67.141z" fill="#fef056"/></g></g><g><g><circle cx="303.664" cy="309.12" fill="#f4d902" r="12.482"/></g></g><g><g><circle cx="227.556" cy="355.402" fill="#f4d902" r="12.482"/></g></g><g><g><circle cx="125.627" cy="403.667" fill="#f4d902" r="12.482"/></g></g><g><g><circle cx="283.692" cy="436.953" fill="#f4d902" r="16.506"/></g></g><path d="m433.812 54.809c-.002-.003-.003-.006-.005-.009s-.004-.006-.006-.009c-16.175-25.99-41.464-44.273-71.209-51.483-29.705-7.199-60.515-2.561-86.759 13.061-1.731 1.031-2.975 2.714-3.452 4.672-.476 1.958-.145 4.024.919 5.735l28.318 45.511h-76.043c-4.142 0-7.5 3.358-7.5 7.5s3.358 7.5 7.5 7.5h118.435c.01 0 .02.001.03.001.011 0 .022-.001.033-.001h6.65c4.237 0 8.19 1.679 11.131 4.729 2.904 3.011 4.438 6.96 4.33 11.135l-4.869 58.135h-218.74l-10.358-73.999h63.358c4.142 0 7.5-3.358 7.5-7.5s-3.358-7.5-7.5-7.5h-65.458l-9.011-64.374c-.574-4.102-4.362-6.96-8.467-6.388-4.102.574-6.962 4.365-6.388 8.467l8.72 62.294h-28.037c-8.346 0-16.134 3.309-21.928 9.316s-8.819 13.909-8.518 22.25c.002.071.006.142.011.213l13.844 213.968c.151 2.334.031 4.686-.358 6.99l-3.127 18.566c-1.02 6.056-.808 12.154.628 18.125l3.671 15.252c.993 4.124 1.111 8.332.354 12.506l-2.263 12.456c-1.191 6.558-.905 13.425.825 19.859l2.68 9.968c1.218 4.531 1.364 9.355.422 13.952l-2.602 12.693c-.723 3.527-1.023 7.138-.893 10.731l.13 3.611c.554 19.677 16.408 35.091 36.093 35.091h225.851c19.685 0 35.539-15.414 36.091-35.031l.029-.797c.212-5.882-.705-11.667-2.726-17.193l-1.803-4.932c-2.648-7.242-2.449-15.139.581-22.283 4.273-10.077 4.753-21.355 1.354-31.757l-.838-2.567c-2.135-6.533-1.976-13.672.45-20.104l2.273-6.029c3.509-9.309 3.845-19.675.944-29.19l-3.432-11.259c-1.125-3.693-1.533-7.517-1.211-11.364l10.604-126.604 13.969 22.45c1.064 1.71 2.772 2.921 4.739 3.358.539.12 1.085.179 1.629.179 1.439 0 2.861-.415 4.087-1.211 25.609-16.643 43.382-42.235 50.046-72.063 6.672-29.87 1.442-60.634-14.728-86.627zm2.206 69.397-55.752-9.463.882-10.535c.01-.118.017-.237.021-.355.087-2.42-.114-4.8-.573-7.111l44.204-27.504c8.933 17.003 12.776 35.959 11.218 54.968zm-145.79-98.619c18.272-9.106 38.647-12.404 58.825-9.588l-11.177 56.288h-18.59zm62.92 46.803 10.575-53.253c21.479 6.285 39.991 19.346 53.128 37.38l-42.81 26.637c-.446-.528-.904-1.049-1.389-1.552-5.229-5.421-12.083-8.635-19.504-9.212zm-277.346 19.626c2.941-3.049 6.895-4.729 11.132-4.729h30.137l10.358 73.999h-52.197l-3.757-58.07c-.127-4.2 1.407-8.174 4.327-11.2zm.4 84.27h53.326l7.299 52.142h-57.251zm276.926 185.564-2.272 6.029c-3.625 9.615-3.864 20.288-.672 30.054l.838 2.567c2.274 6.958 1.953 14.503-.924 21.288-4.5 10.612-4.799 22.418-.84 33.245l1.803 4.932c1.352 3.697 1.966 7.566 1.824 11.5l-.031.856c-.324 11.502-9.592 20.513-21.099 20.513h-225.852c-11.507 0-20.775-9.01-21.101-20.572l-.132-3.672c-.087-2.404.114-4.819.597-7.178l2.602-12.693c1.409-6.873 1.19-14.085-.631-20.859l-2.68-9.968c-1.158-4.304-1.349-8.897-.552-13.283l2.263-12.456c1.133-6.241.955-12.531-.528-18.696l-3.671-15.252c-.961-3.994-1.103-8.073-.42-12.124l3.126-18.565c.581-3.445.761-6.961.535-10.45l-4.764-73.639h58.38l32.084 229.212c.525 3.75 3.737 6.461 7.418 6.461.346 0 .696-.024 1.049-.073 4.102-.574 6.962-4.365 6.388-8.467l-31.793-227.133h73.483c4.142 0 7.5-3.358 7.5-7.5s-3.358-7.5-7.5-7.5h-75.583l-7.299-52.142h215.384l-4.367 52.142h-98.136c-4.142 0-7.5 3.358-7.5 7.5s3.358 7.5 7.5 7.5h96.879l-5.917 70.649c-.482 5.752.127 11.469 1.81 16.99l3.431 11.259c1.942 6.364 1.717 13.298-.63 19.525zm43.455-165.337-20.417-32.813 2.844-33.957 54.679 9.281c-5.371 23.109-18.405 43.248-37.106 57.489z"/></g></svg>