<svg id="Capa_1" enable-background="new 0 0 510.127 510.127" height="512" viewBox="0 0 510.127 510.127" width="512" xmlns="http://www.w3.org/2000/svg"><g><g><g><path d="m404.242 502.527h-64.471c-6.673 0-12.174-5.229-12.513-11.893l-8.726-171.571c-.364-7.161 5.344-13.166 12.513-13.166h81.922c7.17 0 12.878 6.005 12.513 13.166l-8.726 171.571c-.338 6.664-5.84 11.893-12.512 11.893z" fill="#f7f9f5"/></g></g><g><g><path d="m412.967 305.897h-30c7.17 0 12.877 6.005 12.513 13.166l-8.726 171.57c-.339 6.664-5.841 11.893-12.513 11.893h30c6.672 0 12.174-5.229 12.513-11.893l8.726-171.57c.365-7.16-5.343-13.166-12.513-13.166z" fill="#eceae6"/></g></g><g><g><path d="m210.811 158.171c-.692 0-1.252-.561-1.252-1.252v-148.167c0-.692-.561-1.252-1.252-1.252h-62.887c-.692 0-1.252.561-1.252 1.252v148.166c0 .692-.561 1.252-1.252 1.252-32.189 0-58.283 26.094-58.283 58.283v268.187c0 9.934 8.053 17.987 17.987 17.987h148.488c9.934 0 17.987-8.053 17.987-17.987v-268.186c-.001-32.189-26.096-58.283-58.284-58.283z" fill="#fedba6"/></g></g><g><g><path d="m210.811 158.171c-.692 0-1.252-.561-1.252-1.252v-148.167c0-.692-.561-1.252-1.252-1.252h-30c.692 0 1.252.561 1.252 1.252v148.166c0 .692.561 1.252 1.252 1.252 32.189 0 58.283 26.094 58.283 58.283v268.187c0 9.934-8.053 17.987-17.987 17.987h30c9.934 0 17.987-8.053 17.987-17.987v-268.186c0-32.189-26.095-58.283-58.283-58.283z" fill="#fece85"/></g></g><g><g><path d="m84.631 396.879v87.76c0 9.934 8.053 17.987 17.987 17.987h148.488c9.934 0 17.987-8.053 17.987-17.987v-87.761h-184.462z" fill="#fe7d43"/></g></g><g><g><path d="m239.094 396.879v87.761c0 9.934-8.053 17.987-17.987 17.987h30c9.934 0 17.987-8.053 17.987-17.987v-87.761z" fill="#fd6930"/></g></g><g><g><path d="m209.558 90.686v-81.934c0-.692-.561-1.252-1.252-1.252h-62.887c-.692 0-1.252.561-1.252 1.252v81.934z" fill="#3a363d"/></g></g><g><g><path d="m208.306 7.5h-30c.692 0 1.252.561 1.252 1.252v81.934h30v-81.934c0-.691-.56-1.252-1.252-1.252z" fill="#332f36"/></g></g><g><g><ellipse cx="176.571" cy="280.082" fill="#fec165" rx="53.247" ry="78.007"/></g></g><g><g><path d="m176.571 202.075c-5.211 0-10.241 1.116-15 3.16 22.102 9.492 38.247 39.398 38.247 74.847s-16.146 65.355-38.247 74.847c4.759 2.044 9.789 3.16 15 3.16 29.408 0 53.247-34.925 53.247-78.007s-23.84-78.007-53.247-78.007z" fill="#fdb441"/></g></g><g><g><path d="m228.286 298.657c.993-5.955 1.531-12.172 1.531-18.575 0-5.683-.426-11.218-1.213-16.555h-104.068c-.788 5.337-1.213 10.872-1.213 16.555 0 6.403.538 12.62 1.531 18.575z" fill="#3a363d"/></g></g><g><g><path d="m228.605 263.527h-30c.788 5.337 1.213 10.872 1.213 16.555 0 6.403-.538 12.62-1.531 18.575h30c.993-5.955 1.531-12.172 1.531-18.575 0-5.683-.426-11.218-1.213-16.555z" fill="#332f36"/></g></g><g><g><path d="m420.868 409.769 4.613-90.705c.364-7.161-5.344-13.166-12.513-13.166h-81.922c-7.17 0-12.878 6.005-12.513 13.166l4.613 90.705c1.323 26.021 22.807 46.44 48.861 46.44 26.054-.001 47.537-20.419 48.861-46.44z" fill="#fec165"/></g></g><g><g><path d="m412.967 305.897h-30c7.17 0 12.878 6.005 12.514 13.166l-4.613 90.706c-1.058 20.8-15.003 38.007-33.861 44.081 4.734 1.524 9.772 2.359 15 2.359 26.054 0 47.538-20.419 48.861-46.439l4.613-90.706c.364-7.161-5.344-13.167-12.514-13.167z" fill="#fdb441"/></g></g><g><path d="m427.485 304.628c-3.764-3.96-9.056-6.231-14.519-6.231h-20.969c-4.143 0-7.5 3.358-7.5 7.5s3.357 7.5 7.5 7.5h20.969c1.393 0 2.687.556 3.646 1.565s1.448 2.33 1.378 3.72l-4.613 90.701v.005c-1.121 22.049-19.294 39.32-41.371 39.32-22.067 0-40.233-17.256-41.369-39.291l-4.615-90.735c-.07-1.391.419-2.712 1.377-3.721.959-1.009 2.254-1.564 3.646-1.564h30.953c4.143 0 7.5-3.358 7.5-7.5s-3.357-7.5-7.5-7.5h-30.953c-5.463 0-10.754 2.271-14.518 6.23-3.764 3.96-5.763 9.36-5.485 14.816l4.612 90.691v.015c0 .01.002.02.002.03l4.111 80.835c.542 10.661 9.328 19.012 20.003 19.012h64.471c10.675 0 19.462-8.351 20.004-19.012l8.726-171.57c.277-5.455-1.722-10.856-5.486-14.816zm-23.244 190.399h-64.471c-2.68 0-4.887-2.097-5.022-4.774l-2.167-42.604c10.19 9.951 24.113 16.059 39.425 16.059s29.236-6.108 39.426-16.06l-2.167 42.604c-.136 2.678-2.343 4.775-5.024 4.775z"/><path d="m217.058 150.965v-142.213c0-4.826-3.926-8.752-8.752-8.752h-62.887c-4.826 0-8.752 3.926-8.752 8.752v142.213c-33.353 3.158-59.536 31.323-59.536 65.489v39.786c0 4.142 3.358 7.5 7.5 7.5s7.5-3.358 7.5-7.5v-39.786c0-28.002 22.781-50.783 50.783-50.783 4.826 0 8.752-3.926 8.752-8.752v-58.733h50.391v58.732c0 4.826 3.926 8.752 8.752 8.752 28.002 0 50.783 22.781 50.783 50.783v172.925h-169.461v-103.138c0-4.142-3.358-7.5-7.5-7.5s-7.5 3.358-7.5 7.5v110.64 87.76c0 14.054 11.434 25.488 25.487 25.488h148.488c14.054 0 25.487-11.434 25.487-25.487v-87.761-180.426c.001-34.165-26.182-62.331-59.535-65.489zm-65.391-67.779v-68.186h50.391v68.186zm109.927 401.454c0 .723-.073 1.429-.213 2.111-.98 4.774-5.214 8.376-10.274 8.376h-148.488c-5.783 0-10.487-4.705-10.487-10.487v-80.26h169.462z"/><path d="m176.571 365.589c16.777 0 32.349-9.276 43.846-26.12 10.899-15.967 16.901-37.058 16.901-59.388s-6.002-43.42-16.901-59.388c-11.497-16.843-27.068-26.12-43.846-26.12s-32.349 9.276-43.846 26.12c-10.899 15.967-16.901 37.058-16.901 59.388s6.002 43.421 16.901 59.388c11.497 16.844 27.068 26.12 43.846 26.12zm31.456-34.576c-8.617 12.624-19.788 19.576-31.457 19.576s-22.84-6.952-31.457-19.576c-4.886-7.158-8.595-15.615-11.014-24.856h84.941c-2.418 9.241-6.126 17.698-11.013 24.856zm-77.112-55.193c.01-.259.026-.516.038-.774.061-1.287.14-2.574.248-3.857.004-.054.009-.108.013-.162h90.713c.004.054.009.107.013.162.108 1.285.186 2.572.248 3.86.012.257.028.513.038.771.057 1.422.091 2.844.091 4.263 0 1.063-.022 2.122-.052 3.177-.014.471-.035.941-.056 1.412-.022.524-.048 1.047-.078 1.569-.038.661-.079 1.321-.13 1.98-.013.176-.03.351-.044.527-.066.805-.137 1.608-.221 2.41h-90.335c-.084-.802-.156-1.607-.221-2.413-.014-.175-.03-.349-.043-.523-.051-.66-.091-1.321-.13-1.982-.029-.521-.055-1.043-.077-1.566-.02-.471-.041-.943-.056-1.414-.031-1.055-.052-2.113-.052-3.177.001-1.42.035-2.842.093-4.263zm14.199-46.669c8.617-12.624 19.789-19.576 31.457-19.576s22.84 6.952 31.457 19.576c5.241 7.678 9.138 16.843 11.529 26.876h-85.971c2.39-10.033 6.287-19.198 11.528-26.876z"/><path d="m146.226 449.833h61.273c4.142 0 7.5-3.358 7.5-7.5s-3.358-7.5-7.5-7.5h-61.273c-4.142 0-7.5 3.358-7.5 7.5s3.358 7.5 7.5 7.5z"/></g></g></svg>