<svg id="Capa_1" enable-background="new 0 0 510.127 510.127" height="512" viewBox="0 0 510.127 510.127" width="512" xmlns="http://www.w3.org/2000/svg"><g><g><g><path d="m439.241 502.527h-134.47c-6.673 0-12.174-5.229-12.513-11.893l-8.726-171.571c-.364-7.161 5.344-13.166 12.513-13.166h151.922c7.17 0 12.878 6.005 12.513 13.166l-8.726 171.571c-.338 6.664-5.84 11.893-12.513 11.893z" fill="#f7f9f5"/></g></g><g><g><path d="m447.967 305.897h-30c7.17 0 12.877 6.005 12.513 13.166l-8.726 171.57c-.339 6.664-5.841 11.893-12.513 11.893h30c6.673 0 12.174-5.229 12.513-11.893l8.726-171.57c.364-7.16-5.343-13.166-12.513-13.166z" fill="#eceae6"/></g></g><g><g><path d="m175.81 118.171c-.692 0-1.252-.561-1.252-1.252v-108.167c0-.692-.561-1.252-1.252-1.252h-62.887c-.692 0-1.252.561-1.252 1.252v108.166c0 .692-.561 1.252-1.252 1.252-32.189 0-58.283 26.094-58.283 58.283v308.187c0 9.934 8.053 17.987 17.987 17.987h148.488c9.934 0 17.987-8.053 17.987-17.987v-308.186c-.001-32.189-26.095-58.283-58.284-58.283z" fill="#fe9901"/></g></g><g><g><path d="m175.81 118.171c-.692 0-1.252-.561-1.252-1.252v-108.167c0-.692-.561-1.252-1.252-1.252h-30c.692 0 1.252.561 1.252 1.252v108.166c0 .692.561 1.252 1.252 1.252 32.189 0 58.283 26.094 58.283 58.283v308.187c0 9.934-8.053 17.987-17.987 17.987h30c9.934 0 17.987-8.053 17.987-17.987v-308.186c0-32.189-26.094-58.283-58.283-58.283z" fill="#fb8801"/></g></g><g><g><path d="m234.093 376.26v-119.835l-184.462-70v119.835z" fill="#0290cf"/></g></g><g><g><path d="m204.093 364.876 30 11.384v-119.835l-30-11.384z" fill="#017bae"/></g></g><g><g><path d="m234.093 351.26v-69.835l-184.462-70v69.835z" fill="#fd5426"/></g></g><g><g><path d="m200.994 262.351v.414l3.099 1.269v74.942l30 12.284v-75.356z" fill="#ef4424"/></g></g><g><g><path d="m174.558 90.686v-81.934c0-.692-.561-1.252-1.252-1.252h-62.887c-.692 0-1.252.561-1.252 1.252v81.934z" fill="#3a363d"/></g></g><g><g><path d="m173.306 7.5h-30c.692 0 1.252.561 1.252 1.252v81.934h30v-81.934c0-.691-.561-1.252-1.252-1.252z" fill="#332f36"/></g></g><g><g><path d="m286.707 381.503.162 3.179c2.038 40.077 35.127 71.526 75.256 71.526h19.762c40.129 0 73.218-31.449 75.256-71.526l.162-3.179z" fill="#fe9901"/></g></g><g><g><path d="m427.305 381.503-.162 3.179c-1.951 38.357-32.35 68.791-70.137 71.333 1.694.114 3.397.193 5.119.193h19.762c40.129 0 73.218-31.449 75.256-71.526l.162-3.179z" fill="#fb8801"/></g></g><g><g><path d="m174.083 453.074h-65.79c-14.69 0-26.599-11.909-26.599-26.599 0-14.69 11.909-26.599 26.599-26.599h65.79c14.69 0 26.599 11.909 26.599 26.599 0 14.691-11.909 26.599-26.599 26.599z" fill="#fec165"/></g></g><g><path d="m182.058 110.965v-102.213c0-4.826-3.926-8.752-8.752-8.752h-62.887c-4.826 0-8.752 3.926-8.752 8.752v102.212c-33.353 3.158-59.536 31.324-59.536 65.489v243.991c0 4.142 3.357 7.5 7.5 7.5s7.5-3.358 7.5-7.5v-103.316l169.463 64.308v103.204c0 5.783-4.705 10.487-10.487 10.487h-148.489c-5.782 0-10.487-4.705-10.487-10.487v-34.194c0-4.142-3.357-7.5-7.5-7.5s-7.5 3.358-7.5 7.5v34.194c0 14.054 11.434 25.487 25.487 25.487h148.488c14.054 0 25.487-11.434 25.487-25.487v-308.186c.001-34.165-26.183-62.331-59.535-65.489zm-15-95.965v68.186h-50.391v-68.186zm-109.927 207.293 169.463 64.308v53.792l-169.463-64.309zm169.463 48.264-169.463-64.308v-8.956l169.463 64.308zm-169.463 30.527v-8.956l169.463 64.308v8.956zm169.463-55.527-169.463-64.308v-4.795c0-28.002 22.781-50.783 50.783-50.783 4.826 0 8.753-3.926 8.753-8.752v-18.733h50.391v18.732c0 4.826 3.927 8.752 8.753 8.752 28.002 0 50.783 22.781 50.783 50.783z"/><path d="m464.634 385.058 3.337-65.613c.277-5.456-1.722-10.856-5.485-14.816s-9.056-6.231-14.519-6.231h-80.414c-4.143 0-7.5 3.358-7.5 7.5s3.357 7.5 7.5 7.5h80.414c1.393 0 2.687.556 3.646 1.565s1.448 2.33 1.378 3.72l-2.813 55.32h-156.343l-2.813-55.32c-.07-1.39.419-2.711 1.378-3.72s2.253-1.565 3.646-1.565h41.508c4.143 0 7.5-3.358 7.5-7.5s-3.357-7.5-7.5-7.5h-41.508c-5.463 0-10.755 2.271-14.519 6.231s-5.763 9.36-5.485 14.816l8.726 171.57c.542 10.661 9.329 19.013 20.004 19.013h134.471c10.675 0 19.462-8.352 20.004-19.013l5.388-105.941c0-.003 0-.007.001-.011-.002-.002-.002-.003-.002-.005zm-15.401 3.945c-4.06 33.837-32.77 59.706-67.346 59.706h-19.762c-34.576 0-63.285-25.869-67.345-59.706zm-4.968 101.25c-.136 2.677-2.343 4.774-5.023 4.774h-134.472c-2.681 0-4.888-2.097-5.023-4.774l-2.973-58.457c15.191 19.47 38.86 31.912 65.351 31.912h19.762c26.49 0 50.159-12.441 65.351-31.911z"/><path d="m174.083 460.574c18.802 0 34.099-15.296 34.099-34.099s-15.297-34.099-34.099-34.099h-65.79c-18.802 0-34.099 15.296-34.099 34.099s15.297 34.099 34.099 34.099zm-84.889-34.098c0-10.531 8.567-19.099 19.099-19.099h65.79c10.531 0 19.099 8.567 19.099 19.099s-8.567 19.099-19.099 19.099h-65.79c-10.531-.001-19.099-8.568-19.099-19.099z"/><path d="m196.203 296.264-100.045-39.658c-3.851-1.524-8.21.357-9.736 4.208s.358 8.209 4.209 9.736l100.045 39.657c.907.359 1.842.53 2.762.53 2.984 0 5.808-1.794 6.975-4.738 1.525-3.85-.359-8.209-4.21-9.735z"/><path d="m118.735 433.976h44.179c4.143 0 7.5-3.358 7.5-7.5s-3.357-7.5-7.5-7.5h-44.179c-4.143 0-7.5 3.358-7.5 7.5s3.358 7.5 7.5 7.5z"/></g></g></svg>