<svg id="Capa_1" enable-background="new 0 0 506.496 506.496" height="512" viewBox="0 0 506.496 506.496" width="512" xmlns="http://www.w3.org/2000/svg"><g><g><g><path d="m443.073 410.899h-379.65c-30.886 0-55.924-25.038-55.924-55.924v-203.448c0-30.886 25.038-55.924 55.924-55.924h379.649c30.886 0 55.924 25.038 55.924 55.924v203.448c0 30.886-25.038 55.924-55.923 55.924z" fill="#fee8c7"/></g></g><g><g><path d="m443.073 95.603h-30c30.886 0 55.924 25.038 55.924 55.924v203.448c0 30.886-25.038 55.924-55.924 55.924h30c30.886 0 55.924-25.038 55.924-55.924v-203.448c-.001-30.886-25.039-55.924-55.924-55.924z" fill="#fedba6"/></g></g><g><g><path d="m389.91 327.075-82.187-32.736 97.809-245.559c45.391 18.08 67.531 69.533 49.451 114.923z" fill="#f7f9f5"/></g></g><g><g><path d="m389.91 327.075-82.187-32.736 97.809-245.559c45.391 18.08 67.531 69.533 49.451 114.923z" fill="#d9dedc"/></g></g><g><g><path d="m413.006 52.167c27.04 24.041 37.559 63.314 23.397 98.871l-65.073 163.372-61.797-24.615-1.81 4.543 82.187 32.736 65.073-163.372c17.057-42.822-1.688-91.035-41.977-111.535z" fill="#c2c7c5"/></g></g><g><g><path d="m402.002 57.644-94.279 236.695 45.026 17.935 65.073-163.372c12.753-32.018 5.493-67.049-15.82-91.258z" fill="#f7f9f5"/></g></g><g><g><path d="m264.099 456.339c-9.964-3.969-14.824-15.263-10.855-25.227l54.479-136.774 36.082 14.372-54.479 136.774c-3.968 9.964-15.263 14.824-25.227 10.855z" fill="#fe9901"/></g></g><g><g><circle cx="104.833" cy="163.984" fill="#fef056" r="32.947"/></g></g><g><g><path d="m102.676 240.459c-17.189 1.112-30.79 15.399-30.79 32.87 0 17.47 13.6 31.757 30.79 32.869z" fill="#bbec6c"/></g></g><g><g><path d="m153.176 240.459c-17.189 1.112-30.79 15.399-30.79 32.87 0 17.47 13.6 31.757 30.79 32.869z" fill="#a2e62e"/></g></g><g><g><path d="m203.676 240.459c-17.189 1.112-30.79 15.399-30.79 32.87 0 17.47 13.6 31.757 30.79 32.869z" fill="#bbec6c"/></g></g><g><g><circle cx="96.441" cy="355.322" fill="#d73d24" r="24.555"/></g></g><g><g><circle cx="127.231" cy="355.322" fill="#fd5426" r="24.555"/></g></g><g><g><circle cx="139.938" cy="163.984" fill="#fef056" r="32.947"/></g></g><g><g><circle cx="175.044" cy="163.984" fill="#fef056" r="32.947"/></g></g><g><g><circle cx="210.149" cy="163.984" fill="#fef056" r="32.947"/></g></g><g><g><circle cx="245.254" cy="163.984" fill="#fef056" r="32.947"/></g></g><g><g><circle cx="280.359" cy="163.984" fill="#fef056" r="32.947"/></g></g><g><g><path d="m280.359 131.037c-5.404 0-10.5 1.31-15 3.616 10.652 5.458 17.948 16.54 17.948 29.332s-7.295 23.873-17.948 29.332c4.5 2.306 9.596 3.616 15 3.616 18.196 0 32.948-14.751 32.948-32.947s-14.752-32.949-32.948-32.949z" fill="#fee903"/></g></g><g><path d="m102.191 313.682c.162.01.323.016.484.016 1.899 0 3.735-.721 5.129-2.028 1.513-1.417 2.371-3.398 2.371-5.472v-65.739c0-2.073-.858-4.054-2.371-5.472-1.512-1.418-3.538-2.145-5.613-2.013-21.199 1.372-37.806 19.097-37.806 40.354.001 21.257 16.607 38.983 37.806 40.354zm-7.015-63.893v47.08c-9.29-3.823-15.79-12.99-15.79-23.54s6.5-19.717 15.79-23.54z"/><path d="m160.676 240.459c0-2.073-.858-4.054-2.371-5.472-1.512-1.418-3.549-2.145-5.613-2.013-21.199 1.372-37.806 19.097-37.806 40.354 0 21.256 16.606 38.982 37.806 40.354.162.01.323.016.484.016 1.899 0 3.735-.721 5.129-2.028 1.513-1.417 2.371-3.398 2.371-5.472zm-15 56.409c-9.29-3.823-15.79-12.99-15.79-23.54s6.5-19.717 15.79-23.54z"/><path d="m203.191 232.975c-21.199 1.372-37.806 19.097-37.806 40.354 0 21.256 16.606 38.982 37.806 40.354.162.01.323.016.484.016 1.899 0 3.735-.721 5.129-2.028 1.513-1.417 2.371-3.398 2.371-5.472v-65.739c0-2.073-.858-4.054-2.371-5.472-1.511-1.419-3.546-2.146-5.613-2.013zm-7.015 63.893c-9.29-3.823-15.79-12.99-15.79-23.54s6.5-19.717 15.79-23.54z"/><path d="m96.44 387.377c5.422 0 10.695-1.362 15.402-3.945 4.571 2.512 9.815 3.945 15.388 3.945 17.675 0 32.055-14.38 32.055-32.055s-14.38-32.055-32.055-32.055c-5.575 0-10.821 1.434-15.392 3.947-4.694-2.566-10.003-3.947-15.398-3.947-17.675 0-32.055 14.38-32.055 32.055.001 17.675 14.381 32.055 32.055 32.055zm47.845-32.055c0 9.404-7.65 17.055-17.055 17.055s-17.055-7.651-17.055-17.055 7.65-17.055 17.055-17.055 17.055 7.651 17.055 17.055zm-47.845-17.055c1.173 0 2.32.129 3.44.357-2.982 4.866-4.705 10.584-4.705 16.698s1.723 11.833 4.706 16.7c-1.124.23-2.275.355-3.441.355-9.404 0-17.055-7.651-17.055-17.055.001-9.404 7.651-17.055 17.055-17.055z"/><path d="m460.42 90.507c-.234-.066-.469-.111-.704-.154-10.371-22.238-28.511-39.421-51.408-48.542-3.847-1.532-8.211.344-9.743 4.192l-16.769 42.099h-214.015c-4.143 0-7.5 3.358-7.5 7.5s3.357 7.5 7.5 7.5h208.04l-75.066 188.46-44.545 111.836h-192.786c-26.701.001-48.424-21.722-48.424-48.423v-203.448c0-26.701 21.723-48.424 48.424-48.424h74.357c4.143 0 7.5-3.358 7.5-7.5s-3.357-7.5-7.5-7.5h-74.357c-34.972 0-63.424 28.452-63.424 63.424v203.448c0 34.972 28.452 63.424 63.424 63.424h186.811l-3.958 9.938c-2.66 6.68-2.561 13.997.281 20.602 2.843 6.605 8.087 11.708 14.767 14.369 3.257 1.297 6.619 1.911 9.929 1.911 10.701 0 20.846-6.426 25.041-16.958l11.894-29.861h27.736c4.143 0 7.5-3.358 7.5-7.5s-3.357-7.5-7.5-7.5h-21.761l33.834-84.945 1.977.787c.003.001.006.002.009.003l37.152 14.798c.91.362 1.85.534 2.773.534 2.98 0 5.8-1.789 6.97-4.727l65.073-163.372c7.383-18.535 8.801-38.443 4.292-57.461 15.259 8.355 25.253 24.6 25.253 42.51v203.448c0 26.701-21.723 48.424-48.424 48.424h-77.148c-4.143 0-7.5 3.358-7.5 7.5s3.357 7.5 7.5 7.5h77.148c34.972 0 63.424-28.452 63.424-63.424v-203.448c-.001-28.229-18.948-53.321-46.077-61.02zm-113.839 211.236h-.001l-29.114-11.597 86.572-217.347c13.838 21.754 16.569 48.841 6.816 73.327l-62.297 156.404zm-64.223 140.966c-2.431 6.106-9.377 9.096-15.483 6.663-2.958-1.178-5.28-3.438-6.539-6.362-1.258-2.924-1.303-6.164-.124-9.122l51.703-129.806 22.147 8.821zm165.658-281.782-62.298 156.405-23.226-9.251 62.298-156.404c12.035-30.215 8.021-63.762-10.178-90.045 14.431 8.662 25.775 21.567 32.558 37.332 8.549 19.866 8.849 41.872.846 61.963z"/><path d="m227.712 200.426c5.309 2.566 11.26 4.005 17.542 4.005 6.138 0 12.037-1.342 17.533-3.989.01-.005.02-.011.03-.016 5.309 2.566 11.26 4.005 17.542 4.005 22.303 0 40.447-18.145 40.447-40.447s-18.145-40.447-40.447-40.447c-6.286 0-12.241 1.442-17.553 4.011-5.451-2.625-11.457-4.011-17.552-4.011-6.286 0-12.241 1.442-17.553 4.012-5.45-2.625-11.457-4.012-17.552-4.012-6.286 0-12.241 1.442-17.553 4.011-5.451-2.625-11.457-4.011-17.552-4.011-6.286 0-12.241 1.442-17.553 4.011-5.451-2.625-11.457-4.011-17.552-4.011-6.286 0-12.241 1.442-17.553 4.012-5.45-2.625-11.457-4.012-17.552-4.012-22.303 0-40.447 18.145-40.447 40.447s18.145 40.447 40.447 40.447c6.139 0 12.038-1.342 17.534-3.989.01-.005.02-.011.03-.016 5.309 2.566 11.26 4.005 17.542 4.005 6.139 0 12.038-1.342 17.534-3.99.01-.005.019-.011.029-.016 5.309 2.566 11.26 4.006 17.542 4.006 6.138 0 12.037-1.342 17.533-3.989.01-.005.02-.011.03-.016 5.309 2.566 11.26 4.005 17.542 4.005 6.139 0 12.038-1.342 17.534-3.989.009-.005.018-.011.028-.016zm78.094-36.442c0 14.032-11.416 25.447-25.447 25.447s-25.447-11.416-25.447-25.447 11.416-25.447 25.447-25.447 25.447 11.415 25.447 25.447zm-57.05-25.201c-5.528 6.918-8.845 15.677-8.845 25.201s3.317 18.283 8.845 25.201c-1.152.157-2.319.246-3.502.246-14.031 0-25.447-11.416-25.447-25.447s11.416-25.447 25.447-25.447c1.176 0 2.346.086 3.502.246zm-169.37 25.201c0-14.032 11.416-25.447 25.447-25.447 1.176 0 2.346.086 3.503.246-5.528 6.918-8.845 15.677-8.845 25.201s3.317 18.283 8.845 25.201c-1.152.157-2.319.246-3.503.246-14.031 0-25.447-11.415-25.447-25.447zm35.105 0c0-14.032 11.416-25.447 25.447-25.447 1.176 0 2.346.086 3.502.246-5.529 6.918-8.845 15.677-8.845 25.201s3.317 18.283 8.845 25.201c-1.152.157-2.319.246-3.502.246-14.031 0-25.447-11.415-25.447-25.447zm35.105 0c0-14.032 11.416-25.447 25.448-25.447 1.176 0 2.346.086 3.502.246-5.528 6.918-8.845 15.677-8.845 25.201s3.317 18.283 8.845 25.201c-1.152.157-2.319.246-3.502.246-14.032 0-25.448-11.415-25.448-25.447zm35.105 0c0-14.032 11.416-25.447 25.447-25.447 1.176 0 2.346.086 3.503.246-5.528 6.918-8.845 15.677-8.845 25.201s3.317 18.283 8.845 25.201c-1.152.157-2.319.246-3.503.246-14.031 0-25.447-11.415-25.447-25.447z"/></g></g></svg>