<svg id="Capa_1" enable-background="new 0 0 508.78 508.78" height="512" viewBox="0 0 508.78 508.78" width="512" xmlns="http://www.w3.org/2000/svg"><g><g><g><circle cx="396.953" cy="54.594" fill="#fea613" r="47.068"/></g></g><g><g><path d="m410.048 9.384c-9.576-2.774-19.316-2.359-28.098.604 23.788 7.98 37.259 33.376 30.212 57.702-4.458 15.392-16.093 26.75-30.208 31.511.629.211 1.26.417 1.902.604 24.969 7.232 51.073-7.146 58.305-32.115 7.234-24.97-7.144-51.074-32.113-58.306z" fill="#fe9901"/></g></g><g><g><path d="m303.868 498.652-44.306-32.256c-7.629-5.554-12.142-14.422-12.142-23.858v-261.305h-27.121v261.305c0 9.437-4.513 18.304-12.142 23.858l-44.306 32.256c-1.405 1.023-.269 2.628 1.861 2.628h136.296c2.129 0 3.265-1.605 1.86-2.628z" fill="#f7f9f5"/></g></g><g><g><path d="m303.868 498.652-44.306-32.256c-7.629-5.554-12.142-14.422-12.142-23.858v-261.305h-27.121v261.305c0 3.12-.503 6.175-1.439 9.071 1.896 5.864 5.596 11.069 10.702 14.787l44.306 32.256c1.406 1.023.269 2.628-1.86 2.628h30c2.129 0 3.265-1.605 1.86-2.628z" fill="#eceae6"/></g></g><g><g><path d="m262.508 212.649 138.959-158.224c3.364-3.831.644-9.84-4.454-9.84h-326.307c-5.099 0-7.819 6.01-4.454 9.84l138.959 158.224c15.185 17.291 42.111 17.291 57.297 0l138.959-158.224c3.364-3.831.644-9.84-4.454-9.84h-326.307c-5.099 0-7.819 6.01-4.454 9.84l138.959 158.224c15.185 17.291 42.111 17.291 57.297 0z" fill="#f7f9f5"/></g></g><g><g><path d="m397.013 44.584h-30c5.099 0 7.819 6.01 4.455 9.84l-138.96 158.225c-3.905 4.447-8.59 7.741-13.649 9.9 14.612 6.238 32.368 2.944 43.649-9.9l138.959-158.224c3.365-3.831.644-9.841-4.454-9.841z" fill="#eceae6"/></g></g><g><g><path d="m93.956 85.97 111.255 126.679c15.186 17.291 42.112 17.291 57.297 0l111.255-126.679z" fill="#fd6930"/></g></g><g><g><path d="m343.763 85.97-111.255 126.679c-3.905 4.447-8.59 7.741-13.649 9.9 14.612 6.238 32.368 2.944 43.649-9.9l111.255-126.679z" fill="#fd5426"/></g></g><g><g><path d="m157.494 158.317 47.717 54.332c15.186 17.291 42.112 17.291 57.297 0l47.717-54.332z" fill="#fe7d43"/></g></g><g><g><path d="m280.225 158.317-47.717 54.332c-3.905 4.447-8.59 7.741-13.649 9.9 14.612 6.238 32.368 2.944 43.649-9.9l47.717-54.332z" fill="#fd6930"/></g></g><path d="m412.135 2.18c-14.001-4.056-28.743-2.416-41.509 4.616-12.052 6.638-20.977 17.334-25.351 30.288h-274.569c-5.343 0-10.03 3.024-12.233 7.891-.818 1.806-1.219 3.702-1.22 5.577-.001 3.178 1.146 6.297 3.363 8.821l138.96 158.224c3.769 4.292 8.265 7.785 13.223 10.364v214.575c0 7.014-3.386 13.667-9.056 17.795l-44.307 32.256c-3.171 2.308-4.461 6.133-3.286 9.743 1.256 3.857 5.098 6.448 9.562 6.448h136.295c4.464 0 8.306-2.592 9.562-6.448 1.175-3.61-.115-7.435-3.286-9.743l-44.307-32.256c-5.67-4.128-9.056-10.781-9.056-17.795v-111.219c0-4.142-3.357-7.5-7.5-7.5s-7.5 3.358-7.5 7.5v111.221c0 11.794 5.692 22.98 15.228 29.921l29.286 21.321h-101.149l29.286-21.321c9.535-6.942 15.228-18.127 15.228-29.921v-209.842c1.998.268 4.02.421 6.061.421s4.063-.153 6.061-.421v68.62c0 4.142 3.357 7.5 7.5 7.5s7.5-3.358 7.5-7.5v-73.354c4.957-2.579 9.454-6.073 13.223-10.364l101.606-115.692c3.773 2.166 7.801 3.879 12.022 5.102 5.053 1.463 10.146 2.161 15.16 2.16 23.67-.001 45.528-15.543 52.437-39.393 8.368-28.901-8.334-59.224-37.234-67.595zm-155.262 205.52c-5.814 6.62-14.203 10.417-23.014 10.417s-17.199-3.797-23.014-10.417l-100.32-114.23h40.002c4.143 0 7.5-3.358 7.5-7.5s-3.357-7.5-7.5-7.5h-53.176l-23.173-26.386h319.363l-23.173 26.386h-189.842c-4.143 0-7.5 3.358-7.5 7.5s3.357 7.5 7.5 7.5h176.668zm178.086-142.098c-6.071 20.957-28.059 33.068-49.015 26.998-2.076-.601-4.083-1.37-6.014-2.287l27.171-30.938c2.218-2.525 3.365-5.644 3.364-8.822-.001-1.875-.401-3.771-1.22-5.577-2.203-4.868-6.891-7.891-12.233-7.891h-35.541c3.545-7.223 9.196-13.186 16.391-17.149 9.259-5.099 19.948-6.288 30.099-3.347 20.956 6.069 33.067 28.057 26.998 49.013z"/></g></svg>