<svg xmlns="http://www.w3.org/2000/svg" viewBox="0 0 41 41" width="41" height="41"><style>tspan { white-space:pre }.shp0 { fill: #008b81 } .shp1 { fill: #00c285 } .shp2 { fill: #07b27b } .shp3 { fill: #f7f9f5 } .shp4 { fill: #eceae6 } .shp5 { fill: #bbec6c } .shp6 { fill: #a2e62e } .shp7 { fill: #d1f19e } .shp8 { fill: #000000 } </style><g id="Layer"><g id="Layer"><g id="Layer"><path id="Layer" class="shp0" d="M23.49 8.56C24.02 10.73 26.27 12.23 28.46 11.69C30.65 11.15 31.95 8.79 31.41 6.61C30.98 4.85 27.48 1.93 26.17 0.81C25.93 0.61 25.56 0.7 25.44 0.99C24.8 2.6 23.05 6.79 23.49 8.56L23.49 8.56Z" /></g></g><g id="Layer"><g id="Layer"><path id="Layer" class="shp1" d="M33.2 12.03C31.5 13.47 28.8 13.37 27.34 11.65C25.88 9.93 26.22 7.25 27.93 5.8C29.31 4.62 33.85 4.31 35.57 4.18C35.89 4.15 36.13 4.44 36.06 4.75C35.64 6.42 34.59 10.85 33.2 12.03Z" /></g></g><g id="Layer"><g id="Layer"><path id="Layer" class="shp2" d="M35.57 4.18C35.08 4.21 34.36 4.27 33.55 4.35C33.63 4.46 33.67 4.6 33.64 4.75C33.22 6.42 32.17 10.85 30.78 12.03C30.32 12.42 29.78 12.7 29.22 12.86C30.56 13.25 32.09 12.97 33.2 12.03C34.59 10.85 35.64 6.42 36.06 4.75C36.13 4.44 35.89 4.15 35.57 4.18L35.57 4.18Z" /></g></g><g id="Layer"><g id="Layer"><path id="Layer" class="shp3" d="M25.88 40.35L8.36 40.35C7.16 40.35 6.18 39.39 6.14 38.19L5.04 7.72L29.2 7.72L28.1 38.19C28.07 39.39 27.09 40.35 25.88 40.35Z" /></g></g><g id="Layer"><g id="Layer"><path id="Layer" class="shp4" d="M26.78 7.72L25.68 38.19C25.65 39.39 24.66 40.35 23.46 40.35L25.88 40.35C27.09 40.35 28.07 39.39 28.1 38.19L29.2 7.72L26.78 7.72Z" /></g></g><g id="Layer"><g id="Layer"><path id="Layer" class="shp5" d="M28.36 31.22L29.2 7.72L5.04 7.72L5.89 31.22C5.95 32.92 7.35 34.27 9.06 34.27L25.19 34.27C26.89 34.27 28.29 32.92 28.36 31.22Z" /></g></g><g id="Layer"><g id="Layer"><path id="Layer" class="shp6" d="M26.78 7.72L25.93 31.22C25.87 32.92 24.47 34.27 22.77 34.27L25.19 34.27C26.89 34.27 28.29 32.92 28.36 31.22L29.2 7.72L26.78 7.72Z" /></g></g><g id="Layer"><g id="Layer"><path id="Layer" class="shp7" d="M13.81 27.95L11.56 29.6C11.15 29.91 10.56 29.82 10.26 29.4L8.6 27.16C8.3 26.74 8.39 26.16 8.8 25.85L11.05 24.2C11.46 23.89 12.05 23.98 12.35 24.4L14.01 26.65C14.31 27.06 14.22 27.64 13.81 27.95L13.81 27.95Z" /></g></g><g id="Layer"><g id="Layer"><path id="Layer" class="shp7" d="M25.71 24.07L22.45 24.75C21.94 24.86 21.45 24.53 21.34 24.03L20.66 20.76C20.55 20.26 20.87 19.76 21.38 19.66L24.64 18.97C25.15 18.87 25.64 19.19 25.75 19.69L26.43 22.96C26.54 23.47 26.22 23.96 25.71 24.07L25.71 24.07Z" /></g></g><g id="Layer"><g id="Layer"><path id="Layer" class="shp5" d="M26.35 22.93L25.67 19.67C25.56 19.16 25.07 18.84 24.56 18.95L23.1 19.25C23.21 19.37 23.29 19.52 23.33 19.69L24.01 22.96C24.12 23.47 23.8 23.96 23.29 24.07L21.49 24.44C21.7 24.68 22.03 24.79 22.36 24.72L25.63 24.04C26.14 23.93 26.46 23.44 26.35 22.93L26.35 22.93Z" /></g></g><g id="Layer"><g id="Layer"><path id="Layer" class="shp7" d="M21.2 16.44L18.5 18.4C18.08 18.7 17.5 18.61 17.19 18.19L15.23 15.49C14.93 15.07 15.02 14.49 15.44 14.19L18.14 12.22C18.56 11.92 19.14 12.01 19.44 12.43L21.4 15.13C21.71 15.55 21.61 16.13 21.2 16.44Z" /></g></g><g id="Layer"><g id="Layer"><path id="Layer" class="shp5" d="M21.4 15.13L19.44 12.43C19.14 12.01 18.56 11.92 18.14 12.22L17.31 12.83L18.98 15.13C19.29 15.55 19.19 16.13 18.78 16.44L16.9 17.79L17.19 18.19C17.5 18.61 18.08 18.7 18.5 18.4L21.2 16.44C21.61 16.13 21.71 15.55 21.4 15.13L21.4 15.13Z" /></g></g><g id="Layer"><g id="Layer"><path id="Layer" class="shp7" d="M13.89 15.64L11.18 17.6C10.77 17.9 10.18 17.81 9.88 17.39L7.92 14.69C7.62 14.27 7.71 13.69 8.13 13.39L10.83 11.42C11.24 11.12 11.83 11.21 12.13 11.63L14.09 14.33C14.4 14.75 14.3 15.33 13.89 15.64L13.89 15.64Z" /></g></g><g id="Layer"><g id="Layer"><path id="Layer" class="shp6" d="M14.69 21.44C12.75 23.98 13.14 27.61 15.63 29.66C18.11 31.72 21.76 31.42 23.88 29.03L14.69 21.44Z" /></g></g><g id="Layer"><g id="Layer"><path id="Layer" class="shp7" d="M16.54 22.97C15.43 24.48 15.69 26.61 17.15 27.82C18.62 29.03 20.76 28.87 22.03 27.5L16.54 22.97Z" /></g></g><g id="Layer"><g id="Layer"><path id="Layer" class="shp6" d="M7.19 18.01C9.28 20.42 12.92 20.78 15.43 18.76C17.94 16.75 18.39 13.11 16.49 10.55L7.19 18.01Z" /></g></g><g id="Layer"><g id="Layer"><path id="Layer" class="shp7" d="M9.06 16.51C10.32 17.89 12.45 18.08 13.93 16.89C15.42 15.7 15.7 13.58 14.62 12.05L9.06 16.51Z" /></g></g><g id="Layer"><g id="Layer"><path id="Layer" class="shp6" d="M22.75 12.05C22.13 12.05 21.62 11.54 21.62 10.92C21.62 10.3 22.13 9.79 22.75 9.79C23.38 9.79 23.88 10.3 23.88 10.92C23.88 11.54 23.38 12.05 22.75 12.05Z" /></g></g><g id="Layer"><g id="Layer"><path id="Layer" class="shp6" d="M25.38 15.62C24.97 15.62 24.63 15.28 24.63 14.86C24.63 14.45 24.97 14.11 25.38 14.11C25.8 14.11 26.13 14.45 26.13 14.86C26.13 15.28 25.8 15.62 25.38 15.62Z" /></g></g><g id="Layer"><g id="Layer"><path id="Layer" class="shp6" d="M14.52 32.53C14.1 32.53 13.77 32.2 13.77 31.78C13.77 31.37 14.1 31.03 14.52 31.03C14.93 31.03 15.27 31.37 15.27 31.78C15.27 32.2 14.93 32.53 14.52 32.53Z" /></g></g><g id="Layer"><path id="Layer" fill-rule="evenodd" class="shp8" d="M36.42 3.94C36.64 4.21 36.73 4.56 36.64 4.89L36.59 5.13C36.36 6.03 35.99 7.55 35.5 8.96C34.88 10.77 34.26 11.92 33.6 12.49C32.71 13.24 31.58 13.64 30.43 13.64C30.15 13.64 29.88 13.61 29.6 13.57L28.71 38.21C28.67 39.75 27.42 40.95 25.88 40.95L8.36 40.95C6.82 40.95 5.58 39.75 5.54 38.21L4.44 7.74C4.43 7.58 4.49 7.42 4.61 7.3C4.72 7.18 4.88 7.11 5.04 7.11L9.3 7.11L8.87 3.46C8.08 3.3 7.47 2.59 7.47 1.75C7.47 0.78 8.26 0 9.22 0C10.18 0 10.97 0.78 10.97 1.75C10.97 2.4 10.6 2.97 10.07 3.27L10.51 7.11L11.39 7.11C11.72 7.11 11.99 7.39 11.99 7.72C11.99 8.05 11.72 8.33 11.39 8.33L10.65 8.33L10.93 10.71C11.54 10.52 12.23 10.73 12.62 11.27L13.35 12.28L16.11 10.08C16.23 9.97 16.4 9.93 16.56 9.95C16.73 9.97 16.87 10.06 16.97 10.19C17.32 10.66 17.61 11.17 17.82 11.71C18.5 11.24 19.44 11.4 19.93 12.08L21.89 14.78C22.39 15.46 22.24 16.43 21.55 16.93L18.85 18.89C18.58 19.08 18.26 19.18 17.95 19.18C17.47 19.18 17 18.96 16.7 18.55L16.63 18.45C16.38 18.73 16.11 18.99 15.81 19.23C14.73 20.1 13.44 20.59 12.08 20.67L12.43 23.65C12.59 23.75 12.73 23.88 12.84 24.04L12.92 24.15C13.08 23.04 13.51 21.98 14.21 21.07C14.31 20.94 14.46 20.86 14.62 20.84C14.78 20.82 14.95 20.87 15.08 20.97L16.92 22.5L19.67 24.77L24.27 28.56C24.39 28.66 24.47 28.82 24.48 28.98C24.5 29.14 24.44 29.31 24.33 29.43C23.2 30.7 21.64 31.48 19.94 31.61C19.76 31.63 19.59 31.63 19.41 31.63C17.89 31.63 16.43 31.11 15.24 30.13C14.71 29.7 14.27 29.19 13.91 28.63L11.92 30.09C11.65 30.29 11.33 30.39 11.01 30.39C10.54 30.39 10.07 30.17 9.77 29.76L8.12 27.52C7.87 27.18 7.77 26.78 7.83 26.37C7.9 25.97 8.11 25.61 8.44 25.36L10.69 23.71C10.84 23.6 11.01 23.52 11.19 23.47L10.86 20.62C9.25 20.41 7.79 19.63 6.73 18.4C6.62 18.28 6.57 18.11 6.59 17.95C6.6 17.79 6.68 17.64 6.81 17.53L8.34 16.3L7.43 15.04C6.93 14.36 7.08 13.39 7.77 12.9L9.79 11.43L9.44 8.33L5.67 8.33L6.5 31.2C6.55 32.58 7.67 33.67 9.06 33.67L13.56 33.67C13.89 33.67 14.16 33.94 14.16 34.27C14.16 34.61 13.89 34.88 13.56 34.88L9.06 34.88C8.12 34.88 7.26 34.54 6.6 33.97L6.75 38.17C6.77 39.05 7.48 39.74 8.36 39.74L25.88 39.74C26.76 39.74 27.47 39.05 27.5 38.17L27.65 33.97C26.99 34.54 26.13 34.88 25.19 34.88L15.98 34.88C15.64 34.88 15.37 34.61 15.37 34.27C15.37 33.94 15.64 33.67 15.98 33.67L25.19 33.67C26.57 33.67 27.7 32.58 27.75 31.2L28.58 8.33L13.81 8.33C13.47 8.33 13.2 8.05 13.2 7.72C13.2 7.39 13.47 7.11 13.81 7.11L22.87 7.11C23.13 5.11 24.24 2.35 24.79 0.99L24.88 0.77C25.01 0.45 25.28 0.21 25.62 0.13C25.95 0.05 26.3 0.13 26.56 0.35L26.75 0.51C27.68 1.3 29.39 2.76 30.6 4.17C32.02 3.89 33.68 3.72 35.28 3.59L35.52 3.57C35.87 3.54 36.2 3.68 36.42 3.94ZM15.41 12.19C16.31 13.93 15.88 16.11 14.31 17.36C13.55 17.98 12.62 18.28 11.7 18.28C10.74 18.28 9.79 17.95 9.02 17.31L8.08 18.06C10.01 19.84 12.96 19.97 15.05 18.29C17.15 16.61 17.66 13.7 16.35 11.44L15.41 12.19ZM14.82 22.33C13.47 24.58 13.94 27.49 16.01 29.2C18.08 30.91 21.03 30.82 22.98 29.07L22.06 28.31C21.3 28.92 20.36 29.24 19.42 29.24C18.48 29.24 17.54 28.93 16.77 28.29C15.22 27.01 14.82 24.82 15.74 23.09L14.82 22.33ZM16.7 23.89C16.19 25.07 16.5 26.5 17.54 27.35C18.57 28.21 20.03 28.24 21.1 27.51L16.7 23.89ZM11.87 24.76C11.81 24.69 11.74 24.64 11.65 24.63C11.56 24.61 11.48 24.64 11.41 24.69L9.16 26.34C9.09 26.39 9.04 26.47 9.03 26.55C9.02 26.64 9.04 26.73 9.09 26.8L10.74 29.05C10.85 29.19 11.06 29.22 11.2 29.12L13.34 27.54C13.17 27.13 13.05 26.7 12.96 26.25L11.87 24.76ZM18.17 12.95C18.28 13.6 18.3 14.27 18.22 14.94C18.1 15.82 17.82 16.66 17.38 17.42C17.38 17.42 17.39 17.43 17.39 17.44L17.68 17.83C17.73 17.9 17.81 17.95 17.9 17.97C17.98 17.98 18.07 17.96 18.14 17.91L20.84 15.95C20.91 15.89 20.96 15.82 20.97 15.73C20.99 15.65 20.97 15.56 20.91 15.49L18.95 12.79C18.85 12.64 18.64 12.61 18.49 12.71L18.17 12.95ZM14.44 12.97L9.99 16.53C11.05 17.28 12.51 17.26 13.56 16.42C14.6 15.58 14.94 14.16 14.44 12.97ZM11.18 11.91L10.79 12.2C10.78 12.2 10.78 12.2 10.78 12.2L8.48 13.88C8.41 13.93 8.36 14 8.35 14.09C8.34 14.18 8.36 14.26 8.41 14.33L9.29 15.54L12.41 13.04L11.64 11.99C11.59 11.92 11.51 11.87 11.43 11.86C11.34 11.84 11.25 11.86 11.18 11.91ZM9.22 2.28C9.51 2.28 9.76 2.04 9.76 1.75C9.76 1.45 9.51 1.21 9.22 1.21C8.92 1.21 8.68 1.45 8.68 1.75C8.68 2.04 8.92 2.28 9.22 2.28ZM25.91 1.44C25.4 2.72 24.36 5.29 24.09 7.11L26.23 7.11C26.32 6.9 26.43 6.68 26.56 6.48L26.1 4.62C26.02 4.3 26.22 3.97 26.54 3.89C26.86 3.81 27.19 4.01 27.27 4.33L27.52 5.35C27.53 5.35 27.53 5.34 27.53 5.34C27.94 5 28.54 4.72 29.27 4.5C28.17 3.31 26.76 2.11 25.96 1.43L25.93 1.4L25.91 1.44ZM35.42 4.79L35.38 4.8C33.77 4.93 29.49 5.26 28.32 6.26C28.03 6.5 27.79 6.79 27.59 7.11L29.2 7.11C29.37 7.11 29.53 7.18 29.64 7.3C29.75 7.42 29.81 7.58 29.81 7.74L29.77 8.79L30.2 8.43C30.19 8.39 30.19 8.34 30.19 8.3L30.31 6.92C30.33 6.59 30.62 6.34 30.96 6.37C31.29 6.4 31.54 6.69 31.51 7.02L31.49 7.34L32.62 6.38C32.87 6.16 33.25 6.19 33.47 6.45C33.69 6.7 33.65 7.09 33.4 7.3L32.27 8.26L32.58 8.29C32.92 8.31 33.16 8.61 33.14 8.94C33.11 9.26 32.85 9.5 32.53 9.5C32.52 9.5 32.5 9.49 32.48 9.49L31.11 9.38C31.07 9.38 31.02 9.37 30.98 9.35L29.71 10.43L29.64 12.34C30.77 12.59 31.95 12.3 32.81 11.56C33.99 10.57 35.02 6.4 35.41 4.84L35.42 4.79Z" /><path id="Layer" fill-rule="evenodd" class="shp8" d="M21.25 19.07L24.52 18.38C24.92 18.3 25.33 18.37 25.68 18.6C26.02 18.82 26.26 19.17 26.34 19.57L27.03 22.84C27.2 23.67 26.67 24.48 25.84 24.66L22.57 25.34C22.46 25.37 22.36 25.38 22.25 25.38C21.54 25.38 20.9 24.88 20.75 24.15L20.06 20.89C19.89 20.06 20.42 19.24 21.25 19.07ZM21.5 20.25C21.33 20.29 21.21 20.46 21.25 20.64L21.93 23.91C21.97 24.08 22.14 24.2 22.32 24.16L25.59 23.47C25.76 23.44 25.88 23.26 25.84 23.09L25.16 19.82C25.14 19.73 25.09 19.66 25.02 19.61C24.96 19.58 24.9 19.56 24.84 19.56C24.81 19.56 24.79 19.56 24.77 19.57L21.5 20.25Z" /></g></g></svg>