<svg id="Capa_1" enable-background="new 0 0 507.413 507.413" height="512" viewBox="0 0 507.413 507.413" width="512" xmlns="http://www.w3.org/2000/svg"><g><g><g><path d="m290.016 106.078c6.622 26.923 34.493 45.46 61.608 38.791s43.207-36.02 36.585-62.943c-5.385-21.891-48.678-57.955-64.965-71.859-2.973-2.538-7.551-1.412-9.008 2.216-7.98 19.872-29.605 71.904-24.22 93.795z" fill="#008b81"/></g></g><g><g><path d="m410.403 148.999c-21.145 17.933-54.592 16.617-72.653-4.679s-13.897-54.508 7.249-72.441c17.193-14.581 73.409-18.427 94.754-20.146 3.897-.314 6.946 3.281 6 7.075-5.182 20.777-18.157 75.61-35.35 90.191z" fill="#00c285"/></g></g><g><g><path d="m439.753 51.733c-6.084.49-15.002 1.153-25.04 2.188 1.026 1.317 1.491 3.077 1.04 4.887-5.182 20.778-18.156 75.61-35.35 90.192-5.737 4.865-12.381 8.301-19.376 10.318 16.572 4.878 35.588 1.375 49.376-10.318 17.193-14.581 30.168-69.414 35.35-90.192.946-3.794-2.103-7.389-6-7.075z" fill="#07b27b"/></g></g><g><g><path d="m319.72 499.913h-217.105c-14.886 0-27.069-11.845-27.489-26.725l-13.635-377.537h299.352l-13.635 377.536c-.419 14.881-12.602 26.726-27.488 26.726z" fill="#f7f9f5"/></g></g><g><g><path d="m330.843 95.651-13.635 377.536c-.419 14.88-12.603 26.725-27.489 26.725h30c14.886 0 27.069-11.845 27.489-26.725l13.635-377.536z" fill="#eceae6"/></g></g><g><g><path d="m350.329 386.788 10.514-291.137h-299.352l10.514 291.137c.763 21.125 18.109 37.856 39.248 37.856h199.828c21.138 0 38.485-16.731 39.248-37.856z" fill="#bbec6c"/></g></g><g><g><path d="m330.843 95.651-10.514 291.137c-.763 21.125-18.109 37.856-39.248 37.856h30c21.138 0 38.485-16.731 39.248-37.856l10.514-291.137z" fill="#a2e62e"/></g></g><g><g><path d="m170.088 346.307-27.845 20.481c-5.144 3.784-12.381 2.681-16.165-2.463l-20.481-27.845c-3.784-5.144-2.681-12.381 2.463-16.165l27.845-20.481c5.144-3.784 12.381-2.681 16.165 2.463l20.481 27.845c3.783 5.144 2.68 12.381-2.463 16.165z" fill="#d1f19e"/></g></g><g><g><path d="m317.581 298.188-40.478 8.484c-6.25 1.31-12.378-2.695-13.688-8.944l-8.484-40.478c-1.31-6.25 2.695-12.378 8.944-13.688l40.478-8.484c6.25-1.31 12.378 2.695 13.688 8.944l8.484 40.478c1.311 6.25-2.694 12.378-8.944 13.688z" fill="#d1f19e"/></g></g><g><g><path d="m325.517 284.157-8.484-40.478c-1.31-6.25-7.438-10.254-13.688-8.944l-18.151 3.804c1.383 1.488 2.401 3.35 2.848 5.483l8.484 40.478c1.31 6.25-2.695 12.378-8.944 13.688l-22.327 4.68c2.669 2.872 6.724 4.324 10.84 3.461l40.478-8.484c6.249-1.309 10.254-7.438 8.944-13.688z" fill="#bbec6c"/></g></g><g><g><path d="m261.634 203.638-33.465 24.301c-5.167 3.752-12.397 2.605-16.149-2.562l-24.301-33.465c-3.752-5.167-2.605-12.397 2.562-16.149l33.465-24.301c5.167-3.752 12.397-2.605 16.149 2.562l24.301 33.465c3.752 5.166 2.605 12.397-2.562 16.149z" fill="#d1f19e"/></g></g><g><g><path d="m264.196 187.488-24.301-33.465c-3.752-5.167-10.982-6.314-16.149-2.562l-10.287 7.47 20.737 28.558c3.752 5.167 2.605 12.397-2.562 16.149l-23.178 16.831 3.564 4.908c3.752 5.167 10.982 6.314 16.149 2.562l33.465-24.301c5.167-3.752 6.314-10.983 2.562-16.15z" fill="#bbec6c"/></g></g><g><g><path d="m171.046 193.723-33.465 24.301c-5.167 3.752-12.397 2.605-16.149-2.562l-24.302-33.466c-3.752-5.167-2.605-12.397 2.562-16.149l33.465-24.301c5.167-3.752 12.397-2.605 16.149 2.562l24.301 33.465c3.753 5.167 2.606 12.398-2.561 16.15z" fill="#d1f19e"/></g></g><g><g><path d="m181.012 265.644c-24.086 31.414-19.166 76.503 11.609 101.91s75.98 21.7 102.264-7.899z" fill="#a2e62e"/></g></g><g><g><path d="m203.905 284.543c-13.674 18.759-10.538 45.16 7.602 60.135s44.657 13.056 60.487-3.923z" fill="#d1f19e"/></g></g><g><g><path d="m88.064 223.092c25.861 29.97 71.008 34.319 102.142 9.352s36.694-69.981 13.057-101.734z" fill="#a2e62e"/></g></g><g><g><path d="m111.222 204.521c15.587 17.202 42.074 19.499 60.425 4.783s21.862-41.07 8.457-60.021z" fill="#d1f19e"/></g></g><g><g><circle cx="280.898" cy="135.294" fill="#a2e62e" r="13.988"/></g></g><g><g><circle cx="313.493" cy="184.155" fill="#a2e62e" r="9.325"/></g></g><g><g><circle cx="178.881" cy="393.785" fill="#a2e62e" r="9.325"/></g></g><g><path d="m450.289 48.878c-2.744-3.235-6.911-4.961-11.138-4.621l-3 .239c-19.815 1.57-40.427 3.651-57.963 7.168-14.978-17.415-36.287-35.56-47.781-45.346l-2.294-1.955c-3.229-2.755-7.612-3.796-11.734-2.782-4.119 1.013-7.521 3.969-9.103 7.908l-1.125 2.793c-6.807 16.89-20.584 51.083-23.791 75.87h-112.272c-4.142 0-7.5 3.358-7.5 7.5s3.358 7.5 7.5 7.5h182.979l-10.233 283.366c-.621 17.174-14.568 30.626-31.752 30.626h-114.1c-4.142 0-7.5 3.358-7.5 7.5s3.358 7.5 7.5 7.5h114.099c11.674 0 22.326-4.224 30.511-11.25l-1.881 52.083c-.307 10.899-9.088 19.436-19.992 19.436h-217.104c-10.903 0-19.685-8.537-19.994-19.496l-1.879-52.023c8.185 7.026 18.837 11.25 30.511 11.25h55.729c4.142 0 7.5-3.358 7.5-7.5s-3.358-7.5-7.5-7.5h-55.729c-17.185 0-31.132-13.453-31.752-30.626l-10.234-283.367h46.649l4.441 38.421-25.072 18.206c-8.505 6.176-10.4 18.12-4.224 26.625l11.322 15.592-19.012 15.246c-1.588 1.274-2.591 3.138-2.777 5.166-.186 2.027.46 4.043 1.791 5.585 13.159 15.249 31.231 24.931 51.143 27.502l4.082 35.31c-2.184.614-4.267 1.604-6.149 2.988l-27.845 20.481c-4.102 3.017-6.783 7.451-7.55 12.484-.767 5.034.472 10.065 3.489 14.166l20.481 27.845c3.732 5.073 9.519 7.76 15.38 7.76 3.921 0 7.876-1.203 11.27-3.699l24.602-18.095c4.483 6.93 10.031 13.213 16.559 18.603 14.691 12.128 32.84 18.626 51.701 18.626 2.15 0 4.314-.085 6.479-.255 21.094-1.66 40.438-11.275 54.467-27.074 1.352-1.522 2.027-3.529 1.87-5.559s-1.133-3.909-2.703-5.205l-56.937-47.005-34.045-28.106-22.892-18.899c-1.57-1.296-3.602-1.898-5.623-1.668-2.023.23-3.865 1.273-5.104 2.888-8.631 11.257-14.055 24.341-15.983 38.087l-.966-1.314c-1.424-1.936-3.172-3.542-5.141-4.793l-4.279-37.012c16.792-.945 32.864-7.053 46.205-17.753 3.702-2.969 7.088-6.233 10.172-9.726l.881 1.214c3.725 5.13 9.548 7.855 15.45 7.855 3.883 0 7.8-1.18 11.175-3.631l33.465-24.301c8.505-6.176 10.4-18.12 4.224-26.625l-24.301-33.465c-6.076-8.369-17.73-10.319-26.205-4.498-2.616-6.66-6.109-13.014-10.481-18.887-1.216-1.633-3.043-2.702-5.063-2.961-2.023-.26-4.058.315-5.646 1.588l-34.109 27.354-9.085-12.512c-4.89-6.735-13.394-9.305-20.947-7.024l-3.413-29.526h9.071c4.142 0 7.5-3.358 7.5-7.5s-3.358-7.5-7.5-7.5h-10.805l-5.504-47.615c6.611-3.709 11.091-10.784 11.091-18.889.003-11.935-9.708-21.646-21.644-21.646s-21.647 9.711-21.647 21.647c0 10.473 7.477 19.231 17.372 21.221l5.235 45.283h-52.691c-2.036 0-3.985.828-5.398 2.293-1.414 1.466-2.17 3.443-2.097 5.478l13.633 377.477c.537 19.073 15.905 34.014 34.986 34.014h217.104c19.081 0 34.449-14.941 34.984-33.954l11.028-305.366c3.434.588 6.891.884 10.332.884 14.257 0 28.241-4.971 39.19-14.257 8.225-6.975 15.951-21.262 23.618-43.676 6.005-17.555 10.653-36.297 13.431-47.495l.728-2.927c1.027-4.119.002-8.509-2.741-11.744zm-283.334 154.574c-12.979 10.408-31.048 10.604-44.134 1.381l55.068-44.161c6.161 14.777 2.046 32.371-10.934 42.78zm93.437 137.451c-13.217 9.036-31.28 8.584-44.11-2.008-12.831-10.592-16.695-28.244-10.325-42.932zm-77.814-64.241 11.489 9.485c-11.47 21.374-6.54 48.46 12.665 64.315 9.601 7.926 21.28 11.819 32.914 11.819 11.637 0 23.219-3.913 32.629-11.568l11.495 9.49c-24.188 21.629-60.719 22.747-86.374 1.567-25.656-21.181-31.475-57.264-14.818-85.108zm-22.95 48.569c1.007 5.537 2.566 10.905 4.65 16.039l-26.479 19.477c-1.805 1.327-4.352.938-5.679-.865l-20.481-27.845c-.643-.874-.907-1.946-.743-3.019.163-1.073.735-2.018 1.609-2.66l27.845-20.481c.874-.643 1.943-.907 3.019-.744 1.072.164 2.017.735 2.66 1.609zm68.524-167.701c1.813-1.317 4.358-.912 5.674.9l24.301 33.465c.638.878.895 1.952.725 3.023-.17 1.072-.747 2.013-1.625 2.65l-33.465 24.301c-.878.637-1.953.895-3.023.725-1.072-.17-2.013-.747-2.65-1.625l-3.564-4.908c-.069-.095-.146-.181-.219-.272 5.439-9.329 9.013-19.728 10.408-30.724 1.052-8.293.813-16.567-.615-24.593zm-26.612-15.825c16.26 28.078 9.928 64.074-16.027 84.888-25.956 20.815-62.467 19.176-86.343-2.794l11.63-9.327c9.497 7.954 21.313 12.037 33.202 12.037 11.387 0 22.833-3.733 32.337-11.355 19.428-15.58 24.743-42.593 13.578-64.128zm-60.952 5.185c1.072.17 2.013.747 2.65 1.625l9.507 13.093-38.646 30.992-10.9-15.01c-.638-.878-.895-1.952-.725-3.023.17-1.072.747-2.013 1.625-2.65l28.515-20.706c.005-.004.011-.008.016-.012l4.934-3.583c.879-.639 1.951-.897 3.024-.726zm-34.013-125.243c0-3.665 2.982-6.647 6.647-6.647s6.647 2.982 6.647 6.647-2.982 6.647-6.647 6.647-6.647-2.982-6.647-6.647zm213.489-3.758.203-.504.416.355c9.901 8.429 27.29 23.236 41.012 37.991-9.066 2.77-16.535 6.177-21.547 10.428-.045.038-.087.081-.132.119l-3.103-12.614c-.989-4.022-5.051-6.481-9.074-5.492-4.022.989-6.481 5.052-5.491 9.074l5.675 23.073c-1.54 2.496-2.887 5.12-4.061 7.833h-26.462c3.379-22.654 16.169-54.397 22.564-70.263zm117.68 42.049c-4.814 19.409-17.602 70.967-32.192 83.341-10.723 9.093-25.345 12.654-39.272 9.632l.855-23.678 15.72-13.332c.525.166 1.074.281 1.645.328l16.991 1.397c.209.017.417.026.623.026 3.864 0 7.145-2.967 7.466-6.886.339-4.128-2.732-7.75-6.86-8.089l-3.894-.32 14-11.873c3.159-2.679 3.548-7.412.869-10.571-2.679-3.158-7.412-3.549-10.571-.869l-14 11.873.32-3.894c.339-4.128-2.732-7.75-6.86-8.089-4.144-.341-7.75 2.732-8.089 6.86l-1.397 16.991c-.047.572-.023 1.132.055 1.677l-5.286 4.483.47-13.022c.073-2.035-.684-4.012-2.097-5.478-1.413-1.465-3.362-2.293-5.398-2.293h-20.032c2.466-3.989 5.517-7.565 9.041-10.553 14.592-12.375 67.549-16.57 87.486-18.149l.541-.043z"/><path d="m247.591 258.788 8.484 40.478c1.881 8.974 9.825 15.154 18.652 15.154 1.292 0 2.602-.132 3.915-.407l40.478-8.484c10.287-2.156 16.902-12.28 14.747-22.567l-8.484-40.478c-1.044-4.984-3.967-9.262-8.229-12.047-4.263-2.785-9.354-3.743-14.338-2.699l-40.478 8.484c-10.288 2.156-16.903 12.279-14.747 22.566zm17.823-7.886 40.478-8.484c.28-.059.562-.088.841-.088.781 0 1.545.226 2.214.663.908.594 1.531 1.505 1.753 2.567l8.484 40.478c.459 2.192-.95 4.35-3.143 4.809l-40.478 8.484c-2.195.461-4.35-.951-4.809-3.142l-8.483-40.478c-.458-2.192.951-4.349 3.143-4.809z"/></g></g></svg>