<svg id="Capa_1" enable-background="new 0 0 515.18 515.18" height="512" viewBox="0 0 515.18 515.18" width="512" xmlns="http://www.w3.org/2000/svg"><g><g><g><circle cx="353.625" cy="69.161" fill="#a74b30" r="52.098"/></g></g><g><g><path d="m353.625 17.063c-5.216 0-10.249.776-15 2.202 21.459 6.443 37.098 26.338 37.098 49.895s-15.639 43.453-37.098 49.895c4.751 1.427 9.784 2.202 15 2.202 28.773 0 52.098-23.325 52.098-52.098s-23.325-52.096-52.098-52.096z" fill="#8c3d27"/></g></g><g><g><path d="m326.908 69.161c-5.684-18.687-20.419-33.432-39.101-39.121-12.044-3.668-22.42-11.438-28.84-22.269l-.16-.271-.161.271c-6.42 10.831-16.796 18.601-28.84 22.269-18.683 5.689-33.418 20.434-39.101 39.121-28.256 4.28-49.911 28.671-49.911 58.121h236.026c0-29.45-21.656-53.841-49.912-58.121z" fill="#f7f9f5"/></g></g><g><g><path d="m326.908 69.161c-5.684-18.687-20.419-33.432-39.101-39.121-12.044-3.668-22.42-11.438-28.84-22.269l-.16-.271-.161.271c-3.748 6.323-8.85 11.593-14.839 15.622 4.27 2.873 8.987 5.12 14.001 6.647 18.683 5.689 33.418 20.434 39.101 39.121 28.256 4.28 49.911 28.671 49.911 58.121h30c0-29.45-21.656-53.841-49.912-58.121z" fill="#eceae6"/></g></g><g><g><path d="m366.142 507.68h-217.105c-14.886 0-27.069-11.845-27.489-26.725l-12.808-354.663c-.451-12.497 9.557-22.874 22.063-22.874h253.575c12.505 0 22.514 10.377 22.062 22.874l-12.809 354.663c-.419 14.88-12.603 26.725-27.489 26.725z" fill="#f7f9f5"/></g></g><g><g><path d="m384.377 103.418h-30c12.505 0 22.514 10.377 22.063 22.874l-12.809 354.663c-.419 14.88-12.603 26.725-27.489 26.725h30c14.886 0 27.069-11.845 27.489-26.725l12.809-354.663c.451-12.497-9.558-22.874-22.063-22.874z" fill="#eceae6"/></g></g><g><g><path d="m210.299 417.421h94.581c50.806 0 92.497-40.213 94.331-90.986l7.228-200.143c.451-12.497-9.557-22.874-22.063-22.874h-253.573c-12.505 0-22.514 10.377-22.063 22.874l7.228 200.143c1.834 50.773 43.526 90.986 94.331 90.986z" fill="#ffefd2"/></g></g><g><g><path d="m384.377 103.418h-30c12.505 0 22.514 10.377 22.063 22.874l-7.228 200.143c-1.834 50.773-43.525 90.986-94.331 90.986h30c50.806 0 92.497-40.213 94.331-90.986l7.228-200.143c.451-12.497-9.558-22.874-22.063-22.874z" fill="#fedba6"/></g></g><g><g><path d="m111.189 194.098 4.779 132.337c1.834 50.773 43.525 90.986 94.331 90.986h94.581c50.806 0 92.497-40.213 94.331-90.986l4.779-132.337z" fill="#fedba6"/></g></g><g><g><path d="m373.991 194.098-4.779 132.337c-1.834 50.773-43.525 90.986-94.331 90.986h30c50.806 0 92.497-40.213 94.331-90.986l4.779-132.337z" fill="#fec165"/></g></g><g><g><path d="m114.318 280.743 1.65 45.692c1.834 50.773 43.525 90.986 94.331 90.986h94.581c50.806 0 92.497-40.213 94.331-90.986l1.65-45.692z" fill="#a74b30"/></g></g><g><g><path d="m370.862 280.743-1.65 45.692c-1.834 50.773-43.525 90.986-94.331 90.986h30c50.806 0 92.497-40.213 94.331-90.986l1.65-45.692z" fill="#8c3d27"/></g></g><path d="m405.665 104.962c-.843-.874-1.734-1.681-2.659-2.435 6.63-9.797 10.217-21.373 10.217-33.366 0-32.862-26.735-59.598-59.598-59.598-17.927 0-34.715 8.013-45.988 21.691-5.366-3.601-11.29-6.453-17.645-8.389-10.512-3.201-19.239-9.92-24.573-18.919l-.161-.271c-1.35-2.278-3.803-3.675-6.451-3.675s-5.101 1.397-6.452 3.676l-.161.271c-5.334 8.999-14.061 15.718-24.573 18.918-19.687 5.995-35.32 20.676-42.593 39.736-18.645 4.188-34.703 16.362-43.829 33.318h-10.396c-8.103 0-15.663 3.212-21.288 9.043-5.625 5.832-8.562 13.503-8.27 21.601l12.807 354.603c.538 19.073 15.905 34.014 34.986 34.014h217.105c19.081 0 34.448-14.941 34.984-33.955l12.809-354.663c.291-8.097-2.646-15.768-8.271-21.6zm-52.04-80.399c24.591 0 44.598 20.007 44.598 44.598 0 9.87-3.246 19.362-9.198 27.12-1.522-.238-3.074-.362-4.648-.362h-7.963c-9.126-16.956-25.184-29.13-43.829-33.318-3.095-8.112-7.717-15.419-13.509-21.612 8.439-10.346 21.058-16.426 34.549-16.426zm-162.259 52.098h44.722c4.142 0 7.5-3.358 7.5-7.5s-3.358-7.5-7.5-7.5h-34.122c6.363-11.65 17.047-20.494 30.024-24.446 10.555-3.214 19.796-9.119 26.816-17.013 7.02 7.894 16.261 13.799 26.816 17.013 12.978 3.952 23.662 12.796 30.025 24.446h-32.811c-4.142 0-7.5 3.358-7.5 7.5s3.358 7.5 7.5 7.5h43.412c12.901 2.077 24.45 9.05 32.354 19.257h-199.59c7.904-10.207 19.452-17.18 32.354-19.257zm-71.055 38.714c2.772-2.874 6.499-4.457 10.492-4.457h253.575c3.993 0 7.719 1.583 10.492 4.457 2.772 2.875 4.22 6.655 4.076 10.646l-2.188 60.576h-213.212c-4.142 0-7.5 3.358-7.5 7.5s3.358 7.5 7.5 7.5h212.67l-2.587 71.646h-99.859c-4.142 0-7.5 3.358-7.5 7.5s3.358 7.5 7.5 7.5h99.318l-1.369 37.921c-.816 22.605-10.232 43.702-26.513 59.405s-37.704 24.351-60.323 24.351h-94.582c-22.62 0-44.042-8.648-60.323-24.351-16.279-15.702-25.695-36.798-26.512-59.401l-1.37-37.925h139.675c4.142 0 7.5-3.358 7.5-7.5s-3.358-7.5-7.5-7.5h-140.219l-2.587-71.646h34.581c4.142 0 7.5-3.358 7.5-7.5s-3.358-7.5-7.5-7.5h-35.123l-2.188-60.576c-.144-3.99 1.303-7.771 4.076-10.646zm265.823 365.368c-.307 10.899-9.088 19.437-19.992 19.437h-217.105c-10.903 0-19.685-8.538-19.994-19.496l-3.658-101.292c4.056 6.092 8.796 11.784 14.177 16.974 19.091 18.414 44.212 28.555 70.737 28.555h94.582c26.524 0 51.646-10.141 70.737-28.555 5.38-5.19 10.121-10.882 14.177-16.974z"/></g></svg>