<svg id="Capa_1" enable-background="new 0 0 512.236 512.236" height="512" viewBox="0 0 512.236 512.236" width="512" xmlns="http://www.w3.org/2000/svg"><g><g><g><circle cx="227.038" cy="58.935" fill="#fd5426" r="34.566"/></g></g><g><g><path d="m227.038 24.368c-5.375 0-10.463 1.227-15 3.416 11.578 5.585 19.566 17.435 19.566 31.15 0 13.716-7.988 25.565-19.566 31.15 4.537 2.189 9.625 3.416 15 3.416 19.09 0 34.566-15.476 34.566-34.566s-15.476-34.566-34.566-34.566z" fill="#ef4424"/></g></g><g><g><path d="m327.046 502.15-44.306-31.74c-7.629-5.465-12.142-14.191-12.142-23.476v-257.123h-27.121v257.123c0 9.286-4.513 18.011-12.142 23.476l-44.306 31.74c-1.405 1.007-.269 2.586 1.861 2.586h136.296c2.129 0 3.266-1.579 1.86-2.586z" fill="#f7f9f5"/></g></g><g><g><path d="m297.833 90.61c0 36.451-15.773 66.001-35.23 66.001s-35.23-29.55-35.23-66.001 35.23-66.001 35.23-66.001 35.23 29.55 35.23 66.001z" fill="#8bc727"/></g></g><g><g><path d="m262.602 24.609s-7.146 6.006-15 15.921c9.587 12.104 20.23 30.042 20.23 50.079 0 26.399-8.276 49.168-20.23 59.724 4.552 4.019 9.634 6.277 15 6.277 19.457 0 35.23-29.549 35.23-66.001s-35.23-66-35.23-66z" fill="#81b823"/></g></g><g><g><path d="m353.13 73.501c0 36.451-15.773 66.001-35.23 66.001s-35.23-29.55-35.23-66.001 35.23-66.001 35.23-66.001 35.23 29.55 35.23 66.001z" fill="#8bc727"/></g></g><g><g><path d="m317.9 7.5s-7.146 6.006-15 15.921c9.587 12.104 20.23 30.042 20.23 50.079 0 26.399-8.276 49.168-20.23 59.724 4.552 4.019 9.634 6.277 15 6.277 19.457 0 35.23-29.55 35.23-66.001s-35.23-66-35.23-66z" fill="#81b823"/></g></g><g><g><path d="m430.386 78.615c-9.258-42.178-49.829-69.589-92.147-62.811l-8.552 116.42z" fill="#f4d902"/></g></g><g><g><path d="m338.24 15.805-.06.816c30.147 6.527 55.185 30.005 62.207 61.994l-69.478 36.988-1.221 16.621 100.698-53.609c-9.258-42.178-49.829-69.589-92.146-62.81z" fill="#e3ca00"/></g></g><g><g><path d="m354.034 68.653h-193.993c-6.373 0-11.111 5.896-9.738 12.12 0 0 23.078 148.12 20.911 179.084-.185 2.644-.251 5.321-.191 8.026 1.016 46.078 38.725 83.458 84.81 84.088 48.068.658 87.241-38.11 87.241-86.028 0-2.276-.089-4.531-.262-6.762-2.321-29.796 20.961-178.408 20.961-178.408 1.372-6.223-3.365-12.12-9.739-12.12z" fill="#f7f9f5"/></g></g><g><g><path d="m354.034 68.653h-30c6.373 0 11.111 5.896 9.738 12.12 0 0-23.281 148.612-20.961 178.408.174 2.231.262 4.486.262 6.762 0 42.374-30.635 77.587-70.964 84.714 4.471.79 9.051 1.25 13.724 1.314 48.068.658 87.241-38.11 87.241-86.028 0-2.276-.089-4.531-.262-6.762-2.321-29.796 20.961-178.408 20.961-178.408 1.372-6.223-3.365-12.12-9.739-12.12z" fill="#eceae6"/></g></g><g><g><path d="m357.837 120.307h-201.633c6.677 46.18 16.455 118.904 15.01 139.55-.185 2.644-.251 5.321-.191 8.026 1.016 46.078 38.725 83.458 84.81 84.088 48.068.658 87.241-38.11 87.241-86.028 0-2.276-.089-4.531-.262-6.762-1.549-19.879 8.298-92.639 15.025-138.874z" fill="#fef6ad"/></g></g><g><g><path d="m357.837 120.307h-30c-6.727 46.235-16.573 118.994-15.025 138.874.174 2.231.262 4.486.262 6.762 0 42.374-30.635 77.587-70.964 84.714 4.471.79 9.051 1.25 13.724 1.314 48.068.658 87.241-38.11 87.241-86.028 0-2.276-.089-4.531-.262-6.762-1.55-19.879 8.297-92.639 15.024-138.874z" fill="#fef48b"/></g></g><g><g><path d="m354.034 68.653h-193.993c-6.373 0-11.111 5.896-9.738 12.12 0 0 23.078 148.12 20.911 179.084-.185 2.644-.251 5.321-.191 8.026 1.016 46.078 38.725 83.458 84.81 84.088 48.068.658 87.241-38.11 87.241-86.028 0-2.276-.089-4.531-.262-6.762-2.321-29.796 20.961-178.408 20.961-178.408 1.372-6.223-3.365-12.12-9.739-12.12z" fill="none"/></g></g><g><g><path d="m357.837 120.307h-201.633c6.677 46.18 16.455 118.904 15.01 139.55-.185 2.644-.251 5.321-.191 8.026 1.016 46.078 38.725 83.458 84.81 84.088 48.068.658 87.241-38.11 87.241-86.028 0-2.276-.089-4.531-.262-6.762-1.549-19.879 8.298-92.639 15.025-138.874z" fill="none"/></g></g><g><path d="m437.711 77.007c-10.073-45.899-54.282-76.037-100.658-68.608-1.925.308-3.57 1.352-4.706 2.807-5.331-5.822-9.357-9.226-9.627-9.452-2.787-2.338-6.852-2.338-9.639 0-.956.801-17.422 14.802-28.336 35.731-8.664-11.294-16.875-18.247-17.323-18.622-2.787-2.338-6.852-2.338-9.639 0-.289.242-2.732 2.316-6.243 5.879-7.098-5.109-15.586-7.874-24.502-7.874-23.195 0-42.066 18.871-42.066 42.066 0 .742.04 1.48.078 2.219h-1.42l-18.594-45.687c-1.15-2.825-3.896-4.673-6.947-4.673h-76.239c-4.142 0-7.5 3.358-7.5 7.5s3.358 7.5 7.5 7.5h71.194l14.391 35.36h-7.394c-5.322 0-10.287 2.38-13.621 6.529-3.277 4.079-4.545 9.329-3.497 14.444.962 6.201 22.857 147.939 20.809 177.207-.201 2.879-.271 5.812-.207 8.715.534 24.237 10.379 47.054 27.722 64.248 12.534 12.427 27.98 20.888 44.73 24.763v89.875c0 6.841-3.368 13.338-9.01 17.379l-44.307 31.74c-3.193 2.288-4.505 6.103-3.343 9.719 1.242 3.866 5.089 6.464 9.572 6.464h136.295c4.483 0 8.33-2.597 9.572-6.464 1.162-3.616-.15-7.431-3.344-9.719l-44.306-31.74c-5.642-4.042-9.01-10.539-9.01-17.379v-19.11c0-4.142-3.357-7.5-7.5-7.5s-7.5 3.358-7.5 7.5v19.11c0 11.666 5.71 22.722 15.273 29.573l28.936 20.729h-100.538l28.936-20.729c9.564-6.852 15.274-17.907 15.274-29.573v-87.654c1.578.102 3.162.168 4.753.19.44.006.88.009 1.32.009 2.028 0 4.042-.088 6.048-.215v38.559c0 4.142 3.357 7.5 7.5 7.5s7.5-3.358 7.5-7.5v-40.733c16.719-3.828 32.094-12.195 44.623-24.554 17.961-17.717 27.853-41.367 27.853-66.593 0-2.443-.096-4.914-.285-7.344-1.388-17.817 7.205-84.056 14.855-136.624.014-.063.032-.124.045-.188.149-.067.3-.125.446-.203l68.274-36.348c2.97-1.581 4.524-4.944 3.802-8.229zm-119.805-59.208c3.136 3.16 7.417 7.841 11.666 13.618l-2.184 29.736h-35.72c.456-1.926 1.005-3.82 1.632-5.68.003-.009.006-.019.009-.028 5.71-16.895 17.832-30.815 24.597-37.646zm-55.301 17.109c4.072 4.104 10.074 10.77 15.446 19.093-.677 2.336-1.261 4.719-1.714 7.152h-33.37c6.172-11.664 14.465-21.027 19.638-26.245zm-62.633 24.027c0-14.924 12.142-27.066 27.066-27.066 5.218 0 10.207 1.474 14.504 4.212-5.365 6.806-11.016 15.345-15.204 25.073h-26.268c-.06-.737-.098-1.476-.098-2.219zm112.216 262.922c-15.078 14.873-35.044 22.913-56.252 22.614-20.337-.278-39.56-8.385-54.128-22.828s-22.838-33.594-23.286-53.926c-.054-2.446.005-4.914.175-7.337 1.41-20.138-7.203-86.125-13.828-132.573h13.836c4.142 0 7.5-3.358 7.5-7.5s-3.358-7.5-7.5-7.5h-16.003c-2.693-18.42-4.715-31.445-4.987-33.188-.024-.155-.053-.309-.087-.461-.222-1.006.21-1.735.487-2.08s.896-.924 1.927-.924h33.755c.019 0 .038.005.057.005.022 0 .044-.004.065-.005h160.115c1.031 0 1.649.579 1.927.924s.709 1.074.486 2.08c-.033.151-.062.303-.085.455-.274 1.747-2.309 14.782-5.017 33.195h-142.64c-4.142 0-7.5 3.358-7.5 7.5s3.358 7.5 7.5 7.5h140.461c-6.674 46.512-15.345 112.523-13.831 131.956.159 2.044.24 4.123.24 6.179-.001 21.181-8.306 41.038-23.387 55.914zm55.705-218.468c1.159-7.712 2.26-14.883 3.258-21.256 1.05-5.116-.218-10.369-3.496-14.45-3.333-4.149-8.298-6.529-13.62-6.529h-11.606l2.298-31.29c.001-.018.003-.037.004-.055l.536-7.298c34.492-2.748 66.418 19.085 76.379 52.261z"/><path d="m388.148 41.369c-3.462-2.273-8.112-1.309-10.386 2.153l-1.949 2.969c-2.273 3.463-1.31 8.113 2.153 10.386 1.269.833 2.697 1.231 4.109 1.231 2.441 0 4.836-1.191 6.276-3.385l1.949-2.969c2.275-3.462 1.311-8.112-2.152-10.385z"/><path d="m365.07 30.144c-3.925-1.321-8.179.789-9.501 4.716l-1.133 3.366c-1.321 3.926.79 8.179 4.716 9.5.794.267 1.6.394 2.394.394 3.132 0 6.053-1.977 7.107-5.11l1.133-3.366c1.321-3.925-.79-8.179-4.716-9.5z"/><path d="m396.03 60.977c-3.076 2.774-3.32 7.517-.546 10.593 1.481 1.642 3.522 2.477 5.571 2.477 1.791 0 3.588-.637 5.021-1.931l2.637-2.378c3.076-2.774 3.32-7.517.546-10.593-2.775-3.077-7.52-3.319-10.593-.546z"/></g></g></svg>