<svg xmlns="http://www.w3.org/2000/svg" viewBox="0 0 41 41" width="41" height="41"><style>tspan { white-space:pre }.shp0 { fill: #a82975 } .shp1 { fill: #fef056 } .shp2 { fill: #f4d902 } .shp3 { fill: #fef6ad } .shp4 { fill: #f7f9f5 } .shp5 { fill: #eceae6 } .shp6 { fill: #ed74b7 } .shp7 { fill: #e759aa } .shp8 { fill: #e03d9c } .shp9 { fill: #c53287 } .shp10 { fill: #f6a6d2 } .shp11 { fill: #000000 } </style><g id="Layer"><g id="Layer"><g id="Layer"><path id="Layer" class="shp0" d="M19.52 7.1C18.04 7.1 16.84 5.9 16.84 4.42C16.84 2.93 18.04 1.73 19.52 1.73C21 1.73 22.2 2.93 22.2 4.42C22.2 5.9 21 7.1 19.52 7.1Z" /></g></g><g id="Layer"><g id="Layer"><path id="Layer" class="shp0" d="M22.52 6.27C21.03 6.27 19.84 5.07 19.84 3.59C19.84 2.1 21.03 0.9 22.52 0.9C24 0.9 25.2 2.1 25.2 3.59C25.2 5.07 24 6.27 22.52 6.27Z" /></g></g><g id="Layer"><g id="Layer"><path id="Layer" class="shp0" d="M17.15 9.18C15.67 9.18 14.47 7.98 14.47 6.5C14.47 5.02 15.67 3.82 17.15 3.82C18.64 3.82 19.84 5.02 19.84 6.5C19.84 7.98 18.64 9.18 17.15 9.18Z" /></g></g><g id="Layer"><g id="Layer"><path id="Layer" class="shp0" d="M20.43 9.18C18.95 9.18 17.75 7.98 17.75 6.5C17.75 5.02 18.95 3.82 20.43 3.82C21.91 3.82 23.11 5.02 23.11 6.5C23.11 7.98 21.91 9.18 20.43 9.18Z" /></g></g><g id="Layer"><g id="Layer"><path id="Layer" class="shp1" d="M28.92 15.18C24.89 15.18 21.63 11.92 21.63 7.89C21.63 3.86 24.89 0.61 28.92 0.61C32.95 0.61 36.21 3.86 36.21 7.89C36.21 11.92 32.95 15.18 28.92 15.18Z" /></g></g><g id="Layer"><g id="Layer"><path id="Layer" class="shp2" d="M28.92 0.61C28.51 0.61 28.1 0.64 27.71 0.71C31.15 1.29 33.78 4.28 33.78 7.89C33.78 11.5 31.15 14.5 27.71 15.08C28.1 15.14 28.51 15.18 28.92 15.18C32.94 15.18 36.21 11.92 36.21 7.89C36.21 3.87 32.94 0.61 28.92 0.61Z" /></g></g><g id="Layer"><g id="Layer"><path id="Layer" class="shp3" d="M28.92 11.37C26.73 11.37 24.95 9.6 24.95 7.41C24.95 5.21 26.73 3.44 28.92 3.44C31.11 3.44 32.88 5.21 32.88 7.41C32.88 9.6 31.11 11.37 28.92 11.37Z" /></g></g><g id="Layer"><g id="Layer"><path id="Layer" class="shp1" d="M28.92 3.44C28.5 3.44 28.09 3.51 27.71 3.63C29.3 4.14 30.46 5.64 30.46 7.41C30.46 9.17 29.3 10.67 27.71 11.18C28.09 11.31 28.5 11.37 28.92 11.37C31.11 11.37 32.88 9.6 32.88 7.41C32.88 5.22 31.11 3.44 28.92 3.44L28.92 3.44Z" /></g></g><g id="Layer"><g id="Layer"><path id="Layer" class="shp4" d="M26.43 40.37L8.16 40.37C6.91 40.37 5.89 39.37 5.85 38.12L5.84 37.83C5.83 37.58 5.85 37.34 5.9 37.1L6.11 36.07C6.21 35.61 6.19 35.13 6.07 34.67L5.85 33.86C5.73 33.42 5.71 32.97 5.8 32.52L5.98 31.51C6.05 31.1 6.04 30.67 5.94 30.25L5.65 29.02C5.55 28.62 5.53 28.2 5.6 27.8L5.86 26.29C5.9 26.06 5.91 25.82 5.89 25.59L4.77 8.29C4.73 7.23 5.58 6.36 6.63 6.36L27.96 6.36C29.01 6.36 29.85 7.23 29.82 8.29L28.39 25.36C28.35 25.75 28.4 26.13 28.51 26.51L28.79 27.42C28.98 28.06 28.96 28.75 28.72 29.39L28.54 29.87C28.29 30.52 28.28 31.24 28.49 31.9L28.56 32.11C28.79 32.81 28.76 33.57 28.47 34.25L28.47 34.25C28.17 34.97 28.15 35.77 28.41 36.5L28.56 36.9C28.69 37.27 28.76 37.66 28.74 38.06L28.74 38.12C28.7 39.37 27.68 40.37 26.43 40.37L26.43 40.37Z" /></g></g><g id="Layer"><g id="Layer"><path id="Layer" class="shp5" d="M29.82 8.29C29.85 7.23 29.01 6.36 27.96 6.36L25.53 6.36C26.59 6.36 27.43 7.23 27.39 8.29L25.96 25.36C25.93 25.75 25.97 26.13 26.08 26.51L26.36 27.42C26.56 28.06 26.53 28.75 26.3 29.39L26.11 29.87C25.87 30.52 25.85 31.24 26.07 31.9L26.14 32.11C26.36 32.81 26.33 33.57 26.04 34.25L26.04 34.25C25.74 34.97 25.72 35.77 25.99 36.5L26.13 36.9C26.27 37.27 26.33 37.66 26.32 38.06L26.31 38.12C26.28 39.37 25.25 40.37 24 40.37L26.43 40.37C27.68 40.37 28.7 39.37 28.74 38.12L28.74 38.06C28.76 37.66 28.69 37.27 28.56 36.9L28.41 36.5C28.15 35.77 28.17 34.97 28.47 34.25L28.47 34.25C28.76 33.57 28.79 32.81 28.56 32.11L28.49 31.9C28.28 31.24 28.29 30.52 28.54 29.87L28.72 29.39C28.96 28.75 28.98 28.06 28.79 27.42L28.51 26.51C28.4 26.13 28.35 25.75 28.39 25.36L29.82 8.29Z" /></g></g><g id="Layer"><g id="Layer"><path id="Layer" class="shp6" d="M29.38 13.56L5.11 13.56L5.89 25.59C5.91 25.82 5.9 26.06 5.86 26.29L5.6 27.8C5.53 28.2 5.55 28.62 5.65 29.02L5.94 30.25C6.04 30.67 6.05 31.09 5.98 31.51L5.8 32.52C5.71 32.97 5.73 33.42 5.85 33.86L6.07 34.67C6.19 35.13 6.21 35.61 6.11 36.07L5.9 37.1C5.85 37.34 5.83 37.58 5.84 37.82L5.85 38.12C5.89 39.37 6.91 40.37 8.16 40.37L26.43 40.37C27.68 40.37 28.7 39.37 28.74 38.12L28.74 38.06C28.76 37.66 28.69 37.27 28.56 36.9L28.41 36.5C28.15 35.77 28.17 34.97 28.47 34.26L28.47 34.25C28.76 33.57 28.79 32.81 28.56 32.11L28.49 31.9C28.28 31.24 28.29 30.52 28.54 29.87L28.72 29.39C28.96 28.75 28.98 28.06 28.79 27.42L28.51 26.51C28.4 26.13 28.35 25.75 28.39 25.36L29.38 13.56Z" /></g></g><g id="Layer"><g id="Layer"><path id="Layer" class="shp7" d="M28.72 29.39C28.96 28.75 28.98 28.06 28.79 27.42L28.51 26.51C28.4 26.13 28.35 25.75 28.39 25.36L29.38 13.56L26.95 13.56L25.96 25.36C25.93 25.75 25.97 26.13 26.08 26.51L26.36 27.42C26.56 28.06 26.53 28.75 26.3 29.39L26.11 29.87C25.87 30.52 25.85 31.24 26.07 31.9L26.14 32.11C26.36 32.81 26.33 33.57 26.04 34.25L26.04 34.26C25.74 34.97 25.72 35.77 25.99 36.5L26.13 36.9C26.27 37.27 26.33 37.66 26.32 38.06L26.31 38.12C26.28 39.37 25.25 40.37 24 40.37L26.43 40.37C27.68 40.37 28.7 39.37 28.74 38.12L28.74 38.06C28.76 37.66 28.69 37.27 28.56 36.9L28.41 36.5C28.15 35.77 28.17 34.97 28.47 34.26L28.47 34.25C28.76 33.57 28.79 32.81 28.56 32.11L28.49 31.9C28.28 31.24 28.29 30.52 28.54 29.87L28.72 29.39Z" /></g></g><g id="Layer"><g id="Layer"><path id="Layer" class="shp8" d="M28.72 29.39C28.96 28.75 28.98 28.06 28.79 27.42L28.51 26.51C28.41 26.19 28.37 25.87 28.38 25.55L5.89 25.55L5.89 25.59C5.91 25.82 5.9 26.06 5.86 26.29L5.6 27.8C5.53 28.2 5.55 28.62 5.65 29.02L5.94 30.25C6.04 30.67 6.05 31.1 5.98 31.51L5.8 32.52C5.71 32.97 5.73 33.42 5.85 33.86L6.07 34.67C6.19 35.13 6.21 35.61 6.11 36.07L5.9 37.1C5.85 37.34 5.83 37.58 5.84 37.83L5.85 38.12C5.89 39.37 6.91 40.37 8.16 40.37L26.43 40.37C27.68 40.37 28.7 39.37 28.74 38.12L28.74 38.06C28.76 37.66 28.69 37.27 28.56 36.9L28.41 36.5C28.15 35.77 28.17 34.97 28.47 34.26L28.47 34.25C28.76 33.57 28.79 32.81 28.56 32.11L28.49 31.9C28.28 31.24 28.29 30.52 28.54 29.87L28.72 29.39Z" /></g></g><g id="Layer"><g id="Layer"><path id="Layer" class="shp9" d="M28.41 36.5C28.15 35.77 28.17 34.97 28.47 34.26L28.47 34.25C28.76 33.57 28.79 32.81 28.56 32.11L28.49 31.9C28.28 31.24 28.29 30.52 28.54 29.87L28.72 29.39C28.96 28.75 28.98 28.06 28.79 27.42L28.51 26.51C28.41 26.19 28.37 25.87 28.38 25.55L25.95 25.55C25.94 25.87 25.99 26.19 26.08 26.51L26.36 27.42C26.56 28.06 26.53 28.75 26.3 29.39L26.11 29.87C25.87 30.52 25.85 31.24 26.07 31.9L26.14 32.11C26.36 32.81 26.33 33.57 26.04 34.25L26.04 34.26C25.74 34.97 25.72 35.77 25.99 36.5L26.13 36.9C26.27 37.27 26.33 37.66 26.32 38.06L26.31 38.12C26.28 39.37 25.25 40.37 24 40.37L26.43 40.37C27.68 40.37 28.7 39.37 28.74 38.12L28.74 38.06C28.76 37.66 28.69 37.27 28.56 36.9L28.41 36.5Z" /></g></g><g id="Layer"><g id="Layer"><path id="Layer" class="shp4" d="M25.32 19.86L23.73 19.72C23.21 19.67 22.83 19.22 22.88 18.7L23.02 17.11C23.07 16.59 23.52 16.21 24.03 16.26L25.63 16.4C26.14 16.45 26.52 16.9 26.48 17.42L26.33 19.01C26.29 19.52 25.83 19.9 25.32 19.86Z" /></g></g><g id="Layer"><path id="Layer" class="shp10" d="M25.32 19.86L23.73 19.72C23.21 19.67 22.83 19.22 22.88 18.7L23.02 17.11C23.07 16.59 23.52 16.21 24.03 16.26L25.63 16.4C26.14 16.45 26.52 16.9 26.48 17.42L26.33 19.01C26.29 19.52 25.83 19.9 25.32 19.86Z" /></g><g id="Layer"><g id="Layer"><path id="Layer" class="shp4" d="M23.38 34.07L21.21 33.88C20.7 33.83 20.32 33.38 20.36 32.86L20.56 30.7C20.6 30.18 21.06 29.8 21.57 29.85L23.74 30.04C24.25 30.09 24.63 30.54 24.59 31.06L24.39 33.22C24.35 33.74 23.89 34.12 23.38 34.07Z" /></g></g><g id="Layer"><path id="Layer" class="shp10" d="M20.36 32.86L20.56 30.7C20.6 30.18 21.06 29.8 21.57 29.85L23.74 30.04C24.25 30.09 24.63 30.54 24.59 31.06L24.39 33.22C24.35 33.74 23.89 34.12 23.38 34.07L22.2 33.97" /></g><g id="Layer"><g id="Layer"><path id="Layer" class="shp4" d="M22.01 36.43L20.3 37.23C19.84 37.45 19.28 37.25 19.06 36.78L18.26 35.07C18.04 34.61 18.24 34.05 18.71 33.83L20.42 33.03C20.89 32.81 21.44 33.01 21.66 33.48L22.46 35.19C22.68 35.66 22.48 36.21 22.01 36.43Z" /></g></g><g id="Layer"><path id="Layer" class="shp10" d="M22.01 36.43L20.3 37.23C19.84 37.45 19.28 37.25 19.06 36.78L18.26 35.07C18.04 34.61 18.24 34.05 18.71 33.83L20.42 33.03C20.89 32.81 21.44 33.01 21.66 33.48L22.46 35.19C22.68 35.66 22.48 36.21 22.01 36.43Z" /></g><g id="Layer"><g id="Layer"><path id="Layer" class="shp4" d="M20.46 21.64L18.99 22.86C18.6 23.19 18.01 23.14 17.68 22.75L16.45 21.28C16.12 20.88 16.17 20.29 16.57 19.96L18.03 18.74C18.43 18.41 19.02 18.46 19.35 18.86L20.57 20.32C20.91 20.72 20.85 21.31 20.46 21.64Z" /></g></g><g id="Layer"><path id="Layer" class="shp10" d="M20.46 21.64L18.99 22.86C18.6 23.19 18.01 23.14 17.68 22.75L16.45 21.28C16.12 20.88 16.17 20.29 16.57 19.96L18.03 18.74C18.43 18.41 19.02 18.46 19.35 18.86L20.57 20.32C20.91 20.72 20.85 21.31 20.46 21.64Z" /></g><g id="Layer"><g id="Layer"><path id="Layer" class="shp4" d="M12.26 21.4L10.3 21.22C9.78 21.18 9.4 20.72 9.45 20.21L9.62 18.25C9.67 17.73 10.12 17.35 10.64 17.4L12.6 17.57C13.12 17.62 13.5 18.07 13.45 18.59L13.28 20.55C13.23 21.06 12.78 21.44 12.26 21.4L12.26 21.4Z" /></g></g><g id="Layer"><path id="Layer" class="shp10" d="M12.26 21.4L10.3 21.22C9.78 21.18 9.4 20.72 9.45 20.21L9.62 18.25C9.67 17.73 10.12 17.35 10.64 17.4L12.6 17.57C13.12 17.62 13.5 18.07 13.45 18.59L13.28 20.55C13.23 21.06 12.78 21.44 12.26 21.4L12.26 21.4Z" /></g><g id="Layer"><g id="Layer"><path id="Layer" class="shp4" d="M14.13 32.64L12.01 32.45C11.49 32.4 11.11 31.95 11.16 31.43L11.35 29.31C11.4 28.79 11.85 28.41 12.36 28.46L14.49 28.65C15 28.69 15.38 29.15 15.34 29.66L15.15 31.79C15.1 32.3 14.65 32.68 14.13 32.64L14.13 32.64Z" /></g></g><g id="Layer"><path id="Layer" class="shp10" d="M14.13 32.64L12.01 32.45C11.49 32.4 11.11 31.95 11.16 31.43L11.35 29.31C11.4 28.79 11.85 28.41 12.36 28.46L14.49 28.65C15 28.69 15.38 29.15 15.34 29.66L15.15 31.79C15.1 32.3 14.65 32.68 14.13 32.64L14.13 32.64Z" /></g><g id="Layer"><path id="Layer" fill-rule="evenodd" class="shp11" d="M22.27 18.65L22.42 17.05C22.45 16.64 22.65 16.27 22.96 16.01C23.28 15.74 23.68 15.62 24.09 15.66L25.68 15.8C26.53 15.87 27.16 16.62 27.08 17.47L26.94 19.06C26.9 19.47 26.71 19.84 26.39 20.11C26.11 20.34 25.77 20.47 25.4 20.47C25.36 20.47 25.31 20.47 25.27 20.46L25.27 20.46L23.67 20.32C22.83 20.24 22.2 19.49 22.27 18.65ZM23.48 18.75C23.47 18.94 23.6 19.09 23.78 19.11L25.37 19.25C25.37 19.25 25.37 19.25 25.37 19.25C25.46 19.26 25.55 19.23 25.61 19.18C25.68 19.12 25.72 19.04 25.73 18.95L25.87 17.36C25.89 17.18 25.75 17.02 25.57 17.01L23.98 16.86C23.97 16.86 23.96 16.86 23.95 16.86C23.87 16.86 23.8 16.89 23.74 16.94C23.67 17 23.63 17.07 23.62 17.16L23.48 18.75Z" /><path id="Layer" fill-rule="evenodd" class="shp11" d="M23.79 29.44C24.64 29.51 25.26 30.26 25.19 31.11L25 33.28C24.92 34.08 24.25 34.68 23.46 34.68C23.42 34.68 23.37 34.68 23.32 34.68L22.87 34.64L23.01 34.93C23.19 35.3 23.21 35.72 23.07 36.11C22.93 36.5 22.64 36.81 22.27 36.98L20.56 37.78C20.35 37.88 20.13 37.93 19.91 37.93C19.33 37.93 18.77 37.6 18.51 37.04L17.71 35.33C17.53 34.96 17.51 34.54 17.65 34.15C17.79 33.77 18.08 33.46 18.45 33.28L19.77 32.66L19.95 30.64C20.03 29.8 20.78 29.17 21.62 29.25L23.79 29.44ZM21.76 35.88C21.84 35.85 21.9 35.78 21.93 35.7C21.96 35.62 21.95 35.53 21.91 35.45L21.11 33.74C21.08 33.66 21.01 33.6 20.93 33.57C20.89 33.55 20.85 33.55 20.81 33.55C20.77 33.55 20.72 33.56 20.68 33.58L18.96 34.38C18.89 34.42 18.83 34.48 18.8 34.57C18.77 34.65 18.77 34.74 18.81 34.82L19.61 36.53C19.69 36.69 19.88 36.76 20.05 36.69L21.76 35.88ZM23.98 31C24 30.82 23.86 30.66 23.68 30.65L21.52 30.45C21.43 30.45 21.34 30.47 21.28 30.53C21.21 30.59 21.17 30.66 21.16 30.75L21.02 32.35C21.13 32.36 21.23 32.39 21.34 32.43C21.73 32.57 22.04 32.85 22.21 33.22L22.28 33.36L23.43 33.47C23.52 33.47 23.6 33.45 23.67 33.39C23.74 33.34 23.78 33.26 23.79 33.17L23.98 31Z" /><path id="Layer" fill-rule="evenodd" class="shp11" d="M18.39 23.69C18.35 23.69 18.3 23.69 18.26 23.68C17.85 23.64 17.47 23.45 17.21 23.13L15.98 21.67C15.72 21.35 15.59 20.95 15.63 20.54C15.67 20.13 15.86 19.76 16.18 19.5L17.64 18.27C17.96 18.01 18.36 17.88 18.77 17.92C19.18 17.96 19.55 18.15 19.81 18.47L21.04 19.93C21.3 20.25 21.43 20.65 21.39 21.06C21.36 21.47 21.16 21.84 20.85 22.1L19.38 23.33C19.1 23.56 18.76 23.69 18.39 23.69ZM18.14 22.36C18.2 22.42 18.28 22.47 18.36 22.47C18.45 22.48 18.54 22.45 18.6 22.4L20.07 21.17C20.14 21.12 20.18 21.04 20.18 20.95C20.19 20.86 20.17 20.78 20.11 20.71L18.88 19.24C18.83 19.18 18.75 19.14 18.66 19.13C18.65 19.13 18.64 19.13 18.63 19.13C18.55 19.13 18.48 19.15 18.42 19.2L16.96 20.43C16.89 20.49 16.85 20.56 16.84 20.65C16.83 20.74 16.86 20.82 16.91 20.89L18.14 22.36Z" /><path id="Layer" fill-rule="evenodd" class="shp11" d="M28.92 0C33.27 0 36.81 3.54 36.81 7.89C36.81 9.89 36.07 11.79 34.71 13.25C33.42 14.65 31.68 15.53 29.8 15.73L28.99 25.41C28.99 25.45 28.99 25.5 28.98 25.54C28.98 25.54 28.98 25.54 28.98 25.55C28.98 25.55 28.98 25.55 28.98 25.55C28.98 25.81 29.01 26.08 29.09 26.33L29.37 27.24C29.6 28.01 29.57 28.85 29.29 29.6L29.11 30.09C28.91 30.61 28.9 31.18 29.07 31.71L29.14 31.92C29.41 32.76 29.37 33.67 29.03 34.49C29.03 34.49 29.02 34.5 29.02 34.5C28.78 35.07 28.77 35.7 28.98 36.29L29.13 36.69C29.29 37.14 29.36 37.6 29.35 38.08L29.35 38.14C29.3 39.73 28.02 40.98 26.43 40.98L8.16 40.98C6.57 40.98 5.29 39.73 5.24 38.14L5.23 37.85C5.22 37.56 5.25 37.26 5.31 36.98L5.52 35.95C5.59 35.58 5.58 35.19 5.48 34.82L5.26 34.02C5.13 33.5 5.1 32.94 5.2 32.41L5.38 31.4C5.44 31.07 5.43 30.73 5.35 30.39L5.06 29.16C4.94 28.68 4.92 28.18 5.01 27.69L5.26 26.19C5.29 26.01 5.3 25.82 5.29 25.63L4.17 8.32C4.17 8.32 4.17 8.31 4.17 8.31C4.14 7.63 4.39 6.99 4.86 6.51C5.32 6.02 5.95 5.75 6.63 5.75L8.9 5.75L8.19 0.72C8.14 0.39 8.38 0.08 8.71 0.03C9.04 -0.01 9.35 0.22 9.39 0.55L10.12 5.75L13.95 5.75C14.24 4.53 15.21 3.57 16.43 3.29C16.89 2.03 18.1 1.13 19.52 1.13C19.78 1.13 20.04 1.16 20.28 1.22C20.32 1.16 20.37 1.1 20.42 1.05C21.01 0.56 21.75 0.3 22.52 0.3C23.37 0.3 24.16 0.61 24.76 1.18C26.01 0.41 27.45 0 28.92 0ZM22.52 1.51C22.16 1.51 21.8 1.61 21.49 1.78C21.97 2.14 22.35 2.63 22.57 3.2C22.92 2.73 23.32 2.3 23.76 1.92C23.41 1.66 22.98 1.51 22.52 1.51ZM21.32 5.75C21.41 5.44 21.52 5.13 21.65 4.82C21.3 4.57 20.87 4.43 20.43 4.43C19.56 4.43 18.8 4.98 18.49 5.75L21.32 5.75ZM17.44 4.42C17.44 4.61 17.47 4.79 17.52 4.97C18.08 3.93 19.18 3.21 20.43 3.21C20.72 3.21 21.01 3.25 21.28 3.33C20.92 2.73 20.26 2.34 19.52 2.34C18.37 2.34 17.44 3.27 17.44 4.42ZM15.22 5.75L16.51 5.75C16.36 5.4 16.26 5.03 16.24 4.64C15.77 4.87 15.41 5.27 15.22 5.75ZM5.73 7.35C5.49 7.6 5.37 7.92 5.38 8.26L5.68 12.95L9.9 12.95L9.07 6.97L6.63 6.97C6.29 6.97 5.97 7.1 5.73 7.35ZM28.16 29.17C28.34 28.67 28.36 28.11 28.21 27.59L27.93 26.68C27.88 26.51 27.84 26.33 27.81 26.15L19.96 26.15C19.63 26.15 19.35 25.88 19.35 25.55C19.35 25.21 19.63 24.94 19.96 24.94L27.81 24.94L28.72 14.17L17.13 14.17C16.8 14.17 16.53 13.89 16.53 13.56C16.53 13.22 16.8 12.95 17.13 12.95L28.82 12.95L29.21 8.25C29.22 7.91 29.1 7.59 28.86 7.35C28.62 7.1 28.3 6.97 27.96 6.97L10.29 6.97L11.13 12.95L14.71 12.95C15.04 12.95 15.31 13.22 15.31 13.56C15.31 13.89 15.04 14.17 14.71 14.17L11.3 14.17L11.68 16.88L12.66 16.97C13.07 17.01 13.44 17.2 13.7 17.51C13.97 17.83 14.09 18.23 14.05 18.64L13.88 20.6C13.81 21.39 13.16 21.98 12.4 22.01L12.81 24.94L17.54 24.94C17.87 24.94 18.14 25.21 18.14 25.55C18.14 25.88 17.87 26.15 17.54 26.15L12.98 26.15L13.22 27.93L14.54 28.04C15.39 28.12 16.02 28.87 15.94 29.72L15.75 31.84C15.68 32.64 15.01 33.25 14.22 33.25C14.17 33.25 14.13 33.24 14.08 33.24L13.97 33.23L14.63 37.96C14.68 38.29 14.44 38.6 14.11 38.65C14.08 38.65 14.06 38.65 14.03 38.65C13.73 38.65 13.47 38.43 13.43 38.13L12.73 33.12L11.95 33.05C11.11 32.97 10.48 32.22 10.56 31.38L10.75 29.25C10.78 28.84 10.98 28.47 11.29 28.21C11.5 28.04 11.74 27.92 11.99 27.88L11.75 26.15L6.49 26.15C6.48 26.23 6.47 26.31 6.45 26.4L6.2 27.9C6.15 28.22 6.16 28.55 6.24 28.88L6.53 30.11C6.65 30.61 6.67 31.12 6.57 31.62L6.39 32.63C6.33 32.98 6.34 33.36 6.44 33.7L6.65 34.51C6.8 35.06 6.82 35.64 6.7 36.2L6.49 37.22C6.45 37.41 6.44 37.61 6.45 37.8L6.46 38.1C6.48 39.04 7.23 39.76 8.16 39.76L26.43 39.76C27.36 39.76 28.11 39.04 28.13 38.1L28.14 38.04C28.15 37.72 28.1 37.4 27.99 37.11L27.84 36.71C27.52 35.83 27.55 34.88 27.91 34.02C27.91 34.02 27.91 34.01 27.91 34.01C28.14 33.47 28.17 32.86 27.98 32.3L27.92 32.09C27.66 31.3 27.68 30.44 27.97 29.66L28.16 29.17ZM10.07 14.17L5.76 14.17L6.46 24.94L11.58 24.94L11.16 21.91L10.24 21.83C9.4 21.75 8.77 21 8.84 20.16L9.02 18.19C9.06 17.78 9.25 17.41 9.57 17.15C9.82 16.94 10.12 16.82 10.44 16.79L10.07 14.17ZM12.31 20.79C12.5 20.81 12.66 20.68 12.67 20.5L12.85 18.53C12.85 18.45 12.83 18.36 12.77 18.29C12.71 18.23 12.64 18.18 12.55 18.18L11.09 18.05C11.09 18.05 11.09 18.05 11.09 18.05L10.58 18C10.5 17.99 10.41 18.02 10.34 18.08C10.28 18.13 10.24 18.21 10.23 18.3L10.05 20.26C10.04 20.44 10.17 20.6 10.35 20.62L12.31 20.79ZM14.19 32.03C14.19 32.03 14.19 32.03 14.19 32.03C14.37 32.05 14.53 31.91 14.54 31.73L14.73 29.61C14.75 29.43 14.62 29.27 14.44 29.25L12.64 29.09C12.64 29.09 12.63 29.09 12.63 29.09L12.31 29.06C12.3 29.06 12.29 29.06 12.28 29.06C12.2 29.06 12.13 29.09 12.07 29.14C12 29.19 11.96 29.27 11.95 29.36L11.76 31.49C11.75 31.67 11.88 31.83 12.06 31.84L14.19 32.03ZM33.82 12.43C34.97 11.19 35.6 9.58 35.6 7.89C35.6 4.21 32.6 1.21 28.92 1.21C27.39 1.21 25.9 1.74 24.71 2.7C23.73 3.5 22.99 4.57 22.59 5.75L24.66 5.75C25.33 4.01 27.02 2.84 28.92 2.84C31.44 2.84 33.49 4.89 33.49 7.41C33.49 9.49 32.12 11.28 30.13 11.82L29.91 14.5C31.4 14.28 32.78 13.55 33.82 12.43ZM30.42 8.31C30.42 8.32 30.42 8.33 30.42 8.34L30.24 10.5C31.46 9.98 32.28 8.78 32.28 7.41C32.28 5.56 30.77 4.05 28.92 4.05C27.69 4.05 26.58 4.72 25.99 5.75L27.96 5.75C28.64 5.75 29.27 6.02 29.73 6.51C30.2 6.99 30.45 7.63 30.42 8.31Z" /></g></g></svg>