<svg id="Capa_1" enable-background="new 0 0 506.712 506.712" height="512" viewBox="0 0 506.712 506.712" width="512" xmlns="http://www.w3.org/2000/svg"><g><g><g><circle cx="241.372" cy="54.606" fill="#a82975" r="33.167"/></g></g><g><g><circle cx="278.455" cy="44.336" fill="#a82975" r="33.167"/></g></g><g><g><circle cx="212.122" cy="80.391" fill="#a82975" r="33.167"/></g></g><g><g><circle cx="252.617" cy="80.391" fill="#a82975" r="33.167"/></g></g><g><g><circle cx="357.611" cy="97.6" fill="#fef056" r="90.1"/></g></g><g><g><path d="m357.611 7.5c-5.111 0-10.121.432-15 1.25 42.62 7.143 75.1 44.201 75.1 88.85s-32.48 81.707-75.1 88.85c4.879.818 9.889 1.25 15 1.25 49.761 0 90.1-40.339 90.1-90.1s-40.339-90.1-90.1-90.1z" fill="#f4d902"/></g></g><g><g><circle cx="357.611" cy="91.6" fill="#fef6ad" r="49.04"/></g></g><g><g><path d="m357.611 42.561c-5.233 0-10.271.828-15 2.346 19.745 6.338 34.04 24.843 34.04 46.694s-14.295 40.355-34.04 46.694c4.729 1.518 9.767 2.346 15 2.346 27.084 0 49.04-21.956 49.04-49.04s-21.957-49.04-49.04-49.04z" fill="#fef056"/></g></g><g><g><path d="m326.788 499.212h-225.85c-15.486 0-28.16-12.322-28.596-27.802l-.133-3.671c-.108-3.004.142-6.01.745-8.955l2.602-12.693c1.181-5.764 1.001-11.724-.527-17.406l-2.68-9.967c-1.453-5.405-1.688-11.065-.688-16.571l2.262-12.456c.94-5.174.79-10.488-.441-15.601l-3.671-15.253c-1.192-4.955-1.371-10.099-.524-15.124l3.127-18.565c.485-2.88.635-5.806.446-8.72l-13.843-213.968c-.47-13 9.942-23.795 22.951-23.795h263.79c13.009 0 23.421 10.795 22.951 23.795l-17.683 211.12c-.4 4.779.112 9.59 1.51 14.177l3.431 11.258c2.433 7.984 2.156 16.548-.788 24.358l-2.273 6.029c-3.036 8.052-3.234 16.899-.561 25.079l.838 2.565c2.837 8.68 2.435 18.094-1.13 26.501l-.019.045c-3.742 8.824-3.992 18.74-.701 27.741l1.803 4.932c1.679 4.59 2.451 9.463 2.275 14.347l-.029.796c-.434 15.482-13.108 27.804-28.594 27.804z" fill="#f7f9f5"/></g></g><g><g><path d="m368.709 102.46c.47-13-9.942-23.795-22.951-23.795h-30c13.009 0 23.421 10.795 22.951 23.795l-17.683 211.12c-.4 4.779.112 9.59 1.51 14.177l3.432 11.258c2.433 7.984 2.156 16.549-.788 24.358l-2.273 6.029c-3.036 8.052-3.234 16.899-.561 25.079l.838 2.565c2.837 8.68 2.435 18.094-1.13 26.501l-.019.045c-3.742 8.824-3.992 18.74-.7 27.741l1.803 4.932c1.679 4.59 2.451 9.463 2.275 14.347l-.029.796c-.436 15.48-13.11 27.802-28.596 27.802h30c15.486 0 28.16-12.322 28.596-27.802l.029-.796c.177-4.885-.596-9.757-2.275-14.347l-1.803-4.932c-3.292-9.002-3.041-18.917.7-27.741l.019-.045c3.565-8.407 3.966-17.821 1.13-26.501l-.838-2.565c-2.673-8.18-2.475-17.027.561-25.079l2.273-6.029c2.944-7.81 3.222-16.374.788-24.358l-3.432-11.258c-1.398-4.587-1.911-9.398-1.51-14.177z" fill="#eceae6"/></g></g><g><g><path d="m363.248 167.664h-300.012l9.625 148.764c.189 2.914.039 5.84-.446 8.72l-3.127 18.565c-.846 5.025-.668 10.17.524 15.124l3.671 15.252c1.231 5.113 1.381 10.427.441 15.601l-2.262 12.456c-1 5.507-.765 11.167.688 16.571l2.68 9.967c1.528 5.682 1.708 11.642.527 17.406l-2.601 12.693c-.604 2.945-.854 5.951-.745 8.955l.133 3.671c.436 15.48 13.11 27.802 28.596 27.802h225.851c15.486 0 28.16-12.322 28.596-27.802l.029-.796c.176-4.885-.596-9.757-2.275-14.347l-1.803-4.932c-3.292-9.002-3.041-18.917.7-27.741l.019-.045c3.565-8.407 3.966-17.821 1.13-26.501l-.838-2.565c-2.673-8.18-2.475-17.027.561-25.079l2.273-6.029c2.945-7.81 3.222-16.374.788-24.358l-3.431-11.258c-1.398-4.587-1.911-9.398-1.511-14.177z" fill="#ed74b7"/></g></g><g><g><path d="m355.18 363.374c2.945-7.81 3.222-16.374.788-24.358l-3.432-11.258c-1.398-4.587-1.911-9.398-1.511-14.177l12.222-145.917h-30l-12.222 145.917c-.4 4.779.113 9.59 1.511 14.177l3.432 11.258c2.433 7.984 2.156 16.549-.788 24.358l-2.273 6.029c-3.036 8.052-3.234 16.899-.561 25.079l.838 2.565c2.837 8.68 2.435 18.094-1.13 26.501l-.019.045c-3.742 8.824-3.992 18.74-.7 27.741l1.803 4.932c1.679 4.59 2.451 9.463 2.275 14.347l-.029.796c-.436 15.48-13.11 27.802-28.596 27.802h30c15.486 0 28.16-12.322 28.596-27.802l.029-.796c.177-4.885-.596-9.757-2.275-14.347l-1.803-4.932c-3.292-9.002-3.041-18.917.7-27.741l.019-.045c3.565-8.407 3.967-17.821 1.13-26.501l-.838-2.565c-2.673-8.18-2.475-17.027.561-25.079z" fill="#e759aa"/></g></g><g><g><path d="m355.18 363.374c2.945-7.81 3.222-16.374.788-24.358l-3.431-11.258c-1.172-3.846-1.713-7.85-1.624-11.86h-278.087l.034.531c.189 2.914.039 5.84-.446 8.72l-3.127 18.565c-.846 5.025-.668 10.17.524 15.124l3.671 15.252c1.231 5.113 1.381 10.427.441 15.601l-2.262 12.456c-1 5.507-.765 11.167.688 16.571l2.68 9.967c1.528 5.682 1.708 11.642.527 17.406l-2.601 12.693c-.604 2.945-.854 5.951-.745 8.955l.133 3.671c.436 15.48 13.11 27.802 28.596 27.802h225.851c15.486 0 28.16-12.322 28.596-27.802l.029-.796c.176-4.885-.596-9.757-2.275-14.347l-1.803-4.932c-3.292-9.002-3.041-18.917.7-27.741l.019-.045c3.565-8.407 3.966-17.821 1.13-26.501l-.838-2.565c-2.673-8.18-2.475-17.027.561-25.079z" fill="#e03d9c"/></g></g><g><g><path d="m351.335 451.335c-3.292-9.002-3.041-18.917.7-27.741l.019-.045c3.565-8.407 3.967-17.821 1.13-26.501l-.838-2.565c-2.673-8.18-2.475-17.027.561-25.079l2.273-6.029c2.945-7.81 3.222-16.374.788-24.358l-3.432-11.258c-1.172-3.846-1.713-7.85-1.624-11.86h-30c-.089 4.01.452 8.014 1.624 11.86l3.432 11.258c2.433 7.984 2.156 16.549-.788 24.358l-2.273 6.029c-3.036 8.052-3.234 16.899-.561 25.079l.838 2.565c2.837 8.68 2.435 18.094-1.13 26.501l-.019.045c-3.742 8.824-3.992 18.74-.7 27.741l1.803 4.932c1.679 4.59 2.451 9.463 2.275 14.347l-.029.796c-.436 15.48-13.11 27.802-28.596 27.802h30c15.486 0 28.16-12.322 28.596-27.802l.029-.796c.177-4.885-.596-9.757-2.275-14.347z" fill="#c53287"/></g></g><g><g><path d="m313.095 245.55-19.7-1.755c-6.36-.567-11.057-6.182-10.491-12.542l1.755-19.7c.566-6.36 6.182-11.057 12.542-10.491l19.7 1.755c6.36.567 11.057 6.182 10.491 12.542l-1.755 19.7c-.566 6.361-6.182 11.058-12.542 10.491z" fill="#f7f9f5"/></g></g><g><path d="m313.095 245.55-19.7-1.755c-6.36-.567-11.057-6.182-10.491-12.542l1.755-19.7c.566-6.36 6.182-11.057 12.542-10.491l19.7 1.755c6.36.567 11.057 6.182 10.491 12.542l-1.755 19.7c-.566 6.361-6.182 11.058-12.542 10.491z" fill="#f6a6d2"/></g><g><g><path d="m289.087 421.32-26.785-2.386c-6.36-.566-11.057-6.182-10.491-12.542l2.386-26.785c.567-6.36 6.182-11.057 12.542-10.491l26.785 2.386c6.36.567 11.057 6.182 10.491 12.542l-2.386 26.785c-.566 6.361-6.181 11.058-12.542 10.491z" fill="#f7f9f5"/></g></g><g><path d="m251.811 406.392 2.386-26.785c.567-6.36 6.182-11.057 12.542-10.491l26.785 2.386c6.36.567 11.057 6.182 10.491 12.542l-2.386 26.785c-.567 6.36-6.182 11.057-12.542 10.491l-14.549-1.296" fill="#f6a6d2"/></g><g><g><path d="m272.217 450.52-21.156 9.915c-5.782 2.71-12.666.219-15.376-5.563l-9.915-21.156c-2.71-5.782-.219-12.666 5.563-15.376l21.156-9.915c5.782-2.71 12.666-.219 15.376 5.563l9.915 21.156c2.71 5.782.219 12.666-5.563 15.376z" fill="#f7f9f5"/></g></g><g><path d="m272.217 450.52-21.156 9.915c-5.782 2.71-12.666.219-15.376-5.563l-9.915-21.156c-2.71-5.782-.219-12.666 5.563-15.376l21.156-9.915c5.782-2.71 12.666-.219 15.376 5.563l9.915 21.156c2.71 5.782.219 12.666-5.563 15.376z" fill="#f6a6d2"/></g><g><g><path d="m252.968 267.568-18.114 15.151c-4.898 4.097-12.19 3.447-16.287-1.451l-15.151-18.114c-4.097-4.898-3.447-12.19 1.451-16.287l18.114-15.151c4.898-4.097 12.19-3.447 16.287 1.451l15.151 18.114c4.096 4.899 3.447 12.191-1.451 16.287z" fill="#f7f9f5"/></g></g><g><path d="m252.968 267.568-18.114 15.151c-4.898 4.097-12.19 3.447-16.287-1.451l-15.151-18.114c-4.097-4.898-3.447-12.19 1.451-16.287l18.114-15.151c4.898-4.097 12.19-3.447 16.287 1.451l15.151 18.114c4.096 4.899 3.447 12.191-1.451 16.287z" fill="#f6a6d2"/></g><g><g><path d="m151.619 264.615-24.283-2.163c-6.36-.567-11.057-6.182-10.491-12.542l2.163-24.283c.567-6.36 6.182-11.057 12.542-10.491l24.283 2.163c6.36.567 11.057 6.182 10.491 12.542l-2.163 24.283c-.566 6.361-6.182 11.057-12.542 10.491z" fill="#f7f9f5"/></g></g><g><path d="m151.619 264.615-24.283-2.163c-6.36-.567-11.057-6.182-10.491-12.542l2.163-24.283c.567-6.36 6.182-11.057 12.542-10.491l24.283 2.163c6.36.567 11.057 6.182 10.491 12.542l-2.163 24.283c-.566 6.361-6.182 11.057-12.542 10.491z" fill="#f6a6d2"/></g><g><g><path d="m174.781 403.562-26.284-2.341c-6.36-.566-11.057-6.182-10.491-12.542l2.341-26.284c.567-6.36 6.182-11.057 12.542-10.491l26.284 2.341c6.36.566 11.057 6.182 10.491 12.542l-2.341 26.284c-.566 6.361-6.182 11.058-12.542 10.491z" fill="#f7f9f5"/></g></g><g><path d="m174.781 403.562-26.284-2.341c-6.36-.566-11.057-6.182-10.491-12.542l2.341-26.284c.567-6.36 6.182-11.057 12.542-10.491l26.284 2.341c6.36.566 11.057 6.182 10.491 12.542l-2.341 26.284c-.566 6.361-6.182 11.058-12.542 10.491z" fill="#f6a6d2"/></g><g><path d="m292.729 251.266 19.701 1.755h-.001c.577.051 1.152.077 1.725.077 4.459 0 8.736-1.547 12.197-4.442 3.905-3.267 6.305-7.859 6.757-12.93l1.755-19.701c.932-10.469-6.827-19.745-17.297-20.678l-19.699-1.755c-5.073-.45-10.017 1.099-13.922 4.365s-6.305 7.859-6.757 12.93l-1.755 19.701c-.932 10.469 6.826 19.745 17.296 20.678zm-.6-39.048c.096-1.081.607-2.059 1.439-2.755.737-.617 1.648-.947 2.599-.947.122 0 .245.005.368.016l19.699 1.755c2.231.199 3.886 2.176 3.687 4.406l-1.755 19.701c-.096 1.081-.607 2.059-1.439 2.755s-1.896 1.025-2.966.93c-.001 0-.001 0-.001 0l-19.7-1.755c-2.231-.199-3.885-2.176-3.686-4.406z"/><path d="m294.189 364.031-26.785-2.386c-10.45-.931-19.745 6.827-20.678 17.296l-2.222 24.943-16.354 7.665c-4.61 2.161-8.104 5.988-9.836 10.776s-1.496 9.964.665 14.574l9.915 21.156c3.238 6.91 10.119 10.971 17.29 10.971 2.705 0 5.453-.579 8.06-1.801l21.156-9.915c4.61-2.161 8.104-5.988 9.836-10.776s1.496-9.964-.665-14.574l-1.719-3.667 5.57.496c.572.051 1.141.076 1.705.076 9.753 0 18.091-7.475 18.973-17.372l2.386-26.785c.932-10.468-6.827-19.744-17.297-20.677zm-46.311 89.613c-2.03.951-4.451.074-5.402-1.954l-9.915-21.156c-.46-.982-.511-2.085-.142-3.106s1.113-1.836 2.096-2.296l21.157-9.916c.548-.257 1.133-.386 1.721-.386.466 0 .933.081 1.384.244 1.021.369 1.836 1.114 2.297 2.096l9.915 21.156c.46.982.511 2.085.142 3.106s-1.113 1.836-2.096 2.296zm46.281-43.48c-.096 1.081-.607 2.059-1.439 2.755-.831.696-1.879 1.027-2.967.93l-14.265-1.271-.831-1.774c-2.161-4.61-5.987-8.104-10.776-9.836-1.301-.471-2.631-.783-3.97-.964l1.758-19.734c.096-1.081.607-2.059 1.439-2.755.831-.696 1.88-1.027 2.967-.93l26.785 2.386c2.23.199 3.885 2.176 3.686 4.406z"/><path d="m227.468 292.915c4.459 0 8.736-1.547 12.196-4.442l18.114-15.152c3.906-3.267 6.306-7.859 6.758-12.931.451-5.072-1.099-10.015-4.365-13.921l-15.151-18.115c-3.267-3.906-7.858-6.305-12.931-6.757-5.075-.452-10.016 1.099-13.921 4.365l-18.114 15.151c-3.906 3.267-6.306 7.859-6.758 12.931-.451 5.072 1.1 10.016 4.366 13.921l15.151 18.115c3.267 3.906 7.858 6.305 12.931 6.757.577.053 1.152.078 1.724.078zm-18.3-34.572c-.696-.832-1.027-1.886-.931-2.966.096-1.081.607-2.059 1.439-2.755l18.114-15.151c.738-.617 1.649-.947 2.6-.947.122 0 .245.006.368.016 1.08.096 2.059.608 2.755 1.44l15.151 18.115c.696.832 1.026 1.886.93 2.966-.096 1.081-.607 2.059-1.439 2.756l-18.115 15.152c-.832.696-1.884 1.027-2.966.93-1.08-.096-2.059-.607-2.755-1.44z"/><path d="m357.611 0c-18.18 0-36.029 5.131-51.375 14.618-7.471-7.026-17.276-10.949-27.781-10.949-9.437 0-18.633 3.306-25.895 9.31-.724.599-1.3 1.309-1.738 2.08-3.035-.725-6.197-1.12-9.451-1.12-17.553 0-32.542 11.18-38.226 26.792-15.05 3.421-27.107 15.338-30.628 30.434h-47.366l-9.011-64.374c-.575-4.103-4.377-6.961-8.468-6.388-4.102.574-6.962 4.365-6.388 8.467l8.72 62.294h-28.036c-8.347 0-16.134 3.308-21.929 9.316-5.794 6.007-8.819 13.909-8.518 22.25.003.071.006.142.011.214l13.844 213.968c.151 2.334.03 4.686-.357 6.99l-3.127 18.565c-1.021 6.055-.81 12.154.628 18.125l3.671 15.252c.992 4.123 1.111 8.331.354 12.505l-2.263 12.456c-1.191 6.556-.905 13.423.824 19.859l2.681 9.968c1.218 4.53 1.364 9.354.422 13.952l-2.602 12.693c-.723 3.529-1.023 7.14-.893 10.73l.13 3.613c.555 19.677 16.409 35.09 36.094 35.09h225.851c19.686 0 35.539-15.414 36.091-35.026l.029-.802c.212-5.882-.706-11.667-2.727-17.192l-1.803-4.933c-2.648-7.242-2.449-15.139.528-22.161.011-.025.042-.096.053-.121 4.272-10.077 4.753-21.356 1.353-31.757l-.838-2.566c-2.135-6.534-1.976-13.673.449-20.104l2.273-6.03c3.51-9.309 3.845-19.676.944-29.191l-3.432-11.258c-.953-3.126-1.385-6.347-1.302-9.595 0-.026.004-.052.004-.078 0-.016-.002-.031-.002-.047.016-.547.043-1.095.089-1.644l10.021-119.635c23.25-2.59 44.722-13.398 60.721-30.678 16.746-18.087 25.969-41.63 25.969-66.294.001-53.815-43.782-97.598-97.598-97.598zm-79.156 18.669c5.655 0 10.987 1.804 15.36 5.087-5.474 4.736-10.395 10.046-14.666 15.822-2.797-7.006-7.479-13.063-13.429-17.525 3.854-2.2 8.25-3.384 12.735-3.384zm-49.781 52.496c3.751-9.622 13.192-16.441 23.942-16.441 5.438 0 10.721 1.741 15.087 4.916-1.589 3.748-2.942 7.596-4.049 11.525zm12.698-42.226c9.212 0 17.303 4.881 21.832 12.19-3.428-.925-6.987-1.404-10.586-1.404-15.388 0-29.077 8.83-35.961 21.782-.617-2.221-.95-4.532-.95-6.901-.001-14.153 11.512-25.667 25.665-25.667zm-40.567 28.432c.319 4.815 1.47 9.46 3.409 13.794h-16.024c2.335-6.017 6.881-10.954 12.615-13.794zm-129.969 33.523c2.941-3.05 6.895-4.729 11.132-4.729h30.137l10.358 73.999h-52.197l-3.757-58.07c-.127-4.199 1.409-8.173 4.327-11.2zm57.165 164.087c-2.23-.199-3.884-2.175-3.685-4.406l2.163-24.283c.096-1.081.607-2.059 1.439-2.755s1.882-1.027 2.967-.93l6.197.552c.024.002.047.004.071.006l18.016 1.605c1.08.096 2.059.608 2.755 1.44s1.026 1.885.93 2.967l-2.162 24.283c-.198 2.231-2.172 3.888-4.407 3.686zm1.11-47.321c-3.955.287-7.715 1.776-10.817 4.371-3.905 3.267-6.305 7.859-6.757 12.93l-2.163 24.283c-.932 10.469 6.826 19.746 17.296 20.678l11.296 1.006 5.245 37.469h-63.354l-8.62-133.233h53.326zm219.052 153.068-2.273 6.029c-3.625 9.614-3.863 20.287-.672 30.054l.838 2.566c2.274 6.959 1.953 14.503-.872 21.167-.011.025-.041.095-.052.121-4.501 10.612-4.799 22.419-.84 33.245l1.803 4.933c1.353 3.697 1.966 7.566 1.824 11.496l-.031.861c-.323 11.502-9.591 20.513-21.099 20.513h-225.851c-11.507 0-20.775-9.01-21.102-20.571l-.132-3.674c-.088-2.401.113-4.815.598-7.176l2.602-12.694c1.408-6.874 1.189-14.087-.632-20.858l-2.68-9.967c-1.158-4.305-1.349-8.899-.553-13.284l2.263-12.456c1.134-6.241.956-12.531-.527-18.696l-3.671-15.252c-.962-3.995-1.103-8.073-.421-12.124l3.127-18.564c.168-.994.292-1.994.393-2.998h65.109l2.982 21.306c-3.156.597-6.127 1.979-8.659 4.097-3.905 3.267-6.305 7.859-6.757 12.93l-2.342 26.284c-.932 10.469 6.827 19.746 17.297 20.678l9.537.849 8.675 61.976c.525 3.75 3.737 6.461 7.418 6.461.347 0 .697-.024 1.05-.073 4.102-.574 6.962-4.365 6.388-8.467l-8.193-58.531 1.407.125c.573.051 1.142.076 1.706.076 9.753 0 18.091-7.474 18.974-17.372l2.341-26.283c.932-10.469-6.827-19.746-17.297-20.678l-16.312-1.453-3.069-21.925h56.379c4.143 0 7.5-3.358 7.5-7.5s-3.357-7.5-7.5-7.5h-58.478l-5.076-36.266c9.482-.312 17.488-7.658 18.351-17.342l2.162-24.282c.452-5.072-1.098-10.016-4.365-13.922s-7.858-6.305-12.931-6.757l-12.088-1.077-4.701-33.588h42.16c4.143 0 7.5-3.358 7.5-7.5s-3.357-7.5-7.5-7.5h-44.26l-10.358-73.999h218.507c4.236 0 8.189 1.679 11.131 4.729 2.904 3.011 4.438 6.96 4.33 11.135l-4.869 58.135h-144.482c-4.143 0-7.5 3.358-7.5 7.5s3.357 7.5 7.5 7.5h143.224l-11.16 133.233h-97.098c-4.143 0-7.5 3.358-7.5 7.5s3.357 7.5 7.5 7.5h97.052c.329 2.206.817 4.392 1.474 6.547l3.432 11.258c1.94 6.364 1.716 13.299-.631 19.525zm-199 33.023c-2.23-.199-3.885-2.176-3.686-4.406l2.342-26.284c.096-1.081.607-2.059 1.439-2.755.737-.617 1.648-.947 2.599-.947.122 0 .245.005.368.016l3.972.354c.024.002.049.004.073.006l22.238 1.981c2.23.199 3.885 2.176 3.686 4.406l-2.341 26.282c-.198 2.232-2.182 3.886-4.406 3.687-.001 0-.001 0-.001 0zm218.522-313.271c-5.794-6.007-13.581-9.315-21.927-9.315h-24.325c7.243-12.788 20.981-21.104 36.178-21.104 22.904 0 41.539 18.635 41.539 41.54 0 16.976-10.067 31.813-25.206 38.223l2.24-26.737c.01-.118.018-.237.021-.356.3-8.342-2.725-16.244-8.52-22.251zm50.55 73.223c-12.864 13.893-29.904 22.841-48.434 25.583l2.777-33.154c24.588-6.703 41.572-28.814 41.572-54.532 0-31.176-25.363-56.54-56.539-56.54-23.472 0-44.378 14.588-52.72 36.104h-25.537c4.979-14.693 14.096-27.884 26.265-37.753 14.638-11.872 33.103-18.411 51.992-18.411 45.546 0 82.6 37.054 82.6 82.6-.001 20.874-7.805 40.798-21.976 56.103z"/></g></g></svg>